<svg width="283" height="148" viewBox="0 0 283 148" fill="none" xmlns="http://www.w3.org/2000/svg">
<path d="M6.92975 114.582V115.984H23.8216V114.582H6.92975ZM14.6435 115.283V119.573H16.3554V115.283H14.6435ZM9.07475 121.574V122.976H21.9448V121.574H9.07475ZM9.07475 117.923V122.11H10.766V117.923H9.07475ZM9.17788 105.321V112.787H21.5941V105.321H19.8823V107.693H10.8691V105.321H9.17788ZM10.8691 109.034H19.8823V111.406H10.8691V109.034ZM35.4938 108.642V110.065H39.9075V108.642H35.4938ZM30.5644 105.692V107.631C30.5644 110.477 28.7494 112.973 25.9444 114.004L26.8313 115.366C29.9663 114.169 31.9669 111.22 31.9669 107.631V105.692H30.5644ZM30.8738 105.692V107.714C30.8738 110.993 32.895 113.819 35.8856 114.953L36.7931 113.612C34.1119 112.664 32.2556 110.271 32.2556 107.714V105.692H30.8738ZM28.8113 116.789V118.171H39.5363V123.389H41.2481V116.789H28.8113ZM39.5363 104.744V115.757H41.2481V104.744H39.5363ZM49.8265 107.404V110.436C49.8265 113.654 47.5784 117.16 44.8765 118.439L45.8665 119.8C48.8365 118.336 51.2084 114.376 51.2084 110.436V107.404H49.8265ZM50.1565 107.404V110.436C50.1565 114.314 52.549 117.944 55.5603 119.346L56.5297 117.985C53.7865 116.809 51.5384 113.592 51.5384 110.436V107.404H50.1565ZM45.4953 106.641V108.085H55.9109V106.641H45.4953ZM58.4272 104.744V123.389H60.139V104.744H58.4272ZM63.7055 114.644C63.7055 113.241 63.9874 111.866 64.5512 110.519C65.1287 109.171 65.823 107.81 66.6343 106.435L68.0368 107.054C67.7755 107.439 67.4937 107.927 67.1912 108.518C66.8887 109.109 66.5999 109.756 66.3249 110.457C66.0499 111.158 65.823 111.873 65.6443 112.602C65.4793 113.331 65.3968 114.032 65.3968 114.706C65.3968 115.792 65.6305 116.961 66.098 118.212C66.5655 119.449 67.198 120.694 67.9955 121.945L66.6549 122.646C66.0774 121.78 65.5618 120.907 65.108 120.027C64.668 119.133 64.3243 118.232 64.0768 117.325C63.8293 116.417 63.7055 115.524 63.7055 114.644ZM77.2604 114.025V116.851H78.9722V114.025H77.2604ZM69.7116 113.014V114.334H86.5416V113.014H69.7116ZM77.281 104.62V106.889H78.9722V104.62H77.281ZM77.1985 107.054V107.342C77.1985 109.343 74.2697 110.642 70.5985 110.869L71.0935 112.189C75.2185 111.839 78.7041 110.271 78.7041 107.342V107.054H77.1985ZM77.5491 107.054V107.342C77.5491 110.271 81.0141 111.839 85.1391 112.189L85.6341 110.869C81.9835 110.642 79.0547 109.343 79.0547 107.342V107.054H77.5491ZM71.4235 106.373V107.672H84.8297V106.373H71.4235ZM71.7329 116.026V117.325H82.7054V118.913H71.7741V122.378H73.4654V120.13H84.3966V116.026H71.7329ZM71.7741 121.883V123.182H84.9535V121.883H71.7741ZM89.4481 105.507V113.654H98.0694V105.507H96.3987V108.188H91.1394V105.507H89.4481ZM91.1394 109.529H96.3987V112.272H91.1394V109.529ZM101.431 104.744V114.355H103.143V104.744H101.431ZM102.401 108.745V110.168H105.886V108.745H102.401ZM91.3044 115.262V116.624H101.472V118.501H91.3456V122.584H93.0369V119.779H103.143V115.262H91.3044ZM91.3456 121.821V123.182H103.824V121.821H91.3456ZM112.588 107.404V110.436C112.588 113.654 110.34 117.16 107.638 118.439L108.628 119.8C111.598 118.336 113.97 114.376 113.97 110.436V107.404H112.588ZM112.918 107.404V110.436C112.918 114.314 115.31 117.944 118.322 119.346L119.291 117.985C116.548 116.809 114.3 113.592 114.3 110.436V107.404H112.918ZM108.257 106.641V108.085H118.672V106.641H108.257ZM121.188 104.744V123.389H122.9V104.744H121.188ZM130.571 114.644C130.571 115.524 130.447 116.417 130.2 117.325C129.952 118.232 129.602 119.133 129.148 120.027C128.708 120.907 128.199 121.78 127.622 122.646L126.281 121.945C127.079 120.694 127.711 119.449 128.179 118.212C128.646 116.961 128.88 115.792 128.88 114.706C128.88 114.032 128.791 113.331 128.612 112.602C128.447 111.873 128.227 111.158 127.952 110.457C127.677 109.756 127.388 109.109 127.086 108.518C126.783 107.927 126.501 107.439 126.24 107.054L127.642 106.435C128.454 107.81 129.141 109.171 129.705 110.519C130.282 111.866 130.571 113.241 130.571 114.644ZM132.473 119.676V121.099H149.365V119.676H132.473ZM140.022 115.675V120.274H141.733V115.675H140.022ZM134.515 106.126V107.507H145.59V110.395H134.577V115.51H136.268V111.777H147.282V106.126H134.515ZM134.577 114.788V116.191H147.715V114.788H134.577ZM151.426 115.778V117.181H168.338V115.778H151.426ZM158.974 116.438V123.389H160.666V116.438H158.974ZM153.55 105.486V113.551H166.172V105.486H164.481V108.044H155.262V105.486H153.55ZM155.262 109.426H164.481V112.169H155.262V109.426ZM184.073 104.723V123.409H185.765V104.723H184.073ZM180.196 111.756V113.179H184.321V111.756H180.196ZM171.265 117.511V118.934H172.688C176.236 118.934 178.505 118.831 181.186 118.356L181.021 116.954C178.401 117.449 176.195 117.511 172.688 117.511H171.265ZM171.265 106.435V118.006H172.956V107.858H179.886V106.435H171.265ZM172.523 111.674V113.056H179.082V111.674H172.523ZM195.393 117.49V118.913H196.858C200.343 118.913 202.777 118.81 205.665 118.315L205.479 116.912C202.674 117.407 200.302 117.49 196.858 117.49H195.393ZM195.393 106.435V117.985H197.105V107.858H204.077V106.435H195.393ZM196.672 111.653V113.035H203.664V111.653H196.672ZM207.212 104.744V123.389H208.944V104.744H207.212ZM208.532 112.231V113.674H211.997V112.231H208.532ZM227.649 104.744V117.16H229.279V104.744H227.649ZM220.101 110.23V111.632H224.432V110.23H220.101ZM223.957 105.136V115.551H225.566V105.136H223.957ZM219.997 106.456V106.951C219.997 110.601 217.852 113.447 213.727 115.242L214.594 116.5C219.296 114.417 221.709 110.952 221.709 106.456H219.997ZM214.511 106.456V107.858H220.657V106.456H214.511ZM222.204 116.087V116.892C222.204 119.367 219.131 121.45 215.852 121.966L216.512 123.306C220.266 122.646 223.669 120.233 223.669 116.892V116.087H222.204ZM222.431 116.087V116.892C222.431 120.233 225.834 122.646 229.588 123.306L230.269 121.966C226.969 121.45 223.896 119.367 223.896 116.892V116.087H222.431ZM237.486 107.404V110.436C237.486 113.654 235.238 117.16 232.536 118.439L233.526 119.8C236.496 118.336 238.868 114.376 238.868 110.436V107.404H237.486ZM237.816 107.404V110.436C237.816 114.314 240.208 117.944 243.22 119.346L244.189 117.985C241.446 116.809 239.198 113.592 239.198 110.436V107.404H237.816ZM233.155 106.641V108.085H243.57V106.641H233.155ZM246.086 104.744V123.389H247.798V104.744H246.086ZM261.471 109.405V110.828H265.617V109.405H261.471ZM265.142 104.744V115.654H266.854V104.744H265.142ZM254.768 116.562V123.141H266.854V116.562H254.768ZM265.184 117.923V121.759H256.439V117.923H265.184ZM256.274 106.517V108.023C256.274 110.663 254.355 113.138 251.571 114.128L252.458 115.489C255.572 114.334 257.676 111.426 257.676 108.023V106.517H256.274ZM256.604 106.517V108.002C256.604 111.137 258.604 113.963 261.636 115.056L262.502 113.695C259.8 112.746 257.985 110.416 257.985 108.002V106.517H256.604ZM252.107 105.94V107.322H262.069V105.94H252.107ZM17.0615 136.519V137.922H33.9121V136.519H17.0615ZM19.289 133.632V135.014H31.9115V133.632H19.289ZM19.289 129.342V134.746H20.9802V130.744H31.7052V129.342H19.289ZM19.0827 139.531V140.871H30.0552V142.645H19.124V146.275H20.8152V143.924H31.7465V139.531H19.0827ZM19.124 145.821V147.182H32.3033V145.821H19.124ZM42.078 130.084C39.1699 130.084 37.0661 131.879 37.0661 134.477C37.0661 137.097 39.1699 138.891 42.078 138.891C44.9861 138.891 47.0692 137.097 47.0692 134.477C47.0692 131.879 44.9861 130.084 42.078 130.084ZM42.078 131.569C43.9961 131.569 45.3986 132.745 45.3986 134.477C45.3986 136.21 43.9961 137.406 42.078 137.406C40.1392 137.406 38.7367 136.21 38.7367 134.477C38.7367 132.745 40.1392 131.569 42.078 131.569ZM49.503 128.723V147.409H51.2148V128.723H49.503ZM36.3649 143.326C39.6855 143.326 44.2436 143.305 48.4305 142.501L48.2861 141.242C44.223 141.882 39.5205 141.902 36.1174 141.902L36.3649 143.326ZM70.1662 133.261V134.663H74.3118V133.261H70.1662ZM73.8374 128.744V138.871H75.5493V128.744H73.8374ZM63.6074 139.778V147.141H75.5493V139.778H73.858V142.047H65.2987V139.778H63.6074ZM65.2987 143.429H73.858V145.739H65.2987V143.429ZM64.9687 130.208V131.734C64.9687 134.374 63.0505 136.849 60.2662 137.819L61.153 139.201C64.2674 138.046 66.3712 135.117 66.3712 131.734V130.208H64.9687ZM65.2987 130.208V131.714C65.2987 134.849 67.2993 137.654 70.3312 138.747L71.1974 137.406C68.4955 136.457 66.6805 134.127 66.6805 131.714V130.208H65.2987ZM60.8024 129.857V131.239H70.7643V129.857H60.8024ZM81.3433 129.837V131.239H93.2439V129.837H81.3433ZM79.1983 137.303V138.726H96.0902V137.303H79.1983ZM92.2333 129.837V131.301C92.2333 132.972 92.2333 134.952 91.6352 137.716L93.3058 137.901C93.9039 135.055 93.9039 133.013 93.9039 131.301V129.837H92.2333ZM81.4052 145.553V146.976H94.4608V145.553H81.4052ZM81.4052 140.789V145.759H83.117V140.789H81.4052ZM102.854 129.796V131.714C102.854 134.56 100.997 137.056 98.1511 138.066L99.0379 139.469C102.235 138.272 104.277 135.323 104.277 131.714V129.796H102.854ZM103.163 129.796V131.652C103.163 135.034 105.164 137.777 108.175 138.912L109.103 137.571C106.38 136.622 104.565 134.292 104.565 131.652V129.796H103.163ZM111.784 128.744V139.778H113.496V128.744H111.784ZM107.37 140.314C103.514 140.314 101.142 141.614 101.142 143.841C101.142 146.069 103.514 147.347 107.37 147.347C111.207 147.347 113.579 146.069 113.579 143.841C113.579 141.614 111.207 140.314 107.37 140.314ZM107.37 141.676C110.175 141.676 111.887 142.48 111.887 143.841C111.887 145.202 110.175 146.007 107.37 146.007C104.565 146.007 102.854 145.202 102.854 143.841C102.854 142.48 104.565 141.676 107.37 141.676ZM107.742 132.683V134.106H112.155V132.683H107.742ZM122.341 138.582V139.984H139.233V138.582H122.341ZM130.055 139.283V143.573H131.767V139.283H130.055ZM124.486 145.574V146.976H137.356V145.574H124.486ZM124.486 141.923V146.11H126.177V141.923H124.486ZM124.589 129.321V136.787H137.005V129.321H135.294V131.693H126.28V129.321H124.589ZM126.28 133.034H135.294V135.406H126.28V133.034ZM150.905 132.642V134.065H155.319V132.642H150.905ZM145.976 129.692V131.631C145.976 134.477 144.161 136.973 141.356 138.004L142.243 139.366C145.378 138.169 147.378 135.22 147.378 131.631V129.692H145.976ZM146.285 129.692V131.714C146.285 134.993 148.306 137.819 151.297 138.953L152.205 137.612C149.523 136.664 147.667 134.271 147.667 131.714V129.692H146.285ZM144.223 140.789V142.171H154.948V147.389H156.66V140.789H144.223ZM154.948 128.744V139.757H156.66V128.744H154.948ZM168.724 129.053C164.599 129.053 162.165 130.208 162.165 132.291C162.165 134.374 164.599 135.529 168.724 135.529C172.828 135.529 175.282 134.374 175.282 132.291C175.282 130.208 172.828 129.053 168.724 129.053ZM168.724 130.352C171.755 130.352 173.509 131.054 173.509 132.291C173.509 133.529 171.755 134.23 168.724 134.23C165.671 134.23 163.918 133.529 163.918 132.291C163.918 131.054 165.671 130.352 168.724 130.352ZM160.288 136.767V138.149H177.139V136.767H160.288ZM162.33 139.737V141.057H173.302V142.707H162.371V146.213H164.062V143.944H174.994V139.737H162.33ZM162.371 145.842V147.182H175.55V145.842H162.371ZM198.668 128.744V147.389H200.318V128.744H198.668ZM191.882 135.426V136.849H195.45V135.426H191.882ZM194.935 129.177V146.44H196.544V129.177H194.935ZM188.294 131.631V134.003C188.294 137.427 186.85 140.83 184.251 142.397L185.303 143.676C188.046 141.944 189.614 138.087 189.614 134.003V131.631H188.294ZM188.644 131.631V134.003C188.644 137.901 190.15 141.572 192.872 143.222L193.924 141.964C191.367 140.479 189.964 137.241 189.964 134.003V131.631H188.644ZM184.767 130.909V132.332H193.285V130.909H184.767ZM211.825 140.5C207.844 140.5 205.328 141.799 205.328 143.944C205.328 146.069 207.844 147.347 211.825 147.347C215.785 147.347 218.322 146.069 218.322 143.944C218.322 141.799 215.785 140.5 211.825 140.5ZM211.825 141.841C214.754 141.841 216.61 142.645 216.61 143.944C216.61 145.223 214.754 146.027 211.825 146.027C208.896 146.027 207.019 145.223 207.019 143.944C207.019 142.645 208.896 141.841 211.825 141.841ZM205.473 129.672V131.074H217.476V129.672H205.473ZM203.472 137.427V138.809H220.302V137.427H203.472ZM210.381 133.838V137.819H212.073V133.838H210.381ZM216.486 129.672V131.26C216.486 132.724 216.486 134.086 215.971 136.004L217.662 136.21C218.157 134.271 218.157 132.766 218.157 131.26V129.672H216.486ZM235.068 128.744V147.389H236.78V128.744H235.068ZM236.367 136.396V137.839H239.832V136.396H236.367ZM222.342 131.714V133.116H233.335V131.714H222.342ZM227.911 134.663C225.292 134.663 223.373 136.437 223.373 138.953C223.373 141.469 225.292 143.243 227.911 143.243C230.551 143.243 232.448 141.469 232.448 138.953C232.448 136.437 230.551 134.663 227.911 134.663ZM227.911 136.086C229.602 136.086 230.819 137.262 230.819 138.953C230.819 140.624 229.602 141.82 227.911 141.82C226.22 141.82 225.003 140.624 225.003 138.953C225.003 137.262 226.22 136.086 227.911 136.086ZM227.024 128.971V132.353H228.736V128.971H227.024ZM243.687 134.333V135.736H256.351V134.333H243.687ZM241.398 138.231V139.634H258.311V138.231H241.398ZM243.687 129.424V135.034H245.379V129.424H243.687ZM243.564 145.532V146.935H256.454V145.532H243.564ZM243.564 141.49V145.904H245.255V141.49H243.564Z" fill="#F5F5F5"/>
<path d="M83.2628 59.5243V63.8883H112.668V59.5243H83.2628ZM95.6623 61.9141V68.4256H101.273V61.9141H95.6623ZM86.4839 70.7808V75.2141H109.447V70.7808H86.4839ZM86.4839 66.2089V72.7204H92.0602V66.2089H86.4839ZM86.9341 44.2154V57.7579H108.997V44.2154H103.455V47.0901H92.4412V44.2154H86.9341ZM92.4412 51.2464H103.455V53.4631H92.4412V51.2464ZM131.68 48.8219V53.3245H137.707V48.8219H131.68ZM122.19 44.8735V47.7482C122.19 51.8352 120.493 56.0954 114.778 57.8964L117.722 62.2605C124.303 60.1131 126.762 54.2597 126.762 47.7482V44.8735H122.19ZM123.368 44.8735V48.0946C123.368 54.2597 125.619 59.7321 131.888 61.8102L134.798 57.4461C129.464 55.7836 127.871 51.9045 127.871 48.0946V44.8735H123.368ZM120.181 63.8883V68.287H136.98V75.699H142.591V63.8883H120.181ZM136.98 43.211V62.6068H142.591V43.211H136.98ZM146.987 47.7136V52.1123H162.226V47.7136H146.987ZM154.676 53.186C150.519 53.186 147.472 56.4417 147.472 61.0829C147.472 65.724 150.519 68.9798 154.676 68.9798C158.867 68.9798 161.88 65.724 161.88 61.0829C161.88 56.4417 158.867 53.186 154.676 53.186ZM154.676 57.7925C156.026 57.7925 156.962 58.8662 156.962 61.0829C156.962 63.3342 156.026 64.3732 154.676 64.3732C153.325 64.3732 152.39 63.3342 152.39 61.0829C152.39 58.8662 153.325 57.7925 154.676 57.7925ZM169.846 43.1763V75.6644H175.145V43.1763H169.846ZM166.66 56.13V60.598H171.578V56.13H166.66ZM163.092 43.6959V74.4175H168.287V43.6959H163.092ZM151.939 44.0076V50.5191H157.447V44.0076H151.939ZM186.434 47.1248V48.8566C186.434 50.9693 184.633 53.2206 179.091 53.9133L181.204 58.1042C188.165 57.0998 190.971 53.3592 190.971 48.8566V47.1248H186.434ZM187.681 47.1248V48.8566C187.681 53.186 190.313 56.892 196.894 57.8618L199.076 53.6362C193.915 52.9782 192.149 50.8654 192.149 48.8566V47.1248H187.681ZM180.546 45.012V49.3761H197.863V45.012H180.546ZM186.191 61.6024V74.7292H191.802V61.6024H186.191ZM201.258 43.1763V75.6644H206.869V43.1763H201.258ZM179.403 64.1308C185.118 64.1308 192.633 64.0269 199.664 62.6415L199.387 58.6237C192.495 59.5935 184.529 59.6628 178.779 59.6628L179.403 64.1308ZM195.231 65.0313V69.1876H202.262V65.0313H195.231Z" fill="white"/>
<path d="M225.071 47.8175H232.621L240.449 72.4087H233.591L232.102 67.5943H225.555L224.101 72.4087H217.208L225.071 47.8175ZM231.028 63.0917L228.846 54.4329L226.56 63.0917H231.028ZM242.492 72.4087V47.8175H253.09C254.291 47.8175 255.399 48.0599 256.415 48.5448C257.431 49.0297 258.309 49.6878 259.048 50.5191C259.787 51.3272 260.352 52.2393 260.745 53.2553C261.16 54.2712 261.368 55.2987 261.368 56.3378C261.368 57.7925 261.022 59.1664 260.329 60.4594C259.66 61.7525 258.713 62.8146 257.489 63.6459C256.288 64.4541 254.88 64.8581 253.264 64.8581H249.246V72.4087H242.492ZM249.246 58.9701H252.813C253.09 58.9701 253.356 58.8893 253.61 58.7277C253.864 58.566 254.072 58.2889 254.233 57.8964C254.418 57.5039 254.51 56.9843 254.51 56.3378C254.51 55.6451 254.407 55.114 254.199 54.7446C254.014 54.352 253.772 54.0865 253.471 53.948C253.194 53.7863 252.917 53.7055 252.64 53.7055H249.246V58.9701ZM264.071 72.4087V47.8175H270.825V72.4087H264.071Z" fill="#979797"/>
<path d="M56.6162 75.0669H6.77266C3.84165 75.0669 1.46559 72.6908 1.46559 69.7598V6.34706C1.46559 3.41605 3.84165 1.04 6.77265 1.03999L46.4737 1.03997L61.9233 16.4869V69.7598C61.9233 72.6908 59.5472 75.0669 56.6162 75.0669Z" fill="#D9D9D9" stroke="#565656" stroke-width="1.87308"/>
<path d="M47.7639 9.89221V2.36447L60.5987 15.1993H53.071C50.14 15.1993 47.7639 12.8232 47.7639 9.89221Z" fill="#8E8E8E" stroke="#5B5B5B" stroke-width="1.87308"/>
<rect x="9.99048" y="23.1866" width="11.4456" height="4.29213" fill="#9E9E9E"/>
<rect x="41.9529" y="23.1866" width="11.4456" height="4.29213" fill="#9E9E9E"/>
<rect x="23.011" y="23.1866" width="17.3894" height="4.29213" fill="#9E9E9E"/>
<rect x="9.99048" y="30.2242" width="11.4456" height="4.29213" fill="#9E9E9E"/>
<rect x="41.9529" y="30.2242" width="11.4456" height="4.29213" fill="#9E9E9E"/>
<rect x="23.011" y="30.2242" width="17.3894" height="4.29213" fill="#9E9E9E"/>
<rect x="9.99048" y="37.2618" width="11.4456" height="4.29213" fill="#9E9E9E"/>
<rect x="41.9529" y="37.2618" width="11.4456" height="4.29213" fill="#9E9E9E"/>
<rect x="23.011" y="37.2618" width="17.3894" height="4.29213" fill="#9E9E9E"/>
<path d="M95.671 10.037H90.3032V23.9342H87.733V10.037H82.3424V7.78522H95.671V10.037ZM97.5182 23.9342V12.0386H100.02V23.9342H97.5182ZM97.5182 10.0825V7.33032H100.02V10.0825H97.5182ZM121.223 23.9342H118.721V17.2699C118.721 16.163 118.539 15.3518 118.175 14.8362C117.811 14.3206 117.28 14.0629 116.583 14.0629C115.885 14.0629 115.233 14.3282 114.627 14.8589C114.035 15.3745 113.618 16.0493 113.376 16.8833V23.9342H110.874V17.2699C110.874 16.163 110.692 15.3518 110.328 14.8362C109.964 14.3206 109.441 14.0629 108.759 14.0629C108.061 14.0629 107.409 14.3206 106.802 14.8362C106.211 15.3518 105.786 16.0265 105.529 16.8605V23.9342H103.027V12.0386H105.301V14.4268C105.771 13.5928 106.385 12.9559 107.144 12.5162C107.917 12.0613 108.796 11.8338 109.782 11.8338C110.768 11.8338 111.541 12.0916 112.102 12.6072C112.678 13.1227 113.035 13.7672 113.171 14.5405C113.687 13.661 114.316 12.9938 115.059 12.5389C115.817 12.0689 116.681 11.8338 117.652 11.8338C118.349 11.8338 118.933 11.9627 119.403 12.2205C119.873 12.4783 120.237 12.8346 120.495 13.2895C120.753 13.7293 120.935 14.2448 121.041 14.8362C121.162 15.4124 121.223 16.0265 121.223 16.6785V23.9342ZM129.497 24.1617C128.572 24.1617 127.73 24.0025 126.972 23.684C126.229 23.3504 125.584 22.9031 125.038 22.3421C124.493 21.7659 124.068 21.1138 123.765 20.386C123.477 19.643 123.333 18.8545 123.333 18.0205C123.333 16.8984 123.59 15.8749 124.106 14.9499C124.621 14.0098 125.342 13.2592 126.267 12.6982C127.192 12.1219 128.276 11.8338 129.519 11.8338C130.763 11.8338 131.832 12.1219 132.726 12.6982C133.636 13.2592 134.341 14.0022 134.842 14.9272C135.342 15.8521 135.592 16.8453 135.592 17.9068C135.592 18.0887 135.585 18.2631 135.569 18.4299C135.554 18.5816 135.539 18.7104 135.524 18.8166H125.994C126.039 19.5141 126.229 20.1282 126.562 20.6589C126.911 21.1745 127.351 21.5839 127.882 21.8872C128.412 22.1753 128.981 22.3193 129.588 22.3193C130.255 22.3193 130.884 22.1525 131.475 21.8189C132.082 21.4853 132.491 21.0456 132.704 20.4997L134.842 21.1138C134.584 21.6901 134.19 22.2132 133.659 22.6833C133.143 23.1382 132.529 23.5021 131.817 23.775C131.104 24.0328 130.331 24.1617 129.497 24.1617ZM125.926 17.1562H133.113C133.068 16.4738 132.87 15.8749 132.522 15.3593C132.188 14.8286 131.756 14.4192 131.225 14.1311C130.71 13.8278 130.133 13.6762 129.497 13.6762C128.875 13.6762 128.299 13.8278 127.768 14.1311C127.252 14.4192 126.828 14.8286 126.494 15.3593C126.161 15.8749 125.971 16.4738 125.926 17.1562ZM155.829 23.9342H153.327V17.2699C153.327 16.163 153.145 15.3518 152.781 14.8362C152.417 14.3206 151.887 14.0629 151.189 14.0629C150.492 14.0629 149.84 14.3282 149.233 14.8589C148.642 15.3745 148.225 16.0493 147.982 16.8833V23.9342H145.48V17.2699C145.48 16.163 145.298 15.3518 144.934 14.8362C144.57 14.3206 144.047 14.0629 143.365 14.0629C142.667 14.0629 142.015 14.3206 141.409 14.8362C140.817 15.3518 140.393 16.0265 140.135 16.8605V23.9342H137.633V12.0386H139.908V14.4268C140.378 13.5928 140.992 12.9559 141.75 12.5162C142.523 12.0613 143.403 11.8338 144.388 11.8338C145.374 11.8338 146.147 12.0916 146.708 12.6072C147.285 13.1227 147.641 13.7672 147.777 14.5405C148.293 13.661 148.922 12.9938 149.665 12.5389C150.423 12.0689 151.288 11.8338 152.258 11.8338C152.956 11.8338 153.539 11.9627 154.01 12.2205C154.48 12.4783 154.844 12.8346 155.101 13.2895C155.359 13.7293 155.541 14.2448 155.647 14.8362C155.768 15.4124 155.829 16.0265 155.829 16.6785V23.9342ZM157.848 20.4542C157.848 19.6961 158.06 19.0365 158.485 18.4754C158.925 17.8992 159.523 17.4595 160.282 17.1562C161.04 16.8378 161.919 16.6785 162.92 16.6785C163.451 16.6785 163.989 16.7165 164.535 16.7923C165.096 16.8681 165.589 16.9894 166.013 17.1562V16.4056C166.013 15.5716 165.763 14.9196 165.263 14.4495C164.762 13.9795 164.042 13.7444 163.102 13.7444C162.435 13.7444 161.806 13.8657 161.214 14.1084C160.623 14.3358 159.994 14.6618 159.326 15.0864L158.485 13.4033C159.273 12.8725 160.062 12.4783 160.85 12.2205C161.654 11.9627 162.496 11.8338 163.375 11.8338C164.967 11.8338 166.218 12.2584 167.128 13.1076C168.053 13.9416 168.515 15.1319 168.515 16.6785V21.1138C168.515 21.4019 168.561 21.6067 168.652 21.728C168.758 21.8493 168.932 21.9175 169.175 21.9327V23.9342C168.948 23.9797 168.743 24.0101 168.561 24.0252C168.379 24.0404 168.227 24.048 168.106 24.048C167.575 24.048 167.173 23.9191 166.9 23.6613C166.628 23.4035 166.468 23.1002 166.423 22.7515L166.355 22.0691C165.839 22.7363 165.179 23.2519 164.376 23.6158C163.572 23.9797 162.761 24.1617 161.942 24.1617C161.154 24.1617 160.448 24.0025 159.827 23.684C159.205 23.3504 158.72 22.9031 158.371 22.3421C158.022 21.781 157.848 21.1518 157.848 20.4542ZM165.422 21.1821C165.604 20.985 165.748 20.7878 165.854 20.5907C165.96 20.3936 166.013 20.2192 166.013 20.0676V18.7029C165.589 18.5361 165.142 18.4148 164.671 18.3389C164.201 18.248 163.739 18.2025 163.284 18.2025C162.374 18.2025 161.631 18.3844 161.055 18.7484C160.494 19.1123 160.213 19.6127 160.213 20.2495C160.213 20.5983 160.304 20.9319 160.486 21.2503C160.683 21.5687 160.956 21.8265 161.305 22.0236C161.669 22.2208 162.116 22.3193 162.647 22.3193C163.193 22.3193 163.716 22.2132 164.217 22.0009C164.717 21.7886 165.119 21.5157 165.422 21.1821ZM178.306 24.1617C177.351 24.1617 176.509 23.9342 175.781 23.4793C175.054 23.0244 174.477 22.4331 174.053 21.7052V28.7789H171.551V12.0386H173.757V14.1766C174.212 13.4639 174.803 12.8953 175.531 12.4707C176.259 12.0461 177.07 11.8338 177.965 11.8338C178.784 11.8338 179.534 12.0006 180.217 12.3342C180.899 12.6527 181.49 13.1 181.991 13.6762C182.491 14.2524 182.878 14.912 183.151 15.655C183.439 16.3829 183.583 17.1562 183.583 17.975C183.583 19.1123 183.355 20.151 182.901 21.0911C182.461 22.0312 181.839 22.7818 181.035 23.3429C180.247 23.8887 179.337 24.1617 178.306 24.1617ZM177.487 22.0236C178.018 22.0236 178.496 21.9099 178.92 21.6825C179.36 21.455 179.731 21.1518 180.035 20.7727C180.353 20.3936 180.596 19.9614 180.763 19.4762C180.929 18.991 181.013 18.4906 181.013 17.975C181.013 17.4291 180.922 16.9136 180.74 16.4284C180.558 15.9431 180.292 15.5185 179.944 15.1546C179.61 14.7907 179.216 14.5026 178.761 14.2903C178.321 14.078 177.836 13.9719 177.305 13.9719C176.987 13.9719 176.653 14.0325 176.305 14.1538C175.956 14.2752 175.63 14.4419 175.326 14.6542C175.023 14.8665 174.758 15.1167 174.53 15.4048C174.303 15.6929 174.144 15.9962 174.053 16.3146V19.4307C174.265 19.9159 174.546 20.3557 174.894 20.7499C175.243 21.129 175.645 21.4399 176.1 21.6825C176.555 21.9099 177.017 22.0236 177.487 22.0236ZM190.064 24.1617C189.063 24.1617 188.115 24.0025 187.221 23.684C186.326 23.3504 185.56 22.8576 184.923 22.2056L185.856 20.5225C186.538 21.129 187.221 21.5687 187.903 21.8417C188.6 22.1146 189.29 22.2511 189.973 22.2511C190.67 22.2511 191.239 22.1222 191.679 21.8644C192.118 21.5915 192.338 21.1972 192.338 20.6817C192.338 20.3026 192.224 20.0221 191.997 19.8401C191.77 19.6582 191.436 19.4989 190.996 19.3625C190.572 19.226 190.056 19.0744 189.45 18.9076C188.6 18.6498 187.888 18.3844 187.312 18.1115C186.735 17.8234 186.303 17.4746 186.015 17.0652C185.727 16.6558 185.583 16.1327 185.583 15.4958C185.583 14.7225 185.78 14.0629 186.174 13.517C186.569 12.9711 187.114 12.5541 187.812 12.266C188.525 11.9779 189.343 11.8338 190.268 11.8338C191.133 11.8338 191.929 11.9703 192.657 12.2433C193.4 12.501 194.052 12.9104 194.613 13.4715L193.544 15.1319C193.013 14.6467 192.467 14.2903 191.906 14.0629C191.36 13.8354 190.769 13.7217 190.132 13.7217C189.768 13.7217 189.419 13.7672 189.086 13.8582C188.752 13.934 188.472 14.0856 188.244 14.3131C188.032 14.5253 187.926 14.8286 187.926 15.2229C187.926 15.5413 188.017 15.7991 188.199 15.9962C188.381 16.1933 188.654 16.3601 189.017 16.4966C189.381 16.6331 189.829 16.7847 190.359 16.9515C191.284 17.2244 192.073 17.4974 192.725 17.7703C193.377 18.0281 193.877 18.3693 194.226 18.7938C194.59 19.2033 194.772 19.7719 194.772 20.4997C194.772 21.6521 194.34 22.5544 193.475 23.2064C192.626 23.8433 191.489 24.1617 190.064 24.1617Z" fill="#C50000"/>
<path d="M204.177 7.83936H201.299V15.2088H200.503V7.83936H197.626V7.13426H204.177V7.83936ZM212.539 15.2088V8.63544L209.617 13.7417H209.116L206.182 8.63544V15.2088H205.386V7.13426H206.205L209.355 12.6613L212.528 7.13426H213.335V15.2088H212.539Z" fill="#C50000"/>
</svg>
