<svg width="275" height="149" viewBox="0 0 275 149" fill="none" xmlns="http://www.w3.org/2000/svg">
<path d="M5.40977 106.946V110.287C5.40977 113.814 3.16165 117.382 0.397898 118.702L1.44977 120.104C4.50227 118.558 6.81227 114.577 6.81227 110.287V106.946H5.40977ZM5.69852 106.946V110.287C5.69852 114.433 8.02915 118.269 11.061 119.754L12.0923 118.393C9.32853 117.114 7.10102 113.69 7.10102 110.287V106.946H5.69852ZM14.031 105.316V124.003H15.7429V105.316H14.031ZM32.2207 105.337V118.97H33.9325V105.337H32.2207ZM33.3963 110.988V112.411H36.6963V110.988H33.3963ZM27.1263 106.781V107.523C27.1263 111.112 24.1769 113.999 19.4744 115.443L20.2169 116.846C25.5588 115.134 28.9413 111.607 28.9413 106.781H27.1263ZM20.2375 106.781V108.183H27.9925V106.781H20.2375ZM22.3 122.167V123.569H34.7575V122.167H22.3ZM22.3 117.588V122.724H24.0119V117.588H22.3ZM48.3891 109.854V111.256H52.5347V109.854H48.3891ZM52.0603 105.337V115.464H53.7722V105.337H52.0603ZM41.8303 116.371V123.734H53.7722V116.371H52.0809V118.64H43.5216V116.371H41.8303ZM43.5216 120.022H52.0809V122.332H43.5216V120.022ZM43.1916 106.801V108.328C43.1916 110.968 41.2734 113.443 38.4891 114.412L39.3759 115.794C42.4903 114.639 44.5941 111.71 44.5941 108.328V106.801H43.1916ZM43.5216 106.801V108.307C43.5216 111.442 45.5222 114.247 48.5541 115.34L49.4203 113.999C46.7184 113.051 44.9034 110.72 44.9034 108.307V106.801H43.5216ZM39.0253 106.451V107.833H48.9872V106.451H39.0253ZM59.5662 106.43V107.833H71.4668V106.43H59.5662ZM57.4212 113.896V115.319H74.3131V113.896H57.4212ZM70.4562 106.43V107.894C70.4562 109.565 70.4562 111.545 69.8581 114.309L71.5287 114.494C72.1268 111.648 72.1268 109.606 72.1268 107.894V106.43H70.4562ZM59.6281 122.146V123.569H72.6837V122.146H59.6281ZM59.6281 117.382V122.353H61.34V117.382H59.6281ZM81.0765 106.389V108.307C81.0765 111.153 79.2202 113.649 76.374 114.659L77.2609 116.062C80.4577 114.866 82.4996 111.916 82.4996 108.307V106.389H81.0765ZM81.3859 106.389V108.245C81.3859 111.628 83.3865 114.371 86.3977 115.505L87.3259 114.164C84.6034 113.216 82.7884 110.885 82.7884 108.245V106.389H81.3859ZM90.0071 105.337V116.371H91.719V105.337H90.0071ZM85.5934 116.908C81.7365 116.908 79.3646 118.207 79.3646 120.434C79.3646 122.662 81.7365 123.941 85.5934 123.941C89.4296 123.941 91.8015 122.662 91.8015 120.434C91.8015 118.207 89.4296 116.908 85.5934 116.908ZM85.5934 118.269C88.3984 118.269 90.1102 119.073 90.1102 120.434C90.1102 121.796 88.3984 122.6 85.5934 122.6C82.7884 122.6 81.0765 121.796 81.0765 120.434C81.0765 119.073 82.7884 118.269 85.5934 118.269ZM85.9646 109.276V110.699H90.3784V109.276H85.9646ZM100.297 107.998V111.029C100.297 114.247 98.0492 117.753 95.3474 119.032L96.3374 120.393C99.3074 118.929 101.679 114.969 101.679 111.029V107.998H100.297ZM100.627 107.998V111.029C100.627 114.907 103.02 118.537 106.031 119.939L107.001 118.578C104.257 117.403 102.009 114.185 102.009 111.029V107.998H100.627ZM95.9661 107.234V108.678H106.382V107.234H95.9661ZM108.898 105.337V123.982H110.61V105.337H108.898ZM116.466 114.041V115.443H129.274V114.041H116.466ZM114.341 120.208V121.651H131.233V120.208H114.341ZM121.89 114.639V120.785H123.602V114.639H121.89ZM116.466 106.822V114.659H118.178V108.224H129.088V106.822H116.466ZM133.294 113.999V115.299H150.207V113.999H133.294ZM135.295 116.804V118.021H146.412V119.609H135.357V122.971H137.048V120.785H148.082V116.804H135.295ZM135.357 122.518V123.755H148.68V122.518H135.357ZM135.439 105.873V107.09H146.35V108.596H135.48V111.772H137.172V109.751H148.02V105.873H135.439ZM135.48 111.359V112.597H148.371V111.359H135.48ZM162.414 106.946V110.287C162.414 113.814 160.165 117.382 157.402 118.702L158.454 120.104C161.506 118.558 163.816 114.577 163.816 110.287V106.946H162.414ZM162.702 106.946V110.287C162.702 114.433 165.033 118.269 168.065 119.754L169.096 118.393C166.332 117.114 164.105 113.69 164.105 110.287V106.946H162.702ZM171.035 105.316V124.003H172.747V105.316H171.035ZM189.224 105.337V116.268H190.936V105.337H189.224ZM190.462 110.039V111.483H193.7V110.039H190.462ZM184.068 106.533V107.276C184.068 110.72 181.263 113.422 176.437 114.742L177.138 116.083C182.583 114.598 185.863 111.236 185.863 106.533H184.068ZM177.262 106.533V107.915H185.017V106.533H177.262ZM178.829 117.134V118.516H189.224V123.982H190.936V117.134H178.829ZM200.278 116.454V119.486H201.99V116.454H200.278ZM208.115 105.337V123.982H209.827V105.337H208.115ZM209.27 113.257V114.701H212.715V113.257H209.27ZM195.472 120.434C198.731 120.434 203.104 120.414 207.125 119.692L206.981 118.413C203.124 118.97 198.566 119.011 195.225 119.011L195.472 120.434ZM195.534 107.585V108.967H206.692V107.585H195.534ZM201.124 110.06C198.525 110.06 196.751 111.421 196.751 113.504C196.751 115.608 198.525 116.949 201.124 116.949C203.722 116.949 205.517 115.608 205.517 113.504C205.517 111.421 203.722 110.06 201.124 110.06ZM201.124 111.38C202.794 111.38 203.908 112.226 203.908 113.504C203.908 114.783 202.794 115.629 201.124 115.629C199.453 115.629 198.36 114.783 198.36 113.504C198.36 112.226 199.453 111.38 201.124 111.38ZM200.278 105.358V108.513H201.99V105.358H200.278ZM214.384 108.513V109.916H223.624V108.513H214.384ZM219.004 111.153C216.694 111.153 215.003 112.906 215.003 115.423C215.003 117.918 216.694 119.671 219.004 119.671C221.334 119.671 223.026 117.918 223.026 115.423C223.026 112.906 221.334 111.153 219.004 111.153ZM219.004 112.618C220.448 112.618 221.499 113.773 221.499 115.423C221.499 117.073 220.448 118.228 219.004 118.228C217.581 118.228 216.549 117.073 216.549 115.423C216.549 113.773 217.581 112.618 219.004 112.618ZM228.553 105.337V123.982H230.203V105.337H228.553ZM225.583 113.174V114.598H229.11V113.174H225.583ZM224.573 105.749V123.074H226.181V105.749H224.573ZM218.179 105.873V109.379H219.87V105.873H218.179ZM243.565 107.255V108.74C243.565 111.38 241.668 113.814 238.863 114.804L239.749 116.144C242.884 115.031 244.988 112.164 244.988 108.74V107.255H243.565ZM243.895 107.255V108.74C243.895 111.999 246.04 114.742 249.134 115.794L250.021 114.453C247.257 113.525 245.318 111.256 245.318 108.74V107.255H243.895ZM252.166 105.337V116.619H253.898V105.337H252.166ZM241.441 117.609V119.011H252.166V123.982H253.898V117.609H241.441ZM239.316 106.636V108.018H249.526V106.636H239.316ZM258.579 106.781V108.183H266.829V106.781H258.579ZM261.384 110.947V115.608H263.075V110.947H261.384ZM266.148 106.781V107.771C266.148 108.967 266.148 110.658 265.674 113.113L267.344 113.298C267.839 110.844 267.839 108.988 267.839 107.771V106.781H266.148ZM270.376 105.337V119.383H272.088V105.337H270.376ZM271.304 111.401V112.824H274.749V111.401H271.304ZM260.311 122.167V123.569H272.686V122.167H260.311ZM260.311 118.083V122.6H262.002V118.083H260.311ZM257.63 116.413C260.909 116.413 265.364 116.33 269.242 115.649L269.118 114.412C265.344 114.928 260.765 115.01 257.444 115.01L257.63 116.413ZM33.7049 131.234V132.74C33.7049 135.38 31.7867 137.855 29.0024 138.845L29.8892 140.206C33.0036 139.051 35.1074 136.143 35.1074 132.74V131.234H33.7049ZM34.0349 131.234V132.74C34.0349 135.854 36.0355 138.659 39.0674 139.773L39.9336 138.412C37.2317 137.463 35.4167 135.133 35.4167 132.74V131.234H34.0349ZM38.923 134.184V135.607H43.0686V134.184H38.923ZM29.5386 130.616V131.998H39.5005V130.616H29.5386ZM31.8486 141.506V142.908H42.5736V147.982H44.2855V141.506H31.8486ZM42.5736 129.337V140.495H44.2855V129.337H42.5736ZM61.4851 129.358V142.97H63.2176V129.358H61.4851ZM51.2345 146.167V147.569H63.7745V146.167H51.2345ZM51.2345 141.568V146.641H52.9258V141.568H51.2345ZM53.2145 130.636C50.4301 130.636 48.347 132.534 48.347 135.236C48.347 137.917 50.4301 139.835 53.2145 139.835C55.9989 139.835 58.0614 137.917 58.0614 135.236C58.0614 132.534 55.9989 130.636 53.2145 130.636ZM53.2145 132.121C55.0295 132.121 56.4114 133.4 56.4114 135.236C56.4114 137.051 55.0295 138.329 53.2145 138.329C51.3995 138.329 50.0176 137.051 50.0176 135.236C50.0176 133.4 51.3995 132.121 53.2145 132.121ZM85.6752 129.358V142.97H87.4077V129.358H85.6752ZM75.4246 146.167V147.569H87.9646V146.167H75.4246ZM75.4246 141.568V146.641H77.1158V141.568H75.4246ZM77.4046 130.636C74.6202 130.636 72.5371 132.534 72.5371 135.236C72.5371 137.917 74.6202 139.835 77.4046 139.835C80.189 139.835 82.2515 137.917 82.2515 135.236C82.2515 132.534 80.189 130.636 77.4046 130.636ZM77.4046 132.121C79.2196 132.121 80.6015 133.4 80.6015 135.236C80.6015 137.051 79.2196 138.329 77.4046 138.329C75.5896 138.329 74.2077 137.051 74.2077 135.236C74.2077 133.4 75.5896 132.121 77.4046 132.121ZM95.6561 130.946V134.287C95.6561 137.69 93.5317 141.279 90.8299 142.64L91.8817 144.001C94.8311 142.434 97.0586 138.412 97.0586 134.287V130.946H95.6561ZM95.9655 130.946V134.287C95.9655 138.288 98.1311 142.104 101.019 143.651L102.07 142.289C99.4305 140.969 97.3474 137.566 97.3474 134.287V130.946H95.9655ZM103.7 129.337V147.982H105.432V129.337H103.7ZM105.02 136.886V138.329H108.485V136.886H105.02ZM123.601 129.316V148.003H125.313V129.316H123.601ZM115.475 130.76C112.732 130.76 110.752 133.297 110.752 137.257C110.752 141.238 112.732 143.774 115.475 143.774C118.239 143.774 120.219 141.238 120.219 137.257C120.219 133.297 118.239 130.76 115.475 130.76ZM115.475 132.307C117.311 132.307 118.569 134.246 118.569 137.257C118.569 140.289 117.311 142.269 115.475 142.269C113.66 142.269 112.381 140.289 112.381 137.257C112.381 134.246 113.66 132.307 115.475 132.307ZM131.21 139.381V140.763H144.019V139.381H131.21ZM129.045 144.166V145.589H145.937V144.166H129.045ZM131.21 130.925V139.814H132.943V132.328H143.812V130.925H131.21ZM132.386 135.091V136.453H143.42V135.091H132.386ZM147.998 137.999V139.299H164.91V137.999H147.998ZM149.998 140.804V142.021H161.115V143.609H150.06V146.971H151.751V144.785H162.786V140.804H149.998ZM150.06 146.518V147.755H163.384V146.518H150.06ZM150.143 129.873V131.09H161.053V132.596H150.184V135.772H151.875V133.751H162.724V129.873H150.143ZM150.184 135.359V136.597H163.074V135.359H150.184ZM186.378 129.337V147.982H188.028V129.337H186.378ZM179.592 136.019V137.443H183.16V136.019H179.592ZM182.644 129.77V147.033H184.253V129.77H182.644ZM176.003 132.224V134.596C176.003 138.02 174.559 141.423 171.961 142.991L173.013 144.269C175.756 142.537 177.323 138.68 177.323 134.596V132.224H176.003ZM176.354 132.224V134.596C176.354 138.494 177.859 142.166 180.582 143.816L181.634 142.558C179.076 141.073 177.674 137.834 177.674 134.596V132.224H176.354ZM172.476 131.503V132.926H180.994V131.503H172.476ZM199.535 141.093C195.554 141.093 193.038 142.393 193.038 144.538C193.038 146.662 195.554 147.941 199.535 147.941C203.495 147.941 206.032 146.662 206.032 144.538C206.032 142.393 203.495 141.093 199.535 141.093ZM199.535 142.434C202.464 142.434 204.32 143.238 204.32 144.538C204.32 145.816 202.464 146.621 199.535 146.621C196.606 146.621 194.729 145.816 194.729 144.538C194.729 143.238 196.606 142.434 199.535 142.434ZM193.182 130.265V131.668H205.186V130.265H193.182ZM191.182 138.02V139.402H208.012V138.02H191.182ZM198.091 134.431V138.412H199.782V134.431H198.091ZM204.196 130.265V131.853C204.196 133.318 204.196 134.679 203.68 136.597L205.372 136.803C205.867 134.864 205.867 133.359 205.867 131.853V130.265H204.196ZM222.778 129.337V147.982H224.489V129.337H222.778ZM224.077 136.989V138.433H227.542V136.989H224.077ZM210.052 132.307V133.709H221.045V132.307H210.052ZM215.621 135.256C213.001 135.256 211.083 137.03 211.083 139.546C211.083 142.063 213.001 143.836 215.621 143.836C218.261 143.836 220.158 142.063 220.158 139.546C220.158 137.03 218.261 135.256 215.621 135.256ZM215.621 136.679C217.312 136.679 218.529 137.855 218.529 139.546C218.529 141.217 217.312 142.413 215.621 142.413C213.929 142.413 212.713 141.217 212.713 139.546C212.713 137.855 213.929 136.679 215.621 136.679ZM214.734 129.564V132.946H216.446V129.564H214.734ZM231.397 134.926V136.329H244.061V134.926H231.397ZM229.108 138.824V140.227H246.02V138.824H229.108ZM231.397 130.018V135.628H233.088V130.018H231.397ZM231.273 146.126V147.528H244.164V146.126H231.273ZM231.273 142.083V146.497H232.965V142.083H231.273Z" fill="#F5F5F5"/>
<path d="M109.937 46.0468V50.4455H130.337V46.0468H109.937ZM107.028 67.3476V71.8502H136.433V67.3476H107.028ZM127.428 46.0468V50.2377C127.428 54.8442 127.428 59.3468 126.285 65.3734L131.861 65.8237C133.004 59.3468 133.004 55.0174 133.004 50.2377V46.0468H127.428ZM160.745 43.276V75.9026H166.321V43.276H160.745ZM155.965 49.926V54.3593H161.507V49.926H155.965ZM139.929 64.2997V68.8716H142.596C147.41 68.8716 151.566 68.8023 156.138 68.075L155.722 63.5724C151.185 64.2304 147.271 64.2997 142.596 64.2997H139.929ZM139.894 45.9083V50.307H149.072V54.671H139.929V65.3041H145.47V59.0005H154.58V45.9083H139.894ZM155.965 58.758V63.1914H161.507V58.758H155.965ZM178.302 47.2591V48.9908C178.302 51.1036 176.501 53.3549 170.959 54.0476L173.072 58.2385C180.034 57.2341 182.839 53.4934 182.839 48.9908V47.2591H178.302ZM179.549 47.2591V48.9908C179.549 53.3203 182.181 57.0263 188.762 57.996L190.944 53.7705C185.783 53.1124 184.017 50.9997 184.017 48.9908V47.2591H179.549ZM172.414 45.1463V49.5104H189.732V45.1463H172.414ZM178.06 61.7367V74.8635H183.671V61.7367H178.06ZM193.126 43.3106V75.7987H198.737V43.3106H193.126ZM171.271 64.2651C176.986 64.2651 184.502 64.1612 191.533 62.7757L191.256 58.758C184.363 59.7278 176.397 59.7971 170.648 59.7971L171.271 64.2651ZM187.1 65.1656V69.3218H194.131V65.1656H187.1Z" fill="white"/>
<path d="M209.004 72.5429H215.308L218.529 59.6585C219.187 57.0955 219.88 54.0822 220.503 51.3807H220.642C221.334 54.013 221.993 57.0955 222.685 59.6585L225.906 72.5429H232.418L224.417 46.7395H217.005L209.004 72.5429ZM214.442 66.6203H226.911V61.8406H214.442V66.6203ZM235.125 72.5429H241.325V63.988H244.338C249.81 63.988 254.521 61.2864 254.521 55.1559C254.521 48.783 249.845 46.7395 244.199 46.7395H235.125V72.5429ZM241.325 59.1044V51.6578H243.853C246.832 51.6578 248.494 52.5583 248.494 55.1559C248.494 57.6843 247.039 59.1044 244.026 59.1044H241.325ZM258.903 72.5429H265.103V46.7395H258.903V72.5429Z" fill="#979797"/>
<rect x="11.6037" y="1.93419" width="73.425" height="73.425" rx="7.0125" fill="#CFCFCF" stroke="#616161" stroke-width="2.475"/>
<rect x="14.4719" y="7.8962" width="5.81404" height="5.81404" stroke="white" stroke-width="0.373402"/>
<rect x="14.4719" y="14.0836" width="5.81404" height="5.81404" stroke="white" stroke-width="0.373402"/>
<rect x="14.4719" y="20.2711" width="5.81404" height="5.81404" stroke="white" stroke-width="0.373402"/>
<rect x="14.4719" y="26.4585" width="5.81404" height="5.81404" stroke="white" stroke-width="0.373402"/>
<rect x="14.4719" y="32.646" width="5.81404" height="5.81404" stroke="white" stroke-width="0.373402"/>
<rect x="14.4719" y="38.8334" width="5.81404" height="5.81404" stroke="white" stroke-width="0.373402"/>
<rect x="14.4719" y="45.0208" width="5.81404" height="5.81404" stroke="white" stroke-width="0.373402"/>
<rect x="14.4719" y="51.2083" width="5.81404" height="5.81404" stroke="white" stroke-width="0.373402"/>
<rect x="14.4719" y="57.3957" width="5.81404" height="5.81404" stroke="white" stroke-width="0.373402"/>
<rect x="14.4719" y="63.5832" width="5.81404" height="5.81404" stroke="white" stroke-width="0.373402"/>
<rect x="20.6594" y="7.8962" width="5.81404" height="5.81404" stroke="white" stroke-width="0.373402"/>
<rect x="20.6594" y="14.0836" width="5.81404" height="5.81404" fill="#FFB800" stroke="white" stroke-width="0.373402"/>
<rect x="20.6594" y="20.2711" width="5.81404" height="5.81404" fill="#FFB800" stroke="white" stroke-width="0.373402"/>
<rect x="20.6594" y="26.4585" width="5.81404" height="5.81404" stroke="white" stroke-width="0.373402"/>
<rect x="20.6594" y="32.646" width="5.81404" height="5.81404" stroke="white" stroke-width="0.373402"/>
<rect x="20.6594" y="38.8334" width="5.81404" height="5.81404" fill="#FF7A00" stroke="white" stroke-width="0.373402"/>
<rect x="20.6594" y="45.0208" width="5.81404" height="5.81404" stroke="white" stroke-width="0.373402"/>
<rect x="20.6594" y="51.2083" width="5.81404" height="5.81404" stroke="white" stroke-width="0.373402"/>
<rect x="20.6594" y="57.3957" width="5.81404" height="5.81404" stroke="white" stroke-width="0.373402"/>
<rect x="20.6594" y="63.5832" width="5.81404" height="5.81404" stroke="white" stroke-width="0.373402"/>
<rect x="26.8466" y="7.8962" width="5.81404" height="5.81404" stroke="white" stroke-width="0.373402"/>
<rect x="26.8466" y="14.0836" width="5.81404" height="5.81404" fill="#FFB800" stroke="white" stroke-width="0.373402"/>
<rect x="26.8466" y="20.2711" width="5.81404" height="5.81404" fill="#FFB800" stroke="white" stroke-width="0.373402"/>
<rect x="26.8466" y="26.4585" width="5.81404" height="5.81404" fill="#FF7A00" stroke="white" stroke-width="0.373402"/>
<rect x="26.8466" y="32.646" width="5.81404" height="5.81404" fill="#FF7A00" stroke="white" stroke-width="0.373402"/>
<rect x="26.8466" y="38.8334" width="5.81404" height="5.81404" fill="#FF7A00" stroke="white" stroke-width="0.373402"/>
<rect x="26.8466" y="45.0208" width="5.81404" height="5.81404" stroke="white" stroke-width="0.373402"/>
<rect x="26.8466" y="51.2083" width="5.81404" height="5.81404" stroke="white" stroke-width="0.373402"/>
<rect x="26.8466" y="57.3957" width="5.81404" height="5.81404" stroke="white" stroke-width="0.373402"/>
<rect x="26.8466" y="63.5832" width="5.81404" height="5.81404" stroke="white" stroke-width="0.373402"/>
<rect x="33.0341" y="7.8962" width="5.81404" height="5.81404" stroke="white" stroke-width="0.373402"/>
<rect x="33.0341" y="14.0836" width="5.81404" height="5.81404" stroke="white" stroke-width="0.373402"/>
<rect x="33.0341" y="20.2711" width="5.81404" height="5.81404" fill="#FFB800" stroke="white" stroke-width="0.373402"/>
<rect x="33.0341" y="26.4585" width="5.81404" height="5.81404" fill="#FF7A00" stroke="white" stroke-width="0.373402"/>
<rect x="33.0341" y="32.646" width="5.81404" height="5.81404" fill="#FF7A00" stroke="white" stroke-width="0.373402"/>
<rect x="33.0341" y="38.8334" width="5.81404" height="5.81404" fill="#FF0F00" stroke="white" stroke-width="0.373402"/>
<rect x="33.0341" y="45.0208" width="5.81404" height="5.81404" stroke="white" stroke-width="0.373402"/>
<rect x="33.0341" y="51.2083" width="5.81404" height="5.81404" stroke="white" stroke-width="0.373402"/>
<rect x="33.0341" y="57.3957" width="5.81404" height="5.81404" stroke="white" stroke-width="0.373402"/>
<rect x="33.0341" y="63.5832" width="5.81404" height="5.81404" stroke="white" stroke-width="0.373402"/>
<rect x="39.2216" y="7.8962" width="5.81404" height="5.81404" stroke="white" stroke-width="0.373402"/>
<rect x="39.2216" y="14.0836" width="5.81404" height="5.81404" stroke="white" stroke-width="0.373402"/>
<rect x="39.2216" y="20.2711" width="5.81404" height="5.81404" fill="#FFB800" stroke="white" stroke-width="0.373402"/>
<rect x="39.2216" y="26.4585" width="5.81404" height="5.81404" fill="#FF7A00" stroke="white" stroke-width="0.373402"/>
<rect x="39.2216" y="32.646" width="5.81404" height="5.81404" fill="#FF7A00" stroke="white" stroke-width="0.373402"/>
<rect x="39.2216" y="38.8334" width="5.81404" height="5.81404" fill="#FF0F00" stroke="white" stroke-width="0.373402"/>
<rect x="39.2216" y="45.0208" width="5.81404" height="5.81404" fill="#FF7A00" stroke="white" stroke-width="0.373402"/>
<rect x="39.2216" y="51.2083" width="5.81404" height="5.81404" stroke="white" stroke-width="0.373402"/>
<rect x="39.2216" y="57.3957" width="5.81404" height="5.81404" stroke="white" stroke-width="0.373402"/>
<rect x="39.2216" y="63.5832" width="5.81404" height="5.81404" stroke="white" stroke-width="0.373402"/>
<rect x="45.4089" y="7.8962" width="5.81404" height="5.81404" stroke="white" stroke-width="0.373402"/>
<rect x="45.4089" y="14.0836" width="5.81404" height="5.81404" stroke="white" stroke-width="0.373402"/>
<rect x="45.4089" y="20.2711" width="5.81404" height="5.81404" stroke="white" stroke-width="0.373402"/>
<rect x="45.4089" y="26.4585" width="5.81404" height="5.81404" fill="#FF7A00" stroke="white" stroke-width="0.373402"/>
<rect x="45.4089" y="32.646" width="5.81404" height="5.81404" fill="#FF7A00" stroke="white" stroke-width="0.373402"/>
<rect x="45.4089" y="38.8334" width="5.81404" height="5.81404" fill="#FF0F00" stroke="white" stroke-width="0.373402"/>
<rect x="45.4089" y="45.0208" width="5.81404" height="5.81404" fill="#FF7A00" stroke="white" stroke-width="0.373402"/>
<rect x="45.4089" y="51.2083" width="5.81404" height="5.81404" fill="#FF7A00" stroke="white" stroke-width="0.373402"/>
<rect x="45.4089" y="57.3957" width="5.81404" height="5.81404" fill="#FF7A00" stroke="white" stroke-width="0.373402"/>
<rect x="45.4089" y="63.5832" width="5.81404" height="5.81404" stroke="white" stroke-width="0.373402"/>
<rect x="51.5966" y="7.8962" width="5.81404" height="5.81404" stroke="white" stroke-width="0.373402"/>
<rect x="51.5966" y="14.0836" width="5.81404" height="5.81404" stroke="white" stroke-width="0.373402"/>
<rect x="51.5966" y="20.2711" width="5.81404" height="5.81404" stroke="white" stroke-width="0.373402"/>
<rect x="51.5966" y="26.4585" width="5.81404" height="5.81404" stroke="white" stroke-width="0.373402"/>
<rect x="51.5966" y="32.646" width="5.81404" height="5.81404" stroke="white" stroke-width="0.373402"/>
<rect x="51.5966" y="38.8334" width="5.81404" height="5.81404" fill="#FF0F00" stroke="white" stroke-width="0.373402"/>
<rect x="51.5966" y="45.0208" width="5.81404" height="5.81404" fill="#FF0F00" stroke="white" stroke-width="0.373402"/>
<rect x="51.5966" y="51.2083" width="5.81404" height="5.81404" fill="#FF7A00" stroke="white" stroke-width="0.373402"/>
<rect x="51.5966" y="57.3957" width="5.81404" height="5.81404" fill="#FF7A00" stroke="white" stroke-width="0.373402"/>
<rect x="51.5966" y="63.5832" width="5.81404" height="5.81404" stroke="white" stroke-width="0.373402"/>
<rect x="57.7841" y="7.8962" width="5.81404" height="5.81404" stroke="white" stroke-width="0.373402"/>
<rect x="57.7841" y="14.0836" width="5.81404" height="5.81404" stroke="white" stroke-width="0.373402"/>
<rect x="57.7841" y="20.2711" width="5.81404" height="5.81404" stroke="white" stroke-width="0.373402"/>
<rect x="57.7841" y="26.4585" width="5.81404" height="5.81404" stroke="white" stroke-width="0.373402"/>
<rect x="57.7841" y="32.646" width="5.81404" height="5.81404" stroke="white" stroke-width="0.373402"/>
<rect x="57.7841" y="38.8334" width="5.81404" height="5.81404" stroke="white" stroke-width="0.373402"/>
<rect x="57.7841" y="45.0208" width="5.81404" height="5.81404" fill="#FF0F00" stroke="white" stroke-width="0.373402"/>
<rect x="57.7841" y="51.2083" width="5.81404" height="5.81404" fill="#FF7A00" stroke="white" stroke-width="0.373402"/>
<rect x="57.7841" y="57.3957" width="5.81404" height="5.81404" fill="#FF7A00" stroke="white" stroke-width="0.373402"/>
<rect x="57.7841" y="63.5832" width="5.81404" height="5.81404" stroke="white" stroke-width="0.373402"/>
<rect x="63.9716" y="7.8962" width="5.81404" height="5.81404" stroke="white" stroke-width="0.373402"/>
<rect x="63.9716" y="14.0836" width="5.81404" height="5.81404" stroke="white" stroke-width="0.373402"/>
<rect x="63.9716" y="20.2711" width="5.81404" height="5.81404" stroke="white" stroke-width="0.373402"/>
<rect x="63.9716" y="26.4585" width="5.81404" height="5.81404" stroke="white" stroke-width="0.373402"/>
<rect x="63.9716" y="32.646" width="5.81404" height="5.81404" stroke="white" stroke-width="0.373402"/>
<rect x="63.9716" y="38.8334" width="5.81404" height="5.81404" stroke="white" stroke-width="0.373402"/>
<rect x="63.9716" y="45.0208" width="5.81404" height="5.81404" fill="#FF0F00" stroke="white" stroke-width="0.373402"/>
<rect x="63.9716" y="51.2083" width="5.81404" height="5.81404" fill="#FF7A00" stroke="white" stroke-width="0.373402"/>
<rect x="63.9716" y="57.3957" width="5.81404" height="5.81404" fill="#FF7A00" stroke="white" stroke-width="0.373402"/>
<rect x="63.9716" y="63.5832" width="5.81404" height="5.81404" stroke="white" stroke-width="0.373402"/>
<rect x="70.1589" y="7.8962" width="5.81404" height="5.81404" stroke="white" stroke-width="0.373402"/>
<rect x="70.1589" y="14.0836" width="5.81404" height="5.81404" stroke="white" stroke-width="0.373402"/>
<rect x="70.1589" y="20.2711" width="5.81404" height="5.81404" stroke="white" stroke-width="0.373402"/>
<rect x="70.1589" y="26.4585" width="5.81404" height="5.81404" stroke="white" stroke-width="0.373402"/>
<rect x="70.1589" y="32.646" width="5.81404" height="5.81404" stroke="white" stroke-width="0.373402"/>
<rect x="70.1589" y="38.8334" width="5.81404" height="5.81404" stroke="white" stroke-width="0.373402"/>
<rect x="70.1589" y="45.0208" width="5.81404" height="5.81404" stroke="white" stroke-width="0.373402"/>
<rect x="70.1589" y="51.2083" width="5.81404" height="5.81404" fill="#FF7A00" stroke="white" stroke-width="0.373402"/>
<rect x="70.1589" y="57.3957" width="5.81404" height="5.81404" fill="#FF7A00" stroke="white" stroke-width="0.373402"/>
<rect x="70.1589" y="63.5832" width="5.81404" height="5.81404" stroke="white" stroke-width="0.373402"/>
<rect x="76.3464" y="7.8962" width="5.81404" height="5.81404" stroke="white" stroke-width="0.373402"/>
<rect x="76.3464" y="14.0836" width="5.81404" height="5.81404" stroke="white" stroke-width="0.373402"/>
<rect x="76.3464" y="20.2711" width="5.81404" height="5.81404" stroke="white" stroke-width="0.373402"/>
<rect x="76.3464" y="26.4585" width="5.81404" height="5.81404" stroke="white" stroke-width="0.373402"/>
<rect x="76.3464" y="32.646" width="5.81404" height="5.81404" stroke="white" stroke-width="0.373402"/>
<rect x="76.3464" y="38.8334" width="5.81404" height="5.81404" stroke="white" stroke-width="0.373402"/>
<rect x="76.3464" y="45.0208" width="5.81404" height="5.81404" stroke="white" stroke-width="0.373402"/>
<rect x="76.3464" y="51.2083" width="5.81404" height="5.81404" stroke="white" stroke-width="0.373402"/>
<rect x="76.3464" y="57.3957" width="5.81404" height="5.81404" stroke="white" stroke-width="0.373402"/>
<rect x="76.3464" y="63.5832" width="5.81404" height="5.81404" stroke="white" stroke-width="0.373402"/>
<path d="M121.883 9.03698H116.515V22.9342H113.945V9.03698H108.554V6.78522H121.883V9.03698ZM123.73 22.9342V11.0386H126.232V22.9342H123.73ZM123.73 9.08247V6.33032H126.232V9.08247H123.73ZM147.434 22.9342H144.933V16.2699C144.933 15.163 144.751 14.3518 144.387 13.8362C144.023 13.3206 143.492 13.0629 142.794 13.0629C142.097 13.0629 141.445 13.3282 140.838 13.8589C140.247 14.3745 139.83 15.0493 139.587 15.8833V22.9342H137.085V16.2699C137.085 15.163 136.904 14.3518 136.54 13.8362C136.176 13.3206 135.653 13.0629 134.97 13.0629C134.273 13.0629 133.621 13.3206 133.014 13.8362C132.423 14.3518 131.998 15.0265 131.74 15.8605V22.9342H129.238V11.0386H131.513V13.4268C131.983 12.5928 132.597 11.9559 133.355 11.5162C134.129 11.0613 135.008 10.8338 135.994 10.8338C136.979 10.8338 137.753 11.0916 138.314 11.6072C138.89 12.1227 139.246 12.7672 139.383 13.5405C139.898 12.661 140.528 11.9938 141.271 11.5389C142.029 11.0689 142.893 10.8338 143.864 10.8338C144.561 10.8338 145.145 10.9627 145.615 11.2205C146.085 11.4783 146.449 11.8346 146.707 12.2895C146.964 12.7293 147.146 13.2448 147.253 13.8362C147.374 14.4124 147.434 15.0265 147.434 15.6785V22.9342ZM155.708 23.1617C154.783 23.1617 153.942 23.0025 153.183 22.684C152.44 22.3504 151.796 21.9031 151.25 21.3421C150.704 20.7659 150.28 20.1138 149.976 19.386C149.688 18.643 149.544 17.8545 149.544 17.0205C149.544 15.8984 149.802 14.8749 150.318 13.9499C150.833 13.0098 151.553 12.2592 152.478 11.6982C153.403 11.1219 154.488 10.8338 155.731 10.8338C156.974 10.8338 158.043 11.1219 158.938 11.6982C159.848 12.2592 160.553 13.0022 161.053 13.9272C161.554 14.8521 161.804 15.8453 161.804 16.9068C161.804 17.0887 161.796 17.2631 161.781 17.4299C161.766 17.5816 161.751 17.7104 161.736 17.8166H152.205C152.251 18.5141 152.44 19.1282 152.774 19.6589C153.123 20.1745 153.563 20.5839 154.093 20.8872C154.624 21.1753 155.193 21.3193 155.799 21.3193C156.466 21.3193 157.096 21.1525 157.687 20.8189C158.294 20.4853 158.703 20.0456 158.915 19.4997L161.053 20.1138C160.796 20.6901 160.401 21.2132 159.871 21.6833C159.355 22.1382 158.741 22.5021 158.028 22.775C157.316 23.0328 156.542 23.1617 155.708 23.1617ZM152.137 16.1562H159.325C159.279 15.4738 159.082 14.8749 158.733 14.3593C158.4 13.8286 157.968 13.4192 157.437 13.1311C156.921 12.8278 156.345 12.6762 155.708 12.6762C155.087 12.6762 154.51 12.8278 153.98 13.1311C153.464 13.4192 153.039 13.8286 152.706 14.3593C152.372 14.8749 152.183 15.4738 152.137 16.1562ZM182.041 22.9342H179.539V16.2699C179.539 15.163 179.357 14.3518 178.993 13.8362C178.629 13.3206 178.098 13.0629 177.401 13.0629C176.703 13.0629 176.051 13.3282 175.445 13.8589C174.853 14.3745 174.436 15.0493 174.194 15.8833V22.9342H171.692V16.2699C171.692 15.163 171.51 14.3518 171.146 13.8362C170.782 13.3206 170.259 13.0629 169.576 13.0629C168.879 13.0629 168.227 13.3206 167.62 13.8362C167.029 14.3518 166.604 15.0265 166.347 15.8605V22.9342H163.845V11.0386H166.119V13.4268C166.589 12.5928 167.203 11.9559 167.962 11.5162C168.735 11.0613 169.614 10.8338 170.6 10.8338C171.586 10.8338 172.359 11.0916 172.92 11.6072C173.496 12.1227 173.853 12.7672 173.989 13.5405C174.505 12.661 175.134 11.9938 175.877 11.5389C176.635 11.0689 177.499 10.8338 178.47 10.8338C179.167 10.8338 179.751 10.9627 180.221 11.2205C180.691 11.4783 181.055 11.8346 181.313 12.2895C181.571 12.7293 181.753 13.2448 181.859 13.8362C181.98 14.4124 182.041 15.0265 182.041 15.6785V22.9342ZM184.06 19.4542C184.06 18.6961 184.272 18.0365 184.696 17.4754C185.136 16.8992 185.735 16.4595 186.493 16.1562C187.252 15.8378 188.131 15.6785 189.132 15.6785C189.662 15.6785 190.201 15.7165 190.747 15.7923C191.308 15.8681 191.801 15.9894 192.225 16.1562V15.4056C192.225 14.5716 191.975 13.9196 191.475 13.4495C190.974 12.9795 190.254 12.7444 189.314 12.7444C188.647 12.7444 188.017 12.8657 187.426 13.1084C186.835 13.3358 186.205 13.6618 185.538 14.0864L184.696 12.4033C185.485 11.8725 186.273 11.4783 187.062 11.2205C187.866 10.9627 188.707 10.8338 189.587 10.8338C191.179 10.8338 192.43 11.2584 193.34 12.1076C194.265 12.9416 194.727 14.1319 194.727 15.6785V20.1138C194.727 20.4019 194.773 20.6067 194.864 20.728C194.97 20.8493 195.144 20.9175 195.387 20.9327V22.9342C195.159 22.9797 194.955 23.0101 194.773 23.0252C194.591 23.0404 194.439 23.048 194.318 23.048C193.787 23.048 193.385 22.9191 193.112 22.6613C192.839 22.4035 192.68 22.1002 192.635 21.7515L192.566 21.0691C192.051 21.7363 191.391 22.2519 190.587 22.6158C189.784 22.9797 188.973 23.1617 188.154 23.1617C187.365 23.1617 186.66 23.0025 186.038 22.684C185.417 22.3504 184.932 21.9031 184.583 21.3421C184.234 20.781 184.06 20.1518 184.06 19.4542ZM191.634 20.1821C191.816 19.985 191.96 19.7878 192.066 19.5907C192.172 19.3936 192.225 19.2192 192.225 19.0676V17.7029C191.801 17.5361 191.353 17.4148 190.883 17.3389C190.413 17.248 189.951 17.2025 189.496 17.2025C188.586 17.2025 187.843 17.3844 187.267 17.7484C186.706 18.1123 186.425 18.6127 186.425 19.2495C186.425 19.5983 186.516 19.9319 186.698 20.2503C186.895 20.5687 187.168 20.8265 187.517 21.0236C187.881 21.2208 188.328 21.3193 188.859 21.3193C189.405 21.3193 189.928 21.2132 190.428 21.0009C190.929 20.7886 191.33 20.5157 191.634 20.1821ZM204.518 23.1617C203.562 23.1617 202.721 22.9342 201.993 22.4793C201.265 22.0244 200.689 21.4331 200.264 20.7052V27.7789H197.762V11.0386H199.969V13.1766C200.424 12.4639 201.015 11.8953 201.743 11.4707C202.471 11.0461 203.282 10.8338 204.177 10.8338C204.995 10.8338 205.746 11.0006 206.428 11.3342C207.111 11.6527 207.702 12.1 208.202 12.6762C208.703 13.2524 209.09 13.912 209.362 14.655C209.651 15.3829 209.795 16.1562 209.795 16.975C209.795 18.1123 209.567 19.151 209.112 20.0911C208.673 21.0312 208.051 21.7818 207.247 22.3429C206.459 22.8887 205.549 23.1617 204.518 23.1617ZM203.699 21.0236C204.23 21.0236 204.707 20.9099 205.132 20.6825C205.572 20.455 205.943 20.1518 206.246 19.7727C206.565 19.3936 206.807 18.9614 206.974 18.4762C207.141 17.991 207.224 17.4906 207.224 16.975C207.224 16.4291 207.133 15.9136 206.951 15.4284C206.77 14.9431 206.504 14.5185 206.155 14.1546C205.822 13.7907 205.428 13.5026 204.973 13.2903C204.533 13.078 204.048 12.9719 203.517 12.9719C203.199 12.9719 202.865 13.0325 202.516 13.1538C202.167 13.2752 201.841 13.4419 201.538 13.6542C201.235 13.8665 200.97 14.1167 200.742 14.4048C200.515 14.6929 200.355 14.9962 200.264 15.3146V18.4307C200.477 18.9159 200.757 19.3557 201.106 19.7499C201.455 20.129 201.857 20.4399 202.311 20.6825C202.766 20.9099 203.229 21.0236 203.699 21.0236ZM216.275 23.1617C215.275 23.1617 214.327 23.0025 213.432 22.684C212.538 22.3504 211.772 21.8576 211.135 21.2056L212.068 19.5225C212.75 20.129 213.432 20.5687 214.115 20.8417C214.812 21.1146 215.502 21.2511 216.184 21.2511C216.882 21.2511 217.451 21.1222 217.89 20.8644C218.33 20.5915 218.55 20.1972 218.55 19.6817C218.55 19.3026 218.436 19.0221 218.209 18.8401C217.981 18.6582 217.648 18.4989 217.208 18.3625C216.783 18.226 216.268 18.0744 215.661 17.9076C214.812 17.6498 214.099 17.3844 213.523 17.1115C212.947 16.8234 212.515 16.4746 212.227 16.0652C211.939 15.6558 211.795 15.1327 211.795 14.4958C211.795 13.7225 211.992 13.0629 212.386 12.517C212.78 11.9711 213.326 11.5541 214.024 11.266C214.736 10.9779 215.555 10.8338 216.48 10.8338C217.344 10.8338 218.14 10.9703 218.868 11.2433C219.611 11.501 220.263 11.9104 220.824 12.4715L219.755 14.1319C219.225 13.6467 218.679 13.2903 218.118 13.0629C217.572 12.8354 216.98 12.7217 216.344 12.7217C215.98 12.7217 215.631 12.7672 215.297 12.8582C214.964 12.934 214.683 13.0856 214.456 13.3131C214.243 13.5253 214.137 13.8286 214.137 14.2229C214.137 14.5413 214.228 14.7991 214.41 14.9962C214.592 15.1933 214.865 15.3601 215.229 15.4966C215.593 15.6331 216.04 15.7847 216.571 15.9515C217.496 16.2244 218.285 16.4974 218.937 16.7703C219.589 17.0281 220.089 17.3693 220.438 17.7938C220.802 18.2033 220.984 18.7719 220.984 19.4997C220.984 20.6521 220.551 21.5544 219.687 22.2064C218.838 22.8433 217.701 23.1617 216.275 23.1617Z" fill="#C50000"/>
<path d="M230.388 6.83936H227.511V14.2088H226.715V6.83936H223.838V6.13426H230.388V6.83936ZM238.751 14.2088V7.63544L235.828 12.7417H235.328L232.394 7.63544V14.2088H231.598V6.13426H232.417L235.567 11.6613L238.74 6.13426H239.547V14.2088H238.751Z" fill="#C50000"/>
</svg>
