<svg width="205" height="126" viewBox="0 0 205 126" fill="none" xmlns="http://www.w3.org/2000/svg">
<rect x="1.12693" y="1.49949" width="203.181" height="16.6938" rx="5.55008" fill="white" stroke="#7FE8C8" stroke-width="1.23335"/>
<path d="M24.8477 6.38281V7.23105C24.8477 8.52896 24.1835 9.80644 22.5687 10.3276L23.2739 11.4212C25.1339 10.7978 25.9821 9.13193 25.9821 7.23105V6.38281H24.8477ZM25.1339 6.38281V7.16973C25.1339 9.00929 25.8902 10.532 27.6378 11.135L28.3429 10.0722C26.8406 9.59182 26.2274 8.42677 26.2274 7.16973V6.38281H25.1339ZM29.2116 5.89226V11.4314H30.5708V5.89226H29.2116ZM27.3618 11.6767C25.3587 11.6767 24.1221 12.3614 24.1221 13.5162C24.1221 14.6813 25.3587 15.3558 27.3618 15.3558C29.3649 15.3558 30.6015 14.6813 30.6015 13.5162C30.6015 12.3614 29.3649 11.6767 27.3618 11.6767ZM27.3618 12.7293C28.5984 12.7293 29.2525 12.9848 29.2525 13.5162C29.2525 14.0477 28.5984 14.3134 27.3618 14.3134C26.1354 14.3134 25.4814 14.0477 25.4814 13.5162C25.4814 12.9848 26.1354 12.7293 27.3618 12.7293ZM27.4845 7.60918V8.71292H29.4058V7.60918H27.4845ZM32.0621 13.1585V14.2623H40.6263V13.1585H32.0621ZM35.6493 11.0635V13.414H37.0085V11.0635H35.6493ZM32.9513 6.5872V11.2372H39.6861V6.5872H32.9513ZM38.3575 7.6705V10.1641H34.29V7.6705H38.3575ZM46.0114 7.27193V8.34501H48.3108V7.27193H46.0114ZM46.0114 9.20347V10.297H48.3108V9.20347H46.0114ZM41.8519 6.46456V11.0124H46.3282V6.46456H44.9996V7.7216H43.2009V6.46456H41.8519ZM43.2009 8.77424H44.9996V9.94952H43.2009V8.77424ZM48.0144 5.89226V11.5438H49.3737V5.89226H48.0144ZM46.1647 11.7073C44.1616 11.7073 42.925 12.392 42.925 13.5367C42.925 14.6915 44.1616 15.3558 46.1647 15.3558C48.1677 15.3558 49.4043 14.6915 49.4043 13.5367C49.4043 12.392 48.1677 11.7073 46.1647 11.7073ZM46.1647 12.7497C47.4013 12.7497 48.0553 12.995 48.0553 13.5367C48.0553 14.0681 47.4013 14.3236 46.1647 14.3236C44.9383 14.3236 44.2842 14.0681 44.2842 13.5367C44.2842 12.995 44.9383 12.7497 46.1647 12.7497ZM53.3177 10.7467V12.8213H54.677V10.7467H53.3177ZM57.467 5.89226V13.0563H58.8262V5.89226H57.467ZM52.0096 14.109V15.1923H59.0306V14.109H52.0096ZM52.0096 12.3818V14.3951H53.3688V12.3818H52.0096ZM50.9876 11.1555C52.6943 11.1555 54.912 11.1044 56.9253 10.7671L56.8435 9.79622C54.8609 10.0517 52.5512 10.0722 50.8241 10.0722L50.9876 11.1555ZM55.6785 11.3905V12.3205H57.7633V11.3905H55.6785ZM53.8696 6.21929C52.4797 6.21929 51.5088 6.90402 51.5088 7.90556C51.5088 8.91732 52.4797 9.59182 53.8696 9.59182C55.2493 9.59182 56.2201 8.91732 56.2201 7.90556C56.2201 6.90402 55.2493 6.21929 53.8696 6.21929ZM53.8696 7.21061C54.493 7.21061 54.9324 7.44566 54.9324 7.90556C54.9324 8.36545 54.493 8.6005 53.8696 8.6005C53.236 8.6005 52.7965 8.36545 52.7965 7.90556C52.7965 7.44566 53.236 7.21061 53.8696 7.21061Z" fill="#515151"/>
<path d="M143.218 14.4462H147.776V13.2301H146.356V7.07775H145.242C144.751 7.37413 144.24 7.5683 143.474 7.7216V8.6516H144.854V13.2301H143.218V14.4462ZM151.239 14.5893C152.629 14.5893 153.886 13.6593 153.886 12.0344C153.886 10.4605 152.823 9.74512 151.556 9.74512C151.209 9.74512 150.943 9.80644 150.647 9.94952L150.79 8.34501H153.539V7.07775H149.492L149.277 10.7569L149.972 11.2066C150.412 10.9204 150.657 10.7978 151.107 10.7978C151.863 10.7978 152.374 11.2679 152.374 12.0752C152.374 12.903 151.832 13.3731 151.035 13.3731C150.34 13.3731 149.798 13.0257 149.379 12.6067L148.674 13.5571C149.247 14.1192 150.044 14.5893 151.239 14.5893ZM156.102 14.5893C156.634 14.5893 157.043 14.1703 157.043 13.6082C157.043 13.0461 156.634 12.6373 156.102 12.6373C155.561 12.6373 155.172 13.0461 155.172 13.6082C155.172 14.1703 155.561 14.5893 156.102 14.5893ZM160.56 14.5893C162.011 14.5893 163.228 13.8126 163.228 12.4534C163.228 11.4927 162.574 10.8693 161.715 10.6342V10.5934C162.512 10.2663 162.972 9.71446 162.972 8.91732C162.972 7.66028 161.981 6.94489 160.519 6.94489C159.64 6.94489 158.915 7.31281 158.261 7.8749L159.027 8.8049C159.477 8.38589 159.916 8.12017 160.458 8.12017C161.102 8.12017 161.47 8.45742 161.47 9.02973C161.47 9.66336 161.02 10.1233 159.63 10.1233V11.2066C161.276 11.2066 161.715 11.6562 161.715 12.3614C161.715 13.0052 161.194 13.3731 160.417 13.3731C159.732 13.3731 159.191 13.0257 158.741 12.5862L158.026 13.5367C158.557 14.1499 159.365 14.5893 160.56 14.5893ZM164.606 14.4462H166.077V13.0052L166.885 12.0752L168.275 14.4462H169.9L167.764 11.0839L169.726 8.73336H168.07L166.128 11.1861H166.077V6.30105H164.606V14.4462ZM170.773 14.4462H172.276V10.5116C172.664 10.0824 173.042 9.87798 173.359 9.87798C173.911 9.87798 174.166 10.1744 174.166 11.0737V14.4462H175.669V10.5116C176.078 10.0824 176.435 9.87798 176.762 9.87798C177.314 9.87798 177.559 10.1744 177.559 11.0737V14.4462H179.062V10.8795C179.062 9.44875 178.51 8.59028 177.294 8.59028C176.548 8.59028 175.996 9.03995 175.464 9.5816C175.199 8.94798 174.718 8.59028 173.891 8.59028C173.155 8.59028 172.623 8.99907 172.143 9.48962H172.112L171.99 8.73336H170.773V14.4462Z" fill="#F4607A"/>
<path d="M95.2432 14.4462H100.312V13.179H98.677C98.3193 13.179 97.8186 13.2301 97.4404 13.271C98.8201 11.9219 99.9647 10.4503 99.9647 9.07061C99.9647 7.66028 99.0041 6.75072 97.5835 6.75072C96.5513 6.75072 95.8666 7.14929 95.1716 7.89534L95.9994 8.71292C96.3878 8.28369 96.8273 7.926 97.3893 7.926C98.1149 7.926 98.5135 8.39611 98.5135 9.15237C98.5135 10.3174 97.3076 11.738 95.2432 13.5878V14.4462ZM103.663 14.5893C105.053 14.5893 106.31 13.6184 106.31 11.9424C106.31 10.2868 105.247 9.54072 103.98 9.54072C103.632 9.54072 103.366 9.61226 103.07 9.74512L103.213 8.14061H105.962V6.88358H101.915L101.701 10.5525L102.395 11.0022C102.835 10.716 103.08 10.6036 103.53 10.6036C104.286 10.6036 104.797 11.0941 104.797 11.973C104.797 12.8724 104.255 13.3731 103.458 13.3731C102.763 13.3731 102.222 13.0257 101.803 12.6067L101.098 13.5571C101.67 14.1192 102.467 14.5893 103.663 14.5893ZM108.526 14.5893C109.057 14.5893 109.466 14.1703 109.466 13.6082C109.466 13.0461 109.057 12.6373 108.526 12.6373C107.984 12.6373 107.596 13.0461 107.596 13.6082C107.596 14.1703 107.984 14.5893 108.526 14.5893ZM113.198 14.5893C114.721 14.5893 115.743 13.7206 115.743 12.576C115.743 11.5336 115.171 10.9306 114.476 10.5525V10.5014C114.966 10.1437 115.447 9.52028 115.447 8.76402C115.447 7.55808 114.588 6.76094 113.249 6.76094C111.931 6.76094 110.96 7.53764 110.96 8.7538C110.96 9.55094 111.389 10.1335 111.962 10.5525V10.5934C111.267 10.9613 110.674 11.6051 110.674 12.576C110.674 13.7615 111.747 14.5893 113.198 14.5893ZM113.679 10.1335C112.881 9.81666 112.289 9.45897 112.289 8.7538C112.289 8.15083 112.697 7.81358 113.219 7.81358C113.842 7.81358 114.22 8.24281 114.22 8.86622C114.22 9.31589 114.046 9.74512 113.679 10.1335ZM113.229 13.5264C112.524 13.5264 111.962 13.087 111.962 12.4023C111.962 11.8402 112.248 11.3292 112.667 11.0022C113.638 11.4109 114.343 11.7278 114.343 12.5147C114.343 13.1688 113.883 13.5264 113.229 13.5264ZM116.63 10.7364V11.8095H125.195V10.7364H116.63ZM120.34 11.3087V13.3016H121.71V11.3087H120.34ZM117.622 14.109V15.1923H124.254V14.109H117.622ZM117.622 12.5862V14.5689H118.971V12.5862H117.622ZM117.724 6.18863V10.0824H124.101V6.18863H122.752V7.15951H119.063V6.18863H117.724ZM119.063 8.18149H122.752V9.01951H119.063V8.18149Z" fill="#38D9A9"/>
<rect x="1.12693" y="28.3031" width="203.181" height="16.6938" rx="5.55008" fill="white" stroke="#7FE8C8" stroke-width="1.23335"/>
<path d="M26.2274 33.6054V33.7689C26.2274 36.4261 25.5529 38.235 22.6096 39.7168L23.3352 40.749C26.861 38.9606 27.556 36.5283 27.556 33.6054H26.2274ZM23.1921 33.6054V34.6785H27.0348V33.6054H23.1921ZM26.2581 35.9253L22.7016 36.1297L22.8651 37.2948L26.2581 36.9677V35.9253ZM28.7006 32.6856V42.1492H30.0701V32.6856H28.7006ZM29.7124 36.3034V37.4174H31.3782V36.3034H29.7124ZM33.1045 35.5267V36.4465H39.6963V35.5267H33.1045ZM33.1045 32.8389V35.9764H34.4536V33.7587H39.6248V32.8389H33.1045ZM34.0754 34.1982V35.0771H39.4102V34.1982H34.0754ZM35.6391 36.0684V37.4378H36.9983V36.0684H35.6391ZM32.0723 36.9575V37.959H40.5957V36.9575H32.0723ZM33.033 38.3678V39.3183H38.2349V39.7679H33.0432V41.6177H34.382V40.6673H39.5737V38.3678H33.033ZM33.0432 41.1476V42.0981H39.819V41.1476H33.0432ZM47.9531 32.6958V38.5109H49.3226V32.6958H47.9531ZM42.8637 38.9197V40.0132H47.9531V42.1594H49.3226V38.9197H42.8637ZM41.9439 37.029V38.1226H42.7717C44.6623 38.1226 45.9194 38.0919 47.3297 37.8466L47.1764 36.7735C45.807 36.9882 44.6112 37.029 42.7717 37.029H41.9439ZM41.9337 33.2171V34.3004H44.9485V35.1179H41.9439V37.54H43.2827V36.1297H46.2873V33.2171H41.9337ZM55.4128 34.0755V35.1486H57.7122V34.0755H55.4128ZM55.4128 36.0071V37.1006H57.7122V36.0071H55.4128ZM51.2533 33.2682V37.816H55.7296V33.2682H54.401V34.5252H52.6023V33.2682H51.2533ZM52.6023 35.5778H54.401V36.7531H52.6023V35.5778ZM57.4159 32.6958V38.3474H58.7751V32.6958H57.4159ZM55.5661 38.5109C53.563 38.5109 52.3264 39.1956 52.3264 40.3403C52.3264 41.4951 53.563 42.1594 55.5661 42.1594C57.5692 42.1594 58.8057 41.4951 58.8057 40.3403C58.8057 39.1956 57.5692 38.5109 55.5661 38.5109ZM55.5661 39.5533C56.8027 39.5533 57.4567 39.7986 57.4567 40.3403C57.4567 40.8717 56.8027 41.1272 55.5661 41.1272C54.3397 41.1272 53.6856 40.8717 53.6856 40.3403C53.6856 39.7986 54.3397 39.5533 55.5661 39.5533ZM62.7191 37.5502V39.6249H64.0784V37.5502H62.7191ZM66.8684 32.6958V39.8599H68.2276V32.6958H66.8684ZM61.411 40.9126V41.9959H68.432V40.9126H61.411ZM61.411 39.1854V41.1987H62.7702V39.1854H61.411ZM60.389 37.959C62.0957 37.959 64.3134 37.9079 66.3267 37.5707L66.245 36.5998C64.2623 36.8553 61.9526 36.8757 60.2255 36.8757L60.389 37.959ZM65.0799 38.1941V39.1241H67.1647V38.1941H65.0799ZM63.271 33.0229C61.8811 33.0229 60.9102 33.7076 60.9102 34.7091C60.9102 35.7209 61.8811 36.3954 63.271 36.3954C64.6507 36.3954 65.6216 35.7209 65.6216 34.7091C65.6216 33.7076 64.6507 33.0229 63.271 33.0229ZM63.271 34.0142C63.8944 34.0142 64.3339 34.2493 64.3339 34.7091C64.3339 35.169 63.8944 35.4041 63.271 35.4041C62.6374 35.4041 62.1979 35.169 62.1979 34.7091C62.1979 34.2493 62.6374 34.0142 63.271 34.0142Z" fill="#515151"/>
<path d="M143.218 41.2498H147.776V40.0337H146.356V33.8813H145.242C144.751 34.1777 144.24 34.3719 143.474 34.5252V35.4552H144.854V40.0337H143.218V41.2498ZM151.853 41.2498H153.253V33.8813H151.444L148.633 38.3883V39.4205H154.152V38.2656H150.095L151.26 36.4159C151.474 35.9968 151.679 35.6187 151.873 35.2201H151.914C151.893 35.6596 151.853 36.3648 151.853 36.8042V41.2498ZM156.102 41.3929C156.634 41.3929 157.043 40.9739 157.043 40.4118C157.043 39.8497 156.634 39.4409 156.102 39.4409C155.561 39.4409 155.172 39.8497 155.172 40.4118C155.172 40.9739 155.561 41.3929 156.102 41.3929ZM160.989 41.3929C162.277 41.3929 163.36 40.4527 163.36 38.9504C163.36 37.4072 162.451 36.6816 161.184 36.6816C160.673 36.6816 159.988 37.0188 159.579 37.5911L159.64 38.6131C160.029 37.9693 160.499 37.7444 160.908 37.7444C161.562 37.7444 161.991 38.1226 161.991 38.9504C161.991 39.819 161.531 40.2585 160.949 40.2585C160.213 40.2585 159.64 39.5942 159.64 37.7649C159.64 35.6596 160.376 34.9646 161.286 34.9646C161.725 34.9646 162.185 35.1997 162.451 35.5063L163.248 34.5967C162.798 34.1368 162.124 33.7485 161.194 33.7485C159.671 33.7485 158.261 34.9544 158.261 37.7649C158.261 40.2994 159.548 41.3929 160.989 41.3929ZM164.606 41.2498H166.077V39.8088L166.885 38.8788L168.275 41.2498H169.9L167.764 37.8875L169.726 35.5369H168.07L166.128 37.9897H166.077V33.1046H164.606V41.2498ZM170.773 41.2498H172.276V37.3152C172.664 36.886 173.042 36.6816 173.359 36.6816C173.911 36.6816 174.166 36.9779 174.166 37.8773V41.2498H175.669V37.3152C176.078 36.886 176.435 36.6816 176.762 36.6816C177.314 36.6816 177.559 36.9779 177.559 37.8773V41.2498H179.062V37.6831C179.062 36.2523 178.51 35.3939 177.294 35.3939C176.548 35.3939 175.996 35.8435 175.464 36.3852C175.199 35.7516 174.718 35.3939 173.891 35.3939C173.155 35.3939 172.623 35.8027 172.143 36.2932H172.112L171.99 35.5369H170.773V41.2498Z" fill="#F4607A"/>
<path d="M95.395 41.2498H100.464V39.9826H98.8289C98.4712 39.9826 97.9704 40.0337 97.5923 40.0745C98.972 38.7255 100.117 37.2539 100.117 35.8742C100.117 34.4639 99.1559 33.5543 97.7354 33.5543C96.7032 33.5543 96.0185 33.9529 95.3235 34.6989L96.1513 35.5165C96.5397 35.0873 96.9791 34.7296 97.5412 34.7296C98.2668 34.7296 98.6654 35.1997 98.6654 35.956C98.6654 37.121 97.4594 38.5416 95.395 40.3914V41.2498ZM103.815 41.3929C105.204 41.3929 106.461 40.422 106.461 38.746C106.461 37.0904 105.399 36.3443 104.131 36.3443C103.784 36.3443 103.518 36.4159 103.222 36.5487L103.365 34.9442H106.114V33.6872H102.067L101.852 37.3561L102.547 37.8057C102.987 37.5196 103.232 37.4072 103.682 37.4072C104.438 37.4072 104.949 37.8977 104.949 38.7766C104.949 39.676 104.407 40.1767 103.61 40.1767C102.915 40.1767 102.374 39.8293 101.955 39.4103L101.249 40.3607C101.822 40.9228 102.619 41.3929 103.815 41.3929ZM108.678 41.3929C109.209 41.3929 109.618 40.9739 109.618 40.4118C109.618 39.8497 109.209 39.4409 108.678 39.4409C108.136 39.4409 107.748 39.8497 107.748 40.4118C107.748 40.9739 108.136 41.3929 108.678 41.3929ZM113.35 41.3929C114.873 41.3929 115.895 40.5242 115.895 39.3796C115.895 38.3372 115.322 37.7342 114.628 37.3561V37.305C115.118 36.9473 115.598 36.3239 115.598 35.5676C115.598 34.3617 114.74 33.5645 113.401 33.5645C112.083 33.5645 111.112 34.3412 111.112 35.5574C111.112 36.3545 111.541 36.9371 112.113 37.3561V37.397C111.418 37.7649 110.826 38.4087 110.826 39.3796C110.826 40.5651 111.899 41.3929 113.35 41.3929ZM113.83 36.9371C113.033 36.6202 112.44 36.2626 112.44 35.5574C112.44 34.9544 112.849 34.6172 113.37 34.6172C113.994 34.6172 114.372 35.0464 114.372 35.6698C114.372 36.1195 114.198 36.5487 113.83 36.9371ZM113.381 40.33C112.676 40.33 112.113 39.8906 112.113 39.2059C112.113 38.6438 112.4 38.1328 112.819 37.8057C113.789 38.2145 114.495 38.5314 114.495 39.3183C114.495 39.9723 114.035 40.33 113.381 40.33ZM116.782 37.54V38.6131H125.346V37.54H116.782ZM120.492 38.1123V40.1052H121.862V38.1123H120.492ZM117.774 40.9126V41.9959H124.406V40.9126H117.774ZM117.774 39.3898V41.3725H119.123V39.3898H117.774ZM117.876 32.9922V36.886H124.253V32.9922H122.904V33.9631H119.215V32.9922H117.876ZM119.215 34.9851H122.904V35.8231H119.215V34.9851Z" fill="#38D9A9"/>
<g opacity="0.8">
<path d="M26.2376 60.0748V60.3712C26.2376 61.4442 25.1748 62.6093 23.0797 62.9057L23.5907 63.9685C26.0026 63.6006 27.4027 62.1187 27.4027 60.3712V60.0748H26.2376ZM26.4625 60.0748V60.3712C26.4625 62.0983 27.8626 63.5802 30.2745 63.9379L30.7752 62.875C28.6904 62.5889 27.6275 61.4136 27.6275 60.3712V60.0748H26.4625ZM22.6505 64.4795V65.5628H31.2147V64.4795H22.6505ZM26.3603 65.1642V67.1571H27.7297V65.1642H26.3603ZM23.6418 68.0462V69.1295H30.2745V68.0462H23.6418ZM23.6418 66.36V68.3835H24.9908V66.36H23.6418ZM34.1776 61.6793V62.0472C34.1776 63.1918 33.5236 64.3364 31.9906 64.8168L32.6447 65.8796C34.4433 65.3175 35.2814 63.7744 35.2814 62.0472V61.6793H34.1776ZM34.4229 61.6793V62.0472C34.4229 63.7028 35.2916 65.1949 37.0801 65.7263L37.7341 64.6635C36.2011 64.2036 35.5369 63.1101 35.5369 62.0472V61.6793H34.4229ZM32.3176 60.9435V62.0063H37.3969V60.9435H32.3176ZM34.1776 59.901V61.342H35.5369V59.901H34.1776ZM37.1005 62.5786V63.6926H39.2977V62.5786H37.1005ZM38.613 59.8397V66.8403H39.9723V59.8397H38.613ZM33.728 68.0462V69.1295H40.1869V68.0462H33.728ZM33.728 66.2578V68.7616H35.0872V66.2578H33.728ZM48.4845 61.1887V62.2925H50.1197V61.1887H48.4845ZM48.4845 63.2429V64.3467H50.1197V63.2429H48.4845ZM47.5443 59.8295V65.8285H48.9036V59.8295H47.5443ZM45.8274 65.9307C43.8754 65.9307 42.649 66.5541 42.649 67.617C42.649 68.6696 43.8754 69.293 45.8274 69.293C47.7794 69.293 49.0058 68.6696 49.0058 67.617C49.0058 66.5541 47.7794 65.9307 45.8274 65.9307ZM45.8274 66.9527C47.0231 66.9527 47.6567 67.1673 47.6567 67.617C47.6567 68.0667 47.0231 68.2813 45.8274 68.2813C44.6317 68.2813 43.9981 68.0667 43.9981 67.617C43.9981 67.1673 44.6317 66.9527 45.8274 66.9527ZM41.4533 60.7289V61.7815H47.0231V60.7289H41.4533ZM44.2433 62.0983C42.8637 62.0983 41.9132 62.783 41.9132 63.7948C41.9132 64.8168 42.8637 65.4913 44.2433 65.4913C45.6128 65.4913 46.5632 64.8168 46.5632 63.7948C46.5632 62.783 45.6128 62.0983 44.2433 62.0983ZM44.2433 63.0896C44.8463 63.0896 45.2653 63.3349 45.2653 63.7948C45.2653 64.2547 44.8463 64.5 44.2433 64.5C43.6301 64.5 43.2214 64.2547 43.2214 63.7948C43.2214 63.3349 43.6301 63.0896 44.2433 63.0896ZM43.5586 59.7682V61.2909H44.9178V59.7682H43.5586ZM55.4128 61.2092V62.2823H57.7122V61.2092H55.4128ZM55.4128 63.1407V64.2342H57.7122V63.1407H55.4128ZM51.2533 60.4018V64.9496H55.7296V60.4018H54.401V61.6589H52.6023V60.4018H51.2533ZM52.6023 62.7115H54.401V63.8868H52.6023V62.7115ZM57.4159 59.8295V65.4811H58.7751V59.8295H57.4159ZM55.5661 65.6446C53.563 65.6446 52.3264 66.3293 52.3264 67.4739C52.3264 68.6288 53.563 69.293 55.5661 69.293C57.5692 69.293 58.8057 68.6288 58.8057 67.4739C58.8057 66.3293 57.5692 65.6446 55.5661 65.6446ZM55.5661 66.687C56.8027 66.687 57.4567 66.9323 57.4567 67.4739C57.4567 68.0054 56.8027 68.2608 55.5661 68.2608C54.3397 68.2608 53.6856 68.0054 53.6856 67.4739C53.6856 66.9323 54.3397 66.687 55.5661 66.687ZM62.7191 64.6839V66.7585H64.0784V64.6839H62.7191ZM66.8684 59.8295V66.9936H68.2276V59.8295H66.8684ZM61.411 68.0462V69.1295H68.432V68.0462H61.411ZM61.411 66.3191V68.3324H62.7702V66.3191H61.411ZM60.389 65.0927C62.0957 65.0927 64.3134 65.0416 66.3267 64.7044L66.245 63.7335C64.2623 63.989 61.9526 64.0094 60.2255 64.0094L60.389 65.0927ZM65.0799 65.3278V66.2578H67.1647V65.3278H65.0799ZM63.271 60.1565C61.8811 60.1565 60.9102 60.8413 60.9102 61.8428C60.9102 62.8546 61.8811 63.5291 63.271 63.5291C64.6507 63.5291 65.6216 62.8546 65.6216 61.8428C65.6216 60.8413 64.6507 60.1565 63.271 60.1565ZM63.271 61.1479C63.8944 61.1479 64.3339 61.3829 64.3339 61.8428C64.3339 62.3027 63.8944 62.5378 63.271 62.5378C62.6374 62.5378 62.1979 62.3027 62.1979 61.8428C62.1979 61.3829 62.6374 61.1479 63.271 61.1479Z" fill="#515151"/>
<path d="M143.218 68.3834H147.776V67.1673H146.356V61.0149H145.242C144.751 61.3113 144.24 61.5055 143.474 61.6588V62.5888H144.854V67.1673H143.218V68.3834ZM148.848 68.3834H153.917V67.1162H152.261C151.904 67.1162 151.403 67.1673 151.025 67.2081C152.374 65.7978 153.569 64.459 153.569 63.1815C153.569 61.7814 152.609 60.8821 151.188 60.8821C150.156 60.8821 149.471 61.2807 148.776 62.0267L149.604 62.8443C149.993 62.4355 150.432 62.0574 150.994 62.0574C151.72 62.0574 152.118 62.507 152.118 63.2531C152.118 64.3568 150.82 65.6343 148.848 67.525V68.3834ZM156.102 68.5265C156.634 68.5265 157.043 68.1075 157.043 67.5454C157.043 66.9833 156.634 66.5745 156.102 66.5745C155.561 66.5745 155.172 66.9833 155.172 67.5454C155.172 68.1075 155.561 68.5265 156.102 68.5265ZM158.598 68.3834H163.156V67.1673H161.736V61.0149H160.622C160.131 61.3113 159.62 61.5055 158.854 61.6588V62.5888H160.233V67.1673H158.598V68.3834ZM164.606 68.3834H166.077V66.9424L166.885 66.0124L168.275 68.3834H169.9L167.764 65.0211L169.726 62.6706H168.07L166.128 65.1233H166.077V60.2382H164.606V68.3834ZM170.773 68.3834H172.276V64.4488C172.664 64.0196 173.042 63.8152 173.359 63.8152C173.911 63.8152 174.166 64.1115 174.166 65.0109V68.3834H175.669V64.4488C176.078 64.0196 176.435 63.8152 176.762 63.8152C177.314 63.8152 177.559 64.1115 177.559 65.0109V68.3834H179.062V64.8167C179.062 63.3859 178.51 62.5275 177.294 62.5275C176.548 62.5275 175.996 62.9771 175.464 63.5188C175.199 62.8852 174.718 62.5275 173.891 62.5275C173.155 62.5275 172.623 62.9363 172.143 63.4268H172.112L171.99 62.6706H170.773V68.3834Z" fill="#F4607A"/>
<path d="M97.6049 68.5265C99.0561 68.5265 100.272 67.7294 100.272 66.3395C100.272 65.3379 99.6182 64.7145 98.7598 64.4692V64.4181C99.5671 64.1115 100.017 63.5086 100.017 62.7012C100.017 61.4033 99.0255 60.6879 97.5641 60.6879C96.6852 60.6879 95.9595 61.0456 95.3055 61.6077L96.072 62.5377C96.5216 62.1187 96.9611 61.8632 97.5027 61.8632C98.1466 61.8632 98.5145 62.2209 98.5145 62.8136C98.5145 63.4881 98.0648 63.9582 96.6749 63.9582V65.0415C98.3203 65.0415 98.7598 65.5014 98.7598 66.2475C98.7598 66.922 98.2386 67.3103 97.4619 67.3103C96.7771 67.3103 96.2355 66.9629 95.7858 66.5234L95.0704 67.4739C95.6019 68.087 96.4092 68.5265 97.6049 68.5265ZM103.633 68.5265C105.084 68.5265 106.3 67.7294 106.3 66.3395C106.3 65.3379 105.646 64.7145 104.788 64.4692V64.4181C105.595 64.1115 106.045 63.5086 106.045 62.7012C106.045 61.4033 105.054 60.6879 103.592 60.6879C102.713 60.6879 101.988 61.0456 101.334 61.6077L102.1 62.5377C102.55 62.1187 102.989 61.8632 103.531 61.8632C104.175 61.8632 104.543 62.2209 104.543 62.8136C104.543 63.4881 104.093 63.9582 102.703 63.9582V65.0415C104.348 65.0415 104.788 65.5014 104.788 66.2475C104.788 66.922 104.267 67.3103 103.49 67.3103C102.805 67.3103 102.264 66.9629 101.814 66.5234L101.099 67.4739C101.63 68.087 102.437 68.5265 103.633 68.5265ZM108.527 68.5265C109.058 68.5265 109.467 68.1075 109.467 67.5454C109.467 66.9833 109.058 66.5745 108.527 66.5745C107.985 66.5745 107.597 66.9833 107.597 67.5454C107.597 68.1075 107.985 68.5265 108.527 68.5265ZM111.022 68.3834H115.58V67.1673H114.16V60.8208H113.046C112.555 61.1171 112.044 61.3113 111.278 61.4544V62.3844H112.658V67.1673H111.022V68.3834ZM116.631 64.6736V65.7467H125.196V64.6736H116.631ZM120.341 65.2459V67.2388H121.711V65.2459H120.341ZM117.623 68.0462V69.1295H124.255V68.0462H117.623ZM117.623 66.5234V68.5061H118.972V66.5234H117.623ZM117.725 60.1258V64.0196H124.102V60.1258H122.753V61.0967H119.064V60.1258H117.725ZM119.064 62.1187H122.753V62.9567H119.064V62.1187Z" fill="#38D9A9"/>
</g>
<g opacity="0.6">
<path d="M24.7251 89.4164V89.9069C24.7251 91.3275 24.0199 92.932 22.4768 93.6371L23.2126 94.6796C24.9295 93.9131 25.7778 91.8998 25.7778 89.9069V89.4164H24.7251ZM25.0215 89.4164V89.9069C25.0215 91.8078 25.8288 93.7496 27.4947 94.516L28.2203 93.4838C26.7384 92.7685 26.0741 91.2559 26.0741 89.9069V89.4164H25.0215ZM22.8038 88.5068V89.5799H27.9546V88.5068H22.8038ZM24.7149 87.1782V89.0587H26.0741V87.1782H24.7149ZM28.7006 86.9636V96.4271H30.0701V86.9636H28.7006ZM29.7635 90.6325V91.7567H31.4395V90.6325H29.7635ZM36.6099 88.3433V89.4164H38.9094V88.3433H36.6099ZM36.6099 90.2748V91.3683H38.9094V90.2748H36.6099ZM32.4505 87.5359V92.0837H36.9268V87.5359H35.5982V88.7929H33.7995V87.5359H32.4505ZM33.7995 89.8456H35.5982V91.0209H33.7995V89.8456ZM38.613 86.9636V92.6152H39.9723V86.9636H38.613ZM36.7632 92.7787C34.7602 92.7787 33.5236 93.4634 33.5236 94.608C33.5236 95.7629 34.7602 96.4271 36.7632 96.4271C38.7663 96.4271 40.0029 95.7629 40.0029 94.608C40.0029 93.4634 38.7663 92.7787 36.7632 92.7787ZM36.7632 93.8211C37.9998 93.8211 38.6539 94.0664 38.6539 94.608C38.6539 95.1394 37.9998 95.3949 36.7632 95.3949C35.5369 95.3949 34.8828 95.1394 34.8828 94.608C34.8828 94.0664 35.5369 93.8211 36.7632 93.8211ZM43.9163 91.818V93.8926H45.2755V91.818H43.9163ZM48.0655 86.9636V94.1277H49.4248V86.9636H48.0655ZM42.6082 95.1803V96.2636H49.6292V95.1803H42.6082ZM42.6082 93.4532V95.4665H43.9674V93.4532H42.6082ZM41.5862 92.2268C43.2929 92.2268 45.5106 92.1757 47.5239 91.8384L47.4421 90.8676C45.4595 91.1231 43.1498 91.1435 41.4227 91.1435L41.5862 92.2268ZM46.2771 92.4619V93.3919H48.3619V92.4619H46.2771ZM44.4682 87.2906C43.0783 87.2906 42.1074 87.9754 42.1074 88.9769C42.1074 89.9887 43.0783 90.6632 44.4682 90.6632C45.8478 90.6632 46.8187 89.9887 46.8187 88.9769C46.8187 87.9754 45.8478 87.2906 44.4682 87.2906ZM44.4682 88.282C45.0916 88.282 45.531 88.517 45.531 88.9769C45.531 89.4368 45.0916 89.6719 44.4682 89.6719C43.8345 89.6719 43.3951 89.4368 43.3951 88.9769C43.3951 88.517 43.8345 88.282 44.4682 88.282Z" fill="#515151"/>
<path d="M143.218 95.5177H147.776V94.3015H146.356V88.1492H145.242C144.751 88.4456 144.24 88.6398 143.474 88.7931V89.7231H144.854V94.3015H143.218V95.5177ZM151.638 95.6608C152.926 95.6608 154.009 94.7206 154.009 93.2182C154.009 91.6751 153.099 90.9494 151.832 90.9494C151.321 90.9494 150.636 91.2867 150.228 91.859L150.289 92.881C150.677 92.2371 151.147 92.0123 151.556 92.0123C152.21 92.0123 152.639 92.3904 152.639 93.2182C152.639 94.0869 152.18 94.5264 151.597 94.5264C150.861 94.5264 150.289 93.8621 150.289 92.0327C150.289 89.9275 151.025 89.2325 151.934 89.2325C152.374 89.2325 152.834 89.4676 153.099 89.7742L153.897 88.8646C153.447 88.4047 152.772 88.0164 151.842 88.0164C150.32 88.0164 148.909 89.2223 148.909 92.0327C148.909 94.5673 150.197 95.6608 151.638 95.6608ZM156.102 95.6608C156.634 95.6608 157.043 95.2418 157.043 94.6797C157.043 94.1176 156.634 93.7088 156.102 93.7088C155.561 93.7088 155.172 94.1176 155.172 94.6797C155.172 95.2418 155.561 95.6608 156.102 95.6608ZM158.199 95.5177H163.268V94.2504H161.613C161.255 94.2504 160.754 94.3015 160.376 94.3424C161.725 92.9321 162.921 91.5933 162.921 90.3158C162.921 88.9157 161.96 88.0164 160.54 88.0164C159.508 88.0164 158.823 88.4149 158.128 89.161L158.956 89.9786C159.344 89.5698 159.784 89.1916 160.346 89.1916C161.071 89.1916 161.47 89.6413 161.47 90.3874C161.47 91.4911 160.172 92.7686 158.199 94.6592V95.5177ZM164.606 95.5177H166.077V94.0767L166.885 93.1467L168.275 95.5177H169.9L167.764 92.1554L169.726 89.8048H168.07L166.128 92.2576H166.077V87.3725H164.606V95.5177ZM170.773 95.5177H172.276V91.5831C172.664 91.1538 173.042 90.9494 173.359 90.9494C173.911 90.9494 174.166 91.2458 174.166 92.1452V95.5177H175.669V91.5831C176.078 91.1538 176.435 90.9494 176.762 90.9494C177.314 90.9494 177.559 91.2458 177.559 92.1452V95.5177H179.062V91.951C179.062 90.5202 178.51 89.6618 177.294 89.6618C176.548 89.6618 175.996 90.1114 175.464 90.6531C175.199 90.0194 174.718 89.6618 173.891 89.6618C173.155 89.6618 172.623 90.0705 172.143 90.5611H172.112L171.99 89.8048H170.773V95.5177Z" fill="#F4607A"/>
<path d="M98.5515 95.5177H99.9516V87.955H98.1427L95.3323 92.5335V93.5657H100.851V92.4109H96.7937L97.9588 90.5304C98.1734 90.1216 98.3778 89.7026 98.572 89.2938H98.6128C98.5924 89.7435 98.5515 90.4282 98.5515 90.8677V95.5177ZM101.575 95.5177H106.644V94.2504H105.009C104.651 94.2504 104.15 94.3015 103.772 94.3424C105.152 92.9934 106.297 91.5218 106.297 90.1421C106.297 88.7318 105.336 87.8222 103.915 87.8222C102.883 87.8222 102.198 88.2208 101.503 88.9668L102.331 89.7844C102.72 89.3552 103.159 88.9975 103.721 88.9975C104.447 88.9975 104.845 89.4676 104.845 90.2238C104.845 91.3889 103.639 92.8095 101.575 94.6592V95.5177ZM108.829 95.6608C109.361 95.6608 109.77 95.2418 109.77 94.6797C109.77 94.1176 109.361 93.7088 108.829 93.7088C108.288 93.7088 107.899 94.1176 107.899 94.6797C107.899 95.2418 108.288 95.6608 108.829 95.6608ZM113.287 95.6608C114.738 95.6608 115.955 94.8636 115.955 93.4737C115.955 92.4722 115.301 91.8488 114.442 91.6035V91.5524C115.249 91.2458 115.699 90.6429 115.699 89.8355C115.699 88.5376 114.708 87.8222 113.246 87.8222C112.368 87.8222 111.642 88.1799 110.988 88.742L111.754 89.672C112.204 89.253 112.643 88.9975 113.185 88.9975C113.829 88.9975 114.197 89.3552 114.197 89.9479C114.197 90.6224 113.747 91.0925 112.357 91.0925V92.1758C114.003 92.1758 114.442 92.6357 114.442 93.3818C114.442 94.0563 113.921 94.4446 113.144 94.4446C112.459 94.4446 111.918 94.0971 111.468 93.6577L110.753 94.6081C111.284 95.2213 112.092 95.6608 113.287 95.6608ZM116.934 91.8079V92.881H125.498V91.8079H116.934ZM120.644 92.3802V94.3731H122.013V92.3802H120.644ZM117.925 95.1804V96.2637H124.558V95.1804H117.925ZM117.925 93.6577V95.6403H119.274V93.6577H117.925ZM118.028 87.2601V91.1538H124.405V87.2601H123.056V88.231H119.366V87.2601H118.028ZM119.366 89.253H123.056V90.091H119.366V89.253Z" fill="#38D9A9"/>
</g>
<g opacity="0.4">
<path d="M24.7762 114.588V115.375C24.7762 116.662 24.1119 117.93 22.5279 118.461L23.2432 119.534C25.0624 118.9 25.8902 117.255 25.8902 115.375V114.588H24.7762ZM25.0521 114.588V115.344C25.0521 117.122 25.8493 118.665 27.5662 119.268L28.2714 118.206C26.7793 117.715 26.1457 116.529 26.1457 115.344V114.588H25.0521ZM28.7415 114.097V119.565H30.1007V114.097H28.7415ZM29.7226 116.233V117.347H31.3578V116.233H29.7226ZM23.9484 119.943V123.458H30.1007V119.943H23.9484ZM28.7722 121.006V122.385H25.2872V121.006H28.7722ZM34.2492 114.588V115.436C34.2492 116.734 33.5849 118.011 31.9702 118.533L32.6753 119.626C34.5353 119.003 35.3836 117.337 35.3836 115.436V114.588H34.2492ZM34.5353 114.588V115.375C34.5353 117.214 35.2916 118.737 37.0392 119.34L37.7443 118.277C36.242 117.797 35.6288 116.632 35.6288 115.375V114.588H34.5353ZM38.613 114.097V119.636H39.9723V114.097H38.613ZM36.7632 119.882C34.7602 119.882 33.5236 120.566 33.5236 121.721C33.5236 122.886 34.7602 123.561 36.7632 123.561C38.7663 123.561 40.0029 122.886 40.0029 121.721C40.0029 120.566 38.7663 119.882 36.7632 119.882ZM36.7632 120.934C37.9998 120.934 38.6539 121.19 38.6539 121.721C38.6539 122.253 37.9998 122.518 36.7632 122.518C35.5369 122.518 34.8828 122.253 34.8828 121.721C34.8828 121.19 35.5369 120.934 36.7632 120.934ZM36.8859 115.814V116.918H38.8072V115.814H36.8859ZM46.0114 115.477V116.55H48.3108V115.477H46.0114ZM46.0114 117.408V118.502H48.3108V117.408H46.0114ZM41.8519 114.669V119.217H46.3282V114.669H44.9996V115.926H43.2009V114.669H41.8519ZM43.2009 116.979H44.9996V118.154H43.2009V116.979ZM48.0144 114.097V119.749H49.3737V114.097H48.0144ZM46.1647 119.912C44.1616 119.912 42.925 120.597 42.925 121.742C42.925 122.896 44.1616 123.561 46.1647 123.561C48.1677 123.561 49.4043 122.896 49.4043 121.742C49.4043 120.597 48.1677 119.912 46.1647 119.912ZM46.1647 120.955C47.4013 120.955 48.0553 121.2 48.0553 121.742C48.0553 122.273 47.4013 122.528 46.1647 122.528C44.9383 122.528 44.2842 122.273 44.2842 121.742C44.2842 121.2 44.9383 120.955 46.1647 120.955ZM53.3177 118.952V121.026H54.677V118.952H53.3177ZM57.467 114.097V121.261H58.8262V114.097H57.467ZM52.0096 122.314V123.397H59.0306V122.314H52.0096ZM52.0096 120.587V122.6H53.3688V120.587H52.0096ZM50.9876 119.36C52.6943 119.36 54.912 119.309 56.9253 118.972L56.8435 118.001C54.8609 118.257 52.5512 118.277 50.8241 118.277L50.9876 119.36ZM55.6785 119.595V120.525H57.7633V119.595H55.6785ZM53.8696 114.424C52.4797 114.424 51.5088 115.109 51.5088 116.11C51.5088 117.122 52.4797 117.797 53.8696 117.797C55.2493 117.797 56.2201 117.122 56.2201 116.11C56.2201 115.109 55.2493 114.424 53.8696 114.424ZM53.8696 115.416C54.493 115.416 54.9324 115.651 54.9324 116.11C54.9324 116.57 54.493 116.805 53.8696 116.805C53.236 116.805 52.7965 116.57 52.7965 116.11C52.7965 115.651 53.236 115.416 53.8696 115.416Z" fill="#515151"/>
<path d="M143.218 122.651H147.776V121.435H146.356V115.283H145.242C144.751 115.579 144.24 115.773 143.474 115.926V116.856H144.854V121.435H143.218V122.651ZM150.994 122.794C152.517 122.794 153.927 121.578 153.927 118.778C153.927 116.243 152.639 115.15 151.198 115.15C149.911 115.15 148.828 116.09 148.828 117.592C148.828 119.136 149.727 119.861 150.994 119.861C151.515 119.861 152.2 119.524 152.619 118.952L152.537 117.93C152.169 118.563 151.689 118.798 151.28 118.798C150.626 118.798 150.197 118.42 150.197 117.592C150.197 116.713 150.657 116.274 151.229 116.274C151.965 116.274 152.548 116.938 152.548 118.778C152.548 120.883 151.822 121.578 150.902 121.578C150.473 121.578 150.003 121.343 149.737 121.026L148.94 121.936C149.379 122.406 150.064 122.794 150.994 122.794ZM156.102 122.794C156.634 122.794 157.043 122.375 157.043 121.813C157.043 121.251 156.634 120.842 156.102 120.842C155.561 120.842 155.172 121.251 155.172 121.813C155.172 122.375 155.561 122.794 156.102 122.794ZM160.989 122.794C162.277 122.794 163.36 121.854 163.36 120.352C163.36 118.808 162.451 118.083 161.184 118.083C160.673 118.083 159.988 118.42 159.579 118.992L159.64 120.014C160.029 119.371 160.499 119.146 160.908 119.146C161.562 119.146 161.991 119.524 161.991 120.352C161.991 121.22 161.531 121.66 160.949 121.66C160.213 121.66 159.64 120.996 159.64 119.166C159.64 117.061 160.376 116.366 161.286 116.366C161.725 116.366 162.185 116.601 162.451 116.908L163.248 115.998C162.798 115.538 162.124 115.15 161.194 115.15C159.671 115.15 158.261 116.356 158.261 119.166C158.261 121.701 159.548 122.794 160.989 122.794ZM164.606 122.651H166.077V121.21L166.885 120.28L168.275 122.651H169.9L167.764 119.289L169.726 116.938H168.07L166.128 119.391H166.077V114.506H164.606V122.651ZM170.773 122.651H172.276V118.716C172.664 118.287 173.042 118.083 173.359 118.083C173.911 118.083 174.166 118.379 174.166 119.279V122.651H175.669V118.716C176.078 118.287 176.435 118.083 176.762 118.083C177.314 118.083 177.559 118.379 177.559 119.279V122.651H179.062V119.084C179.062 117.654 178.51 116.795 177.294 116.795C176.548 116.795 175.996 117.245 175.464 117.786C175.199 117.153 174.718 116.795 173.891 116.795C173.155 116.795 172.623 117.204 172.143 117.695H172.112L171.99 116.938H170.773V122.651Z" fill="#F4607A"/>
<path d="M97.6356 122.794C99.0255 122.794 100.283 121.823 100.283 120.147C100.283 118.492 99.2197 117.746 97.9524 117.746C97.6049 117.746 97.3392 117.817 97.0428 117.95L97.1859 116.346H99.935V115.088H95.888L95.6734 118.757L96.3683 119.207C96.8078 118.921 97.0531 118.808 97.5027 118.808C98.259 118.808 98.77 119.299 98.77 120.178C98.77 121.077 98.2283 121.578 97.4312 121.578C96.7363 121.578 96.1946 121.231 95.7756 120.812L95.0704 121.762C95.6427 122.324 96.4399 122.794 97.6356 122.794ZM101.272 122.651H106.341V121.384H104.706C104.348 121.384 103.848 121.435 103.47 121.476C104.849 120.127 105.994 118.655 105.994 117.276C105.994 115.865 105.033 114.956 103.613 114.956C102.58 114.956 101.896 115.354 101.201 116.1L102.029 116.918C102.417 116.489 102.856 116.131 103.418 116.131C104.144 116.131 104.543 116.601 104.543 117.357C104.543 118.522 103.337 119.943 101.272 121.793V122.651ZM108.527 122.794C109.058 122.794 109.467 122.375 109.467 121.813C109.467 121.251 109.058 120.842 108.527 120.842C107.985 120.842 107.597 121.251 107.597 121.813C107.597 122.375 107.985 122.794 108.527 122.794ZM111.022 122.651H115.58V121.435H114.16V115.088H113.046C112.555 115.385 112.044 115.579 111.278 115.722V116.652H112.658V121.435H111.022V122.651ZM116.631 118.941V120.014H125.196V118.941H116.631ZM120.341 119.514V121.507H121.711V119.514H120.341ZM117.623 122.314V123.397H124.255V122.314H117.623ZM117.623 120.791V122.774H118.972V120.791H117.623ZM117.725 114.394V118.287H124.102V114.394H122.753V115.364H119.064V114.394H117.725ZM119.064 116.386H122.753V117.224H119.064V116.386Z" fill="#38D9A9"/>
</g>
</svg>
