<svg width="487" height="333" viewBox="0 0 487 333" fill="none" xmlns="http://www.w3.org/2000/svg">
<rect x="23.4531" y="41.0881" width="438.958" height="242.804" rx="41.1465" fill="#545454"/>
<path d="M246.097 146.048C230.975 151.449 216.284 162.25 278.502 162.25C356.273 162.25 427.563 166.301 353.032 182.503C278.502 198.706 46.8268 204.917 128.63 242.452" stroke="#FC9E9E" stroke-width="2.46879"/>
<g filter="url(#filter0_d_860_530)">
<rect x="4.87842" y="0.926758" width="301.467" height="64.7388" rx="32.3694" fill="white"/>
<rect x="5.37842" y="1.42676" width="300.467" height="63.7388" rx="31.8694" stroke="#91CFC0"/>
</g>
<path d="M116.995 41.0077V42.1257H119.166V41.0077H116.995ZM116.995 44.6477V45.7657H119.166V44.6477H116.995ZM121.116 38.2517V50.1337H122.416V38.2517H121.116ZM118.763 38.4727V49.5617H120.037V38.4727H118.763ZM114.941 39.1747C113.394 39.1747 112.393 40.7867 112.393 43.3867C112.393 45.9997 113.394 47.6117 114.941 47.6117C116.501 47.6117 117.502 45.9997 117.502 43.3867C117.502 40.7867 116.501 39.1747 114.941 39.1747ZM114.941 40.4487C115.76 40.4487 116.267 41.5147 116.267 43.3867C116.267 45.2587 115.76 46.3247 114.941 46.3247C114.122 46.3247 113.628 45.2587 113.628 43.3867C113.628 41.5147 114.122 40.4487 114.941 40.4487ZM126.991 38.8757V40.0197C126.991 41.7487 125.99 43.3477 124.118 44.0107L124.833 45.0897C126.939 44.3097 128.109 42.3467 128.109 40.0197V38.8757H126.991ZM127.251 38.8757V40.1367C127.251 42.2427 128.421 44.0367 130.436 44.7517L131.151 43.6857C129.37 43.1007 128.356 41.6707 128.356 40.1367V38.8757H127.251ZM132.139 38.2517V45.3757H133.504V38.2517H132.139ZM133.127 41.1767V42.3077H135.181V41.1767H133.127ZM129.682 45.6747C127.225 45.6747 125.717 46.4937 125.717 47.8977C125.717 49.3017 127.225 50.1207 129.682 50.1207C132.126 50.1207 133.634 49.3017 133.634 47.8977C133.634 46.4937 132.126 45.6747 129.682 45.6747ZM129.682 46.7407C131.333 46.7407 132.282 47.1437 132.282 47.8977C132.282 48.6517 131.333 49.0547 129.682 49.0547C128.031 49.0547 127.069 48.6517 127.069 47.8977C127.069 47.1437 128.031 46.7407 129.682 46.7407ZM136.181 44.1667V45.2587H146.945V44.1667H136.181ZM140.965 44.8687V47.5077H142.343V44.8687H140.965ZM137.507 48.7817V49.8997H145.762V48.7817H137.507ZM137.507 46.3897V49.0807H138.872V46.3897H137.507ZM141.55 38.5117C139.015 38.5117 137.338 39.4477 137.338 40.9427C137.338 42.4247 139.015 43.3607 141.55 43.3607C144.085 43.3607 145.762 42.4247 145.762 40.9427C145.762 39.4477 144.085 38.5117 141.55 38.5117ZM141.55 39.6037C143.227 39.6037 144.306 40.0977 144.306 40.9427C144.306 41.7747 143.227 42.2557 141.55 42.2557C139.886 42.2557 138.794 41.7747 138.794 40.9427C138.794 40.0977 139.886 39.6037 141.55 39.6037ZM156.577 38.2647V45.0117H157.942V38.2647H156.577ZM150.168 45.6097V49.9907H157.942V45.6097H150.168ZM156.603 46.6887V48.8987H151.507V46.6887H156.603ZM151.533 38.8497C149.713 38.8497 148.374 39.9937 148.374 41.6577C148.374 43.2957 149.713 44.4657 151.533 44.4657C153.353 44.4657 154.679 43.2957 154.679 41.6577C154.679 39.9937 153.353 38.8497 151.533 38.8497ZM151.533 39.9807C152.586 39.9807 153.353 40.6437 153.353 41.6577C153.353 42.6717 152.586 43.3217 151.533 43.3217C150.48 43.3217 149.7 42.6717 149.7 41.6577C149.7 40.6437 150.48 39.9807 151.533 39.9807ZM164.371 44.1277C164.93 44.1277 165.372 43.6857 165.372 43.0747C165.372 42.4637 164.93 42.0217 164.371 42.0217C163.799 42.0217 163.37 42.4637 163.37 43.0747C163.37 43.6857 163.799 44.1277 164.371 44.1277ZM164.371 49.2367C164.93 49.2367 165.372 48.7947 165.372 48.1837C165.372 47.5597 164.93 47.1307 164.371 47.1307C163.799 47.1307 163.37 47.5597 163.37 48.1837C163.37 48.7947 163.799 49.2367 164.371 49.2367ZM169.785 49.0547H175.973V47.7807H173.581C173.113 47.7807 172.502 47.8327 172.008 47.8847C174.036 45.9347 175.518 44.0237 175.518 42.1907C175.518 40.4487 174.387 39.3177 172.632 39.3177C171.384 39.3177 170.539 39.8507 169.707 40.7477L170.565 41.5667C171.072 40.9817 171.696 40.5137 172.45 40.5137C173.516 40.5137 174.062 41.2287 174.062 42.2557C174.062 43.8287 172.619 45.6877 169.785 48.1837V49.0547ZM179.136 49.0547H180.67C180.839 45.3237 181.19 43.2047 183.426 40.3967V39.4867H177.277V40.7607H181.775C179.916 43.3347 179.305 45.5707 179.136 49.0547ZM185.068 51.6677C186.42 51.1607 187.213 50.1077 187.213 48.7297C187.213 47.7287 186.784 47.1307 186.056 47.1307C185.484 47.1307 185.003 47.4947 185.003 48.0927C185.003 48.7037 185.484 49.0547 186.017 49.0547C186.264 49.0547 186.498 48.9767 186.68 48.7817L186.056 47.8067L186.16 49.0027C186.16 49.7827 185.64 50.4457 184.743 50.8227L185.068 51.6677ZM191.631 49.2367C193.503 49.2367 194.725 47.5597 194.725 44.2317C194.725 40.9297 193.503 39.3177 191.631 39.3177C189.746 39.3177 188.537 40.9297 188.537 44.2317C188.537 47.5597 189.746 49.2367 191.631 49.2367ZM191.631 48.0407C190.656 48.0407 189.967 47.0007 189.967 44.2317C189.967 41.5017 190.656 40.4877 191.631 40.4877C192.606 40.4877 193.282 41.5017 193.282 44.2317C193.282 47.0007 192.606 48.0407 191.631 48.0407ZM199.045 49.2367C200.917 49.2367 202.139 47.5597 202.139 44.2317C202.139 40.9297 200.917 39.3177 199.045 39.3177C197.16 39.3177 195.951 40.9297 195.951 44.2317C195.951 47.5597 197.16 49.2367 199.045 49.2367ZM199.045 48.0407C198.07 48.0407 197.381 47.0007 197.381 44.2317C197.381 41.5017 198.07 40.4877 199.045 40.4877C200.02 40.4877 200.696 41.5017 200.696 44.2317C200.696 47.0007 200.02 48.0407 199.045 48.0407ZM206.459 49.2367C208.331 49.2367 209.553 47.5597 209.553 44.2317C209.553 40.9297 208.331 39.3177 206.459 39.3177C204.574 39.3177 203.365 40.9297 203.365 44.2317C203.365 47.5597 204.574 49.2367 206.459 49.2367ZM206.459 48.0407C205.484 48.0407 204.795 47.0007 204.795 44.2317C204.795 41.5017 205.484 40.4877 206.459 40.4877C207.434 40.4877 208.11 41.5017 208.11 44.2317C208.11 47.0007 207.434 48.0407 206.459 48.0407ZM214.003 44.2837V46.9097H215.368V44.2837H214.003ZM219.242 38.2517V47.2737H220.607V38.2517H219.242ZM212.3 48.7947V49.8997H220.88V48.7947H212.3ZM212.3 46.4027V49.0937H213.665V46.4027H212.3ZM210.883 44.7387C213.028 44.7387 215.862 44.6867 218.41 44.2707L218.319 43.2827C215.81 43.6077 212.885 43.6337 210.701 43.6337L210.883 44.7387ZM216.902 45.2197V46.1817H219.567V45.2197H216.902ZM214.549 38.7067C212.807 38.7067 211.611 39.5387 211.611 40.7997C211.611 42.0607 212.807 42.8797 214.549 42.8797C216.278 42.8797 217.487 42.0607 217.487 40.7997C217.487 39.5387 216.278 38.7067 214.549 38.7067ZM214.549 39.7077C215.511 39.7077 216.187 40.1107 216.187 40.7997C216.187 41.4757 215.511 41.8787 214.549 41.8787C213.574 41.8787 212.898 41.4757 212.898 40.7997C212.898 40.1107 213.574 39.7077 214.549 39.7077Z" fill="#828282"/>
<path d="M24.8874 27.623H27.0812V22.0543H29.4062C32.2562 22.0543 34.3937 20.723 34.3937 17.8355C34.3937 14.8355 32.2562 13.823 29.4062 13.823H24.8874V27.623ZM27.0812 20.3105V15.5855H29.1624C31.1499 15.5855 32.2374 16.1668 32.2374 17.8355C32.2374 19.4855 31.1499 20.3105 29.1624 20.3105H27.0812ZM32.4437 27.623H34.8812L30.6062 20.2168L28.9937 21.4918L32.4437 27.623ZM42.4608 27.8855C46.0046 27.8855 48.4608 25.1293 48.4608 20.6668C48.4608 16.223 46.0046 13.5793 42.4608 13.5793C38.8983 13.5793 36.4421 16.223 36.4421 20.6668C36.4421 25.1293 38.8983 27.8855 42.4608 27.8855ZM42.4608 25.973C40.1546 25.973 38.6921 23.8918 38.6921 20.6668C38.6921 17.4418 40.1546 15.473 42.4608 15.473C44.7483 15.473 46.2296 17.4418 46.2296 20.6668C46.2296 23.8918 44.7483 25.973 42.4608 25.973ZM56.4091 27.8855C59.4653 27.8855 61.5278 26.198 61.5278 21.7168V13.823H59.4278V21.848C59.4278 24.9605 58.1341 25.973 56.4091 25.973C54.6841 25.973 53.4466 24.9605 53.4466 21.848V13.823H51.2716V21.7168C51.2716 26.198 53.3341 27.8855 56.4091 27.8855ZM67.8916 27.623H70.0853V15.6605H74.1353V13.823H63.8416V15.6605H67.8916V27.623ZM76.5415 27.623H84.9227V25.7855H78.7352V21.3418H83.779V19.4855H78.7352V15.6605H84.7165V13.823H76.5415V27.623Z" fill="#636363"/>
<path d="M48.1968 55.2964H51.6093L53.3531 48.3214C53.7093 46.9339 54.0843 45.3026 54.4218 43.8401H54.4968C54.8718 45.2651 55.2281 46.9339 55.6031 48.3214L57.3468 55.2964H60.8718L56.5406 41.3276H52.5281L48.1968 55.2964ZM51.1406 52.0901H57.8906V49.5026H51.1406V52.0901Z" fill="#636363"/>
<path d="M115.485 20.4469V22.3969C115.485 24.6719 114.263 26.9599 112.365 27.8179L113.184 28.9489C115.316 27.9089 116.603 25.2699 116.603 22.3969V20.4469H115.485ZM115.745 20.4469V22.3969C115.745 25.1659 117.032 27.7009 119.125 28.6889L119.931 27.5969C118.059 26.7649 116.85 24.5809 116.85 22.3969V20.4469H115.745ZM120.88 19.4589V31.3669H122.245V19.4589H120.88ZM132.319 19.4719V28.0779H133.697V19.4719H132.319ZM133.294 22.9429V24.0739H135.374V22.9429H133.294ZM129.056 20.3819V21.0189C129.056 23.1249 127.34 24.8539 124.389 25.7249L124.961 26.8169C128.432 25.7639 130.499 23.5149 130.499 20.3819H129.056ZM124.883 20.3819V21.4869H129.771V20.3819H124.883ZM126.17 30.0149V31.1199H134.165V30.0149H126.17ZM126.17 27.2069V30.4829H127.535V27.2069H126.17ZM142.757 22.2539V23.3589H145.227V22.2539H142.757ZM144.863 19.4719V25.9459H146.215V19.4719H144.863ZM138.493 26.4789V31.2109H146.215V26.4789H144.876V27.7659H139.845V26.4789H138.493ZM139.845 28.8319H144.876V30.1059H139.845V28.8319ZM139.286 20.3949V21.2789C139.286 22.8779 138.22 24.4379 136.374 25.0749L137.063 26.1539C139.182 25.4129 140.391 23.4629 140.391 21.2789V20.3949H139.286ZM139.559 20.3949V21.2659C139.559 23.3199 140.716 25.1789 142.77 25.8939L143.446 24.8279C141.665 24.2169 140.651 22.7349 140.651 21.2659V20.3949H139.559ZM136.764 20.1089V21.2009H143.134V20.1089H136.764ZM149.685 20.1479V21.2529H157.238V20.1479H149.685ZM148.346 24.8409V25.9459H159.11V24.8409H148.346ZM156.432 20.1479V21.1229C156.432 22.2149 156.432 23.4369 156.055 25.1529L157.394 25.2829C157.771 23.5149 157.771 22.2279 157.771 21.1229V20.1479H156.432ZM149.724 30.0019V31.1069H158.122V30.0019H149.724ZM149.724 27.1289V30.1319H151.076V27.1289H149.724ZM163.191 20.1219V21.2659C163.191 23.0079 162.151 24.6069 160.24 25.2439L160.955 26.3489C163.126 25.5819 164.322 23.6059 164.322 21.2659V20.1219H163.191ZM163.451 20.1219V21.2139C163.451 23.4369 164.582 25.2569 166.623 25.9979L167.351 24.9319C165.544 24.3339 164.556 22.8519 164.556 21.2139V20.1219H163.451ZM168.781 19.4719V26.4659H170.146V19.4719H168.781ZM166.181 26.8039C163.698 26.8039 162.177 27.6359 162.177 29.0659C162.177 30.5089 163.698 31.3409 166.181 31.3409C168.664 31.3409 170.185 30.5089 170.185 29.0659C170.185 27.6359 168.664 26.8039 166.181 26.8039ZM166.181 27.8699C167.871 27.8699 168.833 28.2989 168.833 29.0659C168.833 29.8459 167.871 30.2749 166.181 30.2749C164.504 30.2749 163.529 29.8459 163.529 29.0659C163.529 28.2989 164.504 27.8699 166.181 27.8699ZM166.376 21.8249V22.9429H169.015V21.8249H166.376ZM217.559 22.3319V23.4499H220.029V22.3319H217.559ZM219.665 19.4719V26.3879H221.03V19.4719H219.665ZM213.23 26.9209V31.2109H221.03V26.9209H213.23ZM219.691 27.9999V30.1189H214.569V27.9999H219.691ZM214.088 20.5899V21.4609C214.088 23.0599 213.022 24.6199 211.176 25.2569L211.865 26.3359C213.984 25.5949 215.193 23.6579 215.193 21.4609V20.5899H214.088ZM214.361 20.5899V21.4479C214.361 23.5019 215.518 25.3739 217.572 26.0889L218.248 25.0099C216.467 24.3859 215.453 22.9169 215.453 21.4479V20.5899H214.361ZM211.566 20.1609V21.2529H217.936V20.1609H211.566ZM228.551 32.8619L229.474 32.4589C228.369 30.5869 227.849 28.3899 227.849 26.2189C227.849 24.0479 228.369 21.8509 229.474 19.9789L228.551 19.5629C227.329 21.5389 226.614 23.6449 226.614 26.2189C226.614 28.7929 227.329 30.8989 228.551 32.8619ZM231.209 30.2749H236.682V29.0399H234.81V20.7069H233.679C233.12 21.0449 232.496 21.2789 231.586 21.4349V22.3839H233.315V29.0399H231.209V30.2749ZM241.509 30.4569C243.056 30.4569 244.369 29.2089 244.369 27.3109C244.369 25.2829 243.277 24.3079 241.665 24.3079C240.95 24.3079 240.066 24.7499 239.507 25.5039L239.572 26.5959C240.144 25.7249 240.833 25.3869 241.405 25.3869C242.419 25.3869 242.978 26.0759 242.978 27.3109C242.978 28.5459 242.328 29.2999 241.496 29.2999C240.326 29.2999 239.598 28.1429 239.598 25.6729C239.598 22.7479 240.625 21.7599 241.899 21.7599C242.458 21.7599 243.043 22.0589 243.394 22.4749L244.213 21.5649C243.667 20.9799 242.887 20.5379 241.821 20.5379C239.923 20.5379 238.207 22.0069 238.207 25.6729C238.207 28.9229 239.689 30.4569 241.509 30.4569ZM245.517 25.6599V26.7519H256.281V25.6599H245.517ZM250.327 26.2319V28.8579H251.679V26.2319H250.327ZM246.83 30.0149V31.1199H255.085V30.0149H246.83ZM246.83 27.8699V30.4569H248.182V27.8699H246.83ZM246.921 19.8489V24.6589H254.877V19.8489H253.525V21.2269H248.26V19.8489H246.921ZM248.26 22.2669H253.525V23.5799H248.26V22.2669ZM258.425 32.8619C259.634 30.8989 260.349 28.7929 260.349 26.2189C260.349 23.6449 259.634 21.5389 258.425 19.5629L257.489 19.9789C258.594 21.8509 259.127 24.0479 259.127 26.2189C259.127 28.3899 258.594 30.5869 257.489 32.4589L258.425 32.8619Z" fill="#828282"/>
<path d="M183.095 30.5969C186.361 30.5969 189.397 27.9059 189.397 21.2359C189.397 15.6469 186.775 13.0479 183.532 13.0479C180.772 13.0479 178.472 15.2329 178.472 18.6139C178.472 22.1559 180.381 23.9269 183.21 23.9269C184.567 23.9269 186.085 23.0989 187.074 21.7879L186.936 19.8559C185.947 21.3969 184.751 21.9949 183.693 21.9949C181.922 21.9949 180.933 20.7529 180.933 18.6139C180.933 16.3829 182.083 15.0719 183.555 15.0719C185.625 15.0719 186.936 17.0039 186.936 21.2359C186.936 26.6179 185.119 28.4119 182.98 28.4119C181.922 28.4119 180.887 27.9059 180.197 27.1469L178.771 28.7799C179.737 29.7919 181.14 30.5969 183.095 30.5969ZM194.05 30.5969C195.039 30.5969 195.821 29.8149 195.821 28.7339C195.821 27.6299 195.039 26.8709 194.05 26.8709C193.038 26.8709 192.279 27.6299 192.279 28.7339C192.279 29.8149 193.038 30.5969 194.05 30.5969ZM198.463 30.2749H209.411V28.0209H205.179C204.351 28.0209 203.27 28.1129 202.396 28.2049C205.984 24.7549 208.606 21.3739 208.606 18.1309C208.606 15.0489 206.605 13.0479 203.5 13.0479C201.292 13.0479 199.797 13.9909 198.325 15.5779L199.843 17.0269C200.74 15.9919 201.844 15.1639 203.178 15.1639C205.064 15.1639 206.03 16.4289 206.03 18.2459C206.03 21.0289 203.477 24.3179 198.463 28.7339V30.2749Z" fill="#5E5E5E"/>
<path d="M264.817 136.631C425.575 167.316 523.056 118.125 398.604 111.299C274.153 104.473 68.7583 188.498 112.327 143.892C147.182 108.207 75.6739 124.182 35.5632 136.631" stroke="#91CFC0" stroke-width="2.46879"/>
<path fill-rule="evenodd" clip-rule="evenodd" d="M259.609 139.507C259.609 141.999 257.588 144.02 255.095 144.02C252.602 144.02 250.582 141.999 250.582 139.507C250.582 137.014 252.602 134.993 255.095 134.993C257.588 134.993 259.609 137.014 259.609 139.507ZM260.814 139.507C260.814 142.665 258.253 145.225 255.095 145.225C251.937 145.225 249.377 142.665 249.377 139.507C249.377 136.349 251.937 133.788 255.095 133.788C258.253 133.788 260.814 136.349 260.814 139.507ZM255.096 142.939C256.991 142.939 258.528 141.402 258.528 139.507C258.528 137.611 256.991 136.074 255.096 136.074C253.2 136.074 251.663 137.611 251.663 139.507C251.663 141.402 253.2 142.939 255.096 142.939Z" fill="#00AD8E"/>
<path fill-rule="evenodd" clip-rule="evenodd" d="M248.645 120.067L255.201 139.507L261.757 120.065C262.32 119.019 262.638 117.822 262.638 116.551C262.638 112.443 259.308 109.113 255.201 109.113C251.093 109.113 247.763 112.443 247.763 116.551C247.763 117.823 248.082 119.02 248.645 120.067Z" fill="#FF5555"/>
<circle cx="255.201" cy="116.547" r="2.24066" transform="rotate(-180 255.201 116.547)" fill="white"/>
<line x1="97.748" y1="11.813" x2="97.748" y2="56.2964" stroke="#91CFC0"/>
<g filter="url(#filter1_d_860_530)">
<rect x="180.702" y="259.314" width="301.467" height="64.7388" rx="32.3694" fill="white"/>
<rect x="181.202" y="259.814" width="300.467" height="63.7388" rx="31.8694" stroke="#FC9E9E"/>
</g>
<path d="M295.475 301.637V302.755H297.646V301.637H295.475ZM295.475 305.277V306.395H297.646V305.277H295.475ZM299.596 298.881V310.763H300.896V298.881H299.596ZM297.243 299.102V310.191H298.517V299.102H297.243ZM293.421 299.804C291.874 299.804 290.873 301.416 290.873 304.016C290.873 306.629 291.874 308.241 293.421 308.241C294.981 308.241 295.982 306.629 295.982 304.016C295.982 301.416 294.981 299.804 293.421 299.804ZM293.421 301.078C294.24 301.078 294.747 302.144 294.747 304.016C294.747 305.888 294.24 306.954 293.421 306.954C292.602 306.954 292.108 305.888 292.108 304.016C292.108 302.144 292.602 301.078 293.421 301.078ZM305.471 299.505V300.649C305.471 302.378 304.47 303.977 302.598 304.64L303.313 305.719C305.419 304.939 306.589 302.976 306.589 300.649V299.505H305.471ZM305.731 299.505V300.766C305.731 302.872 306.901 304.666 308.916 305.381L309.631 304.315C307.85 303.73 306.836 302.3 306.836 300.766V299.505H305.731ZM310.619 298.881V306.005H311.984V298.881H310.619ZM311.607 301.806V302.937H313.661V301.806H311.607ZM308.162 306.304C305.705 306.304 304.197 307.123 304.197 308.527C304.197 309.931 305.705 310.75 308.162 310.75C310.606 310.75 312.114 309.931 312.114 308.527C312.114 307.123 310.606 306.304 308.162 306.304ZM308.162 307.37C309.813 307.37 310.762 307.773 310.762 308.527C310.762 309.281 309.813 309.684 308.162 309.684C306.511 309.684 305.549 309.281 305.549 308.527C305.549 307.773 306.511 307.37 308.162 307.37ZM314.661 304.796V305.888H325.425V304.796H314.661ZM319.445 305.498V308.137H320.823V305.498H319.445ZM315.987 309.411V310.529H324.242V309.411H315.987ZM315.987 307.019V309.71H317.352V307.019H315.987ZM320.03 299.141C317.495 299.141 315.818 300.077 315.818 301.572C315.818 303.054 317.495 303.99 320.03 303.99C322.565 303.99 324.242 303.054 324.242 301.572C324.242 300.077 322.565 299.141 320.03 299.141ZM320.03 300.233C321.707 300.233 322.786 300.727 322.786 301.572C322.786 302.404 321.707 302.885 320.03 302.885C318.366 302.885 317.274 302.404 317.274 301.572C317.274 300.727 318.366 300.233 320.03 300.233ZM335.057 298.894V305.641H336.422V298.894H335.057ZM328.648 306.239V310.62H336.422V306.239H328.648ZM335.083 307.318V309.528H329.987V307.318H335.083ZM330.013 299.479C328.193 299.479 326.854 300.623 326.854 302.287C326.854 303.925 328.193 305.095 330.013 305.095C331.833 305.095 333.159 303.925 333.159 302.287C333.159 300.623 331.833 299.479 330.013 299.479ZM330.013 300.61C331.066 300.61 331.833 301.273 331.833 302.287C331.833 303.301 331.066 303.951 330.013 303.951C328.96 303.951 328.18 303.301 328.18 302.287C328.18 301.273 328.96 300.61 330.013 300.61ZM342.851 304.757C343.41 304.757 343.852 304.315 343.852 303.704C343.852 303.093 343.41 302.651 342.851 302.651C342.279 302.651 341.85 303.093 341.85 303.704C341.85 304.315 342.279 304.757 342.851 304.757ZM342.851 309.866C343.41 309.866 343.852 309.424 343.852 308.813C343.852 308.189 343.41 307.76 342.851 307.76C342.279 307.76 341.85 308.189 341.85 308.813C341.85 309.424 342.279 309.866 342.851 309.866ZM348.265 309.684H354.453V308.41H352.061C351.593 308.41 350.982 308.462 350.488 308.514C352.516 306.564 353.998 304.653 353.998 302.82C353.998 301.078 352.867 299.947 351.112 299.947C349.864 299.947 349.019 300.48 348.187 301.377L349.045 302.196C349.552 301.611 350.176 301.143 350.93 301.143C351.996 301.143 352.542 301.858 352.542 302.885C352.542 304.458 351.099 306.317 348.265 308.813V309.684ZM358.591 309.866C360.359 309.866 361.802 308.852 361.802 307.123C361.802 305.823 360.931 305.004 359.826 304.718V304.653C360.84 304.276 361.477 303.509 361.477 302.404C361.477 300.831 360.268 299.947 358.552 299.947C357.447 299.947 356.563 300.415 355.796 301.091L356.589 302.04C357.135 301.494 357.759 301.143 358.487 301.143C359.41 301.143 359.956 301.676 359.956 302.521C359.956 303.483 359.332 304.185 357.46 304.185V305.303C359.605 305.303 360.281 305.979 360.281 307.045C360.281 308.033 359.54 308.631 358.474 308.631C357.473 308.631 356.771 308.15 356.212 307.578L355.471 308.54C356.121 309.268 357.096 309.866 358.591 309.866ZM363.548 312.297C364.9 311.79 365.693 310.737 365.693 309.359C365.693 308.358 365.264 307.76 364.536 307.76C363.964 307.76 363.483 308.124 363.483 308.722C363.483 309.333 363.964 309.684 364.497 309.684C364.744 309.684 364.978 309.606 365.16 309.411L364.536 308.436L364.64 309.632C364.64 310.412 364.12 311.075 363.223 311.452L363.548 312.297ZM369.89 309.866C371.554 309.866 373.114 308.657 373.114 306.551C373.114 304.445 371.801 303.509 370.202 303.509C369.682 303.509 369.292 303.626 368.889 303.834L369.11 301.39H372.659V300.116H367.797L367.511 304.666L368.252 305.134C368.811 304.77 369.175 304.601 369.773 304.601C370.865 304.601 371.593 305.329 371.593 306.59C371.593 307.864 370.787 308.631 369.708 308.631C368.707 308.631 368.005 308.15 367.472 307.604L366.744 308.579C367.433 309.255 368.382 309.866 369.89 309.866ZM377.525 309.866C379.397 309.866 380.619 308.189 380.619 304.861C380.619 301.559 379.397 299.947 377.525 299.947C375.64 299.947 374.431 301.559 374.431 304.861C374.431 308.189 375.64 309.866 377.525 309.866ZM377.525 308.67C376.55 308.67 375.861 307.63 375.861 304.861C375.861 302.131 376.55 301.117 377.525 301.117C378.5 301.117 379.176 302.131 379.176 304.861C379.176 307.63 378.5 308.67 377.525 308.67ZM384.939 309.866C386.811 309.866 388.033 308.189 388.033 304.861C388.033 301.559 386.811 299.947 384.939 299.947C383.054 299.947 381.845 301.559 381.845 304.861C381.845 308.189 383.054 309.866 384.939 309.866ZM384.939 308.67C383.964 308.67 383.275 307.63 383.275 304.861C383.275 302.131 383.964 301.117 384.939 301.117C385.914 301.117 386.59 302.131 386.59 304.861C386.59 307.63 385.914 308.67 384.939 308.67ZM392.483 304.913V307.539H393.848V304.913H392.483ZM397.722 298.881V307.903H399.087V298.881H397.722ZM390.78 309.424V310.529H399.36V309.424H390.78ZM390.78 307.032V309.723H392.145V307.032H390.78ZM389.363 305.368C391.508 305.368 394.342 305.316 396.89 304.9L396.799 303.912C394.29 304.237 391.365 304.263 389.181 304.263L389.363 305.368ZM395.382 305.849V306.811H398.047V305.849H395.382ZM393.029 299.336C391.287 299.336 390.091 300.168 390.091 301.429C390.091 302.69 391.287 303.509 393.029 303.509C394.758 303.509 395.967 302.69 395.967 301.429C395.967 300.168 394.758 299.336 393.029 299.336ZM393.029 300.337C393.991 300.337 394.667 300.74 394.667 301.429C394.667 302.105 393.991 302.508 393.029 302.508C392.054 302.508 391.378 302.105 391.378 301.429C391.378 300.74 392.054 300.337 393.029 300.337Z" fill="#828282"/>
<path d="M200.711 286.011H202.904V280.442H205.229C208.079 280.442 210.217 279.111 210.217 276.223C210.217 273.223 208.079 272.211 205.229 272.211H200.711V286.011ZM202.904 278.698V273.973H204.986C206.973 273.973 208.061 274.554 208.061 276.223C208.061 277.873 206.973 278.698 204.986 278.698H202.904ZM208.267 286.011H210.704L206.429 278.604L204.817 279.879L208.267 286.011ZM218.284 286.273C221.828 286.273 224.284 283.517 224.284 279.054C224.284 274.611 221.828 271.967 218.284 271.967C214.722 271.967 212.265 274.611 212.265 279.054C212.265 283.517 214.722 286.273 218.284 286.273ZM218.284 284.361C215.978 284.361 214.515 282.279 214.515 279.054C214.515 275.829 215.978 273.861 218.284 273.861C220.572 273.861 222.053 275.829 222.053 279.054C222.053 282.279 220.572 284.361 218.284 284.361ZM232.232 286.273C235.289 286.273 237.351 284.586 237.351 280.104V272.211H235.251V280.236C235.251 283.348 233.957 284.361 232.232 284.361C230.507 284.361 229.27 283.348 229.27 280.236V272.211H227.095V280.104C227.095 284.586 229.157 286.273 232.232 286.273ZM243.715 286.011H245.909V274.048H249.959V272.211H239.665V274.048H243.715V286.011ZM252.365 286.011H260.746V284.173H254.558V279.729H259.602V277.873H254.558V274.048H260.54V272.211H252.365V286.011Z" fill="#636363"/>
<path d="M225.453 313.684H230.722C233.759 313.684 236.178 312.409 236.178 309.559C236.178 307.703 235.109 306.653 233.703 306.278V306.203C234.828 305.772 235.522 304.422 235.522 303.184C235.522 300.503 233.215 299.715 230.328 299.715H225.453V313.684ZM228.809 305.265V302.284H230.197C231.603 302.284 232.259 302.697 232.259 303.69C232.259 304.647 231.622 305.265 230.197 305.265H228.809ZM228.809 311.115V307.722H230.478C232.109 307.722 232.915 308.19 232.915 309.334C232.915 310.534 232.09 311.115 230.478 311.115H228.809Z" fill="#636363"/>
<path d="M293.304 277.531V279.481C293.304 281.756 292.082 284.044 290.184 284.902L291.003 286.033C293.135 284.993 294.422 282.354 294.422 279.481V277.531H293.304ZM293.564 277.531V279.481C293.564 282.25 294.851 284.785 296.944 285.773L297.75 284.681C295.878 283.849 294.669 281.665 294.669 279.481V277.531H293.564ZM298.699 276.543V288.451H300.064V276.543H298.699ZM310.138 276.556V285.162H311.516V276.556H310.138ZM311.113 280.027V281.158H313.193V280.027H311.113ZM306.875 277.466V278.103C306.875 280.209 305.159 281.938 302.208 282.809L302.78 283.901C306.251 282.848 308.318 280.599 308.318 277.466H306.875ZM302.702 277.466V278.571H307.59V277.466H302.702ZM303.989 287.099V288.204H311.984V287.099H303.989ZM303.989 284.291V287.567H305.354V284.291H303.989ZM320.576 279.338V280.443H323.046V279.338H320.576ZM322.682 276.556V283.03H324.034V276.556H322.682ZM316.312 283.563V288.295H324.034V283.563H322.695V284.85H317.664V283.563H316.312ZM317.664 285.916H322.695V287.19H317.664V285.916ZM317.105 277.479V278.363C317.105 279.962 316.039 281.522 314.193 282.159L314.882 283.238C317.001 282.497 318.21 280.547 318.21 278.363V277.479H317.105ZM317.378 277.479V278.35C317.378 280.404 318.535 282.263 320.589 282.978L321.265 281.912C319.484 281.301 318.47 279.819 318.47 278.35V277.479H317.378ZM314.583 277.193V278.285H320.953V277.193H314.583ZM327.504 277.232V278.337H335.057V277.232H327.504ZM326.165 281.925V283.03H336.929V281.925H326.165ZM334.251 277.232V278.207C334.251 279.299 334.251 280.521 333.874 282.237L335.213 282.367C335.59 280.599 335.59 279.312 335.59 278.207V277.232H334.251ZM327.543 287.086V288.191H335.941V287.086H327.543ZM327.543 284.213V287.216H328.895V284.213H327.543ZM341.01 277.206V278.35C341.01 280.092 339.97 281.691 338.059 282.328L338.774 283.433C340.945 282.666 342.141 280.69 342.141 278.35V277.206H341.01ZM341.27 277.206V278.298C341.27 280.521 342.401 282.341 344.442 283.082L345.17 282.016C343.363 281.418 342.375 279.936 342.375 278.298V277.206H341.27ZM346.6 276.556V283.55H347.965V276.556H346.6ZM344 283.888C341.517 283.888 339.996 284.72 339.996 286.15C339.996 287.593 341.517 288.425 344 288.425C346.483 288.425 348.004 287.593 348.004 286.15C348.004 284.72 346.483 283.888 344 283.888ZM344 284.954C345.69 284.954 346.652 285.383 346.652 286.15C346.652 286.93 345.69 287.359 344 287.359C342.323 287.359 341.348 286.93 341.348 286.15C341.348 285.383 342.323 284.954 344 284.954ZM344.195 278.909V280.027H346.834V278.909H344.195ZM398.297 279.416V280.534H400.767V279.416H398.297ZM400.403 276.556V283.472H401.768V276.556H400.403ZM393.968 284.005V288.295H401.768V284.005H393.968ZM400.429 285.084V287.203H395.307V285.084H400.429ZM394.826 277.674V278.545C394.826 280.144 393.76 281.704 391.914 282.341L392.603 283.42C394.722 282.679 395.931 280.742 395.931 278.545V277.674H394.826ZM395.099 277.674V278.532C395.099 280.586 396.256 282.458 398.31 283.173L398.986 282.094C397.205 281.47 396.191 280.001 396.191 278.532V277.674H395.099ZM392.304 277.245V278.337H398.674V277.245H392.304ZM409.289 289.946L410.212 289.543C409.107 287.671 408.587 285.474 408.587 283.303C408.587 281.132 409.107 278.935 410.212 277.063L409.289 276.647C408.067 278.623 407.352 280.729 407.352 283.303C407.352 285.877 408.067 287.983 409.289 289.946ZM411.401 287.359H417.589V286.085H415.197C414.729 286.085 414.118 286.137 413.624 286.189C415.652 284.239 417.134 282.328 417.134 280.495C417.134 278.753 416.003 277.622 414.248 277.622C413 277.622 412.155 278.155 411.323 279.052L412.181 279.871C412.688 279.286 413.312 278.818 414.066 278.818C415.132 278.818 415.678 279.533 415.678 280.56C415.678 282.133 414.235 283.992 411.401 286.488V287.359ZM421.727 287.541C423.495 287.541 424.938 286.527 424.938 284.798C424.938 283.498 424.067 282.679 422.962 282.393V282.328C423.976 281.951 424.613 281.184 424.613 280.079C424.613 278.506 423.404 277.622 421.688 277.622C420.583 277.622 419.699 278.09 418.932 278.766L419.725 279.715C420.271 279.169 420.895 278.818 421.623 278.818C422.546 278.818 423.092 279.351 423.092 280.196C423.092 281.158 422.468 281.86 420.596 281.86V282.978C422.741 282.978 423.417 283.654 423.417 284.72C423.417 285.708 422.676 286.306 421.61 286.306C420.609 286.306 419.907 285.825 419.348 285.253L418.607 286.215C419.257 286.943 420.232 287.541 421.727 287.541ZM426.255 282.744V283.836H437.019V282.744H426.255ZM431.065 283.316V285.942H432.417V283.316H431.065ZM427.568 287.099V288.204H435.823V287.099H427.568ZM427.568 284.954V287.541H428.92V284.954H427.568ZM427.659 276.933V281.743H435.615V276.933H434.263V278.311H428.998V276.933H427.659ZM428.998 279.351H434.263V280.664H428.998V279.351ZM439.163 289.946C440.372 287.983 441.087 285.877 441.087 283.303C441.087 280.729 440.372 278.623 439.163 276.647L438.227 277.063C439.332 278.935 439.865 281.132 439.865 283.303C439.865 285.474 439.332 287.671 438.227 289.543L439.163 289.946Z" fill="#828282"/>
<path d="M364.822 287.681C368.088 287.681 370.296 285.749 370.296 283.242C370.296 280.919 368.962 279.608 367.444 278.757V278.642C368.479 277.837 369.652 276.388 369.652 274.64C369.652 271.995 367.835 270.178 364.891 270.178C362.108 270.178 360.038 271.903 360.038 274.548C360.038 276.319 361.05 277.607 362.315 278.504V278.596C360.751 279.424 359.302 280.942 359.302 283.173C359.302 285.795 361.625 287.681 364.822 287.681ZM365.926 277.975C364.04 277.216 362.43 276.365 362.43 274.548C362.43 273.03 363.465 272.087 364.845 272.087C366.478 272.087 367.444 273.26 367.444 274.801C367.444 275.951 366.938 277.032 365.926 277.975ZM364.868 285.749C363.028 285.749 361.625 284.576 361.625 282.897C361.625 281.425 362.453 280.183 363.626 279.355C365.926 280.321 367.789 281.103 367.789 283.15C367.789 284.737 366.593 285.749 364.868 285.749ZM374.789 287.681C375.778 287.681 376.56 286.899 376.56 285.818C376.56 284.714 375.778 283.955 374.789 283.955C373.777 283.955 373.018 284.714 373.018 285.818C373.018 286.899 373.777 287.681 374.789 287.681ZM385.986 287.359H388.47V270.431H385.388L378.672 281.034V282.828H390.632V280.758H381.34L384.652 275.675C385.135 274.801 385.595 273.904 386.009 273.053H386.124C386.055 273.973 385.986 275.422 385.986 276.319V287.359Z" fill="#5E5E5E"/>
<line x1="273.117" y1="271.986" x2="273.117" y2="316.469" stroke="#F8C9C9"/>
<circle cx="353.503" cy="108.4" r="5.8904" fill="#D9D9D9"/>
<circle cx="449.217" cy="126.504" r="5.8904" fill="#D9D9D9"/>
<circle cx="116.282" cy="118.788" r="5.8904" fill="#D9D9D9"/>
<circle cx="378.612" cy="163.719" r="5.8904" fill="#D9D9D9"/>
<circle cx="122.172" cy="244.929" r="5.8904" fill="#D9D9D9"/>
<circle cx="132.211" cy="151.938" r="5.8904" fill="#D9D9D9"/>
<circle cx="122.172" cy="213.711" r="5.8904" fill="#D9D9D9"/>
<defs>
<filter id="filter0_d_860_530" x="0.878418" y="0.926758" width="309.467" height="72.7388" filterUnits="userSpaceOnUse" color-interpolation-filters="sRGB">
<feFlood flood-opacity="0" result="BackgroundImageFix"/>
<feColorMatrix in="SourceAlpha" type="matrix" values="0 0 0 0 0 0 0 0 0 0 0 0 0 0 0 0 0 0 127 0" result="hardAlpha"/>
<feOffset dy="4"/>
<feGaussianBlur stdDeviation="2"/>
<feComposite in2="hardAlpha" operator="out"/>
<feColorMatrix type="matrix" values="0 0 0 0 0 0 0 0 0 0 0 0 0 0 0 0 0 0 0.25 0"/>
<feBlend mode="normal" in2="BackgroundImageFix" result="effect1_dropShadow_860_530"/>
<feBlend mode="normal" in="SourceGraphic" in2="effect1_dropShadow_860_530" result="shape"/>
</filter>
<filter id="filter1_d_860_530" x="176.702" y="259.314" width="309.467" height="72.7388" filterUnits="userSpaceOnUse" color-interpolation-filters="sRGB">
<feFlood flood-opacity="0" result="BackgroundImageFix"/>
<feColorMatrix in="SourceAlpha" type="matrix" values="0 0 0 0 0 0 0 0 0 0 0 0 0 0 0 0 0 0 127 0" result="hardAlpha"/>
<feOffset dy="4"/>
<feGaussianBlur stdDeviation="2"/>
<feComposite in2="hardAlpha" operator="out"/>
<feColorMatrix type="matrix" values="0 0 0 0 0 0 0 0 0 0 0 0 0 0 0 0 0 0 0.25 0"/>
<feBlend mode="normal" in2="BackgroundImageFix" result="effect1_dropShadow_860_530"/>
<feBlend mode="normal" in="SourceGraphic" in2="effect1_dropShadow_860_530" result="shape"/>
</filter>
</defs>
</svg>
