<svg width="281" height="150" viewBox="0 0 281 150" fill="none" xmlns="http://www.w3.org/2000/svg">
<path d="M81.8353 59.577V63.9411H111.241V59.577H81.8353ZM94.2348 61.9669V68.4783H99.8457V61.9669H94.2348ZM85.0564 70.8336V75.2669H108.02V70.8336H85.0564ZM85.0564 66.2617V72.7731H90.6327V66.2617H85.0564ZM85.5067 44.2682V57.8106H107.569V44.2682H102.028V47.1429H91.0137V44.2682H85.5067ZM91.0137 51.2992H102.028V53.5158H91.0137V51.2992ZM130.253 48.8747V53.3773H136.28V48.8747H130.253ZM120.763 44.9262V47.801C120.763 51.888 119.066 56.1481 113.351 57.9492L116.295 62.3132C122.876 60.1658 125.335 54.3124 125.335 47.801V44.9262H120.763ZM121.94 44.9262V48.1473C121.94 54.3124 124.192 59.7848 130.461 61.863L133.37 57.4989C128.036 55.8364 126.443 51.9572 126.443 48.1473V44.9262H121.94ZM118.754 63.9411V68.3398H135.552V75.7518H141.163V63.9411H118.754ZM135.552 43.2637V62.6596H141.163V43.2637H135.552ZM145.559 47.7663V52.165H160.799V47.7663H145.559ZM153.248 53.2387C149.092 53.2387 146.044 56.4945 146.044 61.1356C146.044 65.7768 149.092 69.0325 153.248 69.0325C157.439 69.0325 160.452 65.7768 160.452 61.1356C160.452 56.4945 157.439 53.2387 153.248 53.2387ZM153.248 57.8453C154.599 57.8453 155.534 58.919 155.534 61.1356C155.534 63.3869 154.599 64.426 153.248 64.426C151.897 64.426 150.962 63.3869 150.962 61.1356C150.962 58.919 151.897 57.8453 153.248 57.8453ZM168.419 43.2291V75.7172H173.718V43.2291H168.419ZM165.232 56.1828V60.6507H170.15V56.1828H165.232ZM161.665 43.7486V74.4703H166.86V43.7486H161.665ZM150.512 44.0604V50.5718H156.019V44.0604H150.512ZM185.006 47.1775V48.9093C185.006 51.0221 183.205 53.2734 177.663 53.9661L179.776 58.157C186.738 57.1526 189.543 53.4119 189.543 48.9093V47.1775H185.006ZM186.253 47.1775V48.9093C186.253 53.2387 188.885 56.9447 195.466 57.9145L197.648 53.689C192.487 53.0309 190.721 50.9182 190.721 48.9093V47.1775H186.253ZM179.118 45.0648V49.4288H196.436V45.0648H179.118ZM184.764 61.6552V74.782H190.375V61.6552H184.764ZM199.83 43.2291V75.7172H205.441V43.2291H199.83ZM177.975 64.1836C183.69 64.1836 191.206 64.0796 198.237 62.6942L197.96 58.6765C191.067 59.6463 183.101 59.7156 177.352 59.7156L177.975 64.1836ZM193.804 65.0841V69.2403H200.835V65.0841H193.804Z" fill="#C50000"/>
<path d="M223.643 47.8703H231.194L239.021 72.4614H232.163L230.674 67.6471H224.128L222.673 72.4614H215.781L223.643 47.8703ZM229.6 63.1445L227.418 54.4856L225.132 63.1445H229.6ZM241.064 72.4614V47.8703H251.663C252.864 47.8703 253.972 48.1127 254.988 48.5976C256.004 49.0825 256.881 49.7406 257.62 50.5718C258.359 51.38 258.925 52.292 259.317 53.308C259.733 54.324 259.941 55.3515 259.941 56.3906C259.941 57.8453 259.594 59.2191 258.902 60.5122C258.232 61.8053 257.285 62.8674 256.062 63.6987C254.861 64.5068 253.452 64.9109 251.836 64.9109H247.818V72.4614H241.064ZM247.818 59.0229H251.386C251.663 59.0229 251.928 58.9421 252.182 58.7804C252.436 58.6188 252.644 58.3417 252.806 57.9492C252.991 57.5566 253.083 57.0371 253.083 56.3906C253.083 55.6979 252.979 55.1668 252.771 54.7973C252.587 54.4048 252.344 54.1393 252.044 54.0007C251.767 53.8391 251.49 53.7583 251.213 53.7583H247.818V59.0229ZM262.644 72.4614V47.8703H269.398V72.4614H262.644Z" fill="#979797"/>
<path d="M4.86677 116.212V117.615H21.7586V116.212H4.86677ZM12.5805 116.914V121.204H14.2924V116.914H12.5805ZM7.01177 123.204V124.607H19.8818V123.204H7.01177ZM7.01177 119.554V123.741H8.70301V119.554H7.01177ZM7.11489 106.952V114.418H19.5311V106.952H17.8193V109.324H8.80614V106.952H7.11489ZM8.80614 110.664H17.8193V113.036H8.80614V110.664ZM33.4308 110.272V111.696H37.8445V110.272H33.4308ZM28.5014 107.323V109.262C28.5014 112.108 26.6864 114.604 23.8814 115.635L24.7683 116.996C27.9033 115.8 29.9039 112.851 29.9039 109.262V107.323H28.5014ZM28.8108 107.323V109.344C28.8108 112.624 30.832 115.449 33.8227 116.584L34.7302 115.243C32.0489 114.294 30.1927 111.902 30.1927 109.344V107.323H28.8108ZM26.7483 118.419V119.801H37.4733V125.019H39.1852V118.419H26.7483ZM37.4733 106.374V117.388H39.1852V106.374H37.4733ZM47.7635 109.035V112.067C47.7635 115.284 45.5154 118.791 42.8135 120.069L43.8035 121.431C46.7735 119.966 49.1454 116.006 49.1454 112.067V109.035H47.7635ZM48.0935 109.035V112.067C48.0935 115.944 50.486 119.574 53.4973 120.977L54.4667 119.616C51.7235 118.44 49.4754 115.222 49.4754 112.067V109.035H48.0935ZM43.4323 108.272V109.716H53.8479V108.272H43.4323ZM56.3642 106.374V125.019H58.076V106.374H56.3642ZM61.6425 116.274C61.6425 114.872 61.9244 113.497 62.4882 112.149C63.0657 110.802 63.76 109.441 64.5713 108.066L65.9738 108.684C65.7125 109.069 65.4307 109.557 65.1282 110.149C64.8257 110.74 64.5369 111.386 64.2619 112.087C63.9869 112.789 63.76 113.504 63.5813 114.232C63.4163 114.961 63.3338 115.662 63.3338 116.336C63.3338 117.422 63.5675 118.591 64.035 119.842C64.5025 121.08 65.135 122.324 65.9325 123.576L64.5919 124.277C64.0144 123.411 63.4988 122.537 63.045 121.657C62.605 120.764 62.2613 119.863 62.0138 118.956C61.7663 118.048 61.6425 117.154 61.6425 116.274ZM75.1974 115.656V118.481H76.9092V115.656H75.1974ZM67.6486 114.645V115.965H84.4786V114.645H67.6486ZM75.218 106.251V108.519H76.9092V106.251H75.218ZM75.1355 108.684V108.973C75.1355 110.974 72.2067 112.273 68.5355 112.5L69.0305 113.82C73.1555 113.469 76.6411 111.902 76.6411 108.973V108.684H75.1355ZM75.4861 108.684V108.973C75.4861 111.902 78.9511 113.469 83.0761 113.82L83.5711 112.5C79.9205 112.273 76.9917 110.974 76.9917 108.973V108.684H75.4861ZM69.3605 108.004V109.303H82.7667V108.004H69.3605ZM69.6699 117.656V118.956H80.6424V120.544H69.7111V124.009H71.4024V121.761H82.3336V117.656H69.6699ZM69.7111 123.514V124.813H82.8905V123.514H69.7111ZM87.3851 107.137V115.284H96.0064V107.137H94.3358V109.819H89.0764V107.137H87.3851ZM89.0764 111.159H94.3358V113.902H89.0764V111.159ZM99.3683 106.374V115.986H101.08V106.374H99.3683ZM100.338 110.376V111.799H103.823V110.376H100.338ZM89.2414 116.893V118.254H99.4095V120.131H89.2826V124.215H90.9739V121.41H101.08V116.893H89.2414ZM89.2826 123.452V124.813H101.761V123.452H89.2826ZM110.525 109.035V112.067C110.525 115.284 108.277 118.791 105.575 120.069L106.565 121.431C109.535 119.966 111.907 116.006 111.907 112.067V109.035H110.525ZM110.855 109.035V112.067C110.855 115.944 113.247 119.574 116.259 120.977L117.228 119.616C114.485 118.44 112.237 115.222 112.237 112.067V109.035H110.855ZM106.194 108.272V109.716H116.609V108.272H106.194ZM119.125 106.374V125.019H120.837V106.374H119.125ZM128.508 116.274C128.508 117.154 128.384 118.048 128.137 118.956C127.889 119.863 127.539 120.764 127.085 121.657C126.645 122.537 126.136 123.411 125.559 124.277L124.218 123.576C125.016 122.324 125.648 121.08 126.116 119.842C126.583 118.591 126.817 117.422 126.817 116.336C126.817 115.662 126.728 114.961 126.549 114.232C126.384 113.504 126.164 112.789 125.889 112.087C125.614 111.386 125.325 110.74 125.023 110.149C124.72 109.557 124.438 109.069 124.177 108.684L125.579 108.066C126.391 109.441 127.078 110.802 127.642 112.149C128.219 113.497 128.508 114.872 128.508 116.274ZM130.41 121.307V122.73H147.302V121.307H130.41ZM137.959 117.306V121.905H139.67V117.306H137.959ZM132.452 107.756V109.138H143.527V112.026H132.514V117.141H134.205V113.407H145.219V107.756H132.452ZM132.514 116.419V117.821H145.652V116.419H132.514ZM149.363 117.409V118.811H166.275V117.409H149.363ZM156.911 118.069V125.019H158.603V118.069H156.911ZM151.487 107.117V115.181H164.109V107.117H162.418V109.674H153.199V107.117H151.487ZM153.199 111.056H162.418V113.799H153.199V111.056ZM182.01 106.354V125.04H183.702V106.354H182.01ZM178.133 113.387V114.81H182.258V113.387H178.133ZM169.202 119.141V120.564H170.625C174.173 120.564 176.442 120.461 179.123 119.987L178.958 118.584C176.338 119.079 174.132 119.141 170.625 119.141H169.202ZM169.202 108.066V119.636H170.893V109.489H177.823V108.066H169.202ZM170.46 113.304V114.686H177.019V113.304H170.46ZM193.33 119.121V120.544H194.795C198.28 120.544 200.714 120.441 203.602 119.946L203.416 118.543C200.611 119.038 198.239 119.121 194.795 119.121H193.33ZM193.33 108.066V119.616H195.042V109.489H202.014V108.066H193.33ZM194.609 113.284V114.666H201.601V113.284H194.609ZM205.149 106.374V125.019H206.881V106.374H205.149ZM206.469 113.861V115.305H209.934V113.861H206.469ZM225.586 106.374V118.791H227.216V106.374H225.586ZM218.038 111.861V113.263H222.369V111.861H218.038ZM221.894 106.766V117.182H223.503V106.766H221.894ZM217.934 108.086V108.581C217.934 112.232 215.789 115.078 211.664 116.872L212.531 118.131C217.233 116.047 219.646 112.582 219.646 108.086H217.934ZM212.448 108.086V109.489H218.594V108.086H212.448ZM220.141 117.718V118.522C220.141 120.997 217.068 123.081 213.789 123.596L214.449 124.937C218.203 124.277 221.606 121.864 221.606 118.522V117.718H220.141ZM220.368 117.718V118.522C220.368 121.864 223.771 124.277 227.525 124.937L228.206 123.596C224.906 123.081 221.833 120.997 221.833 118.522V117.718H220.368ZM235.423 109.035V112.067C235.423 115.284 233.175 118.791 230.473 120.069L231.463 121.431C234.433 119.966 236.805 116.006 236.805 112.067V109.035H235.423ZM235.753 109.035V112.067C235.753 115.944 238.145 119.574 241.157 120.977L242.126 119.616C239.383 118.44 237.135 115.222 237.135 112.067V109.035H235.753ZM231.092 108.272V109.716H241.507V108.272H231.092ZM244.023 106.374V125.019H245.735V106.374H244.023ZM259.408 111.036V112.459H263.554V111.036H259.408ZM263.079 106.374V117.285H264.791V106.374H263.079ZM252.705 118.192V124.772H264.791V118.192H252.705ZM263.121 119.554V123.39H254.376V119.554H263.121ZM254.211 108.148V109.654C254.211 112.294 252.292 114.769 249.508 115.759L250.395 117.12C253.509 115.965 255.613 113.057 255.613 109.654V108.148H254.211ZM254.541 108.148V109.633C254.541 112.768 256.541 115.594 259.573 116.687L260.439 115.326C257.737 114.377 255.922 112.046 255.922 109.633V108.148H254.541ZM250.044 107.571V108.952H260.006V107.571H250.044ZM14.9985 138.15V139.552H31.8491V138.15H14.9985ZM17.226 135.262V136.644H29.8485V135.262H17.226ZM17.226 130.972V136.376H18.9172V132.375H29.6422V130.972H17.226ZM17.0197 141.161V142.502H27.9922V144.276H17.061V147.906H18.7522V145.554H29.6835V141.161H17.0197ZM17.061 147.452V148.813H30.2403V147.452H17.061ZM40.015 131.715C37.1069 131.715 35.0031 133.509 35.0031 136.108C35.0031 138.727 37.1069 140.522 40.015 140.522C42.9231 140.522 45.0062 138.727 45.0062 136.108C45.0062 133.509 42.9231 131.715 40.015 131.715ZM40.015 133.2C41.9331 133.2 43.3356 134.376 43.3356 136.108C43.3356 137.841 41.9331 139.037 40.015 139.037C38.0762 139.037 36.6737 137.841 36.6737 136.108C36.6737 134.376 38.0762 133.2 40.015 133.2ZM47.44 130.354V149.04H49.1519V130.354H47.44ZM34.3019 144.956C37.6225 144.956 42.1806 144.936 46.3675 144.131L46.2231 142.873C42.16 143.512 37.4575 143.533 34.0544 143.533L34.3019 144.956ZM68.1032 134.891V136.294H72.2488V134.891H68.1032ZM71.7744 130.374V140.501H73.4863V130.374H71.7744ZM61.5444 141.409V148.772H73.4863V141.409H71.795V143.677H63.2357V141.409H61.5444ZM63.2357 145.059H71.795V147.369H63.2357V145.059ZM62.9057 131.839V133.365C62.9057 136.005 60.9875 138.48 58.2032 139.449L59.09 140.831C62.2044 139.676 64.3082 136.747 64.3082 133.365V131.839H62.9057ZM63.2357 131.839V133.344C63.2357 136.479 65.2363 139.284 68.2682 140.377L69.1344 139.037C66.4325 138.088 64.6175 135.757 64.6175 133.344V131.839H63.2357ZM58.7394 131.488V132.87H68.7013V131.488H58.7394ZM79.2803 131.467V132.87H91.1809V131.467H79.2803ZM77.1353 138.934V140.357H94.0272V138.934H77.1353ZM90.1703 131.467V132.932C90.1703 134.602 90.1703 136.582 89.5722 139.346L91.2428 139.532C91.8409 136.686 91.8409 134.644 91.8409 132.932V131.467H90.1703ZM79.3422 147.184V148.607H92.3978V147.184H79.3422ZM79.3422 142.419V147.39H81.0541V142.419H79.3422ZM100.791 131.426V133.344C100.791 136.191 98.9343 138.686 96.0881 139.697L96.9749 141.099C100.172 139.903 102.214 136.954 102.214 133.344V131.426H100.791ZM101.1 131.426V133.282C101.1 136.665 103.101 139.408 106.112 140.542L107.04 139.202C104.317 138.253 102.502 135.922 102.502 133.282V131.426H101.1ZM109.721 130.374V141.409H111.433V130.374H109.721ZM105.307 141.945C101.451 141.945 99.0787 143.244 99.0787 145.472C99.0787 147.699 101.451 148.978 105.307 148.978C109.144 148.978 111.516 147.699 111.516 145.472C111.516 143.244 109.144 141.945 105.307 141.945ZM105.307 143.306C108.112 143.306 109.824 144.111 109.824 145.472C109.824 146.833 108.112 147.637 105.307 147.637C102.502 147.637 100.791 146.833 100.791 145.472C100.791 144.111 102.502 143.306 105.307 143.306ZM105.679 134.314V135.737H110.092V134.314H105.679ZM120.278 140.212V141.615H137.17V140.212H120.278ZM127.992 140.914V145.204H129.704V140.914H127.992ZM122.423 147.204V148.607H135.293V147.204H122.423ZM122.423 143.554V147.741H124.114V143.554H122.423ZM122.526 130.952V138.418H134.943V130.952H133.231V133.324H124.218V130.952H122.526ZM124.218 134.664H133.231V137.036H124.218V134.664ZM148.842 134.272V135.696H153.256V134.272H148.842ZM143.913 131.323V133.262C143.913 136.108 142.098 138.604 139.293 139.635L140.18 140.996C143.315 139.8 145.315 136.851 145.315 133.262V131.323H143.913ZM144.222 131.323V133.344C144.222 136.624 146.243 139.449 149.234 140.584L150.142 139.243C147.46 138.294 145.604 135.902 145.604 133.344V131.323H144.222ZM142.16 142.419V143.801H152.885V149.019H154.597V142.419H142.16ZM152.885 130.374V141.388H154.597V130.374H152.885ZM166.661 130.684C162.536 130.684 160.102 131.839 160.102 133.922C160.102 136.005 162.536 137.16 166.661 137.16C170.765 137.16 173.219 136.005 173.219 133.922C173.219 131.839 170.765 130.684 166.661 130.684ZM166.661 131.983C169.692 131.983 171.446 132.684 171.446 133.922C171.446 135.159 169.692 135.861 166.661 135.861C163.608 135.861 161.855 135.159 161.855 133.922C161.855 132.684 163.608 131.983 166.661 131.983ZM158.225 138.397V139.779H175.076V138.397H158.225ZM160.267 141.367V142.687H171.239V144.337H160.308V147.844H161.999V145.575H172.931V141.367H160.267ZM160.308 147.472V148.813H173.487V147.472H160.308ZM196.605 130.374V149.019H198.255V130.374H196.605ZM189.819 137.057V138.48H193.387V137.057H189.819ZM192.872 130.807V148.071H194.481V130.807H192.872ZM186.231 133.262V135.634C186.231 139.057 184.787 142.461 182.188 144.028L183.24 145.307C185.983 143.574 187.551 139.717 187.551 135.634V133.262H186.231ZM186.581 133.262V135.634C186.581 139.532 188.087 143.203 190.809 144.853L191.861 143.595C189.304 142.11 187.901 138.872 187.901 135.634V133.262H186.581ZM182.704 132.54V133.963H191.222V132.54H182.704ZM209.762 142.131C205.781 142.131 203.265 143.43 203.265 145.575C203.265 147.699 205.781 148.978 209.762 148.978C213.722 148.978 216.259 147.699 216.259 145.575C216.259 143.43 213.722 142.131 209.762 142.131ZM209.762 143.471C212.691 143.471 214.547 144.276 214.547 145.575C214.547 146.854 212.691 147.658 209.762 147.658C206.833 147.658 204.956 146.854 204.956 145.575C204.956 144.276 206.833 143.471 209.762 143.471ZM203.41 131.302V132.705H215.413V131.302H203.41ZM201.409 139.057V140.439H218.239V139.057H201.409ZM208.318 135.469V139.449H210.01V135.469H208.318ZM214.423 131.302V132.891C214.423 134.355 214.423 135.716 213.908 137.634L215.599 137.841C216.094 135.902 216.094 134.396 216.094 132.891V131.302H214.423ZM233.005 130.374V149.019H234.717V130.374H233.005ZM234.304 138.026V139.47H237.769V138.026H234.304ZM220.279 133.344V134.747H231.272V133.344H220.279ZM225.848 136.294C223.229 136.294 221.31 138.067 221.31 140.584C221.31 143.1 223.229 144.874 225.848 144.874C228.488 144.874 230.385 143.1 230.385 140.584C230.385 138.067 228.488 136.294 225.848 136.294ZM225.848 137.717C227.539 137.717 228.756 138.892 228.756 140.584C228.756 142.254 227.539 143.451 225.848 143.451C224.157 143.451 222.94 142.254 222.94 140.584C222.94 138.892 224.157 137.717 225.848 137.717ZM224.961 130.601V133.984H226.673V130.601H224.961ZM241.625 135.964V137.366H254.288V135.964H241.625ZM239.335 139.862V141.264H256.248V139.862H239.335ZM241.625 131.055V136.665H243.316V131.055H241.625ZM241.501 147.163V148.566H254.391V147.163H241.501ZM241.501 143.121V147.534H243.192V143.121H241.501Z" fill="#565656"/>
<path d="M1.53932 6.97765C1.53932 4.04664 3.91538 1.67058 6.84638 1.67058L46.5474 1.67055L61.997 17.1174V70.3904C61.997 73.3214 59.621 75.6975 56.69 75.6975H6.84639C3.91538 75.6975 1.53932 73.3214 1.53932 70.3904V6.97765Z" fill="#FBFBFB" stroke="#565656" stroke-width="1.87308"/>
<path d="M47.8377 10.5228V2.99503L60.6725 15.8298H53.1447C50.2137 15.8298 47.8377 13.4538 47.8377 10.5228Z" fill="#8E8E8E" stroke="#5B5B5B" stroke-width="1.87308"/>
<rect x="10.0642" y="23.8171" width="11.4456" height="4.29213" fill="#BBBBBB"/>
<rect x="42.0266" y="23.8171" width="11.4456" height="4.29213" fill="#BBBBBB"/>
<rect x="23.0847" y="23.8171" width="17.3894" height="4.29213" fill="#BBBBBB"/>
<rect x="10.0642" y="30.8547" width="11.4456" height="4.29213" fill="#BBBBBB"/>
<rect x="42.0266" y="30.8547" width="11.4456" height="4.29213" fill="#BBBBBB"/>
<rect x="23.0847" y="30.8547" width="17.3894" height="4.29213" fill="#BBBBBB"/>
<rect x="10.0642" y="37.8923" width="11.4456" height="4.29213" fill="#BBBBBB"/>
<rect x="42.0266" y="37.8923" width="11.4456" height="4.29213" fill="#BBBBBB"/>
<rect x="23.0847" y="37.8923" width="17.3894" height="4.29213" fill="#BBBBBB"/>
<path d="M94.2435 8.83676H88.8757V22.734H86.3055V8.83676H80.9149V6.58499H94.2435V8.83676ZM96.0907 22.734V10.8383H98.5926V22.734H96.0907ZM96.0907 8.88225V6.13009H98.5926V8.88225H96.0907ZM119.795 22.734H117.293V16.0697C117.293 14.9628 117.111 14.1515 116.747 13.636C116.384 13.1204 115.853 12.8626 115.155 12.8626C114.458 12.8626 113.806 13.128 113.199 13.6587C112.608 14.1743 112.191 14.849 111.948 15.683V22.734H109.446V16.0697C109.446 14.9628 109.264 14.1515 108.9 13.636C108.537 13.1204 108.013 12.8626 107.331 12.8626C106.634 12.8626 105.981 13.1204 105.375 13.636C104.784 14.1515 104.359 14.8263 104.101 15.6603V22.734H101.599V10.8383H103.874V13.2266C104.344 12.3926 104.958 11.7557 105.716 11.316C106.489 10.8611 107.369 10.6336 108.355 10.6336C109.34 10.6336 110.114 10.8914 110.675 11.407C111.251 11.9225 111.607 12.567 111.744 13.3403C112.259 12.4608 112.888 11.7936 113.631 11.3387C114.39 10.8687 115.254 10.6336 116.224 10.6336C116.922 10.6336 117.506 10.7625 117.976 11.0203C118.446 11.2781 118.81 11.6344 119.067 12.0893C119.325 12.529 119.507 13.0446 119.613 13.636C119.735 14.2122 119.795 14.8263 119.795 15.4783V22.734ZM128.069 22.9615C127.144 22.9615 126.303 22.8022 125.544 22.4838C124.801 22.1502 124.157 21.7029 123.611 21.1419C123.065 20.5656 122.641 19.9136 122.337 19.1858C122.049 18.4428 121.905 17.6543 121.905 16.8203C121.905 15.6982 122.163 14.6747 122.678 13.7497C123.194 12.8096 123.914 12.059 124.839 11.4979C125.764 10.9217 126.848 10.6336 128.092 10.6336C129.335 10.6336 130.404 10.9217 131.299 11.4979C132.209 12.059 132.914 12.802 133.414 13.727C133.915 14.6519 134.165 15.6451 134.165 16.7066C134.165 16.8885 134.157 17.0629 134.142 17.2297C134.127 17.3813 134.112 17.5102 134.096 17.6164H124.566C124.612 18.3139 124.801 18.928 125.135 19.4587C125.484 19.9743 125.923 20.3837 126.454 20.687C126.985 20.9751 127.553 21.1191 128.16 21.1191C128.827 21.1191 129.456 20.9523 130.048 20.6187C130.654 20.2851 131.064 19.8454 131.276 19.2995L133.414 19.9136C133.156 20.4898 132.762 21.013 132.231 21.483C131.716 21.9379 131.102 22.3019 130.389 22.5748C129.676 22.8326 128.903 22.9615 128.069 22.9615ZM124.498 15.956H131.686C131.64 15.2736 131.443 14.6747 131.094 14.1591C130.761 13.6284 130.328 13.219 129.798 12.9309C129.282 12.6276 128.706 12.476 128.069 12.476C127.447 12.476 126.871 12.6276 126.34 12.9309C125.825 13.219 125.4 13.6284 125.067 14.1591C124.733 14.6747 124.544 15.2736 124.498 15.956ZM154.402 22.734H151.9V16.0697C151.9 14.9628 151.718 14.1515 151.354 13.636C150.99 13.1204 150.459 12.8626 149.762 12.8626C149.064 12.8626 148.412 13.128 147.806 13.6587C147.214 14.1743 146.797 14.849 146.555 15.683V22.734H144.053V16.0697C144.053 14.9628 143.871 14.1515 143.507 13.636C143.143 13.1204 142.62 12.8626 141.937 12.8626C141.24 12.8626 140.588 13.1204 139.981 13.636C139.39 14.1515 138.965 14.8263 138.708 15.6603V22.734H136.206V10.8383H138.48V13.2266C138.95 12.3926 139.564 11.7557 140.322 11.316C141.096 10.8611 141.975 10.6336 142.961 10.6336C143.946 10.6336 144.72 10.8914 145.281 11.407C145.857 11.9225 146.213 12.567 146.35 13.3403C146.865 12.4608 147.495 11.7936 148.238 11.3387C148.996 10.8687 149.86 10.6336 150.831 10.6336C151.528 10.6336 152.112 10.7625 152.582 11.0203C153.052 11.2781 153.416 11.6344 153.674 12.0893C153.932 12.529 154.114 13.0446 154.22 13.636C154.341 14.2122 154.402 14.8263 154.402 15.4783V22.734ZM156.42 19.254C156.42 18.4958 156.633 17.8362 157.057 17.2752C157.497 16.699 158.096 16.2592 158.854 15.956C159.612 15.6375 160.492 15.4783 161.493 15.4783C162.023 15.4783 162.562 15.5162 163.108 15.592C163.669 15.6679 164.161 15.7892 164.586 15.956V15.2054C164.586 14.3714 164.336 13.7194 163.835 13.2493C163.335 12.7792 162.615 12.5442 161.675 12.5442C161.007 12.5442 160.378 12.6655 159.787 12.9081C159.195 13.1356 158.566 13.4616 157.899 13.8862L157.057 12.203C157.846 11.6723 158.634 11.2781 159.423 11.0203C160.226 10.7625 161.068 10.6336 161.948 10.6336C163.54 10.6336 164.791 11.0582 165.7 11.9073C166.625 12.7413 167.088 13.9317 167.088 15.4783V19.9136C167.088 20.2017 167.133 20.4064 167.224 20.5277C167.331 20.649 167.505 20.7173 167.748 20.7324V22.734C167.52 22.7795 167.315 22.8098 167.133 22.825C166.951 22.8402 166.8 22.8477 166.678 22.8477C166.148 22.8477 165.746 22.7188 165.473 22.4611C165.2 22.2033 165.041 21.9 164.995 21.5513L164.927 20.8689C164.412 21.5361 163.752 22.0517 162.948 22.4156C162.145 22.7795 161.333 22.9615 160.515 22.9615C159.726 22.9615 159.021 22.8022 158.399 22.4838C157.778 22.1502 157.292 21.7029 156.944 21.1419C156.595 20.5808 156.42 19.9515 156.42 19.254ZM163.995 19.9819C164.177 19.7847 164.321 19.5876 164.427 19.3905C164.533 19.1934 164.586 19.019 164.586 18.8673V17.5026C164.161 17.3358 163.714 17.2145 163.244 17.1387C162.774 17.0477 162.311 17.0022 161.857 17.0022C160.947 17.0022 160.204 17.1842 159.628 17.5481C159.066 17.912 158.786 18.4124 158.786 19.0493C158.786 19.3981 158.877 19.7317 159.059 20.0501C159.256 20.3685 159.529 20.6263 159.878 20.8234C160.242 21.0205 160.689 21.1191 161.22 21.1191C161.766 21.1191 162.289 21.013 162.789 20.8007C163.289 20.5884 163.691 20.3154 163.995 19.9819ZM176.879 22.9615C175.923 22.9615 175.082 22.734 174.354 22.2791C173.626 21.8242 173.05 21.2328 172.625 20.505V27.5787H170.123V10.8383H172.33V12.9764C172.784 12.2637 173.376 11.6951 174.104 11.2705C174.832 10.8459 175.643 10.6336 176.537 10.6336C177.356 10.6336 178.107 10.8004 178.789 11.134C179.472 11.4524 180.063 11.8998 180.563 12.476C181.064 13.0522 181.45 13.7118 181.723 14.4548C182.011 15.1826 182.155 15.956 182.155 16.7748C182.155 17.912 181.928 18.9507 181.473 19.8909C181.033 20.831 180.412 21.5816 179.608 22.1426C178.82 22.6885 177.91 22.9615 176.879 22.9615ZM176.06 20.8234C176.59 20.8234 177.068 20.7097 177.493 20.4822C177.932 20.2548 178.304 19.9515 178.607 19.5724C178.926 19.1934 179.168 18.7612 179.335 18.276C179.502 17.7907 179.585 17.2903 179.585 16.7748C179.585 16.2289 179.494 15.7134 179.312 15.2281C179.13 14.7429 178.865 14.3183 178.516 13.9544C178.183 13.5905 177.788 13.3024 177.333 13.0901C176.894 12.8778 176.409 12.7717 175.878 12.7717C175.559 12.7717 175.226 12.8323 174.877 12.9536C174.528 13.0749 174.202 13.2417 173.899 13.454C173.596 13.6663 173.33 13.9165 173.103 14.2046C172.875 14.4927 172.716 14.796 172.625 15.1144V18.2305C172.838 18.7157 173.118 19.1554 173.467 19.5497C173.816 19.9288 174.217 20.2396 174.672 20.4822C175.127 20.7097 175.59 20.8234 176.06 20.8234ZM188.636 22.9615C187.635 22.9615 186.688 22.8022 185.793 22.4838C184.898 22.1502 184.133 21.6574 183.496 21.0054L184.428 19.3222C185.111 19.9288 185.793 20.3685 186.475 20.6415C187.173 20.9144 187.863 21.0509 188.545 21.0509C189.243 21.0509 189.811 20.922 190.251 20.6642C190.691 20.3913 190.911 19.997 190.911 19.4815C190.911 19.1024 190.797 18.8219 190.57 18.6399C190.342 18.4579 190.008 18.2987 189.569 18.1622C189.144 18.0258 188.629 17.8741 188.022 17.7073C187.173 17.4496 186.46 17.1842 185.884 16.9113C185.308 16.6232 184.876 16.2744 184.588 15.865C184.299 15.4556 184.155 14.9324 184.155 14.2956C184.155 13.5222 184.353 12.8626 184.747 12.3168C185.141 11.7709 185.687 11.3539 186.384 11.0658C187.097 10.7777 187.916 10.6336 188.841 10.6336C189.705 10.6336 190.501 10.7701 191.229 11.043C191.972 11.3008 192.624 11.7102 193.185 12.2713L192.116 13.9317C191.585 13.4464 191.04 13.0901 190.479 12.8626C189.933 12.6352 189.341 12.5215 188.704 12.5215C188.341 12.5215 187.992 12.567 187.658 12.6579C187.325 12.7337 187.044 12.8854 186.817 13.1128C186.604 13.3251 186.498 13.6284 186.498 14.0226C186.498 14.3411 186.589 14.5988 186.771 14.796C186.953 14.9931 187.226 15.1599 187.59 15.2964C187.954 15.4328 188.401 15.5845 188.932 15.7513C189.857 16.0242 190.645 16.2971 191.297 16.5701C191.949 16.8279 192.45 17.169 192.799 17.5936C193.162 18.003 193.344 18.5717 193.344 19.2995C193.344 20.4519 192.912 21.3541 192.048 22.0062C191.199 22.643 190.062 22.9615 188.636 22.9615Z" fill="#C50000"/>
<path d="M202.749 6.63913H199.872V14.0085H199.076V6.63913H196.198V5.93404H202.749V6.63913ZM211.112 14.0085V7.43521L208.189 12.5415H207.689L204.755 7.43521V14.0085H203.959V5.93404H204.777L207.928 11.4611L211.1 5.93404H211.908V14.0085H211.112Z" fill="#C50000"/>
</svg>
