<svg width="275" height="150" viewBox="0 0 275 150" fill="none" xmlns="http://www.w3.org/2000/svg">
<path d="M112.042 47.0996V51.4983H132.442V47.0996H112.042ZM109.132 68.4004V72.903H138.538V68.4004H109.132ZM129.533 47.0996V51.2905C129.533 55.897 129.533 60.3996 128.39 66.4262L133.966 66.8764C135.109 60.3996 135.109 56.0702 135.109 51.2905V47.0996H129.533ZM162.849 44.3287V76.9553H168.425V44.3287H162.849ZM158.069 50.9788V55.4121H163.611V50.9788H158.069ZM142.033 65.3525V69.9243H144.7C149.514 69.9243 153.671 69.8551 158.243 69.1277L157.827 64.6251C153.29 65.2832 149.376 65.3525 144.7 65.3525H142.033ZM141.999 46.961V51.3597H151.177V55.7238H142.033V66.3569H147.575V60.0532H156.684V46.961H141.999ZM158.069 59.8108V64.2441H163.611V59.8108H158.069ZM180.407 48.3118V50.0436C180.407 52.1564 178.606 54.4077 173.064 55.1004L175.177 59.2913C182.138 58.2868 184.944 54.5462 184.944 50.0436V48.3118H180.407ZM181.653 48.3118V50.0436C181.653 54.373 184.286 58.079 190.867 59.0488L193.049 54.8233C187.888 54.1652 186.121 52.0525 186.121 50.0436V48.3118H181.653ZM174.519 46.1991V50.5631H191.836V46.1991H174.519ZM180.164 62.7894V75.9163H185.775V62.7894H180.164ZM195.231 44.3634V76.8514H200.842V44.3634H195.231ZM173.376 65.3178C179.09 65.3178 186.606 65.2139 193.637 63.8285L193.36 59.8108C186.468 60.7806 178.502 60.8499 172.752 60.8499L173.376 65.3178ZM189.204 66.2184V70.3746H196.235V66.2184H189.204Z" fill="#C50000"/>
<path d="M211.109 73.5957H217.412L220.634 60.7113C221.292 58.1483 221.984 55.135 222.608 52.4334H222.746C223.439 55.0657 224.097 58.1483 224.79 60.7113L228.011 73.5957H234.522L226.522 47.7923H219.11L211.109 73.5957ZM216.547 67.673H229.015V62.8933H216.547V67.673ZM237.229 73.5957H243.429V65.0407H246.442C251.915 65.0407 256.625 62.3392 256.625 56.2087C256.625 49.8358 251.949 47.7923 246.304 47.7923H237.229V73.5957ZM243.429 60.1571V52.7105H245.957C248.936 52.7105 250.599 53.611 250.599 56.2087C250.599 58.7371 249.144 60.1571 246.131 60.1571H243.429ZM261.007 73.5957H267.207V47.7923H261.007V73.5957Z" fill="#979797"/>
<path d="M123.987 8.83676H118.619V22.734H116.049V8.83676H110.658V6.58499H123.987V8.83676ZM125.834 22.734V10.8383H128.336V22.734H125.834ZM125.834 8.88225V6.13009H128.336V8.88225H125.834ZM149.539 22.734H147.037V16.0697C147.037 14.9628 146.855 14.1515 146.491 13.636C146.127 13.1204 145.596 12.8626 144.899 12.8626C144.201 12.8626 143.549 13.128 142.943 13.6587C142.351 14.1743 141.934 14.849 141.692 15.683V22.734H139.19V16.0697C139.19 14.9628 139.008 14.1515 138.644 13.636C138.28 13.1204 137.757 12.8626 137.074 12.8626C136.377 12.8626 135.725 13.1204 135.118 13.636C134.527 14.1515 134.102 14.8263 133.845 15.6603V22.734H131.343V10.8383H133.617V13.2266C134.087 12.3926 134.701 11.7557 135.46 11.316C136.233 10.8611 137.112 10.6336 138.098 10.6336C139.084 10.6336 139.857 10.8914 140.418 11.407C140.994 11.9225 141.351 12.567 141.487 13.3403C142.003 12.4608 142.632 11.7936 143.375 11.3387C144.133 10.8687 144.997 10.6336 145.968 10.6336C146.665 10.6336 147.249 10.7625 147.719 11.0203C148.189 11.2781 148.553 11.6344 148.811 12.0893C149.069 12.529 149.251 13.0446 149.357 13.636C149.478 14.2122 149.539 14.8263 149.539 15.4783V22.734ZM157.812 22.9615C156.887 22.9615 156.046 22.8022 155.288 22.4838C154.545 22.1502 153.9 21.7029 153.354 21.1419C152.809 20.5656 152.384 19.9136 152.081 19.1858C151.793 18.4428 151.649 17.6543 151.649 16.8203C151.649 15.6982 151.906 14.6747 152.422 13.7497C152.937 12.8096 153.658 12.059 154.583 11.4979C155.508 10.9217 156.592 10.6336 157.835 10.6336C159.079 10.6336 160.148 10.9217 161.042 11.4979C161.952 12.059 162.657 12.802 163.158 13.727C163.658 14.6519 163.908 15.6451 163.908 16.7066C163.908 16.8885 163.901 17.0629 163.885 17.2297C163.87 17.3813 163.855 17.5102 163.84 17.6164H154.31C154.355 18.3139 154.545 18.928 154.878 19.4587C155.227 19.9743 155.667 20.3837 156.198 20.687C156.728 20.9751 157.297 21.1191 157.903 21.1191C158.571 21.1191 159.2 20.9523 159.791 20.6187C160.398 20.2851 160.807 19.8454 161.02 19.2995L163.158 19.9136C162.9 20.4898 162.506 21.013 161.975 21.483C161.459 21.9379 160.845 22.3019 160.132 22.5748C159.42 22.8326 158.646 22.9615 157.812 22.9615ZM154.241 15.956H161.429C161.383 15.2736 161.186 14.6747 160.838 14.1591C160.504 13.6284 160.072 13.219 159.541 12.9309C159.026 12.6276 158.449 12.476 157.812 12.476C157.191 12.476 156.615 12.6276 156.084 12.9309C155.568 13.219 155.144 13.6284 154.81 14.1591C154.477 14.6747 154.287 15.2736 154.241 15.956ZM184.145 22.734H181.643V16.0697C181.643 14.9628 181.461 14.1515 181.097 13.636C180.733 13.1204 180.203 12.8626 179.505 12.8626C178.808 12.8626 178.156 13.128 177.549 13.6587C176.958 14.1743 176.541 14.849 176.298 15.683V22.734H173.796V16.0697C173.796 14.9628 173.614 14.1515 173.25 13.636C172.886 13.1204 172.363 12.8626 171.681 12.8626C170.983 12.8626 170.331 13.1204 169.725 13.636C169.133 14.1515 168.709 14.8263 168.451 15.6603V22.734H165.949V10.8383H168.223V13.2266C168.694 12.3926 169.308 11.7557 170.066 11.316C170.839 10.8611 171.719 10.6336 172.704 10.6336C173.69 10.6336 174.463 10.8914 175.024 11.407C175.6 11.9225 175.957 12.567 176.093 13.3403C176.609 12.4608 177.238 11.7936 177.981 11.3387C178.739 10.8687 179.604 10.6336 180.574 10.6336C181.272 10.6336 181.855 10.7625 182.325 11.0203C182.796 11.2781 183.159 11.6344 183.417 12.0893C183.675 12.529 183.857 13.0446 183.963 13.636C184.084 14.2122 184.145 14.8263 184.145 15.4783V22.734ZM186.164 19.254C186.164 18.4958 186.376 17.8362 186.801 17.2752C187.24 16.699 187.839 16.2592 188.598 15.956C189.356 15.6375 190.235 15.4783 191.236 15.4783C191.767 15.4783 192.305 15.5162 192.851 15.592C193.412 15.6679 193.905 15.7892 194.329 15.956V15.2054C194.329 14.3714 194.079 13.7194 193.579 13.2493C193.078 12.7792 192.358 12.5442 191.418 12.5442C190.751 12.5442 190.122 12.6655 189.53 12.9081C188.939 13.1356 188.309 13.4616 187.642 13.8862L186.801 12.203C187.589 11.6723 188.378 11.2781 189.166 11.0203C189.97 10.7625 190.811 10.6336 191.691 10.6336C193.283 10.6336 194.534 11.0582 195.444 11.9073C196.369 12.7413 196.831 13.9317 196.831 15.4783V19.9136C196.831 20.2017 196.877 20.4064 196.968 20.5277C197.074 20.649 197.248 20.7173 197.491 20.7324V22.734C197.263 22.7795 197.059 22.8098 196.877 22.825C196.695 22.8402 196.543 22.8477 196.422 22.8477C195.891 22.8477 195.489 22.7188 195.216 22.4611C194.943 22.2033 194.784 21.9 194.739 21.5513L194.671 20.8689C194.155 21.5361 193.495 22.0517 192.692 22.4156C191.888 22.7795 191.077 22.9615 190.258 22.9615C189.469 22.9615 188.764 22.8022 188.143 22.4838C187.521 22.1502 187.036 21.7029 186.687 21.1419C186.338 20.5808 186.164 19.9515 186.164 19.254ZM193.738 19.9819C193.92 19.7847 194.064 19.5876 194.17 19.3905C194.276 19.1934 194.329 19.019 194.329 18.8673V17.5026C193.905 17.3358 193.457 17.2145 192.987 17.1387C192.517 17.0477 192.055 17.0022 191.6 17.0022C190.69 17.0022 189.947 17.1842 189.371 17.5481C188.81 17.912 188.529 18.4124 188.529 19.0493C188.529 19.3981 188.62 19.7317 188.802 20.0501C188.999 20.3685 189.272 20.6263 189.621 20.8234C189.985 21.0205 190.432 21.1191 190.963 21.1191C191.509 21.1191 192.032 21.013 192.532 20.8007C193.033 20.5884 193.435 20.3154 193.738 19.9819ZM206.622 22.9615C205.667 22.9615 204.825 22.734 204.097 22.2791C203.369 21.8242 202.793 21.2328 202.369 20.505V27.5787H199.867V10.8383H202.073V12.9764C202.528 12.2637 203.119 11.6951 203.847 11.2705C204.575 10.8459 205.386 10.6336 206.281 10.6336C207.1 10.6336 207.85 10.8004 208.533 11.134C209.215 11.4524 209.806 11.8998 210.307 12.476C210.807 13.0522 211.194 13.7118 211.467 14.4548C211.755 15.1826 211.899 15.956 211.899 16.7748C211.899 17.912 211.671 18.9507 211.217 19.8909C210.777 20.831 210.155 21.5816 209.351 22.1426C208.563 22.6885 207.653 22.9615 206.622 22.9615ZM205.803 20.8234C206.334 20.8234 206.812 20.7097 207.236 20.4822C207.676 20.2548 208.047 19.9515 208.351 19.5724C208.669 19.1934 208.912 18.7612 209.078 18.276C209.245 17.7907 209.329 17.2903 209.329 16.7748C209.329 16.2289 209.238 15.7134 209.056 15.2281C208.874 14.7429 208.608 14.3183 208.26 13.9544C207.926 13.5905 207.532 13.3024 207.077 13.0901C206.637 12.8778 206.152 12.7717 205.621 12.7717C205.303 12.7717 204.969 12.8323 204.62 12.9536C204.272 13.0749 203.946 13.2417 203.642 13.454C203.339 13.6663 203.074 13.9165 202.846 14.2046C202.619 14.4927 202.46 14.796 202.369 15.1144V18.2305C202.581 18.7157 202.861 19.1554 203.21 19.5497C203.559 19.9288 203.961 20.2396 204.416 20.4822C204.871 20.7097 205.333 20.8234 205.803 20.8234ZM218.38 22.9615C217.379 22.9615 216.431 22.8022 215.536 22.4838C214.642 22.1502 213.876 21.6574 213.239 21.0054L214.172 19.3222C214.854 19.9288 215.536 20.3685 216.219 20.6415C216.916 20.9144 217.606 21.0509 218.289 21.0509C218.986 21.0509 219.555 20.922 219.995 20.6642C220.434 20.3913 220.654 19.997 220.654 19.4815C220.654 19.1024 220.54 18.8219 220.313 18.6399C220.085 18.4579 219.752 18.2987 219.312 18.1622C218.888 18.0258 218.372 17.8741 217.765 17.7073C216.916 17.4496 216.204 17.1842 215.627 16.9113C215.051 16.6232 214.619 16.2744 214.331 15.865C214.043 15.4556 213.899 14.9324 213.899 14.2956C213.899 13.5222 214.096 12.8626 214.49 12.3168C214.884 11.7709 215.43 11.3539 216.128 11.0658C216.841 10.7777 217.659 10.6336 218.584 10.6336C219.449 10.6336 220.245 10.7701 220.973 11.043C221.716 11.3008 222.368 11.7102 222.929 12.2713L221.86 13.9317C221.329 13.4464 220.783 13.0901 220.222 12.8626C219.676 12.6352 219.085 12.5215 218.448 12.5215C218.084 12.5215 217.735 12.567 217.402 12.6579C217.068 12.7337 216.787 12.8854 216.56 13.1128C216.348 13.3251 216.242 13.6284 216.242 14.0226C216.242 14.3411 216.333 14.5988 216.515 14.796C216.696 14.9931 216.969 15.1599 217.333 15.2964C217.697 15.4328 218.145 15.5845 218.675 15.7513C219.6 16.0242 220.389 16.2971 221.041 16.5701C221.693 16.8279 222.193 17.169 222.542 17.5936C222.906 18.003 223.088 18.5717 223.088 19.2995C223.088 20.4519 222.656 21.3541 221.791 22.0062C220.942 22.643 219.805 22.9615 218.38 22.9615Z" fill="#C50000"/>
<path d="M232.492 6.63913H229.615V14.0085H228.819V6.63913H225.942V5.93404H232.492V6.63913ZM240.855 14.0085V7.43521L237.933 12.5415H237.432L234.498 7.43521V14.0085H233.702V5.93404H234.521L237.671 11.4611L240.844 5.93404H241.651V14.0085H240.855Z" fill="#C50000"/>
<path d="M5.18907 107.983V111.324C5.18907 114.851 2.94095 118.419 0.177195 119.739L1.22907 121.142C4.28157 119.595 6.59157 115.614 6.59157 111.324V107.983H5.18907ZM5.47782 107.983V111.324C5.47782 115.47 7.80845 119.306 10.8403 120.791L11.8716 119.43C9.10782 118.151 6.88032 114.727 6.88032 111.324V107.983H5.47782ZM13.8103 106.354V125.04H15.5222V106.354H13.8103ZM32 106.374V120.007H33.7118V106.374H32ZM33.1756 112.026V113.449H36.4756V112.026H33.1756ZM26.9056 107.818V108.561C26.9056 112.149 23.9562 115.037 19.2537 116.481L19.9962 117.883C25.3381 116.171 28.7206 112.644 28.7206 107.818H26.9056ZM20.0168 107.818V109.221H27.7718V107.818H20.0168ZM22.0793 123.204V124.607H34.5368V123.204H22.0793ZM22.0793 118.626V123.761H23.7912V118.626H22.0793ZM48.1684 110.891V112.294H52.314V110.891H48.1684ZM51.8396 106.374V116.501H53.5515V106.374H51.8396ZM41.6096 117.409V124.772H53.5515V117.409H51.8602V119.677H43.3009V117.409H41.6096ZM43.3009 121.059H51.8602V123.369H43.3009V121.059ZM42.9709 107.839V109.365C42.9709 112.005 41.0527 114.48 38.2684 115.449L39.1552 116.831C42.2696 115.676 44.3734 112.747 44.3734 109.365V107.839H42.9709ZM43.3009 107.839V109.344C43.3009 112.479 45.3015 115.284 48.3334 116.377L49.1996 115.037C46.4977 114.088 44.6827 111.757 44.6827 109.344V107.839H43.3009ZM38.8046 107.488V108.87H48.7665V107.488H38.8046ZM59.3455 107.467V108.87H71.2461V107.467H59.3455ZM57.2005 114.934V116.357H74.0924V114.934H57.2005ZM70.2355 107.467V108.932C70.2355 110.602 70.2355 112.582 69.6374 115.346L71.308 115.532C71.9061 112.686 71.9061 110.644 71.9061 108.932V107.467H70.2355ZM59.4074 123.184V124.607H72.463V123.184H59.4074ZM59.4074 118.419V123.39H61.1193V118.419H59.4074ZM80.8558 107.426V109.344C80.8558 112.191 78.9995 114.686 76.1533 115.697L77.0401 117.099C80.237 115.903 82.2789 112.954 82.2789 109.344V107.426H80.8558ZM81.1651 107.426V109.282C81.1651 112.665 83.1658 115.408 86.177 116.542L87.1052 115.202C84.3826 114.253 82.5676 111.922 82.5676 109.282V107.426H81.1651ZM89.7864 106.374V117.409H91.4983V106.374H89.7864ZM85.3727 117.945C81.5158 117.945 79.1439 119.244 79.1439 121.472C79.1439 123.699 81.5158 124.978 85.3727 124.978C89.2089 124.978 91.5808 123.699 91.5808 121.472C91.5808 119.244 89.2089 117.945 85.3727 117.945ZM85.3727 119.306C88.1777 119.306 89.8895 120.111 89.8895 121.472C89.8895 122.833 88.1777 123.637 85.3727 123.637C82.5676 123.637 80.8558 122.833 80.8558 121.472C80.8558 120.111 82.5676 119.306 85.3727 119.306ZM85.7439 110.314V111.737H90.1577V110.314H85.7439ZM100.077 109.035V112.067C100.077 115.284 97.8285 118.791 95.1267 120.069L96.1167 121.431C99.0867 119.966 101.459 116.006 101.459 112.067V109.035H100.077ZM100.407 109.035V112.067C100.407 115.944 102.799 119.574 105.81 120.977L106.78 119.616C104.037 118.44 101.789 115.222 101.789 112.067V109.035H100.407ZM95.7454 108.272V109.716H106.161V108.272H95.7454ZM108.677 106.374V125.019H110.389V106.374H108.677ZM116.245 115.078V116.481H129.053V115.078H116.245ZM114.121 121.245V122.689H131.013V121.245H114.121ZM121.669 115.676V121.822H123.381V115.676H121.669ZM116.245 107.859V115.697H117.957V109.262H128.868V107.859H116.245ZM133.073 115.037V116.336H149.986V115.037H133.073ZM135.074 117.842V119.059H146.191V120.647H135.136V124.009H136.827V121.822H147.862V117.842H135.074ZM135.136 123.555V124.792H148.46V123.555H135.136ZM135.218 106.911V108.127H146.129V109.633H135.26V112.809H136.951V110.788H147.8V106.911H135.218ZM135.26 112.397V113.634H148.15V112.397H135.26ZM162.193 107.983V111.324C162.193 114.851 159.945 118.419 157.181 119.739L158.233 121.142C161.285 119.595 163.595 115.614 163.595 111.324V107.983H162.193ZM162.482 107.983V111.324C162.482 115.47 164.812 119.306 167.844 120.791L168.875 119.43C166.112 118.151 163.884 114.727 163.884 111.324V107.983H162.482ZM170.814 106.354V125.04H172.526V106.354H170.814ZM189.004 106.374V117.306H190.716V106.374H189.004ZM190.241 111.077V112.521H193.479V111.077H190.241ZM183.848 107.571V108.313C183.848 111.757 181.043 114.459 176.216 115.779L176.918 117.12C182.363 115.635 185.642 112.273 185.642 107.571H183.848ZM177.041 107.571V108.952H184.796V107.571H177.041ZM178.609 118.172V119.554H189.004V125.019H190.716V118.172H178.609ZM200.057 117.491V120.523H201.769V117.491H200.057ZM207.895 106.374V125.019H209.607V106.374H207.895ZM209.05 114.294V115.738H212.494V114.294H209.05ZM195.252 121.472C198.51 121.472 202.883 121.451 206.905 120.729L206.76 119.451C202.903 120.007 198.345 120.049 195.004 120.049L195.252 121.472ZM195.313 108.622V110.004H206.472V108.622H195.313ZM200.903 111.097C198.304 111.097 196.53 112.459 196.53 114.542C196.53 116.646 198.304 117.986 200.903 117.986C203.502 117.986 205.296 116.646 205.296 114.542C205.296 112.459 203.502 111.097 200.903 111.097ZM200.903 112.417C202.573 112.417 203.687 113.263 203.687 114.542C203.687 115.821 202.573 116.666 200.903 116.666C199.232 116.666 198.139 115.821 198.139 114.542C198.139 113.263 199.232 112.417 200.903 112.417ZM200.057 106.395V109.551H201.769V106.395H200.057ZM214.163 109.551V110.953H223.403V109.551H214.163ZM218.783 112.191C216.473 112.191 214.782 113.944 214.782 116.46C214.782 118.956 216.473 120.709 218.783 120.709C221.114 120.709 222.805 118.956 222.805 116.46C222.805 113.944 221.114 112.191 218.783 112.191ZM218.783 113.655C220.227 113.655 221.279 114.81 221.279 116.46C221.279 118.11 220.227 119.265 218.783 119.265C217.36 119.265 216.329 118.11 216.329 116.46C216.329 114.81 217.36 113.655 218.783 113.655ZM228.332 106.374V125.019H229.982V106.374H228.332ZM225.362 114.212V115.635H228.889V114.212H225.362ZM224.352 106.787V124.112H225.961V106.787H224.352ZM217.958 106.911V110.417H219.649V106.911H217.958ZM243.344 108.292V109.777C243.344 112.417 241.447 114.851 238.642 115.841L239.529 117.182C242.664 116.068 244.768 113.201 244.768 109.777V108.292H243.344ZM243.674 108.292V109.777C243.674 113.036 245.819 115.779 248.913 116.831L249.8 115.491C247.036 114.562 245.098 112.294 245.098 109.777V108.292H243.674ZM251.945 106.374V117.656H253.678V106.374H251.945ZM241.22 118.646V120.049H251.945V125.019H253.678V118.646H241.22ZM239.096 107.674V109.056H249.305V107.674H239.096ZM258.358 107.818V109.221H266.608V107.818H258.358ZM261.163 111.984V116.646H262.854V111.984H261.163ZM265.927 107.818V108.808C265.927 110.004 265.927 111.696 265.453 114.15L267.123 114.336C267.618 111.881 267.618 110.025 267.618 108.808V107.818H265.927ZM270.155 106.374V120.42H271.867V106.374H270.155ZM271.083 112.438V113.861H274.528V112.438H271.083ZM260.09 123.204V124.607H272.465V123.204H260.09ZM260.09 119.121V123.637H261.782V119.121H260.09ZM257.409 117.45C260.688 117.45 265.143 117.367 269.021 116.687L268.897 115.449C265.123 115.965 260.544 116.047 257.223 116.047L257.409 117.45ZM33.4842 132.272V133.777C33.4842 136.417 31.566 138.892 28.7817 139.882L29.6685 141.244C32.7829 140.089 34.8867 137.181 34.8867 133.777V132.272H33.4842ZM33.8142 132.272V133.777C33.8142 136.892 35.8148 139.697 38.8467 140.811L39.7129 139.449C37.011 138.501 35.196 136.17 35.196 133.777V132.272H33.8142ZM38.7023 135.221V136.644H42.8479V135.221H38.7023ZM29.3179 131.653V133.035H39.2798V131.653H29.3179ZM31.6279 142.543V143.946H42.3529V149.019H44.0648V142.543H31.6279ZM42.3529 130.374V141.532H44.0648V130.374H42.3529ZM61.2644 130.395V144.007H62.9969V130.395H61.2644ZM51.0138 147.204V148.607H63.5538V147.204H51.0138ZM51.0138 142.605V147.679H52.7051V142.605H51.0138ZM52.9938 131.674C50.2094 131.674 48.1263 133.571 48.1263 136.273C48.1263 138.954 50.2094 140.872 52.9938 140.872C55.7782 140.872 57.8407 138.954 57.8407 136.273C57.8407 133.571 55.7782 131.674 52.9938 131.674ZM52.9938 133.159C54.8088 133.159 56.1907 134.437 56.1907 136.273C56.1907 138.088 54.8088 139.367 52.9938 139.367C51.1788 139.367 49.7969 138.088 49.7969 136.273C49.7969 134.437 51.1788 133.159 52.9938 133.159ZM85.4545 130.395V144.007H87.187V130.395H85.4545ZM75.2039 147.204V148.607H87.7439V147.204H75.2039ZM75.2039 142.605V147.679H76.8951V142.605H75.2039ZM77.1839 131.674C74.3995 131.674 72.3164 133.571 72.3164 136.273C72.3164 138.954 74.3995 140.872 77.1839 140.872C79.9683 140.872 82.0308 138.954 82.0308 136.273C82.0308 133.571 79.9683 131.674 77.1839 131.674ZM77.1839 133.159C78.9989 133.159 80.3808 134.437 80.3808 136.273C80.3808 138.088 78.9989 139.367 77.1839 139.367C75.3689 139.367 73.987 138.088 73.987 136.273C73.987 134.437 75.3689 133.159 77.1839 133.159ZM95.4354 131.983V135.324C95.4354 138.727 93.311 142.316 90.6091 143.677L91.661 145.039C94.6104 143.471 96.8379 139.449 96.8379 135.324V131.983H95.4354ZM95.7448 131.983V135.324C95.7448 139.326 97.9104 143.141 100.798 144.688L101.85 143.327C99.2098 142.007 97.1267 138.604 97.1267 135.324V131.983H95.7448ZM103.479 130.374V149.019H105.212V130.374H103.479ZM104.799 137.923V139.367H108.264V137.923H104.799ZM123.381 130.354V149.04H125.093V130.354H123.381ZM115.254 131.797C112.511 131.797 110.531 134.334 110.531 138.294C110.531 142.275 112.511 144.812 115.254 144.812C118.018 144.812 119.998 142.275 119.998 138.294C119.998 134.334 118.018 131.797 115.254 131.797ZM115.254 133.344C117.09 133.344 118.348 135.283 118.348 138.294C118.348 141.326 117.09 143.306 115.254 143.306C113.439 143.306 112.161 141.326 112.161 138.294C112.161 135.283 113.439 133.344 115.254 133.344ZM130.99 140.419V141.801H143.798V140.419H130.99ZM128.824 145.204V146.627H145.716V145.204H128.824ZM130.99 131.962V140.852H132.722V133.365H143.592V131.962H130.99ZM132.165 136.129V137.49H143.2V136.129H132.165ZM147.777 139.037V140.336H164.689V139.037H147.777ZM149.777 141.842V143.059H160.894V144.647H149.839V148.009H151.531V145.822H162.565V141.842H149.777ZM149.839 147.555V148.792H163.163V147.555H149.839ZM149.922 130.911V132.127H160.832V133.633H149.963V136.809H151.654V134.788H162.503V130.911H149.922ZM149.963 136.397V137.634H162.854V136.397H149.963ZM186.157 130.374V149.019H187.807V130.374H186.157ZM179.371 137.057V138.48H182.939V137.057H179.371ZM182.424 130.807V148.071H184.033V130.807H182.424ZM175.783 133.262V135.634C175.783 139.057 174.339 142.461 171.74 144.028L172.792 145.307C175.535 143.574 177.103 139.717 177.103 135.634V133.262H175.783ZM176.133 133.262V135.634C176.133 139.532 177.639 143.203 180.361 144.853L181.413 143.595C178.856 142.11 177.453 138.872 177.453 135.634V133.262H176.133ZM172.256 132.54V133.963H180.774V132.54H172.256ZM199.314 142.131C195.333 142.131 192.817 143.43 192.817 145.575C192.817 147.699 195.333 148.978 199.314 148.978C203.274 148.978 205.811 147.699 205.811 145.575C205.811 143.43 203.274 142.131 199.314 142.131ZM199.314 143.471C202.243 143.471 204.099 144.276 204.099 145.575C204.099 146.854 202.243 147.658 199.314 147.658C196.385 147.658 194.508 146.854 194.508 145.575C194.508 144.276 196.385 143.471 199.314 143.471ZM192.962 131.302V132.705H204.965V131.302H192.962ZM190.961 139.057V140.439H207.791V139.057H190.961ZM197.87 135.469V139.449H199.562V135.469H197.87ZM203.975 131.302V132.891C203.975 134.355 203.975 135.716 203.46 137.634L205.151 137.841C205.646 135.902 205.646 134.396 205.646 132.891V131.302H203.975ZM222.557 130.374V149.019H224.269V130.374H222.557ZM223.856 138.026V139.47H227.321V138.026H223.856ZM209.831 133.344V134.747H220.824V133.344H209.831ZM215.4 136.294C212.781 136.294 210.862 138.067 210.862 140.584C210.862 143.1 212.781 144.874 215.4 144.874C218.04 144.874 219.937 143.1 219.937 140.584C219.937 138.067 218.04 136.294 215.4 136.294ZM215.4 137.717C217.091 137.717 218.308 138.892 218.308 140.584C218.308 142.254 217.091 143.451 215.4 143.451C213.709 143.451 212.492 142.254 212.492 140.584C212.492 138.892 213.709 137.717 215.4 137.717ZM214.513 130.601V133.984H216.225V130.601H214.513ZM231.176 135.964V137.366H243.84V135.964H231.176ZM228.887 139.862V141.264H245.8V139.862H228.887ZM231.176 131.055V136.665H232.868V131.055H231.176ZM231.053 147.163V148.566H243.943V147.163H231.053ZM231.053 143.121V147.534H232.744V143.121H231.053Z" fill="#565656"/>
<rect x="10.3034" y="1.97151" width="73.425" height="73.425" rx="7.0125" fill="#FCFCFC" stroke="#616161" stroke-width="2.475"/>
<rect x="13.1716" y="7.93353" width="5.81404" height="5.81404" stroke="white" stroke-width="0.373402"/>
<rect x="13.1716" y="14.121" width="5.81404" height="5.81404" stroke="white" stroke-width="0.373402"/>
<rect x="13.1716" y="20.3084" width="5.81404" height="5.81404" stroke="white" stroke-width="0.373402"/>
<rect x="13.1716" y="26.4958" width="5.81404" height="5.81404" stroke="white" stroke-width="0.373402"/>
<rect x="13.1716" y="32.6833" width="5.81404" height="5.81404" stroke="white" stroke-width="0.373402"/>
<rect x="13.1716" y="38.8708" width="5.81404" height="5.81404" stroke="white" stroke-width="0.373402"/>
<rect x="13.1716" y="45.0582" width="5.81404" height="5.81404" stroke="white" stroke-width="0.373402"/>
<rect x="13.1716" y="51.2455" width="5.81404" height="5.81404" stroke="white" stroke-width="0.373402"/>
<rect x="13.1716" y="57.433" width="5.81404" height="5.81404" stroke="white" stroke-width="0.373402"/>
<rect x="13.1716" y="63.6204" width="5.81404" height="5.81404" stroke="white" stroke-width="0.373402"/>
<rect x="19.3591" y="7.93353" width="5.81404" height="5.81404" stroke="white" stroke-width="0.373402"/>
<rect x="19.3591" y="14.121" width="5.81404" height="5.81404" fill="#FFB800" stroke="white" stroke-width="0.373402"/>
<rect x="19.3591" y="20.3084" width="5.81404" height="5.81404" fill="#FFB800" stroke="white" stroke-width="0.373402"/>
<rect x="19.3591" y="26.4958" width="5.81404" height="5.81404" stroke="white" stroke-width="0.373402"/>
<rect x="19.3591" y="32.6833" width="5.81404" height="5.81404" stroke="white" stroke-width="0.373402"/>
<rect x="19.3591" y="38.8708" width="5.81404" height="5.81404" fill="#FF7A00" stroke="white" stroke-width="0.373402"/>
<rect x="19.3591" y="45.0582" width="5.81404" height="5.81404" stroke="white" stroke-width="0.373402"/>
<rect x="19.3591" y="51.2455" width="5.81404" height="5.81404" stroke="white" stroke-width="0.373402"/>
<rect x="19.3591" y="57.433" width="5.81404" height="5.81404" stroke="white" stroke-width="0.373402"/>
<rect x="19.3591" y="63.6204" width="5.81404" height="5.81404" stroke="white" stroke-width="0.373402"/>
<rect x="25.5463" y="7.93353" width="5.81404" height="5.81404" stroke="white" stroke-width="0.373402"/>
<rect x="25.5463" y="14.121" width="5.81404" height="5.81404" fill="#FFB800" stroke="white" stroke-width="0.373402"/>
<rect x="25.5463" y="20.3084" width="5.81404" height="5.81404" fill="#FFB800" stroke="white" stroke-width="0.373402"/>
<rect x="25.5463" y="26.4958" width="5.81404" height="5.81404" fill="#FF7A00" stroke="white" stroke-width="0.373402"/>
<rect x="25.5463" y="32.6833" width="5.81404" height="5.81404" fill="#FF7A00" stroke="white" stroke-width="0.373402"/>
<rect x="25.5463" y="38.8708" width="5.81404" height="5.81404" fill="#FF7A00" stroke="white" stroke-width="0.373402"/>
<rect x="25.5463" y="45.0582" width="5.81404" height="5.81404" stroke="white" stroke-width="0.373402"/>
<rect x="25.5463" y="51.2455" width="5.81404" height="5.81404" stroke="white" stroke-width="0.373402"/>
<rect x="25.5463" y="57.433" width="5.81404" height="5.81404" stroke="white" stroke-width="0.373402"/>
<rect x="25.5463" y="63.6204" width="5.81404" height="5.81404" stroke="white" stroke-width="0.373402"/>
<rect x="31.7338" y="7.93353" width="5.81404" height="5.81404" stroke="white" stroke-width="0.373402"/>
<rect x="31.7338" y="14.121" width="5.81404" height="5.81404" stroke="white" stroke-width="0.373402"/>
<rect x="31.7338" y="20.3084" width="5.81404" height="5.81404" fill="#FFB800" stroke="white" stroke-width="0.373402"/>
<rect x="31.7338" y="26.4958" width="5.81404" height="5.81404" fill="#FF7A00" stroke="white" stroke-width="0.373402"/>
<rect x="31.7338" y="32.6833" width="5.81404" height="5.81404" fill="#FF7A00" stroke="white" stroke-width="0.373402"/>
<rect x="31.7338" y="38.8708" width="5.81404" height="5.81404" fill="#FF0F00" stroke="white" stroke-width="0.373402"/>
<rect x="31.7338" y="45.0582" width="5.81404" height="5.81404" stroke="white" stroke-width="0.373402"/>
<rect x="31.7338" y="51.2455" width="5.81404" height="5.81404" stroke="white" stroke-width="0.373402"/>
<rect x="31.7338" y="57.433" width="5.81404" height="5.81404" stroke="white" stroke-width="0.373402"/>
<rect x="31.7338" y="63.6204" width="5.81404" height="5.81404" stroke="white" stroke-width="0.373402"/>
<rect x="37.9213" y="7.93353" width="5.81404" height="5.81404" stroke="white" stroke-width="0.373402"/>
<rect x="37.9213" y="14.121" width="5.81404" height="5.81404" stroke="white" stroke-width="0.373402"/>
<rect x="37.9213" y="20.3084" width="5.81404" height="5.81404" fill="#FFB800" stroke="white" stroke-width="0.373402"/>
<rect x="37.9213" y="26.4958" width="5.81404" height="5.81404" fill="#FF7A00" stroke="white" stroke-width="0.373402"/>
<rect x="37.9213" y="32.6833" width="5.81404" height="5.81404" fill="#FF7A00" stroke="white" stroke-width="0.373402"/>
<rect x="37.9213" y="38.8708" width="5.81404" height="5.81404" fill="#FF0F00" stroke="white" stroke-width="0.373402"/>
<rect x="37.9213" y="45.0582" width="5.81404" height="5.81404" fill="#FF7A00" stroke="white" stroke-width="0.373402"/>
<rect x="37.9213" y="51.2455" width="5.81404" height="5.81404" stroke="white" stroke-width="0.373402"/>
<rect x="37.9213" y="57.433" width="5.81404" height="5.81404" stroke="white" stroke-width="0.373402"/>
<rect x="37.9213" y="63.6204" width="5.81404" height="5.81404" stroke="white" stroke-width="0.373402"/>
<rect x="44.1086" y="7.93353" width="5.81404" height="5.81404" stroke="white" stroke-width="0.373402"/>
<rect x="44.1086" y="14.121" width="5.81404" height="5.81404" stroke="white" stroke-width="0.373402"/>
<rect x="44.1086" y="20.3084" width="5.81404" height="5.81404" stroke="white" stroke-width="0.373402"/>
<rect x="44.1086" y="26.4958" width="5.81404" height="5.81404" fill="#FF7A00" stroke="white" stroke-width="0.373402"/>
<rect x="44.1086" y="32.6833" width="5.81404" height="5.81404" fill="#FF7A00" stroke="white" stroke-width="0.373402"/>
<rect x="44.1086" y="38.8708" width="5.81404" height="5.81404" fill="#FF0F00" stroke="white" stroke-width="0.373402"/>
<rect x="44.1086" y="45.0582" width="5.81404" height="5.81404" fill="#FF7A00" stroke="white" stroke-width="0.373402"/>
<rect x="44.1086" y="51.2455" width="5.81404" height="5.81404" fill="#FF7A00" stroke="white" stroke-width="0.373402"/>
<rect x="44.1086" y="57.433" width="5.81404" height="5.81404" fill="#FF7A00" stroke="white" stroke-width="0.373402"/>
<rect x="44.1086" y="63.6204" width="5.81404" height="5.81404" stroke="white" stroke-width="0.373402"/>
<rect x="50.2963" y="7.93353" width="5.81404" height="5.81404" stroke="white" stroke-width="0.373402"/>
<rect x="50.2963" y="14.121" width="5.81404" height="5.81404" stroke="white" stroke-width="0.373402"/>
<rect x="50.2963" y="20.3084" width="5.81404" height="5.81404" stroke="white" stroke-width="0.373402"/>
<rect x="50.2963" y="26.4958" width="5.81404" height="5.81404" stroke="white" stroke-width="0.373402"/>
<rect x="50.2963" y="32.6833" width="5.81404" height="5.81404" stroke="white" stroke-width="0.373402"/>
<rect x="50.2963" y="38.8708" width="5.81404" height="5.81404" fill="#FF0F00" stroke="white" stroke-width="0.373402"/>
<rect x="50.2963" y="45.0582" width="5.81404" height="5.81404" fill="#FF0F00" stroke="white" stroke-width="0.373402"/>
<rect x="50.2963" y="51.2455" width="5.81404" height="5.81404" fill="#FF7A00" stroke="white" stroke-width="0.373402"/>
<rect x="50.2963" y="57.433" width="5.81404" height="5.81404" fill="#FF7A00" stroke="white" stroke-width="0.373402"/>
<rect x="50.2963" y="63.6204" width="5.81404" height="5.81404" stroke="white" stroke-width="0.373402"/>
<rect x="56.4838" y="7.93353" width="5.81404" height="5.81404" stroke="white" stroke-width="0.373402"/>
<rect x="56.4838" y="14.121" width="5.81404" height="5.81404" stroke="white" stroke-width="0.373402"/>
<rect x="56.4838" y="20.3084" width="5.81404" height="5.81404" stroke="white" stroke-width="0.373402"/>
<rect x="56.4838" y="26.4958" width="5.81404" height="5.81404" stroke="white" stroke-width="0.373402"/>
<rect x="56.4838" y="32.6833" width="5.81404" height="5.81404" stroke="white" stroke-width="0.373402"/>
<rect x="56.4838" y="38.8708" width="5.81404" height="5.81404" stroke="white" stroke-width="0.373402"/>
<rect x="56.4838" y="45.0582" width="5.81404" height="5.81404" fill="#FF0F00" stroke="white" stroke-width="0.373402"/>
<rect x="56.4838" y="51.2455" width="5.81404" height="5.81404" fill="#FF7A00" stroke="white" stroke-width="0.373402"/>
<rect x="56.4838" y="57.433" width="5.81404" height="5.81404" fill="#FF7A00" stroke="white" stroke-width="0.373402"/>
<rect x="56.4838" y="63.6204" width="5.81404" height="5.81404" stroke="white" stroke-width="0.373402"/>
<rect x="62.6713" y="7.93353" width="5.81404" height="5.81404" stroke="white" stroke-width="0.373402"/>
<rect x="62.6713" y="14.121" width="5.81404" height="5.81404" stroke="white" stroke-width="0.373402"/>
<rect x="62.6713" y="20.3084" width="5.81404" height="5.81404" stroke="white" stroke-width="0.373402"/>
<rect x="62.6713" y="26.4958" width="5.81404" height="5.81404" stroke="white" stroke-width="0.373402"/>
<rect x="62.6713" y="32.6833" width="5.81404" height="5.81404" stroke="white" stroke-width="0.373402"/>
<rect x="62.6713" y="38.8708" width="5.81404" height="5.81404" stroke="white" stroke-width="0.373402"/>
<rect x="62.6713" y="45.0582" width="5.81404" height="5.81404" fill="#FF0F00" stroke="white" stroke-width="0.373402"/>
<rect x="62.6713" y="51.2455" width="5.81404" height="5.81404" fill="#FF7A00" stroke="white" stroke-width="0.373402"/>
<rect x="62.6713" y="57.433" width="5.81404" height="5.81404" fill="#FF7A00" stroke="white" stroke-width="0.373402"/>
<rect x="62.6713" y="63.6204" width="5.81404" height="5.81404" stroke="white" stroke-width="0.373402"/>
<rect x="68.8586" y="7.93353" width="5.81404" height="5.81404" stroke="white" stroke-width="0.373402"/>
<rect x="68.8586" y="14.121" width="5.81404" height="5.81404" stroke="white" stroke-width="0.373402"/>
<rect x="68.8586" y="20.3084" width="5.81404" height="5.81404" stroke="white" stroke-width="0.373402"/>
<rect x="68.8586" y="26.4958" width="5.81404" height="5.81404" stroke="white" stroke-width="0.373402"/>
<rect x="68.8586" y="32.6833" width="5.81404" height="5.81404" stroke="white" stroke-width="0.373402"/>
<rect x="68.8586" y="38.8708" width="5.81404" height="5.81404" stroke="white" stroke-width="0.373402"/>
<rect x="68.8586" y="45.0582" width="5.81404" height="5.81404" stroke="white" stroke-width="0.373402"/>
<rect x="68.8586" y="51.2455" width="5.81404" height="5.81404" fill="#FF7A00" stroke="white" stroke-width="0.373402"/>
<rect x="68.8586" y="57.433" width="5.81404" height="5.81404" fill="#FF7A00" stroke="white" stroke-width="0.373402"/>
<rect x="68.8586" y="63.6204" width="5.81404" height="5.81404" stroke="white" stroke-width="0.373402"/>
<rect x="75.0461" y="7.93353" width="5.81404" height="5.81404" stroke="white" stroke-width="0.373402"/>
<rect x="75.0461" y="14.121" width="5.81404" height="5.81404" stroke="white" stroke-width="0.373402"/>
<rect x="75.0461" y="20.3084" width="5.81404" height="5.81404" stroke="white" stroke-width="0.373402"/>
<rect x="75.0461" y="26.4958" width="5.81404" height="5.81404" stroke="white" stroke-width="0.373402"/>
<rect x="75.0461" y="32.6833" width="5.81404" height="5.81404" stroke="white" stroke-width="0.373402"/>
<rect x="75.0461" y="38.8708" width="5.81404" height="5.81404" stroke="white" stroke-width="0.373402"/>
<rect x="75.0461" y="45.0582" width="5.81404" height="5.81404" stroke="white" stroke-width="0.373402"/>
<rect x="75.0461" y="51.2455" width="5.81404" height="5.81404" stroke="white" stroke-width="0.373402"/>
<rect x="75.0461" y="57.433" width="5.81404" height="5.81404" stroke="white" stroke-width="0.373402"/>
<rect x="75.0461" y="63.6204" width="5.81404" height="5.81404" stroke="white" stroke-width="0.373402"/>
</svg>
