<svg width="875" height="333" viewBox="0 0 875 333" fill="none" xmlns="http://www.w3.org/2000/svg">
<rect x="23.4531" y="41.0881" width="438.958" height="242.804" rx="41.1465" fill="#545454"/>
<path d="M737.168 78.5179C737.168 77.5099 737.36 76.8379 737.744 76.5019C738.128 76.1419 738.848 75.9619 739.904 75.9619H756.788C757.364 75.9619 757.82 75.9979 758.156 76.0699C758.516 76.1419 758.792 76.2739 758.984 76.4659C759.2 76.6579 759.344 76.9219 759.416 77.2579C759.488 77.5939 759.524 78.0139 759.524 78.5179V88.5619C759.524 89.5699 759.332 90.2539 758.948 90.6139C758.564 90.9499 757.844 91.1179 756.788 91.1179H749.588V98.9659H763.736C763.856 98.9659 763.976 99.0139 764.096 99.1099C764.216 99.1819 764.276 99.2899 764.276 99.4339V100.658C764.276 100.778 764.216 100.886 764.096 100.982C763.976 101.078 763.856 101.126 763.736 101.126H733.136C732.992 101.126 732.86 101.078 732.74 100.982C732.644 100.886 732.596 100.778 732.596 100.658V99.4339C732.596 99.2899 732.644 99.1819 732.74 99.1099C732.86 99.0139 732.992 98.9659 733.136 98.9659H747.104V91.1179H739.904C739.328 91.1179 738.86 91.0819 738.5 91.0099C738.164 90.9379 737.888 90.8059 737.672 90.6139C737.48 90.3979 737.348 90.1339 737.276 89.8219C737.204 89.4859 737.168 89.0659 737.168 88.5619V78.5179ZM740.516 78.1219C740.18 78.1219 739.952 78.1939 739.832 78.3379C739.712 78.4579 739.652 78.6979 739.652 79.0579V88.0219C739.652 88.3819 739.712 88.6339 739.832 88.7779C739.952 88.8979 740.18 88.9579 740.516 88.9579H756.176C756.512 88.9579 756.74 88.8979 756.86 88.7779C756.98 88.6339 757.04 88.3819 757.04 88.0219V79.0579C757.04 78.6979 756.98 78.4579 756.86 78.3379C756.74 78.1939 756.512 78.1219 756.176 78.1219H740.516ZM794.351 90.6499C794.351 90.9859 794.183 91.1539 793.847 91.1539H792.371C792.035 91.1539 791.867 90.9859 791.867 90.6499V74.1259C791.867 73.7899 792.035 73.6219 792.371 73.6219H793.847C794.183 73.6219 794.351 73.7899 794.351 74.1259V90.6499ZM795.107 106.49C795.107 106.61 795.047 106.706 794.927 106.778C794.831 106.874 794.735 106.922 794.639 106.922H776.495C775.367 106.922 774.623 106.706 774.263 106.274C773.927 105.866 773.759 105.158 773.759 104.15V101.45C773.759 100.442 773.963 99.7699 774.371 99.4339C774.803 99.0739 775.559 98.8939 776.639 98.8939H791.075C791.411 98.8939 791.627 98.8459 791.723 98.7499C791.819 98.6539 791.867 98.4259 791.867 98.0659V96.0139C791.867 95.6539 791.819 95.4259 791.723 95.3299C791.651 95.2339 791.447 95.1859 791.111 95.1859H774.191C774.071 95.1859 773.951 95.1499 773.831 95.0779C773.735 95.0059 773.687 94.9099 773.687 94.7899V93.4939C773.687 93.3739 773.735 93.2779 773.831 93.2059C773.951 93.1339 774.071 93.0979 774.191 93.0979H791.507C792.083 93.0979 792.551 93.1459 792.911 93.2419C793.271 93.3139 793.559 93.4459 793.775 93.6379C793.991 93.8299 794.135 94.1059 794.207 94.4659C794.303 94.8019 794.351 95.2219 794.351 95.7259V98.4259C794.351 99.4339 794.135 100.118 793.703 100.478C793.295 100.814 792.551 100.982 791.471 100.982H777.035C776.699 100.982 776.483 101.03 776.387 101.126C776.315 101.222 776.279 101.45 776.279 101.81V104.006C776.279 104.342 776.327 104.558 776.423 104.654C776.519 104.774 776.735 104.834 777.071 104.834H794.603C794.723 104.834 794.831 104.87 794.927 104.942C795.047 105.014 795.107 105.11 795.107 105.23V106.49ZM772.067 89.7139C771.491 89.7139 771.023 89.6779 770.663 89.6059C770.327 89.5339 770.063 89.4019 769.871 89.2099C769.679 88.9939 769.547 88.7299 769.475 88.4179C769.403 88.0819 769.367 87.6619 769.367 87.1579V74.5579C769.367 74.4379 769.415 74.3419 769.511 74.2699C769.607 74.1739 769.715 74.1259 769.835 74.1259H771.383C771.503 74.1259 771.599 74.1739 771.671 74.2699C771.767 74.3659 771.815 74.4619 771.815 74.5579V80.1739H782.291V74.5939C782.291 74.4739 782.327 74.3659 782.399 74.2699C782.495 74.1739 782.603 74.1259 782.723 74.1259H784.271C784.391 74.1259 784.499 74.1739 784.595 74.2699C784.691 74.3419 784.739 74.4379 784.739 74.5579V87.4099C784.739 88.3219 784.547 88.9339 784.163 89.2459C783.779 89.5579 783.059 89.7139 782.003 89.7139H772.067ZM771.815 82.2979V86.7259C771.815 87.0859 771.875 87.3259 771.995 87.4459C772.115 87.5419 772.343 87.5899 772.679 87.5899H781.427C781.763 87.5899 781.991 87.5419 782.111 87.4459C782.231 87.3259 782.291 87.0859 782.291 86.7259V82.2979H771.815ZM828.207 106.31C828.207 106.646 828.039 106.814 827.703 106.814H826.227C825.891 106.814 825.723 106.646 825.723 106.31V74.1259C825.723 73.7899 825.891 73.6219 826.227 73.6219H827.703C828.039 73.6219 828.207 73.7899 828.207 74.1259V106.31ZM806.031 98.6779C804.951 98.6299 804.219 98.4139 803.835 98.0299C803.475 97.6219 803.295 96.9139 803.295 95.9059V88.7419C803.295 87.7339 803.499 87.0619 803.907 86.7259C804.339 86.3659 805.095 86.1859 806.175 86.1859H815.247C815.583 86.1859 815.799 86.1379 815.895 86.0419C815.991 85.9459 816.039 85.7179 816.039 85.3579V79.3099C816.039 78.9499 815.991 78.7219 815.895 78.6259C815.823 78.5299 815.619 78.4819 815.283 78.4819H803.943C803.823 78.4819 803.703 78.4459 803.583 78.3739C803.487 78.3019 803.439 78.2059 803.439 78.0859V76.7179C803.439 76.5979 803.487 76.5019 803.583 76.4299C803.703 76.3579 803.823 76.3219 803.943 76.3219H815.679C816.255 76.3219 816.723 76.3699 817.083 76.4659C817.443 76.5379 817.731 76.6699 817.947 76.8619C818.163 77.0539 818.307 77.3299 818.379 77.6899C818.475 78.0259 818.523 78.4459 818.523 78.9499V85.7899C818.523 86.7979 818.307 87.4819 817.875 87.8419C817.467 88.1779 816.723 88.3459 815.643 88.3459H806.535C806.199 88.3459 805.983 88.3939 805.887 88.4899C805.815 88.5859 805.779 88.8139 805.779 89.1739V95.7259C805.779 96.2779 806.043 96.5539 806.571 96.5539C809.427 96.6019 812.163 96.4939 814.779 96.2299C817.419 95.9659 819.975 95.5579 822.447 95.0059C822.783 94.9339 822.987 95.0539 823.059 95.3659L823.275 96.5539C823.347 96.8659 823.191 97.0699 822.807 97.1659C821.535 97.4539 820.191 97.7059 818.775 97.9219C817.383 98.1139 815.955 98.2819 814.491 98.4259C813.051 98.5459 811.611 98.6299 810.171 98.6779C808.731 98.7259 807.351 98.7259 806.031 98.6779ZM851.55 87.9139C850.902 87.9619 850.122 88.0099 849.21 88.0579C848.298 88.0819 847.362 88.1059 846.402 88.1299C845.442 88.1299 844.506 88.1419 843.594 88.1659C842.682 88.1659 841.89 88.1539 841.218 88.1299H839.562V94.8619C839.562 95.2219 839.622 95.4739 839.742 95.6179C839.862 95.7379 840.09 95.7979 840.426 95.7979C841.434 95.8219 842.55 95.8219 843.774 95.7979C844.998 95.7499 846.246 95.6899 847.518 95.6179C848.79 95.5219 850.05 95.4019 851.298 95.2579C852.546 95.0899 853.686 94.9099 854.718 94.7179C855.126 94.6459 855.366 94.7779 855.438 95.1139L855.618 96.1579C855.666 96.3739 855.654 96.5299 855.582 96.6259C855.51 96.6979 855.366 96.7579 855.15 96.8059C854.142 97.0219 852.978 97.2139 851.658 97.3819C850.362 97.5259 849.018 97.6579 847.626 97.7779C846.234 97.8739 844.866 97.9459 843.522 97.9939C842.178 98.0419 840.966 98.0539 839.886 98.0299C838.806 98.0059 838.062 97.7539 837.654 97.2739C837.27 96.7939 837.078 96.0499 837.078 95.0419V78.8419C837.078 77.8339 837.27 77.1619 837.654 76.8259C838.038 76.4899 838.758 76.3219 839.814 76.3219H852.198C852.51 76.3219 852.666 76.4659 852.666 76.7539V78.0499C852.666 78.3379 852.51 78.4819 852.198 78.4819H840.282C839.946 78.4819 839.742 78.5299 839.67 78.6259C839.598 78.6979 839.562 78.9139 839.562 79.2739V86.0419H841.218C841.914 86.0419 842.718 86.0419 843.63 86.0419C844.542 86.0419 845.478 86.0419 846.438 86.0419C847.398 86.0179 848.322 85.9939 849.21 85.9699C850.122 85.9219 850.902 85.8739 851.55 85.8259C851.694 85.8019 851.802 85.8379 851.874 85.9339C851.97 86.0299 852.018 86.1379 852.018 86.2579V87.4819C852.018 87.7219 851.862 87.8659 851.55 87.9139ZM862.062 106.31C862.062 106.646 861.894 106.814 861.558 106.814H860.082C859.746 106.814 859.578 106.646 859.578 106.31V74.1259C859.578 73.7899 859.746 73.6219 860.082 73.6219H861.558C861.894 73.6219 862.062 73.7899 862.062 74.1259V106.31Z" fill="#535353"/>
<path d="M637.822 145.912H636.412V154.353H637.822V145.912ZM624.51 153.053L625.261 154.188C627.193 153.493 628.722 152 629.454 150.105C630.187 151.863 631.697 153.227 633.611 153.877L634.325 152.76C631.908 151.964 630.15 149.931 630.168 147.633V146.388H628.704V147.633C628.704 150.023 626.964 152.202 624.51 153.053ZM627.257 156.331H636.412V157.96H627.294V162.007H638.427V160.835H628.704V159.077H637.841V155.177H627.257V156.331ZM654.521 145.912H653.148V162.19H654.521V145.912ZM640.404 157.851L641.32 158.931C642.949 157.915 644.13 156.001 644.716 153.758C645.284 155.827 646.419 157.585 648.021 158.546L648.9 157.484C646.657 156.184 645.385 153.374 645.385 150.563V149.025H648.369V147.835H640.862V149.025H643.993V150.563C644.002 153.52 642.675 156.496 640.404 157.851ZM647.124 152.962H649.871V161.348H651.226V146.315H649.871V151.79H647.124V152.962ZM674.663 153.548H664.867V148.421H674.498V147.249H663.42V154.719H668.218V158.931H661.516V160.139H676.421V158.931H669.628V154.719H674.663V153.548ZM685.704 146.864H678.472V153.493H679.735C683.086 153.511 685.073 153.419 687.407 152.925L687.224 151.771C684.999 152.22 683.077 152.339 679.882 152.321V148.036H685.704V146.864ZM680.065 156.111H689.019V157.814H680.101V161.97H691.051V160.799H681.511V158.949H690.447V154.939H680.065V156.111ZM689.019 154.134H690.447V150.563H692.9V149.373H690.447V145.912H689.019V154.134ZM699.712 150.288V147.322H698.284V150.288C698.265 153.374 696.26 156.486 693.834 157.594L694.75 158.803C696.654 157.841 698.256 155.781 699.007 153.328C699.785 155.644 701.387 157.576 703.246 158.473L704.125 157.338C701.726 156.248 699.703 153.264 699.712 150.288ZM705.901 162.227H707.347V145.912H705.901V162.227ZM722.856 145.912H721.41V157.832H722.856V152.083H725.31V150.874H722.856V145.912ZM710.149 154.793L710.771 155.946C715.468 154.481 718.462 151.369 718.462 147.176H710.826V148.384H716.896C716.594 151.259 714.058 153.575 710.149 154.793ZM712.657 161.842H723.607V160.634H714.086V156.624H712.657V161.842ZM733.751 146.205C730.117 146.205 727.983 147.203 727.983 149.007C727.983 150.856 730.117 151.854 733.751 151.863C737.368 151.854 739.492 150.856 739.501 149.007C739.492 147.203 737.368 146.205 733.751 146.205ZM726.335 154.134H741.167V152.962H726.335V154.134ZM728.13 156.642H737.853V158.125H728.167V162.007H739.757V160.872H729.595V159.187H739.263V155.543H728.13V156.642ZM729.485 149.007C729.467 147.935 731.05 147.295 733.751 147.285C736.452 147.295 738.027 147.935 738.036 149.007C738.027 150.142 736.452 150.764 733.751 150.764C731.05 150.764 729.467 150.142 729.485 149.007ZM760.704 145.912H759.258V162.19H760.704V145.912ZM747.448 157.96L748.235 159.132C753.691 156.514 755.87 152.367 755.889 147.688H748.198V148.86H754.424C754.103 152.751 751.851 155.873 747.448 157.96ZM771.801 147.945V147.908H776.964V146.736H764.806V147.908H769.933V147.945C769.942 149.95 767.232 151.579 764.366 151.973L764.897 153.108C767.534 152.724 769.979 151.414 770.867 149.51C771.746 151.414 774.208 152.724 776.836 153.108L777.404 151.973C774.52 151.579 771.791 149.95 771.801 147.945ZM763.433 155.489H770.281V158.821H771.709V155.489H778.337V154.298H763.433V155.489ZM765.337 161.842H776.671V160.634H766.783V157.191H765.337V161.842ZM787.072 146.974C783.675 146.983 781.121 148.759 781.121 151.442C781.121 154.152 783.675 155.928 787.072 155.91C790.468 155.928 793.022 154.152 793.022 151.442C793.022 148.759 790.468 146.983 787.072 146.974ZM779.656 160.03H794.561V158.821H779.656V160.03ZM782.494 151.442C782.476 149.492 784.444 148.137 787.072 148.146C789.681 148.137 791.631 149.492 791.631 151.442C791.631 153.419 789.681 154.738 787.072 154.738C784.444 154.738 782.476 153.419 782.494 151.442ZM810.765 158.968H803.972V155.891H809.264V154.701H799.156V152.046H808.879V147.121H797.692V148.311H807.469V150.874H797.728V155.891H802.562V158.968H795.861V160.176H810.765V158.968ZM830.193 145.912H828.746V162.227H830.193V145.912ZM817.375 152.852C817.385 156.322 819.106 158.519 821.532 158.51C823.949 158.519 825.698 156.322 825.688 152.852C825.698 149.391 823.949 147.185 821.532 147.176C819.106 147.185 817.385 149.391 817.375 152.852ZM818.767 152.852C818.767 150.206 819.902 148.466 821.532 148.457C823.171 148.466 824.297 150.206 824.297 152.852C824.297 155.498 823.171 157.237 821.532 157.228C819.902 157.237 818.767 155.498 818.767 152.852ZM847.826 153.969H841.088V152.064H846.086V150.893H836.272V147.835H845.977V146.681H834.862V152.064H839.696V153.969H832.976V155.122H847.826V153.969ZM834.771 159.242C834.761 161.119 836.876 162.172 840.392 162.19C843.88 162.172 845.977 161.119 845.995 159.242C845.977 157.384 843.88 156.322 840.392 156.312C836.876 156.322 834.761 157.384 834.771 159.242ZM836.235 159.242C836.217 158.116 837.783 157.448 840.392 157.448C842.974 157.448 844.539 158.116 844.548 159.242C844.539 160.387 842.974 161.046 840.392 161.037C837.783 161.046 836.217 160.387 836.235 159.242ZM862.676 145.93H861.229V148.97H857.43C857.567 148.393 857.64 147.78 857.64 147.139H850.225V148.347H856.075C855.791 151.167 853.328 153.374 849.401 154.536L850.005 155.672C853.493 154.637 856.002 152.742 857.073 150.124H861.229V152.321H856.908V153.511H861.229V155.708H862.676V145.93ZM851.909 158.986C851.9 160.936 854.015 162.117 857.347 162.117C860.643 162.117 862.767 160.936 862.767 158.986C862.767 157.045 860.643 155.873 857.347 155.873C854.015 155.873 851.9 157.045 851.909 158.986ZM853.319 158.986C853.328 157.759 854.894 157.017 857.347 157.027C859.764 157.017 861.33 157.759 861.339 158.986C861.33 160.213 859.764 160.954 857.347 160.945C854.894 160.954 853.328 160.213 853.319 158.986ZM634.6 180.968H627.806V177.891H633.098V176.701H622.991V174.046H632.714V169.121H621.526V170.311H631.304V172.874H621.562V177.891H626.396V180.968H619.695V182.176H634.6V180.968ZM650.786 175.474H635.881V176.61H650.786V175.474ZM637.676 178.99H647.49V180.382H637.694V183.97H649.449V182.927H639.141V181.37H648.918V177.91H637.676V178.99ZM637.767 169.45H647.417V170.787H637.822V174.248H649.156V173.204H639.25V171.776H648.864V168.406H637.767V169.45ZM666.167 169.688H657.012V170.878H658.806V178.917C658.028 178.926 657.296 178.935 656.609 178.935L656.792 180.162C659.676 180.144 663.567 180.089 667.009 179.539L666.936 178.477C666.103 178.578 665.233 178.66 664.354 178.715V170.878H666.167V169.688ZM660.198 178.898V170.878H662.981V178.798C662.047 178.844 661.104 178.88 660.198 178.898ZM667.98 184.19H669.408V175.657H672.136V174.449H669.408V167.912H667.98V184.19ZM677.593 168.901C675.13 168.892 673.317 170.466 673.326 172.728C673.317 175.017 675.13 176.582 677.593 176.591C680.074 176.582 681.859 175.017 681.877 172.728C681.859 170.466 680.074 168.892 677.593 168.901ZM674.736 172.728C674.727 171.199 675.945 170.137 677.593 170.128C679.259 170.137 680.458 171.199 680.468 172.728C680.458 174.293 679.259 175.365 677.593 175.346C675.945 175.365 674.727 174.293 674.736 172.728ZM675.084 179.521H684.313V184.227H685.741V178.349H675.084V179.521ZM684.313 177.507H685.741V173.332H688.195V172.124H685.741V167.912H684.313V177.507ZM701.818 167.912H700.389V184.19H701.818V175.822H704.546V174.632H701.818V167.912ZM689.128 171.721H698.815V170.531H694.75V168.114H693.322V170.531H689.128V171.721ZM690.062 176.811C690.053 179.017 691.738 180.546 694.054 180.546C696.352 180.546 698.027 179.017 698.046 176.811C698.027 174.614 696.352 173.076 694.054 173.076C691.738 173.076 690.053 174.614 690.062 176.811ZM691.436 176.811C691.426 175.337 692.534 174.275 694.054 174.284C695.555 174.275 696.654 175.337 696.672 176.811C696.654 178.294 695.555 179.338 694.054 179.32C692.534 179.338 691.426 178.294 691.436 176.811ZM718.59 172.856H708.867V168.516H707.439V174.01H718.59V172.856ZM705.406 177.397H720.311V176.225H705.406V177.397ZM707.347 183.787H718.682V182.597H708.776V179.063H707.347V183.787ZM739.83 167.93H738.384V172.508H734.813V173.717H738.384V178.953H739.83V167.93ZM726.61 176.738L727.251 177.891C731.929 176.39 734.731 173.387 734.74 169.212H727.416V170.384H733.211C732.909 173.277 730.501 175.538 726.61 176.738ZM728.313 183L728.899 184.135C731.325 183.659 733.559 182.387 734.548 180.464C735.509 182.368 737.725 183.641 740.123 184.099L740.728 182.945C737.862 182.432 735.262 180.647 735.253 178.276V177.525H733.843V178.276C733.824 180.675 731.197 182.496 728.313 183ZM757.372 176.5H742.54V177.672H757.372V176.5ZM744.188 171.721C744.188 173.744 746.422 174.962 749.956 174.962C753.453 174.962 755.696 173.744 755.706 171.721C755.696 169.679 753.453 168.48 749.956 168.498C746.422 168.48 744.188 169.679 744.188 171.721ZM744.463 183.842H755.724V182.634H745.909V179.1H744.463V183.842ZM745.671 171.721C745.662 170.448 747.328 169.652 749.956 169.652C752.565 169.652 754.232 170.448 754.241 171.721C754.232 173.012 752.565 173.79 749.956 173.79C747.328 173.79 745.662 173.012 745.671 171.721ZM776.873 167.912H775.426V184.227H776.873V167.912ZM764.055 174.852C764.064 178.322 765.786 180.519 768.212 180.51C770.629 180.519 772.377 178.322 772.368 174.852C772.377 171.391 770.629 169.185 768.212 169.176C765.786 169.185 764.064 171.391 764.055 174.852ZM765.447 174.852C765.447 172.206 766.582 170.466 768.212 170.457C769.85 170.466 770.977 172.206 770.977 174.852C770.977 177.498 769.85 179.237 768.212 179.228C766.582 179.237 765.447 177.498 765.447 174.852ZM794.487 175.969H790.807V173.671C792.089 173.158 792.812 172.334 792.821 171.245C792.812 169.331 790.615 168.233 787.072 168.223C783.501 168.233 781.304 169.331 781.304 171.245C781.304 172.343 782.036 173.167 783.336 173.671V175.969H779.656V177.159H794.487V175.969ZM781.45 181.279C781.441 183.137 783.538 184.154 787.072 184.154C790.56 184.154 792.656 183.137 792.675 181.279C792.656 179.42 790.56 178.395 787.072 178.404C783.538 178.395 781.441 179.42 781.45 181.279ZM782.787 171.245C782.778 170.073 784.407 169.359 787.072 169.359C789.708 169.359 791.347 170.073 791.356 171.245C791.347 172.435 789.708 173.121 787.072 173.131C784.407 173.121 782.778 172.435 782.787 171.245ZM782.915 181.279C782.897 180.171 784.462 179.521 787.072 179.503C789.653 179.521 791.219 180.171 791.228 181.279C791.219 182.387 789.653 183.046 787.072 183.037C784.462 183.046 782.897 182.387 782.915 181.279ZM784.764 175.969V174.064C785.451 174.183 786.22 174.248 787.072 174.248C787.923 174.248 788.692 174.183 789.379 174.055V175.969H784.764ZM801.372 172.911V170.787H805.034V169.597H796.172V170.787H799.962V172.911C799.944 175.685 797.93 178.779 795.586 179.924L796.465 181.059C798.287 180.125 799.916 178.02 800.667 175.63C801.4 177.836 802.947 179.759 804.778 180.656L805.602 179.521C803.24 178.395 801.354 175.52 801.372 172.911ZM807.03 184.19H808.458V175.731H811.187V174.504H808.458V167.912H807.03V184.19ZM826.018 167.912H824.626V184.19H826.018V167.912ZM812.267 174.943C812.276 178.404 813.649 180.61 815.764 180.601C817.769 180.61 819.133 178.624 819.271 175.456H821.367V183.366H822.74V168.26H821.367V174.266H819.261C819.078 171.199 817.742 169.295 815.764 169.285C813.649 169.295 812.276 171.483 812.267 174.943ZM813.622 174.943C813.604 172.297 814.446 170.64 815.764 170.64C817.092 170.64 817.934 172.297 817.925 174.943C817.934 177.58 817.092 179.246 815.764 179.228C814.446 179.246 813.604 177.58 813.622 174.943ZM842.205 167.912H840.831V184.19H842.205V167.912ZM828.289 179.631L829.131 180.675C831.401 179.338 832.976 177.662 833.956 175.767H837.407V183.366H838.781V168.352H837.407V174.595H834.487C835.045 173.149 835.302 171.602 835.302 170H828.984V171.19H833.873C833.599 174.595 831.823 177.534 828.289 179.631ZM857.476 169.469H850.005V180.198H851.25C854.372 180.198 856.359 180.089 858.757 179.631L858.574 178.441C856.322 178.88 854.39 178.981 851.451 178.972V170.677H857.476V169.469ZM856.505 175.035H861.248V184.227H862.694V167.912H861.248V173.845H856.505V175.035ZM625.353 192.915V192.219H628.997V191.047H620.226V192.219H623.906V192.933C623.906 195.231 622.167 197.401 619.768 198.262L620.519 199.397C622.451 198.683 623.961 197.181 624.666 195.314C625.362 196.989 626.781 198.353 628.612 199.012L629.363 197.877C626.982 197.053 625.353 195.03 625.353 192.915ZM622.24 201.722H631.743V206.19H633.19V200.532H622.24V201.722ZM628.484 195.387H631.743V199.672H633.19V189.912H631.743V194.178H628.484V195.387ZM650.731 198.5H635.9V199.672H650.731V198.5ZM637.548 193.721C637.548 195.744 639.781 196.962 643.315 196.962C646.813 196.962 649.056 195.744 649.065 193.721C649.056 191.679 646.813 190.48 643.315 190.498C639.781 190.48 637.548 191.679 637.548 193.721ZM637.822 205.842H649.083V204.634H639.269V201.1H637.822V205.842ZM639.031 193.721C639.022 192.448 640.688 191.652 643.315 191.652C645.925 191.652 647.591 192.448 647.6 193.721C647.591 195.012 645.925 195.79 643.315 195.79C640.688 195.79 639.022 195.012 639.031 193.721ZM662.596 194.288V191.322H661.168V194.288C661.15 197.374 659.145 200.486 656.719 201.594L657.634 202.803C659.539 201.841 661.141 199.781 661.891 197.328C662.67 199.644 664.272 201.576 666.13 202.473L667.009 201.338C664.611 200.248 662.587 197.264 662.596 194.288ZM668.785 206.227H670.232V189.912H668.785V206.227ZM685.741 189.912H684.294V201.832H685.741V196.083H688.195V194.874H685.741V189.912ZM673.033 198.793L673.656 199.946C678.353 198.481 681.346 195.369 681.346 191.176H673.711V192.384H679.781C679.479 195.259 676.943 197.575 673.033 198.793ZM675.542 205.842H686.492V204.634H676.97V200.624H675.542V205.842ZM698.247 191.725H689.971V192.897H696.801C696.81 194.197 696.773 196.174 696.324 198.903L697.771 199.031C698.238 196.01 698.238 193.858 698.247 192.567V191.725ZM689.055 201.411L689.238 202.601C692.15 202.62 695.977 202.546 699.401 202.015L699.327 200.935C697.634 201.136 695.784 201.255 693.981 201.32V196.376H692.571V201.365C691.317 201.393 690.126 201.402 689.055 201.411ZM700.353 206.19H701.781V197.969H704.418V196.724H701.781V189.912H700.353V206.19ZM723.552 189.912H722.106V206.227H723.552V189.912ZM711.083 202.29H718.773V191.304H717.363V195.607H712.511V191.304H711.083V202.29ZM712.511 201.082V196.76H717.363V201.082H712.511ZM741.167 197.969H737.487V195.671C738.768 195.158 739.492 194.334 739.501 193.245C739.492 191.331 737.294 190.233 733.751 190.223C730.181 190.233 727.983 191.331 727.983 193.245C727.983 194.343 728.716 195.167 730.016 195.671V197.969H726.335V199.159H741.167V197.969ZM728.13 203.279C728.121 205.137 730.217 206.154 733.751 206.154C737.239 206.154 739.336 205.137 739.354 203.279C739.336 201.42 737.239 200.395 733.751 200.404C730.217 200.395 728.121 201.42 728.13 203.279ZM729.467 193.245C729.457 192.073 731.087 191.359 733.751 191.359C736.388 191.359 738.027 192.073 738.036 193.245C738.027 194.435 736.388 195.121 733.751 195.131C731.087 195.121 729.457 194.435 729.467 193.245ZM729.595 203.279C729.576 202.171 731.142 201.521 733.751 201.503C736.333 201.521 737.899 202.171 737.908 203.279C737.899 204.387 736.333 205.046 733.751 205.037C731.142 205.046 729.576 204.387 729.595 203.279ZM731.444 197.969V196.064C732.131 196.183 732.9 196.248 733.751 196.248C734.603 196.248 735.372 196.183 736.058 196.055V197.969H731.444ZM749.956 190.974C746.559 190.983 744.005 192.759 744.005 195.442C744.005 198.152 746.559 199.928 749.956 199.91C753.353 199.928 755.907 198.152 755.907 195.442C755.907 192.759 753.353 190.983 749.956 190.974ZM742.54 204.03H757.445V202.821H742.54V204.03ZM745.378 195.442C745.36 193.492 747.328 192.137 749.956 192.146C752.565 192.137 754.515 193.492 754.515 195.442C754.515 197.419 752.565 198.738 749.956 198.738C747.328 198.738 745.36 197.419 745.378 195.442ZM773.65 202.968H766.857V199.891H772.148V198.701H762.041V196.046H771.764V191.121H760.576V192.311H770.354V194.874H760.613V199.891H765.447V202.968H758.745V204.176H773.65V202.968ZM787.896 191.34H780.425V198.884H787.896V195.643H791.704V201.814H793.151V189.93H791.704V194.471H787.896V191.34ZM781.853 197.731V192.531H786.486V197.731H781.853ZM782.695 205.842H793.608V204.634H784.142V200.715H782.695V205.842ZM809.337 189.912H807.909V196.467H804.027V197.657H807.909V206.19H809.337V189.912ZM795.879 201.942L796.666 203.096C802.104 200.395 804.055 196.302 804.064 191.688H796.593V192.86H802.617C802.324 196.669 800.283 199.809 795.879 201.942ZM825.505 189.912H824.077V206.227H825.505V189.912ZM812.981 192.622H819.115V196.046H813.018V202.272H814.373C817.183 202.272 819.655 202.153 822.649 201.686L822.502 200.477C819.591 200.944 817.183 201.072 814.482 201.063V197.218H820.562V191.432H812.981V192.622ZM843.157 197.474H828.252V198.61H843.157V197.474ZM830.046 200.99H839.861V202.382H830.065V205.97H841.82V204.927H831.511V203.37H841.289V199.91H830.046V200.99ZM830.138 191.45H839.788V192.787H830.193V196.248H841.527V195.204H831.621V193.776H841.234V190.406H830.138V191.45ZM862.603 189.912H861.156V206.227H862.603V189.912ZM849.785 196.852C849.794 200.322 851.516 202.519 853.942 202.51C856.359 202.519 858.107 200.322 858.098 196.852C858.107 193.391 856.359 191.185 853.942 191.176C851.516 191.185 849.794 193.391 849.785 196.852ZM851.177 196.852C851.177 194.206 852.312 192.466 853.942 192.457C855.58 192.466 856.707 194.206 856.707 196.852C856.707 199.498 855.58 201.237 853.942 201.228C852.312 201.237 851.177 199.498 851.177 196.852ZM634.453 219.969H627.715V218.064H632.714V216.893H622.899V213.835H632.604V212.681H621.489V218.064H626.323V219.969H619.603V221.122H634.453V219.969ZM621.398 225.242C621.389 227.119 623.503 228.172 627.019 228.19C630.507 228.172 632.604 227.119 632.622 225.242C632.604 223.384 630.507 222.322 627.019 222.312C623.503 222.322 621.389 223.384 621.398 225.242ZM622.863 225.242C622.844 224.116 624.41 223.448 627.019 223.448C629.601 223.448 631.166 224.116 631.176 225.242C631.166 226.387 629.601 227.046 627.019 227.037C624.41 227.046 622.844 226.387 622.863 225.242ZM648.406 211.912H646.978V228.19H648.406V219.822H651.134V218.632H648.406V211.912ZM635.717 215.721H645.403V214.531H641.338V212.114H639.91V214.531H635.717V215.721ZM636.65 220.811C636.641 223.017 638.326 224.546 640.642 224.546C642.94 224.546 644.615 223.017 644.634 220.811C644.615 218.614 642.94 217.076 640.642 217.076C638.326 217.076 636.641 218.614 636.65 220.811ZM638.024 220.811C638.015 219.337 639.122 218.275 640.642 218.284C642.144 218.275 643.242 219.337 643.26 220.811C643.242 222.294 642.144 223.338 640.642 223.32C639.122 223.338 638.015 222.294 638.024 220.811ZM665.947 211.912H664.574V228.19H665.947V211.912ZM652.031 223.631L652.874 224.675C655.144 223.338 656.719 221.662 657.698 219.767H661.15V227.366H662.523V212.352H661.15V218.595H658.229C658.788 217.149 659.044 215.602 659.044 214H652.727V215.19H657.616C657.341 218.595 655.565 221.534 652.031 223.631ZM681.053 214.732H677.703V212.406H676.274V214.732H672.887V215.904H681.053V214.732ZM673.473 220.701C673.473 222.889 674.947 224.427 676.97 224.437C679.021 224.427 680.486 222.889 680.504 220.701C680.486 218.541 679.021 217.012 676.97 217.002C674.947 217.012 673.473 218.541 673.473 220.701ZM674.755 220.701C674.755 219.273 675.679 218.229 676.97 218.211C678.27 218.229 679.222 219.273 679.222 220.701C679.222 222.148 678.27 223.182 676.97 223.173C675.679 223.182 674.755 222.148 674.755 220.701ZM681.896 227.385H683.251V219.969H685.411V228.19H686.785V211.912H685.411V218.779H683.251V212.315H681.896V227.385ZM697.35 214.219V214.109H702.55V212.938H690.52V214.109H695.739V214.219C695.729 216.398 692.836 218.248 690.007 218.669L690.575 219.804C693.074 219.374 695.555 218.019 696.544 216.059C697.533 218.019 700.014 219.374 702.55 219.804L703.081 218.669C700.243 218.248 697.341 216.398 697.35 214.219ZM689.128 222.386H695.812V228.19H697.222V222.386H703.96V221.196H689.128V222.386ZM718.389 213.56H706.908V214.75H716.942V215.19C716.933 217.14 716.933 219.419 716.32 222.532L717.784 222.697C718.37 219.419 718.37 217.186 718.389 215.19V213.56ZM705.333 225.883H720.165V224.693H712.566V218.87H711.156V224.693H705.333V225.883ZM724.211 225.48H722.435L721.428 230.461H722.783L724.211 225.48ZM736.516 214.988V212.919H735.106V214.933C735.097 217.46 733.467 219.667 730.986 220.536L731.774 221.69C733.696 220.948 735.17 219.456 735.857 217.515C736.58 219.236 738.018 220.61 739.867 221.287L740.599 220.134C738.201 219.3 736.507 217.231 736.516 214.988ZM733.605 227.842H744.518V226.634H735.07V222.789H733.605V227.842ZM742.339 223.942H743.767V218.138H746.221V216.911H743.767V211.912H742.339V223.942ZM751.732 212.681C749.251 212.672 747.493 214.228 747.502 216.435C747.493 218.669 749.251 220.207 751.732 220.207C753.939 220.207 755.614 218.925 755.898 217.002H759.294V220.646H760.741V211.912H759.294V215.812H755.889C755.577 213.945 753.911 212.672 751.732 212.681ZM748.876 216.435C748.876 214.933 750.057 213.89 751.732 213.908C753.371 213.89 754.552 214.933 754.552 216.435C754.552 217.918 753.371 218.989 751.732 218.998C750.057 218.989 748.876 217.918 748.876 216.435ZM750.249 227.97H760.741V221.47H759.294V223.539H751.696V221.47H750.249V227.97ZM751.696 226.799V224.693H759.294V226.799H751.696ZM776.268 217.698H774.858V220.024H768.157V221.214H782.988V220.024H776.268V217.698ZM768.981 217.369L769.512 218.504C772.194 218.174 774.675 217.012 775.573 215.208C776.47 217.012 778.969 218.174 781.633 218.504L782.164 217.369C779.326 217.067 776.607 215.666 776.506 213.853H781.67V212.681H769.512V213.853H774.639C774.538 215.675 771.819 217.067 768.981 217.369ZM769.951 225.352C769.942 227.165 772.039 228.154 775.573 228.154C779.07 228.154 781.157 227.165 781.176 225.352C781.157 223.548 779.07 222.551 775.573 222.551C772.039 222.551 769.942 223.548 769.951 225.352ZM771.416 225.352C771.398 224.29 772.936 223.677 775.573 223.686C778.182 223.677 779.72 224.29 779.729 225.352C779.72 226.423 778.182 227.046 775.573 227.037C772.936 227.046 771.398 226.423 771.416 225.352ZM789.818 216.288V213.322H788.408V216.288C788.39 219.264 786.504 222.386 784.124 223.558L785.039 224.711C786.87 223.732 788.408 221.672 789.131 219.273C789.855 221.534 791.356 223.466 793.151 224.4L794.03 223.246C791.713 222.111 789.818 219.154 789.818 216.288ZM795.531 228.19H796.959V219.767H799.688V218.522H796.959V211.912H795.531V228.19ZM806.078 216.911V214.787H809.74V213.597H800.878V214.787H804.668V216.911C804.65 219.685 802.635 222.779 800.292 223.924L801.171 225.059C802.993 224.125 804.622 222.02 805.373 219.63C806.105 221.836 807.653 223.759 809.484 224.656L810.308 223.521C807.946 222.395 806.06 219.52 806.078 216.911ZM811.736 228.19H813.164V219.731H815.892V218.504H813.164V211.912H811.736V228.19ZM831.621 218.76H816.771V219.914H831.621V218.76ZM818.566 222.496H828.289V224.07H818.602V228.007H830.193V226.835H820.031V225.151H829.698V221.379H818.566V222.496ZM818.749 217.424H829.845V216.252H820.195V213.633H829.68V212.48H818.749V217.424ZM846.929 211.912H845.537V228.19H846.929V211.912ZM833.177 218.943C833.187 222.404 834.56 224.61 836.675 224.601C838.68 224.61 840.044 222.624 840.181 219.456H842.278V227.366H843.651V212.26H842.278V218.266H840.172C839.989 215.199 838.652 213.295 836.675 213.285C834.56 213.295 833.187 215.483 833.177 218.943ZM834.532 218.943C834.514 216.297 835.356 214.64 836.675 214.64C838.002 214.64 838.845 216.297 838.835 218.943C838.845 221.58 838.002 223.246 836.675 223.228C835.356 223.246 834.514 221.58 834.532 218.943ZM863.115 211.912H861.742V228.19H863.115V211.912ZM849.199 223.631L850.042 224.675C852.312 223.338 853.887 221.662 854.866 219.767H858.318V227.366H859.691V212.352H858.318V218.595H855.397C855.956 217.149 856.212 215.602 856.212 214H849.895V215.19H854.784C854.509 218.595 852.733 221.534 849.199 223.631ZM634.948 238.856H625.225V234.516H623.796V240.01H634.948V238.856ZM621.764 243.397H636.669V242.225H621.764V243.397ZM623.705 249.787H635.039V248.597H625.133V245.063H623.705V249.787ZM650.988 235.469H643.517V246.198H644.762C647.884 246.198 649.871 246.089 652.269 245.631L652.086 244.441C649.834 244.88 647.902 244.981 644.963 244.972V236.677H650.988V235.469ZM650.017 241.035H654.76V250.227H656.206V233.912H654.76V239.845H650.017V241.035ZM669.261 236.915V236.219H672.905V235.047H664.135V236.219H667.815V236.933C667.815 239.231 666.075 241.401 663.677 242.262L664.427 243.397C666.359 242.683 667.87 241.181 668.575 239.314C669.271 240.989 670.69 242.353 672.521 243.012L673.271 241.877C670.891 241.053 669.261 239.03 669.261 236.915ZM666.149 245.722H675.652V250.19H677.098V244.532H666.149V245.722ZM672.393 239.387H675.652V243.672H677.098V233.912H675.652V238.178H672.393V239.387ZM694.64 242.5H679.808V243.672H694.64V242.5ZM681.456 237.721C681.456 239.744 683.69 240.962 687.224 240.962C690.721 240.962 692.964 239.744 692.974 237.721C692.964 235.679 690.721 234.48 687.224 234.498C683.69 234.48 681.456 235.679 681.456 237.721ZM681.731 249.842H692.992V248.634H683.177V245.1H681.731V249.842ZM682.939 237.721C682.93 236.448 684.597 235.652 687.224 235.652C689.833 235.652 691.5 236.448 691.509 237.721C691.5 239.012 689.833 239.79 687.224 239.79C684.597 239.79 682.93 239.012 682.939 237.721ZM706.505 238.288V235.322H705.077V238.288C705.059 241.374 703.054 244.486 700.627 245.594L701.543 246.803C703.447 245.841 705.049 243.781 705.8 241.328C706.578 243.644 708.181 245.576 710.039 246.473L710.918 245.338C708.519 244.248 706.496 241.264 706.505 238.288ZM712.694 250.227H714.141V233.912H712.694V250.227ZM729.65 233.912H728.203V245.832H729.65V240.083H732.103V238.874H729.65V233.912ZM716.942 242.793L717.565 243.946C722.261 242.481 725.255 239.369 725.255 235.176H717.62V236.384H723.69C723.387 239.259 720.851 241.575 716.942 242.793ZM719.451 249.842H730.4V248.634H720.879V244.624H719.451V249.842ZM742.449 234.516C739.986 234.526 738.21 236.009 738.219 238.124C738.21 240.248 739.986 241.712 742.449 241.712C744.884 241.712 746.651 240.248 746.66 238.124C746.651 236.009 744.884 234.526 742.449 234.516ZM739.629 238.124C739.611 236.714 740.81 235.716 742.449 235.725C744.06 235.716 745.269 236.714 745.269 238.124C745.269 239.552 744.06 240.541 742.449 240.541C740.81 240.541 739.611 239.552 739.629 238.124ZM740.691 244.221H749.846V245.906H740.728V249.97H751.86V248.817H742.137V246.986H751.274V243.067H740.691V244.221ZM749.846 242.28H751.274V233.912H749.846V242.28ZM761.455 234.205C757.82 234.205 755.687 235.203 755.687 237.007C755.687 238.856 757.82 239.854 761.455 239.863C765.071 239.854 767.195 238.856 767.205 237.007C767.195 235.203 765.071 234.205 761.455 234.205ZM754.039 242.134H768.871V240.962H754.039V242.134ZM755.834 244.642H765.557V246.125H755.87V250.007H767.461V248.872H757.299V247.187H766.967V243.543H755.834V244.642ZM757.189 237.007C757.17 235.935 758.754 235.295 761.455 235.285C764.156 235.295 765.731 235.935 765.74 237.007C765.731 238.142 764.156 238.764 761.455 238.764C758.754 238.764 757.17 238.142 757.189 237.007ZM787.548 233.912H786.119V250.19H787.548V241.822H790.276V240.632H787.548V233.912ZM774.858 237.721H784.545V236.531H780.48V234.114H779.052V236.531H774.858V237.721ZM775.792 242.811C775.783 245.017 777.468 246.546 779.784 246.546C782.082 246.546 783.757 245.017 783.776 242.811C783.757 240.614 782.082 239.076 779.784 239.076C777.468 239.076 775.783 240.614 775.792 242.811ZM777.166 242.811C777.156 241.337 778.264 240.275 779.784 240.284C781.285 240.275 782.384 241.337 782.402 242.811C782.384 244.294 781.285 245.338 779.784 245.32C778.264 245.338 777.156 244.294 777.166 242.811ZM804.21 235.56H792.729V236.75H802.764V237.19C802.755 239.14 802.755 241.419 802.141 244.532L803.606 244.697C804.192 241.419 804.192 239.186 804.21 237.19V235.56ZM791.155 247.883H805.986V246.693H798.387V240.87H796.978V246.693H791.155V247.883ZM820.36 235.469H812.889V246.198H814.135C817.256 246.198 819.243 246.089 821.642 245.631L821.459 244.441C819.207 244.88 817.275 244.981 814.336 244.972V236.677H820.36V235.469ZM819.39 241.035H824.132V250.227H825.579V233.912H824.132V239.845H819.39V241.035ZM845.702 233.912H844.274V242.262H845.702V238.801H848.156V237.593H845.702V233.912ZM833.672 241.621H841.198V234.992H833.672V241.621ZM834.716 249.751H835.485C836.547 249.76 838.094 249.687 839.678 249.165L839.458 248.011C838.304 248.396 837.05 248.533 836.107 248.57V243.727H834.716V249.751ZM835.082 240.467V236.164H839.806V240.467H835.082ZM839.11 244.99H847.332V243.891H843.944V242.445H842.534V243.891H839.11V244.99ZM840.19 247.865C840.181 249.275 841.417 250.154 843.212 250.154C844.997 250.154 846.251 249.275 846.27 247.865C846.251 246.455 844.997 245.585 843.212 245.576C841.417 245.585 840.181 246.455 840.19 247.865ZM841.472 247.865C841.472 247.105 842.195 246.61 843.212 246.601C844.228 246.61 844.951 247.105 844.951 247.865C844.951 248.643 844.228 249.146 843.212 249.128C842.195 249.146 841.472 248.643 841.472 247.865ZM864.012 242.5H849.181V243.672H864.012V242.5ZM850.829 237.721C850.829 239.744 853.063 240.962 856.597 240.962C860.094 240.962 862.337 239.744 862.346 237.721C862.337 235.679 860.094 234.48 856.597 234.498C853.063 234.48 850.829 235.679 850.829 237.721ZM851.104 249.842H862.365V248.634H852.55V245.1H851.104V249.842ZM852.312 237.721C852.303 236.448 853.969 235.652 856.597 235.652C859.206 235.652 860.872 236.448 860.881 237.721C860.872 239.012 859.206 239.79 856.597 239.79C853.969 239.79 852.303 239.012 852.312 237.721ZM655.51 257.432V256.498H654.027V257.432C654.027 259.766 651.052 261.707 648.113 262.119L648.699 263.291C651.235 262.87 653.734 261.488 654.778 259.474C655.822 261.469 658.33 262.87 660.857 263.291L661.443 262.119C658.504 261.707 655.519 259.73 655.51 257.432ZM647.344 266.294H654.027V272.19H655.437V266.294H662.175V265.086H647.344V266.294ZM676.989 266.477H666.039V267.686H675.56V272.19H676.989V266.477ZM663.933 260.728C663.924 263.017 665.728 264.582 668.199 264.591C670.671 264.582 672.457 263.017 672.466 260.728C672.457 258.466 670.671 256.892 668.199 256.901C665.728 256.892 663.924 258.466 663.933 260.728ZM665.343 260.728C665.325 259.199 666.524 258.137 668.199 258.128C669.857 258.137 671.056 259.199 671.056 260.728C671.056 262.293 669.857 263.365 668.199 263.346C666.524 263.365 665.325 262.293 665.343 260.728ZM675.56 265.598H676.989V255.912H675.56V265.598ZM687.169 256.205C683.535 256.205 681.401 257.203 681.401 259.007C681.401 260.856 683.535 261.854 687.169 261.863C690.786 261.854 692.91 260.856 692.919 259.007C692.91 257.203 690.786 256.205 687.169 256.205ZM679.753 264.134H694.585V262.962H679.753V264.134ZM681.548 266.642H691.271V268.125H681.584V272.007H693.175V270.872H683.013V269.187H692.681V265.543H681.548V266.642ZM682.903 259.007C682.885 257.935 684.468 257.295 687.169 257.285C689.87 257.295 691.445 257.935 691.454 259.007C691.445 260.142 689.87 260.764 687.169 260.764C684.468 260.764 682.885 260.142 682.903 259.007ZM713.262 255.912H711.833V272.19H713.262V263.749H715.898V262.541H713.262V255.912ZM700.774 267.96L701.58 269.096C706.88 266.477 709.041 262.275 709.05 257.67H701.525V258.878H707.595C707.265 262.733 704.976 265.873 700.774 267.96ZM730.364 255.912H728.917V260.508H725.585V261.717H728.917V263.969H725.585V265.177H728.917V272.19H730.364V255.912ZM716.759 267.942L717.711 269.041C719.506 268.034 721.099 265.91 721.822 263.456C722.573 265.69 724.129 267.704 725.914 268.638L726.775 267.539C724.459 266.367 722.518 263.3 722.509 260.746V258.787H726.226V257.597H717.345V258.787H721.062V260.746C721.053 263.648 719.084 266.779 716.759 267.942ZM745.671 255.912H744.243V272.227H745.671V263.566H748.4V262.357H745.671V255.912ZM733.788 268.144H735.07C738.164 268.144 740.297 268.052 742.852 267.594L742.668 266.349C740.242 266.798 738.164 266.926 735.216 266.935V258.695H741.387V257.505H733.788V268.144ZM768.816 262.724H753.984V263.896H760.686V265.543H755.779V266.642H765.502V268.18H755.815V272.007H767.406V270.872H757.244V269.242H766.912V265.543H762.096V263.896H768.816V262.724ZM754.79 260.819L755.266 261.918C757.93 261.643 760.43 260.609 761.4 258.961C762.38 260.609 764.888 261.643 767.552 261.918L768.029 260.819C765.163 260.563 762.444 259.318 762.233 257.633H767.498V256.498H755.339V257.633H760.576C760.347 259.327 757.637 260.563 754.79 260.819ZM783.062 257.432V256.498H781.578V257.432C781.578 259.766 778.603 261.707 775.664 262.119L776.25 263.291C778.786 262.87 781.285 261.488 782.329 259.474C783.373 261.469 785.881 262.87 788.408 263.291L788.994 262.119C786.055 261.707 783.071 259.73 783.062 257.432ZM774.895 266.294H781.578V272.19H782.988V266.294H789.727V265.086H774.895V266.294ZM801.317 266.844V265.946H799.926V266.844C799.907 268.4 798.671 270.139 796.611 270.908L797.344 271.97C798.9 271.385 800.017 270.249 800.603 268.94C801.088 270.304 802.095 271.494 803.679 272.099C805.181 271.467 806.179 270.213 806.682 268.894C807.25 270.258 808.385 271.394 810.015 271.97L810.729 270.908C808.641 270.185 807.405 268.519 807.415 266.844V265.946H806.005V266.844C806.014 268.098 805.19 269.727 803.633 270.689C802.086 269.81 801.308 268.281 801.317 266.844ZM796.19 260.691C796.181 262.925 797.985 264.463 800.457 264.463C802.928 264.463 804.714 262.925 804.723 260.691C804.714 258.421 802.928 256.873 800.457 256.883C797.985 256.873 796.181 258.421 796.19 260.691ZM797.6 260.691C797.582 259.171 798.781 258.091 800.457 258.109C802.114 258.091 803.313 259.171 803.313 260.691C803.313 262.202 802.114 263.264 800.457 263.273C798.781 263.264 797.582 262.202 797.6 260.691ZM807.817 265.232H809.246V255.93H807.817V265.232ZM815.325 265.69H813.896V271.97H824.901V265.69H823.455V267.594H815.325V265.69ZM812.01 264.536H826.842V263.346H812.01V264.536ZM812.853 261.039L813.402 262.193C815.911 261.817 818.401 260.545 819.435 258.714C820.47 260.536 822.951 261.817 825.469 262.193L826 261.039C823.134 260.673 820.168 258.869 820.177 256.864V256.095H818.694V256.864C818.694 258.933 815.755 260.645 812.853 261.039ZM815.325 270.817V268.729H823.455V270.817H815.325ZM841.637 255.912H840.209V272.19H841.637V255.912ZM829.277 267.997H830.596C833.205 267.997 835.778 267.796 838.671 267.191L838.469 265.965C835.741 266.541 833.177 266.734 830.687 266.752V257.523H829.277V267.997ZM857.018 255.912H855.59V272.227H857.018V263.566H859.746V262.357H857.018V255.912ZM845.134 268.144H846.416C849.51 268.144 851.644 268.052 854.198 267.594L854.015 266.349C851.589 266.798 849.51 266.926 846.562 266.935V258.695H852.733V257.505H845.134V268.144ZM862.346 270.817C862.996 270.808 863.527 270.277 863.518 269.627C863.527 268.986 862.996 268.455 862.346 268.455C861.705 268.455 861.156 268.986 861.174 269.627C861.156 270.277 861.705 270.808 862.346 270.817Z" fill="#636363"/>
<path d="M774.546 48.1172H769.824V60.3442H767.562V48.1172H762.82V46.1361H774.546V48.1172ZM776.172 60.3442V49.8782H778.373V60.3442H776.172ZM776.172 48.1572V45.7358H778.373V48.1572H776.172ZM797.027 60.3442H794.826V54.4809C794.826 53.507 794.666 52.7932 794.346 52.3396C794.026 51.886 793.559 51.6592 792.945 51.6592C792.331 51.6592 791.758 51.8927 791.224 52.3596C790.704 52.8132 790.337 53.4069 790.123 54.1407V60.3442H787.922V54.4809C787.922 53.507 787.762 52.7932 787.442 52.3396C787.122 51.886 786.661 51.6592 786.061 51.6592C785.447 51.6592 784.874 51.886 784.34 52.3396C783.82 52.7932 783.446 53.3869 783.219 54.1207V60.3442H781.018V49.8782H783.019V51.9794C783.433 51.2457 783.973 50.6853 784.64 50.2985C785.321 49.8982 786.094 49.6981 786.962 49.6981C787.829 49.6981 788.509 49.9249 789.003 50.3785C789.51 50.8321 789.823 51.3991 789.943 52.0795C790.397 51.3057 790.951 50.7187 791.604 50.3185C792.271 49.9049 793.032 49.6981 793.886 49.6981C794.499 49.6981 795.013 49.8115 795.426 50.0383C795.84 50.2651 796.16 50.5786 796.387 50.9789C796.614 51.3657 796.774 51.8193 796.867 52.3396C796.974 52.8466 797.027 53.3869 797.027 53.9606V60.3442ZM804.307 60.5444C803.493 60.5444 802.752 60.4043 802.085 60.1241C801.432 59.8306 800.865 59.437 800.384 58.9434C799.904 58.4365 799.531 57.8628 799.264 57.2224C799.01 56.5687 798.884 55.875 798.884 55.1412C798.884 54.154 799.11 53.2535 799.564 52.4397C800.018 51.6125 800.651 50.9522 801.465 50.4586C802.279 49.9516 803.233 49.6981 804.327 49.6981C805.421 49.6981 806.361 49.9516 807.148 50.4586C807.949 50.9522 808.569 51.6059 809.009 52.4197C809.45 53.2335 809.67 54.1073 809.67 55.0412C809.67 55.2013 809.663 55.3547 809.65 55.5015C809.636 55.6349 809.623 55.7483 809.61 55.8416H801.225C801.265 56.4553 801.432 56.9956 801.725 57.4626C802.032 57.9162 802.419 58.2764 802.886 58.5432C803.353 58.7967 803.853 58.9234 804.387 58.9234C804.974 58.9234 805.527 58.7767 806.048 58.4832C806.581 58.1897 806.942 57.8028 807.128 57.3225L809.009 57.8628C808.783 58.3698 808.436 58.83 807.969 59.2436C807.515 59.6438 806.975 59.964 806.348 60.2042C805.721 60.431 805.04 60.5444 804.307 60.5444ZM801.165 54.3808H807.489C807.449 53.7805 807.275 53.2535 806.968 52.7999C806.675 52.333 806.295 51.9728 805.828 51.7193C805.374 51.4525 804.867 51.319 804.307 51.319C803.76 51.319 803.253 51.4525 802.786 51.7193C802.332 51.9728 801.959 52.333 801.665 52.7999C801.372 53.2535 801.205 53.7805 801.165 54.3808ZM827.475 60.3442H825.273V54.4809C825.273 53.507 825.113 52.7932 824.793 52.3396C824.473 51.886 824.006 51.6592 823.392 51.6592C822.779 51.6592 822.205 51.8927 821.671 52.3596C821.151 52.8132 820.784 53.4069 820.571 54.1407V60.3442H818.369V54.4809C818.369 53.507 818.209 52.7932 817.889 52.3396C817.569 51.886 817.109 51.6592 816.508 51.6592C815.895 51.6592 815.321 51.886 814.787 52.3396C814.267 52.7932 813.893 53.3869 813.667 54.1207V60.3442H811.465V49.8782H813.466V51.9794C813.88 51.2457 814.42 50.6853 815.087 50.2985C815.768 49.8982 816.542 49.6981 817.409 49.6981C818.276 49.6981 818.956 49.9249 819.45 50.3785C819.957 50.8321 820.27 51.3991 820.39 52.0795C820.844 51.3057 821.398 50.7187 822.051 50.3185C822.718 49.9049 823.479 49.6981 824.333 49.6981C824.946 49.6981 825.46 49.8115 825.874 50.0383C826.287 50.2651 826.607 50.5786 826.834 50.9789C827.061 51.3657 827.221 51.8193 827.314 52.3396C827.421 52.8466 827.475 53.3869 827.475 53.9606V60.3442ZM829.251 57.2825C829.251 56.6154 829.438 56.0351 829.811 55.5415C830.198 55.0345 830.725 54.6476 831.392 54.3808C832.059 54.1006 832.833 53.9606 833.713 53.9606C834.18 53.9606 834.654 53.9939 835.134 54.0606C835.628 54.1273 836.061 54.2341 836.435 54.3808V53.7204C836.435 52.9867 836.215 52.413 835.774 51.9994C835.334 51.5859 834.701 51.3791 833.873 51.3791C833.286 51.3791 832.733 51.4858 832.212 51.6993C831.692 51.8994 831.138 52.1862 830.551 52.5598L829.811 51.0789C830.505 50.612 831.199 50.2651 831.892 50.0383C832.599 49.8115 833.34 49.6981 834.114 49.6981C835.514 49.6981 836.615 50.0717 837.415 50.8188C838.229 51.5525 838.636 52.5998 838.636 53.9606V57.8628C838.636 58.1163 838.676 58.2964 838.756 58.4031C838.85 58.5098 839.003 58.5699 839.216 58.5832V60.3442C839.016 60.3843 838.836 60.4109 838.676 60.4243C838.516 60.4376 838.383 60.4443 838.276 60.4443C837.809 60.4443 837.455 60.3309 837.215 60.1041C836.975 59.8773 836.835 59.6105 836.795 59.3036L836.735 58.7033C836.281 59.2903 835.701 59.7439 834.994 60.0641C834.287 60.3843 833.573 60.5444 832.853 60.5444C832.159 60.5444 831.539 60.4043 830.992 60.1241C830.445 59.8306 830.018 59.437 829.711 58.9434C829.404 58.4498 829.251 57.8962 829.251 57.2825ZM835.915 57.9228C836.075 57.7494 836.201 57.576 836.295 57.4025C836.388 57.2291 836.435 57.0757 836.435 56.9423V55.7416C836.061 55.5948 835.668 55.4881 835.254 55.4214C834.841 55.3414 834.434 55.3013 834.033 55.3013C833.233 55.3013 832.579 55.4614 832.072 55.7816C831.579 56.1018 831.332 56.5421 831.332 57.1024C831.332 57.4092 831.412 57.7027 831.572 57.9829C831.745 58.263 831.986 58.4898 832.292 58.6633C832.613 58.8367 833.006 58.9234 833.473 58.9234C833.953 58.9234 834.414 58.83 834.854 58.6433C835.294 58.4565 835.648 58.2163 835.915 57.9228ZM847.25 60.5444C846.41 60.5444 845.669 60.3442 845.029 59.944C844.388 59.5438 843.882 59.0235 843.508 58.3831V64.6067H841.307V49.8782H843.248V51.7593C843.648 51.1323 844.168 50.632 844.809 50.2584C845.449 49.8849 846.163 49.6981 846.95 49.6981C847.67 49.6981 848.331 49.8449 848.931 50.1384C849.531 50.4185 850.052 50.8121 850.492 51.319C850.932 51.826 851.272 52.4063 851.513 53.06C851.766 53.7004 851.893 54.3808 851.893 55.1012C851.893 56.1018 851.693 57.0157 851.292 57.8428C850.906 58.6699 850.359 59.3303 849.652 59.8239C848.958 60.3042 848.157 60.5444 847.25 60.5444ZM846.53 58.6633C846.997 58.6633 847.417 58.5632 847.79 58.3631C848.177 58.163 848.504 57.8962 848.771 57.5626C849.051 57.2291 849.265 56.8489 849.411 56.422C849.558 55.9951 849.632 55.5548 849.632 55.1012C849.632 54.6209 849.551 54.1674 849.391 53.7404C849.231 53.3135 848.998 52.94 848.691 52.6198C848.397 52.2996 848.051 52.0461 847.65 51.8594C847.263 51.6726 846.837 51.5792 846.37 51.5792C846.089 51.5792 845.796 51.6326 845.489 51.7393C845.182 51.846 844.895 51.9928 844.629 52.1795C844.362 52.3663 844.128 52.5864 843.928 52.8399C843.728 53.0934 843.588 53.3602 843.508 53.6404V56.382C843.695 56.8089 843.942 57.1958 844.248 57.5426C844.555 57.8762 844.909 58.1496 845.309 58.3631C845.709 58.5632 846.116 58.6633 846.53 58.6633ZM857.595 60.5444C856.714 60.5444 855.88 60.4043 855.093 60.1241C854.306 59.8306 853.632 59.397 853.072 58.8234L853.893 57.3425C854.493 57.8762 855.093 58.263 855.694 58.5032C856.307 58.7433 856.914 58.8634 857.515 58.8634C858.128 58.8634 858.629 58.75 859.016 58.5232C859.402 58.2831 859.596 57.9362 859.596 57.4826C859.596 57.1491 859.496 56.9023 859.296 56.7422C859.096 56.5821 858.802 56.442 858.415 56.3219C858.042 56.2019 857.588 56.0684 857.054 55.9217C856.307 55.6949 855.68 55.4614 855.173 55.2213C854.666 54.9678 854.286 54.661 854.033 54.3008C853.779 53.9406 853.652 53.4803 853.652 52.92C853.652 52.2396 853.826 51.6592 854.173 51.179C854.52 50.6987 855 50.3318 855.614 50.0783C856.241 49.8249 856.961 49.6981 857.775 49.6981C858.535 49.6981 859.236 49.8182 859.876 50.0583C860.53 50.2851 861.103 50.6453 861.597 51.1389L860.656 52.5998C860.19 52.1729 859.709 51.8594 859.216 51.6592C858.735 51.4591 858.215 51.3591 857.655 51.3591C857.335 51.3591 857.028 51.3991 856.734 51.4791C856.441 51.5458 856.194 51.6793 855.994 51.8794C855.807 52.0661 855.714 52.333 855.714 52.6798C855.714 52.96 855.794 53.1868 855.954 53.3602C856.114 53.5337 856.354 53.6804 856.674 53.8005C856.994 53.9205 857.388 54.054 857.855 54.2007C858.669 54.4408 859.362 54.681 859.936 54.9211C860.51 55.1479 860.95 55.4481 861.257 55.8216C861.577 56.1818 861.737 56.6821 861.737 57.3225C861.737 58.3364 861.357 59.1302 860.596 59.7039C859.849 60.2642 858.849 60.5444 857.595 60.5444Z" fill="#C50000"/>
<path d="M246.097 146.048C230.975 151.449 216.284 162.25 278.502 162.25C356.273 162.25 427.563 166.301 353.032 182.503C278.502 198.706 46.8268 204.917 128.63 242.452" stroke="#FC9E9E" stroke-width="2.46879"/>
<g filter="url(#filter0_d_0_1)">
<rect x="4.87842" y="0.926758" width="301.467" height="64.7388" rx="32.3694" fill="white"/>
<rect x="5.37842" y="1.42676" width="300.467" height="63.7388" rx="31.8694" stroke="#91CFC0"/>
</g>
<g filter="url(#filter1_d_0_1)">
<rect x="180.702" y="259.314" width="301.467" height="64.7388" rx="32.3694" fill="white"/>
<rect x="181.202" y="259.814" width="300.467" height="63.7388" rx="31.8694" stroke="#FC9E9E"/>
</g>
<path d="M116.995 41.0077V42.1257H119.166V41.0077H116.995ZM116.995 44.6477V45.7657H119.166V44.6477H116.995ZM121.116 38.2517V50.1337H122.416V38.2517H121.116ZM118.763 38.4727V49.5617H120.037V38.4727H118.763ZM114.941 39.1747C113.394 39.1747 112.393 40.7867 112.393 43.3867C112.393 45.9997 113.394 47.6117 114.941 47.6117C116.501 47.6117 117.502 45.9997 117.502 43.3867C117.502 40.7867 116.501 39.1747 114.941 39.1747ZM114.941 40.4487C115.76 40.4487 116.267 41.5147 116.267 43.3867C116.267 45.2587 115.76 46.3247 114.941 46.3247C114.122 46.3247 113.628 45.2587 113.628 43.3867C113.628 41.5147 114.122 40.4487 114.941 40.4487ZM126.991 38.8757V40.0197C126.991 41.7487 125.99 43.3477 124.118 44.0107L124.833 45.0897C126.939 44.3097 128.109 42.3467 128.109 40.0197V38.8757H126.991ZM127.251 38.8757V40.1367C127.251 42.2427 128.421 44.0367 130.436 44.7517L131.151 43.6857C129.37 43.1007 128.356 41.6707 128.356 40.1367V38.8757H127.251ZM132.139 38.2517V45.3757H133.504V38.2517H132.139ZM133.127 41.1767V42.3077H135.181V41.1767H133.127ZM129.682 45.6747C127.225 45.6747 125.717 46.4937 125.717 47.8977C125.717 49.3017 127.225 50.1207 129.682 50.1207C132.126 50.1207 133.634 49.3017 133.634 47.8977C133.634 46.4937 132.126 45.6747 129.682 45.6747ZM129.682 46.7407C131.333 46.7407 132.282 47.1437 132.282 47.8977C132.282 48.6517 131.333 49.0547 129.682 49.0547C128.031 49.0547 127.069 48.6517 127.069 47.8977C127.069 47.1437 128.031 46.7407 129.682 46.7407ZM136.181 44.1667V45.2587H146.945V44.1667H136.181ZM140.965 44.8687V47.5077H142.343V44.8687H140.965ZM137.507 48.7817V49.8997H145.762V48.7817H137.507ZM137.507 46.3897V49.0807H138.872V46.3897H137.507ZM141.55 38.5117C139.015 38.5117 137.338 39.4477 137.338 40.9427C137.338 42.4247 139.015 43.3607 141.55 43.3607C144.085 43.3607 145.762 42.4247 145.762 40.9427C145.762 39.4477 144.085 38.5117 141.55 38.5117ZM141.55 39.6037C143.227 39.6037 144.306 40.0977 144.306 40.9427C144.306 41.7747 143.227 42.2557 141.55 42.2557C139.886 42.2557 138.794 41.7747 138.794 40.9427C138.794 40.0977 139.886 39.6037 141.55 39.6037ZM156.577 38.2647V45.0117H157.942V38.2647H156.577ZM150.168 45.6097V49.9907H157.942V45.6097H150.168ZM156.603 46.6887V48.8987H151.507V46.6887H156.603ZM151.533 38.8497C149.713 38.8497 148.374 39.9937 148.374 41.6577C148.374 43.2957 149.713 44.4657 151.533 44.4657C153.353 44.4657 154.679 43.2957 154.679 41.6577C154.679 39.9937 153.353 38.8497 151.533 38.8497ZM151.533 39.9807C152.586 39.9807 153.353 40.6437 153.353 41.6577C153.353 42.6717 152.586 43.3217 151.533 43.3217C150.48 43.3217 149.7 42.6717 149.7 41.6577C149.7 40.6437 150.48 39.9807 151.533 39.9807ZM164.371 44.1277C164.93 44.1277 165.372 43.6857 165.372 43.0747C165.372 42.4637 164.93 42.0217 164.371 42.0217C163.799 42.0217 163.37 42.4637 163.37 43.0747C163.37 43.6857 163.799 44.1277 164.371 44.1277ZM164.371 49.2367C164.93 49.2367 165.372 48.7947 165.372 48.1837C165.372 47.5597 164.93 47.1307 164.371 47.1307C163.799 47.1307 163.37 47.5597 163.37 48.1837C163.37 48.7947 163.799 49.2367 164.371 49.2367ZM169.785 49.0547H175.973V47.7807H173.581C173.113 47.7807 172.502 47.8327 172.008 47.8847C174.036 45.9347 175.518 44.0237 175.518 42.1907C175.518 40.4487 174.387 39.3177 172.632 39.3177C171.384 39.3177 170.539 39.8507 169.707 40.7477L170.565 41.5667C171.072 40.9817 171.696 40.5137 172.45 40.5137C173.516 40.5137 174.062 41.2287 174.062 42.2557C174.062 43.8287 172.619 45.6877 169.785 48.1837V49.0547ZM179.136 49.0547H180.67C180.839 45.3237 181.19 43.2047 183.426 40.3967V39.4867H177.277V40.7607H181.775C179.916 43.3347 179.305 45.5707 179.136 49.0547ZM185.068 51.6677C186.42 51.1607 187.213 50.1077 187.213 48.7297C187.213 47.7287 186.784 47.1307 186.056 47.1307C185.484 47.1307 185.003 47.4947 185.003 48.0927C185.003 48.7037 185.484 49.0547 186.017 49.0547C186.264 49.0547 186.498 48.9767 186.68 48.7817L186.056 47.8067L186.16 49.0027C186.16 49.7827 185.64 50.4457 184.743 50.8227L185.068 51.6677ZM191.631 49.2367C193.503 49.2367 194.725 47.5597 194.725 44.2317C194.725 40.9297 193.503 39.3177 191.631 39.3177C189.746 39.3177 188.537 40.9297 188.537 44.2317C188.537 47.5597 189.746 49.2367 191.631 49.2367ZM191.631 48.0407C190.656 48.0407 189.967 47.0007 189.967 44.2317C189.967 41.5017 190.656 40.4877 191.631 40.4877C192.606 40.4877 193.282 41.5017 193.282 44.2317C193.282 47.0007 192.606 48.0407 191.631 48.0407ZM199.045 49.2367C200.917 49.2367 202.139 47.5597 202.139 44.2317C202.139 40.9297 200.917 39.3177 199.045 39.3177C197.16 39.3177 195.951 40.9297 195.951 44.2317C195.951 47.5597 197.16 49.2367 199.045 49.2367ZM199.045 48.0407C198.07 48.0407 197.381 47.0007 197.381 44.2317C197.381 41.5017 198.07 40.4877 199.045 40.4877C200.02 40.4877 200.696 41.5017 200.696 44.2317C200.696 47.0007 200.02 48.0407 199.045 48.0407ZM206.459 49.2367C208.331 49.2367 209.553 47.5597 209.553 44.2317C209.553 40.9297 208.331 39.3177 206.459 39.3177C204.574 39.3177 203.365 40.9297 203.365 44.2317C203.365 47.5597 204.574 49.2367 206.459 49.2367ZM206.459 48.0407C205.484 48.0407 204.795 47.0007 204.795 44.2317C204.795 41.5017 205.484 40.4877 206.459 40.4877C207.434 40.4877 208.11 41.5017 208.11 44.2317C208.11 47.0007 207.434 48.0407 206.459 48.0407ZM214.003 44.2837V46.9097H215.368V44.2837H214.003ZM219.242 38.2517V47.2737H220.607V38.2517H219.242ZM212.3 48.7947V49.8997H220.88V48.7947H212.3ZM212.3 46.4027V49.0937H213.665V46.4027H212.3ZM210.883 44.7387C213.028 44.7387 215.862 44.6867 218.41 44.2707L218.319 43.2827C215.81 43.6077 212.885 43.6337 210.701 43.6337L210.883 44.7387ZM216.902 45.2197V46.1817H219.567V45.2197H216.902ZM214.549 38.7067C212.807 38.7067 211.611 39.5387 211.611 40.7997C211.611 42.0607 212.807 42.8797 214.549 42.8797C216.278 42.8797 217.487 42.0607 217.487 40.7997C217.487 39.5387 216.278 38.7067 214.549 38.7067ZM214.549 39.7077C215.511 39.7077 216.187 40.1107 216.187 40.7997C216.187 41.4757 215.511 41.8787 214.549 41.8787C213.574 41.8787 212.898 41.4757 212.898 40.7997C212.898 40.1107 213.574 39.7077 214.549 39.7077Z" fill="#828282"/>
<path d="M295.475 301.637V302.755H297.646V301.637H295.475ZM295.475 305.277V306.395H297.646V305.277H295.475ZM299.596 298.881V310.763H300.896V298.881H299.596ZM297.243 299.102V310.191H298.517V299.102H297.243ZM293.421 299.804C291.874 299.804 290.873 301.416 290.873 304.016C290.873 306.629 291.874 308.241 293.421 308.241C294.981 308.241 295.982 306.629 295.982 304.016C295.982 301.416 294.981 299.804 293.421 299.804ZM293.421 301.078C294.24 301.078 294.747 302.144 294.747 304.016C294.747 305.888 294.24 306.954 293.421 306.954C292.602 306.954 292.108 305.888 292.108 304.016C292.108 302.144 292.602 301.078 293.421 301.078ZM305.471 299.505V300.649C305.471 302.378 304.47 303.977 302.598 304.64L303.313 305.719C305.419 304.939 306.589 302.976 306.589 300.649V299.505H305.471ZM305.731 299.505V300.766C305.731 302.872 306.901 304.666 308.916 305.381L309.631 304.315C307.85 303.73 306.836 302.3 306.836 300.766V299.505H305.731ZM310.619 298.881V306.005H311.984V298.881H310.619ZM311.607 301.806V302.937H313.661V301.806H311.607ZM308.162 306.304C305.705 306.304 304.197 307.123 304.197 308.527C304.197 309.931 305.705 310.75 308.162 310.75C310.606 310.75 312.114 309.931 312.114 308.527C312.114 307.123 310.606 306.304 308.162 306.304ZM308.162 307.37C309.813 307.37 310.762 307.773 310.762 308.527C310.762 309.281 309.813 309.684 308.162 309.684C306.511 309.684 305.549 309.281 305.549 308.527C305.549 307.773 306.511 307.37 308.162 307.37ZM314.661 304.796V305.888H325.425V304.796H314.661ZM319.445 305.498V308.137H320.823V305.498H319.445ZM315.987 309.411V310.529H324.242V309.411H315.987ZM315.987 307.019V309.71H317.352V307.019H315.987ZM320.03 299.141C317.495 299.141 315.818 300.077 315.818 301.572C315.818 303.054 317.495 303.99 320.03 303.99C322.565 303.99 324.242 303.054 324.242 301.572C324.242 300.077 322.565 299.141 320.03 299.141ZM320.03 300.233C321.707 300.233 322.786 300.727 322.786 301.572C322.786 302.404 321.707 302.885 320.03 302.885C318.366 302.885 317.274 302.404 317.274 301.572C317.274 300.727 318.366 300.233 320.03 300.233ZM335.057 298.894V305.641H336.422V298.894H335.057ZM328.648 306.239V310.62H336.422V306.239H328.648ZM335.083 307.318V309.528H329.987V307.318H335.083ZM330.013 299.479C328.193 299.479 326.854 300.623 326.854 302.287C326.854 303.925 328.193 305.095 330.013 305.095C331.833 305.095 333.159 303.925 333.159 302.287C333.159 300.623 331.833 299.479 330.013 299.479ZM330.013 300.61C331.066 300.61 331.833 301.273 331.833 302.287C331.833 303.301 331.066 303.951 330.013 303.951C328.96 303.951 328.18 303.301 328.18 302.287C328.18 301.273 328.96 300.61 330.013 300.61ZM342.851 304.757C343.41 304.757 343.852 304.315 343.852 303.704C343.852 303.093 343.41 302.651 342.851 302.651C342.279 302.651 341.85 303.093 341.85 303.704C341.85 304.315 342.279 304.757 342.851 304.757ZM342.851 309.866C343.41 309.866 343.852 309.424 343.852 308.813C343.852 308.189 343.41 307.76 342.851 307.76C342.279 307.76 341.85 308.189 341.85 308.813C341.85 309.424 342.279 309.866 342.851 309.866ZM348.265 309.684H354.453V308.41H352.061C351.593 308.41 350.982 308.462 350.488 308.514C352.516 306.564 353.998 304.653 353.998 302.82C353.998 301.078 352.867 299.947 351.112 299.947C349.864 299.947 349.019 300.48 348.187 301.377L349.045 302.196C349.552 301.611 350.176 301.143 350.93 301.143C351.996 301.143 352.542 301.858 352.542 302.885C352.542 304.458 351.099 306.317 348.265 308.813V309.684ZM358.591 309.866C360.359 309.866 361.802 308.852 361.802 307.123C361.802 305.823 360.931 305.004 359.826 304.718V304.653C360.84 304.276 361.477 303.509 361.477 302.404C361.477 300.831 360.268 299.947 358.552 299.947C357.447 299.947 356.563 300.415 355.796 301.091L356.589 302.04C357.135 301.494 357.759 301.143 358.487 301.143C359.41 301.143 359.956 301.676 359.956 302.521C359.956 303.483 359.332 304.185 357.46 304.185V305.303C359.605 305.303 360.281 305.979 360.281 307.045C360.281 308.033 359.54 308.631 358.474 308.631C357.473 308.631 356.771 308.15 356.212 307.578L355.471 308.54C356.121 309.268 357.096 309.866 358.591 309.866ZM363.548 312.297C364.9 311.79 365.693 310.737 365.693 309.359C365.693 308.358 365.264 307.76 364.536 307.76C363.964 307.76 363.483 308.124 363.483 308.722C363.483 309.333 363.964 309.684 364.497 309.684C364.744 309.684 364.978 309.606 365.16 309.411L364.536 308.436L364.64 309.632C364.64 310.412 364.12 311.075 363.223 311.452L363.548 312.297ZM369.89 309.866C371.554 309.866 373.114 308.657 373.114 306.551C373.114 304.445 371.801 303.509 370.202 303.509C369.682 303.509 369.292 303.626 368.889 303.834L369.11 301.39H372.659V300.116H367.797L367.511 304.666L368.252 305.134C368.811 304.77 369.175 304.601 369.773 304.601C370.865 304.601 371.593 305.329 371.593 306.59C371.593 307.864 370.787 308.631 369.708 308.631C368.707 308.631 368.005 308.15 367.472 307.604L366.744 308.579C367.433 309.255 368.382 309.866 369.89 309.866ZM377.525 309.866C379.397 309.866 380.619 308.189 380.619 304.861C380.619 301.559 379.397 299.947 377.525 299.947C375.64 299.947 374.431 301.559 374.431 304.861C374.431 308.189 375.64 309.866 377.525 309.866ZM377.525 308.67C376.55 308.67 375.861 307.63 375.861 304.861C375.861 302.131 376.55 301.117 377.525 301.117C378.5 301.117 379.176 302.131 379.176 304.861C379.176 307.63 378.5 308.67 377.525 308.67ZM384.939 309.866C386.811 309.866 388.033 308.189 388.033 304.861C388.033 301.559 386.811 299.947 384.939 299.947C383.054 299.947 381.845 301.559 381.845 304.861C381.845 308.189 383.054 309.866 384.939 309.866ZM384.939 308.67C383.964 308.67 383.275 307.63 383.275 304.861C383.275 302.131 383.964 301.117 384.939 301.117C385.914 301.117 386.59 302.131 386.59 304.861C386.59 307.63 385.914 308.67 384.939 308.67ZM392.483 304.913V307.539H393.848V304.913H392.483ZM397.722 298.881V307.903H399.087V298.881H397.722ZM390.78 309.424V310.529H399.36V309.424H390.78ZM390.78 307.032V309.723H392.145V307.032H390.78ZM389.363 305.368C391.508 305.368 394.342 305.316 396.89 304.9L396.799 303.912C394.29 304.237 391.365 304.263 389.181 304.263L389.363 305.368ZM395.382 305.849V306.811H398.047V305.849H395.382ZM393.029 299.336C391.287 299.336 390.091 300.168 390.091 301.429C390.091 302.69 391.287 303.509 393.029 303.509C394.758 303.509 395.967 302.69 395.967 301.429C395.967 300.168 394.758 299.336 393.029 299.336ZM393.029 300.337C393.991 300.337 394.667 300.74 394.667 301.429C394.667 302.105 393.991 302.508 393.029 302.508C392.054 302.508 391.378 302.105 391.378 301.429C391.378 300.74 392.054 300.337 393.029 300.337Z" fill="#828282"/>
<path d="M24.8874 27.623H27.0812V22.0543H29.4062C32.2562 22.0543 34.3937 20.723 34.3937 17.8355C34.3937 14.8355 32.2562 13.823 29.4062 13.823H24.8874V27.623ZM27.0812 20.3105V15.5855H29.1624C31.1499 15.5855 32.2374 16.1668 32.2374 17.8355C32.2374 19.4855 31.1499 20.3105 29.1624 20.3105H27.0812ZM32.4437 27.623H34.8812L30.6062 20.2168L28.9937 21.4918L32.4437 27.623ZM42.4608 27.8855C46.0046 27.8855 48.4608 25.1293 48.4608 20.6668C48.4608 16.223 46.0046 13.5793 42.4608 13.5793C38.8983 13.5793 36.4421 16.223 36.4421 20.6668C36.4421 25.1293 38.8983 27.8855 42.4608 27.8855ZM42.4608 25.973C40.1546 25.973 38.6921 23.8918 38.6921 20.6668C38.6921 17.4418 40.1546 15.473 42.4608 15.473C44.7483 15.473 46.2296 17.4418 46.2296 20.6668C46.2296 23.8918 44.7483 25.973 42.4608 25.973ZM56.4091 27.8855C59.4653 27.8855 61.5278 26.198 61.5278 21.7168V13.823H59.4278V21.848C59.4278 24.9605 58.1341 25.973 56.4091 25.973C54.6841 25.973 53.4466 24.9605 53.4466 21.848V13.823H51.2716V21.7168C51.2716 26.198 53.3341 27.8855 56.4091 27.8855ZM67.8916 27.623H70.0853V15.6605H74.1353V13.823H63.8416V15.6605H67.8916V27.623ZM76.5415 27.623H84.9227V25.7855H78.7352V21.3418H83.779V19.4855H78.7352V15.6605H84.7165V13.823H76.5415V27.623Z" fill="#636363"/>
<path d="M200.711 286.011H202.904V280.442H205.229C208.079 280.442 210.217 279.111 210.217 276.223C210.217 273.223 208.079 272.211 205.229 272.211H200.711V286.011ZM202.904 278.698V273.973H204.986C206.973 273.973 208.061 274.554 208.061 276.223C208.061 277.873 206.973 278.698 204.986 278.698H202.904ZM208.267 286.011H210.704L206.429 278.604L204.817 279.879L208.267 286.011ZM218.284 286.273C221.828 286.273 224.284 283.517 224.284 279.054C224.284 274.611 221.828 271.967 218.284 271.967C214.722 271.967 212.265 274.611 212.265 279.054C212.265 283.517 214.722 286.273 218.284 286.273ZM218.284 284.361C215.978 284.361 214.515 282.279 214.515 279.054C214.515 275.829 215.978 273.861 218.284 273.861C220.572 273.861 222.053 275.829 222.053 279.054C222.053 282.279 220.572 284.361 218.284 284.361ZM232.232 286.273C235.289 286.273 237.351 284.586 237.351 280.104V272.211H235.251V280.236C235.251 283.348 233.957 284.361 232.232 284.361C230.507 284.361 229.27 283.348 229.27 280.236V272.211H227.095V280.104C227.095 284.586 229.157 286.273 232.232 286.273ZM243.715 286.011H245.909V274.048H249.959V272.211H239.665V274.048H243.715V286.011ZM252.365 286.011H260.746V284.173H254.558V279.729H259.602V277.873H254.558V274.048H260.54V272.211H252.365V286.011Z" fill="#636363"/>
<path d="M48.1968 55.2964H51.6093L53.3531 48.3214C53.7093 46.9339 54.0843 45.3026 54.4218 43.8401H54.4968C54.8718 45.2651 55.2281 46.9339 55.6031 48.3214L57.3468 55.2964H60.8718L56.5406 41.3276H52.5281L48.1968 55.2964ZM51.1406 52.0901H57.8906V49.5026H51.1406V52.0901Z" fill="#636363"/>
<path d="M225.453 313.684H230.722C233.759 313.684 236.178 312.409 236.178 309.559C236.178 307.703 235.109 306.653 233.703 306.278V306.203C234.828 305.772 235.522 304.422 235.522 303.184C235.522 300.503 233.215 299.715 230.328 299.715H225.453V313.684ZM228.809 305.265V302.284H230.197C231.603 302.284 232.259 302.697 232.259 303.69C232.259 304.647 231.622 305.265 230.197 305.265H228.809ZM228.809 311.115V307.722H230.478C232.109 307.722 232.915 308.19 232.915 309.334C232.915 310.534 232.09 311.115 230.478 311.115H228.809Z" fill="#636363"/>
<path d="M115.485 20.4469V22.3969C115.485 24.6719 114.263 26.9599 112.365 27.8179L113.184 28.9489C115.316 27.9089 116.603 25.2699 116.603 22.3969V20.4469H115.485ZM115.745 20.4469V22.3969C115.745 25.1659 117.032 27.7009 119.125 28.6889L119.931 27.5969C118.059 26.7649 116.85 24.5809 116.85 22.3969V20.4469H115.745ZM120.88 19.4589V31.3669H122.245V19.4589H120.88ZM132.319 19.4719V28.0779H133.697V19.4719H132.319ZM133.294 22.9429V24.0739H135.374V22.9429H133.294ZM129.056 20.3819V21.0189C129.056 23.1249 127.34 24.8539 124.389 25.7249L124.961 26.8169C128.432 25.7639 130.499 23.5149 130.499 20.3819H129.056ZM124.883 20.3819V21.4869H129.771V20.3819H124.883ZM126.17 30.0149V31.1199H134.165V30.0149H126.17ZM126.17 27.2069V30.4829H127.535V27.2069H126.17ZM142.757 22.2539V23.3589H145.227V22.2539H142.757ZM144.863 19.4719V25.9459H146.215V19.4719H144.863ZM138.493 26.4789V31.2109H146.215V26.4789H144.876V27.7659H139.845V26.4789H138.493ZM139.845 28.8319H144.876V30.1059H139.845V28.8319ZM139.286 20.3949V21.2789C139.286 22.8779 138.22 24.4379 136.374 25.0749L137.063 26.1539C139.182 25.4129 140.391 23.4629 140.391 21.2789V20.3949H139.286ZM139.559 20.3949V21.2659C139.559 23.3199 140.716 25.1789 142.77 25.8939L143.446 24.8279C141.665 24.2169 140.651 22.7349 140.651 21.2659V20.3949H139.559ZM136.764 20.1089V21.2009H143.134V20.1089H136.764ZM149.685 20.1479V21.2529H157.238V20.1479H149.685ZM148.346 24.8409V25.9459H159.11V24.8409H148.346ZM156.432 20.1479V21.1229C156.432 22.2149 156.432 23.4369 156.055 25.1529L157.394 25.2829C157.771 23.5149 157.771 22.2279 157.771 21.1229V20.1479H156.432ZM149.724 30.0019V31.1069H158.122V30.0019H149.724ZM149.724 27.1289V30.1319H151.076V27.1289H149.724ZM163.191 20.1219V21.2659C163.191 23.0079 162.151 24.6069 160.24 25.2439L160.955 26.3489C163.126 25.5819 164.322 23.6059 164.322 21.2659V20.1219H163.191ZM163.451 20.1219V21.2139C163.451 23.4369 164.582 25.2569 166.623 25.9979L167.351 24.9319C165.544 24.3339 164.556 22.8519 164.556 21.2139V20.1219H163.451ZM168.781 19.4719V26.4659H170.146V19.4719H168.781ZM166.181 26.8039C163.698 26.8039 162.177 27.6359 162.177 29.0659C162.177 30.5089 163.698 31.3409 166.181 31.3409C168.664 31.3409 170.185 30.5089 170.185 29.0659C170.185 27.6359 168.664 26.8039 166.181 26.8039ZM166.181 27.8699C167.871 27.8699 168.833 28.2989 168.833 29.0659C168.833 29.8459 167.871 30.2749 166.181 30.2749C164.504 30.2749 163.529 29.8459 163.529 29.0659C163.529 28.2989 164.504 27.8699 166.181 27.8699ZM166.376 21.8249V22.9429H169.015V21.8249H166.376ZM217.559 22.3319V23.4499H220.029V22.3319H217.559ZM219.665 19.4719V26.3879H221.03V19.4719H219.665ZM213.23 26.9209V31.2109H221.03V26.9209H213.23ZM219.691 27.9999V30.1189H214.569V27.9999H219.691ZM214.088 20.5899V21.4609C214.088 23.0599 213.022 24.6199 211.176 25.2569L211.865 26.3359C213.984 25.5949 215.193 23.6579 215.193 21.4609V20.5899H214.088ZM214.361 20.5899V21.4479C214.361 23.5019 215.518 25.3739 217.572 26.0889L218.248 25.0099C216.467 24.3859 215.453 22.9169 215.453 21.4479V20.5899H214.361ZM211.566 20.1609V21.2529H217.936V20.1609H211.566ZM228.551 32.8619L229.474 32.4589C228.369 30.5869 227.849 28.3899 227.849 26.2189C227.849 24.0479 228.369 21.8509 229.474 19.9789L228.551 19.5629C227.329 21.5389 226.614 23.6449 226.614 26.2189C226.614 28.7929 227.329 30.8989 228.551 32.8619ZM231.209 30.2749H236.682V29.0399H234.81V20.7069H233.679C233.12 21.0449 232.496 21.2789 231.586 21.4349V22.3839H233.315V29.0399H231.209V30.2749ZM241.509 30.4569C243.056 30.4569 244.369 29.2089 244.369 27.3109C244.369 25.2829 243.277 24.3079 241.665 24.3079C240.95 24.3079 240.066 24.7499 239.507 25.5039L239.572 26.5959C240.144 25.7249 240.833 25.3869 241.405 25.3869C242.419 25.3869 242.978 26.0759 242.978 27.3109C242.978 28.5459 242.328 29.2999 241.496 29.2999C240.326 29.2999 239.598 28.1429 239.598 25.6729C239.598 22.7479 240.625 21.7599 241.899 21.7599C242.458 21.7599 243.043 22.0589 243.394 22.4749L244.213 21.5649C243.667 20.9799 242.887 20.5379 241.821 20.5379C239.923 20.5379 238.207 22.0069 238.207 25.6729C238.207 28.9229 239.689 30.4569 241.509 30.4569ZM245.517 25.6599V26.7519H256.281V25.6599H245.517ZM250.327 26.2319V28.8579H251.679V26.2319H250.327ZM246.83 30.0149V31.1199H255.085V30.0149H246.83ZM246.83 27.8699V30.4569H248.182V27.8699H246.83ZM246.921 19.8489V24.6589H254.877V19.8489H253.525V21.2269H248.26V19.8489H246.921ZM248.26 22.2669H253.525V23.5799H248.26V22.2669ZM258.425 32.8619C259.634 30.8989 260.349 28.7929 260.349 26.2189C260.349 23.6449 259.634 21.5389 258.425 19.5629L257.489 19.9789C258.594 21.8509 259.127 24.0479 259.127 26.2189C259.127 28.3899 258.594 30.5869 257.489 32.4589L258.425 32.8619Z" fill="#828282"/>
<path d="M183.095 30.5969C186.361 30.5969 189.397 27.9059 189.397 21.2359C189.397 15.6469 186.775 13.0479 183.532 13.0479C180.772 13.0479 178.472 15.2329 178.472 18.6139C178.472 22.1559 180.381 23.9269 183.21 23.9269C184.567 23.9269 186.085 23.0989 187.074 21.7879L186.936 19.8559C185.947 21.3969 184.751 21.9949 183.693 21.9949C181.922 21.9949 180.933 20.7529 180.933 18.6139C180.933 16.3829 182.083 15.0719 183.555 15.0719C185.625 15.0719 186.936 17.0039 186.936 21.2359C186.936 26.6179 185.119 28.4119 182.98 28.4119C181.922 28.4119 180.887 27.9059 180.197 27.1469L178.771 28.7799C179.737 29.7919 181.14 30.5969 183.095 30.5969ZM194.05 30.5969C195.039 30.5969 195.821 29.8149 195.821 28.7339C195.821 27.6299 195.039 26.8709 194.05 26.8709C193.038 26.8709 192.279 27.6299 192.279 28.7339C192.279 29.8149 193.038 30.5969 194.05 30.5969ZM198.463 30.2749H209.411V28.0209H205.179C204.351 28.0209 203.27 28.1129 202.396 28.2049C205.984 24.7549 208.606 21.3739 208.606 18.1309C208.606 15.0489 206.605 13.0479 203.5 13.0479C201.292 13.0479 199.797 13.9909 198.325 15.5779L199.843 17.0269C200.74 15.9919 201.844 15.1639 203.178 15.1639C205.064 15.1639 206.03 16.4289 206.03 18.2459C206.03 21.0289 203.477 24.3179 198.463 28.7339V30.2749Z" fill="#5E5E5E"/>
<path d="M293.304 277.531V279.481C293.304 281.756 292.082 284.044 290.184 284.902L291.003 286.033C293.135 284.993 294.422 282.354 294.422 279.481V277.531H293.304ZM293.564 277.531V279.481C293.564 282.25 294.851 284.785 296.944 285.773L297.75 284.681C295.878 283.849 294.669 281.665 294.669 279.481V277.531H293.564ZM298.699 276.543V288.451H300.064V276.543H298.699ZM310.138 276.556V285.162H311.516V276.556H310.138ZM311.113 280.027V281.158H313.193V280.027H311.113ZM306.875 277.466V278.103C306.875 280.209 305.159 281.938 302.208 282.809L302.78 283.901C306.251 282.848 308.318 280.599 308.318 277.466H306.875ZM302.702 277.466V278.571H307.59V277.466H302.702ZM303.989 287.099V288.204H311.984V287.099H303.989ZM303.989 284.291V287.567H305.354V284.291H303.989ZM320.576 279.338V280.443H323.046V279.338H320.576ZM322.682 276.556V283.03H324.034V276.556H322.682ZM316.312 283.563V288.295H324.034V283.563H322.695V284.85H317.664V283.563H316.312ZM317.664 285.916H322.695V287.19H317.664V285.916ZM317.105 277.479V278.363C317.105 279.962 316.039 281.522 314.193 282.159L314.882 283.238C317.001 282.497 318.21 280.547 318.21 278.363V277.479H317.105ZM317.378 277.479V278.35C317.378 280.404 318.535 282.263 320.589 282.978L321.265 281.912C319.484 281.301 318.47 279.819 318.47 278.35V277.479H317.378ZM314.583 277.193V278.285H320.953V277.193H314.583ZM327.504 277.232V278.337H335.057V277.232H327.504ZM326.165 281.925V283.03H336.929V281.925H326.165ZM334.251 277.232V278.207C334.251 279.299 334.251 280.521 333.874 282.237L335.213 282.367C335.59 280.599 335.59 279.312 335.59 278.207V277.232H334.251ZM327.543 287.086V288.191H335.941V287.086H327.543ZM327.543 284.213V287.216H328.895V284.213H327.543ZM341.01 277.206V278.35C341.01 280.092 339.97 281.691 338.059 282.328L338.774 283.433C340.945 282.666 342.141 280.69 342.141 278.35V277.206H341.01ZM341.27 277.206V278.298C341.27 280.521 342.401 282.341 344.442 283.082L345.17 282.016C343.363 281.418 342.375 279.936 342.375 278.298V277.206H341.27ZM346.6 276.556V283.55H347.965V276.556H346.6ZM344 283.888C341.517 283.888 339.996 284.72 339.996 286.15C339.996 287.593 341.517 288.425 344 288.425C346.483 288.425 348.004 287.593 348.004 286.15C348.004 284.72 346.483 283.888 344 283.888ZM344 284.954C345.69 284.954 346.652 285.383 346.652 286.15C346.652 286.93 345.69 287.359 344 287.359C342.323 287.359 341.348 286.93 341.348 286.15C341.348 285.383 342.323 284.954 344 284.954ZM344.195 278.909V280.027H346.834V278.909H344.195ZM398.297 279.416V280.534H400.767V279.416H398.297ZM400.403 276.556V283.472H401.768V276.556H400.403ZM393.968 284.005V288.295H401.768V284.005H393.968ZM400.429 285.084V287.203H395.307V285.084H400.429ZM394.826 277.674V278.545C394.826 280.144 393.76 281.704 391.914 282.341L392.603 283.42C394.722 282.679 395.931 280.742 395.931 278.545V277.674H394.826ZM395.099 277.674V278.532C395.099 280.586 396.256 282.458 398.31 283.173L398.986 282.094C397.205 281.47 396.191 280.001 396.191 278.532V277.674H395.099ZM392.304 277.245V278.337H398.674V277.245H392.304ZM409.289 289.946L410.212 289.543C409.107 287.671 408.587 285.474 408.587 283.303C408.587 281.132 409.107 278.935 410.212 277.063L409.289 276.647C408.067 278.623 407.352 280.729 407.352 283.303C407.352 285.877 408.067 287.983 409.289 289.946ZM411.401 287.359H417.589V286.085H415.197C414.729 286.085 414.118 286.137 413.624 286.189C415.652 284.239 417.134 282.328 417.134 280.495C417.134 278.753 416.003 277.622 414.248 277.622C413 277.622 412.155 278.155 411.323 279.052L412.181 279.871C412.688 279.286 413.312 278.818 414.066 278.818C415.132 278.818 415.678 279.533 415.678 280.56C415.678 282.133 414.235 283.992 411.401 286.488V287.359ZM421.727 287.541C423.495 287.541 424.938 286.527 424.938 284.798C424.938 283.498 424.067 282.679 422.962 282.393V282.328C423.976 281.951 424.613 281.184 424.613 280.079C424.613 278.506 423.404 277.622 421.688 277.622C420.583 277.622 419.699 278.09 418.932 278.766L419.725 279.715C420.271 279.169 420.895 278.818 421.623 278.818C422.546 278.818 423.092 279.351 423.092 280.196C423.092 281.158 422.468 281.86 420.596 281.86V282.978C422.741 282.978 423.417 283.654 423.417 284.72C423.417 285.708 422.676 286.306 421.61 286.306C420.609 286.306 419.907 285.825 419.348 285.253L418.607 286.215C419.257 286.943 420.232 287.541 421.727 287.541ZM426.255 282.744V283.836H437.019V282.744H426.255ZM431.065 283.316V285.942H432.417V283.316H431.065ZM427.568 287.099V288.204H435.823V287.099H427.568ZM427.568 284.954V287.541H428.92V284.954H427.568ZM427.659 276.933V281.743H435.615V276.933H434.263V278.311H428.998V276.933H427.659ZM428.998 279.351H434.263V280.664H428.998V279.351ZM439.163 289.946C440.372 287.983 441.087 285.877 441.087 283.303C441.087 280.729 440.372 278.623 439.163 276.647L438.227 277.063C439.332 278.935 439.865 281.132 439.865 283.303C439.865 285.474 439.332 287.671 438.227 289.543L439.163 289.946Z" fill="#828282"/>
<path d="M364.822 287.681C368.088 287.681 370.296 285.749 370.296 283.242C370.296 280.919 368.962 279.608 367.444 278.757V278.642C368.479 277.837 369.652 276.388 369.652 274.64C369.652 271.995 367.835 270.178 364.891 270.178C362.108 270.178 360.038 271.903 360.038 274.548C360.038 276.319 361.05 277.607 362.315 278.504V278.596C360.751 279.424 359.302 280.942 359.302 283.173C359.302 285.795 361.625 287.681 364.822 287.681ZM365.926 277.975C364.04 277.216 362.43 276.365 362.43 274.548C362.43 273.03 363.465 272.087 364.845 272.087C366.478 272.087 367.444 273.26 367.444 274.801C367.444 275.951 366.938 277.032 365.926 277.975ZM364.868 285.749C363.028 285.749 361.625 284.576 361.625 282.897C361.625 281.425 362.453 280.183 363.626 279.355C365.926 280.321 367.789 281.103 367.789 283.15C367.789 284.737 366.593 285.749 364.868 285.749ZM374.789 287.681C375.778 287.681 376.56 286.899 376.56 285.818C376.56 284.714 375.778 283.955 374.789 283.955C373.777 283.955 373.018 284.714 373.018 285.818C373.018 286.899 373.777 287.681 374.789 287.681ZM385.986 287.359H388.47V270.431H385.388L378.672 281.034V282.828H390.632V280.758H381.34L384.652 275.675C385.135 274.801 385.595 273.904 386.009 273.053H386.124C386.055 273.973 385.986 275.422 385.986 276.319V287.359Z" fill="#5E5E5E"/>
<path d="M264.817 136.631C425.575 167.316 523.056 118.125 398.604 111.299C274.153 104.473 68.7583 188.498 112.327 143.892C147.182 108.207 75.6739 124.182 35.5632 136.631" stroke="#91CFC0" stroke-width="2.46879"/>
<path fill-rule="evenodd" clip-rule="evenodd" d="M259.609 139.507C259.609 142 257.588 144.02 255.095 144.02C252.602 144.02 250.582 142 250.582 139.507C250.582 137.014 252.602 134.993 255.095 134.993C257.588 134.993 259.609 137.014 259.609 139.507ZM260.814 139.507C260.814 142.665 258.253 145.225 255.095 145.225C251.937 145.225 249.377 142.665 249.377 139.507C249.377 136.349 251.937 133.788 255.095 133.788C258.253 133.788 260.814 136.349 260.814 139.507ZM255.096 142.939C256.991 142.939 258.528 141.402 258.528 139.507C258.528 137.611 256.991 136.074 255.096 136.074C253.2 136.074 251.663 137.611 251.663 139.507C251.663 141.402 253.2 142.939 255.096 142.939Z" fill="#00AD8E"/>
<path fill-rule="evenodd" clip-rule="evenodd" d="M248.645 120.067L255.201 139.507L261.757 120.065C262.32 119.019 262.638 117.822 262.638 116.551C262.638 112.443 259.308 109.113 255.201 109.113C251.093 109.113 247.763 112.443 247.763 116.551C247.763 117.823 248.082 119.02 248.645 120.067Z" fill="#FF5555"/>
<circle cx="255.201" cy="116.547" r="2.24066" transform="rotate(-180 255.201 116.547)" fill="white"/>
<line x1="97.748" y1="11.813" x2="97.748" y2="56.2964" stroke="#91CFC0"/>
<line x1="273.117" y1="271.986" x2="273.117" y2="316.469" stroke="#F8C9C9"/>
<circle cx="353.503" cy="108.4" r="5.8904" fill="#D9D9D9"/>
<circle cx="449.217" cy="126.504" r="5.8904" fill="#D9D9D9"/>
<circle cx="116.282" cy="118.788" r="5.8904" fill="#D9D9D9"/>
<circle cx="378.612" cy="163.719" r="5.8904" fill="#D9D9D9"/>
<circle cx="122.172" cy="244.929" r="5.8904" fill="#D9D9D9"/>
<circle cx="132.211" cy="151.938" r="5.8904" fill="#D9D9D9"/>
<circle cx="122.172" cy="213.711" r="5.8904" fill="#D9D9D9"/>
<defs>
<filter id="filter0_d_0_1" x="0.878418" y="0.926758" width="309.467" height="72.7388" filterUnits="userSpaceOnUse" color-interpolation-filters="sRGB">
<feFlood flood-opacity="0" result="BackgroundImageFix"/>
<feColorMatrix in="SourceAlpha" type="matrix" values="0 0 0 0 0 0 0 0 0 0 0 0 0 0 0 0 0 0 127 0" result="hardAlpha"/>
<feOffset dy="4"/>
<feGaussianBlur stdDeviation="2"/>
<feComposite in2="hardAlpha" operator="out"/>
<feColorMatrix type="matrix" values="0 0 0 0 0 0 0 0 0 0 0 0 0 0 0 0 0 0 0.25 0"/>
<feBlend mode="normal" in2="BackgroundImageFix" result="effect1_dropShadow_0_1"/>
<feBlend mode="normal" in="SourceGraphic" in2="effect1_dropShadow_0_1" result="shape"/>
</filter>
<filter id="filter1_d_0_1" x="176.702" y="259.314" width="309.467" height="72.7388" filterUnits="userSpaceOnUse" color-interpolation-filters="sRGB">
<feFlood flood-opacity="0" result="BackgroundImageFix"/>
<feColorMatrix in="SourceAlpha" type="matrix" values="0 0 0 0 0 0 0 0 0 0 0 0 0 0 0 0 0 0 127 0" result="hardAlpha"/>
<feOffset dy="4"/>
<feGaussianBlur stdDeviation="2"/>
<feComposite in2="hardAlpha" operator="out"/>
<feColorMatrix type="matrix" values="0 0 0 0 0 0 0 0 0 0 0 0 0 0 0 0 0 0 0.25 0"/>
<feBlend mode="normal" in2="BackgroundImageFix" result="effect1_dropShadow_0_1"/>
<feBlend mode="normal" in="SourceGraphic" in2="effect1_dropShadow_0_1" result="shape"/>
</filter>
</defs>
</svg>
