<svg width="831" height="373" viewBox="0 0 831 373" fill="none" xmlns="http://www.w3.org/2000/svg">
<path d="M17.7089 181.153V184.19C17.7089 187.284 15.7776 190.546 13.3214 191.784L14.2776 193.021C16.9589 191.596 18.9839 187.94 18.9839 184.19V181.153H17.7089ZM17.9901 181.153V184.19C17.9901 187.828 19.9589 191.296 22.5839 192.703L23.5401 191.465C21.1401 190.265 19.2464 187.171 19.2464 184.19V181.153H17.9901ZM25.0214 179.69V196.64H26.5964V179.69H25.0214ZM26.2214 186.553V187.865H29.3714V186.553H26.2214ZM34.5824 185.428V188.634H36.1199V185.428H34.5824ZM40.8074 185.428V188.634H42.3449V185.428H40.8074ZM30.7949 188.071V189.328H46.1137V188.071H30.7949ZM38.4449 190.603C34.8074 190.603 32.6324 191.671 32.6324 193.603C32.6324 195.534 34.8074 196.621 38.4449 196.621C42.0824 196.621 44.2574 195.534 44.2574 193.603C44.2574 191.671 42.0824 190.603 38.4449 190.603ZM38.4449 191.803C41.1074 191.803 42.6824 192.459 42.6824 193.603C42.6824 194.765 41.1074 195.403 38.4449 195.403C35.8012 195.403 34.2074 194.765 34.2074 193.603C34.2074 192.459 35.8012 191.803 38.4449 191.803ZM38.4637 179.99C34.7699 179.99 32.5012 181.171 32.5012 183.159C32.5012 185.128 34.7699 186.29 38.4637 186.29C42.1387 186.29 44.4262 185.128 44.4262 183.159C44.4262 181.171 42.1387 179.99 38.4637 179.99ZM38.4637 181.209C41.1637 181.209 42.8324 181.921 42.8324 183.159C42.8324 184.378 41.1637 185.09 38.4637 185.09C35.7637 185.09 34.0949 184.378 34.0949 183.159C34.0949 181.921 35.7637 181.209 38.4637 181.209ZM52.2247 181.509V182.878C52.2247 185.296 50.5372 187.49 47.9872 188.39L48.7747 189.628C51.6247 188.596 53.4997 185.99 53.4997 182.878V181.509H52.2247ZM52.5059 181.509V182.859C52.5059 185.746 54.3059 188.165 57.1372 189.103L57.8872 187.884C55.3934 187.059 53.7809 185.071 53.7809 182.859V181.509H52.5059ZM48.4559 180.946V182.221H57.5122V180.946H48.4559ZM59.6497 179.69V189.909H61.2059V179.69H59.6497ZM60.7747 183.984V185.296H63.7184V183.984H60.7747ZM55.8059 190.359C52.3559 190.359 50.2372 191.503 50.2372 193.471C50.2372 195.459 52.3559 196.603 55.8059 196.603C59.2559 196.603 61.3747 195.459 61.3747 193.471C61.3747 191.503 59.2559 190.359 55.8059 190.359ZM55.8059 191.615C58.3184 191.615 59.8559 192.29 59.8559 193.471C59.8559 194.671 58.3184 195.384 55.8059 195.384C53.2934 195.384 51.7559 194.671 51.7559 193.471C51.7559 192.29 53.2934 191.615 55.8059 191.615ZM77.6107 179.671V196.659H79.167V179.671H77.6107ZM66.267 181.115V192.571H74.2545V181.115H72.6982V185.596H67.8045V181.115H66.267ZM67.8045 186.834H72.6982V191.296H67.8045V186.834ZM91.6892 189.796V192.553H93.2454V189.796H91.6892ZM98.8142 179.69V196.64H100.37V179.69H98.8142ZM99.8642 186.89V188.203H102.995V186.89H99.8642ZM87.3204 193.415C90.2829 193.415 94.2579 193.396 97.9142 192.74L97.7829 191.578C94.2767 192.084 90.1329 192.121 87.0954 192.121L87.3204 193.415ZM87.3767 181.734V182.99H97.5204V181.734H87.3767ZM92.4579 183.984C90.0954 183.984 88.4829 185.221 88.4829 187.115C88.4829 189.028 90.0954 190.246 92.4579 190.246C94.8204 190.246 96.4517 189.028 96.4517 187.115C96.4517 185.221 94.8204 183.984 92.4579 183.984ZM92.4579 185.184C93.9767 185.184 94.9892 185.953 94.9892 187.115C94.9892 188.278 93.9767 189.046 92.4579 189.046C90.9392 189.046 89.9454 188.278 89.9454 187.115C89.9454 185.953 90.9392 185.184 92.4579 185.184ZM91.6892 179.709V182.578H93.2454V179.709H91.6892ZM112.669 182.671V183.946H117.413V182.671H112.669ZM112.669 186.29V187.584H117.45V186.29H112.669ZM105.319 181.153V189.103H113.063V181.153H105.319ZM111.525 182.409V187.846H106.838V182.409H111.525ZM116.925 179.709V192.084H118.481V179.709H116.925ZM107.588 194.99V196.265H118.894V194.99H107.588ZM107.588 190.959V195.571H109.144V190.959H107.588ZM134.661 179.69V196.64H136.161V179.69H134.661ZM131.811 186.59V187.865H135.074V186.59H131.811ZM130.818 180.065V195.778H132.28V180.065H130.818ZM122.605 181.734V191.521H124.161V181.734H122.605ZM122.605 190.903V192.253H123.693C125.511 192.253 127.461 192.159 129.768 191.709L129.599 190.359C127.386 190.79 125.436 190.903 123.693 190.903H122.605ZM150.84 180.778V181.434C150.84 184.584 148.252 187.04 143.958 188.259L144.596 189.478C149.471 188.109 152.471 185.053 152.471 180.778H150.84ZM144.84 180.778V182.034H151.89V180.778H144.84ZM156.165 179.69V189.365H157.721V179.69H156.165ZM152.49 184.04V185.334H156.465V184.04H152.49ZM146.79 190.078V196.415H157.721V190.078H146.79ZM156.202 191.334V195.14H148.327V191.334H156.202ZM164.582 180.703V182.971C164.582 184.903 163.251 187.134 161.038 188.128L161.882 189.346C164.376 188.203 165.82 185.521 165.82 182.971V180.703H164.582ZM164.826 180.703V182.971C164.826 185.503 166.213 187.884 168.67 188.915L169.495 187.715C167.32 186.834 166.063 184.903 166.063 182.971V180.703H164.826ZM173.826 179.709V189.946H175.307V179.709H173.826ZM171.088 184.096V185.39H174.295V184.096H171.088ZM170.188 179.99V189.853H171.67V179.99H170.188ZM163.945 190.865V192.14H173.77V196.64H175.307V190.865H163.945ZM178.268 188.596V189.871H193.587V188.596H178.268ZM180.256 194.99V196.265H191.899V194.99H180.256ZM180.256 191.353V195.384H181.812V191.353H180.256ZM185.937 180.253C182.299 180.253 179.974 181.528 179.974 183.646C179.974 185.746 182.299 187.021 185.937 187.021C189.556 187.021 191.899 185.746 191.899 183.646C191.899 181.528 189.556 180.253 185.937 180.253ZM185.937 181.528C188.599 181.528 190.306 182.315 190.306 183.646C190.306 184.978 188.599 185.765 185.937 185.765C183.274 185.765 181.568 184.978 181.568 183.646C181.568 182.315 183.274 181.528 185.937 181.528ZM212.597 179.69V188.465H214.153V179.69H212.597ZM203.203 189.328V190.546H212.634V192.234H203.24V195.721H204.759V193.396H214.172V189.328H203.203ZM203.24 195.215V196.453H214.734V195.215H203.24ZM204.684 180.178V181.471C204.684 183.928 202.94 186.178 200.39 187.078L201.159 188.315C204.028 187.265 205.978 184.603 205.978 181.471V180.178H204.684ZM204.965 180.178V181.471C204.965 184.509 206.915 187.003 209.765 187.978L210.534 186.759C208.022 185.934 206.24 183.815 206.24 181.471V180.178H204.965ZM230.408 179.69V196.64H231.908V179.69H230.408ZM224.239 185.765V187.059H227.483V185.765H224.239ZM227.014 180.084V195.778H228.476V180.084H227.014ZM220.976 182.315V184.471C220.976 187.584 219.664 190.678 217.301 192.103L218.258 193.265C220.751 191.69 222.176 188.184 222.176 184.471V182.315H220.976ZM221.295 182.315V184.471C221.295 188.015 222.664 191.353 225.139 192.853L226.095 191.709C223.77 190.359 222.495 187.415 222.495 184.471V182.315H221.295ZM217.77 181.659V182.953H225.514V181.659H217.77ZM243.661 181.153V184.19C243.661 187.284 241.73 190.546 239.274 191.784L240.23 193.021C242.911 191.596 244.936 187.94 244.936 184.19V181.153H243.661ZM243.942 181.153V184.19C243.942 187.828 245.911 191.296 248.536 192.703L249.492 191.465C247.092 190.265 245.199 187.171 245.199 184.19V181.153H243.942ZM250.974 179.69V196.64H252.549V179.69H250.974ZM252.174 186.553V187.865H255.324V186.553H252.174ZM19.7051 207.428V210.634H21.2426V207.428H19.7051ZM25.9301 207.428V210.634H27.4676V207.428H25.9301ZM15.9176 210.071V211.328H31.2363V210.071H15.9176ZM23.5676 212.603C19.9301 212.603 17.7551 213.671 17.7551 215.603C17.7551 217.534 19.9301 218.621 23.5676 218.621C27.2051 218.621 29.3801 217.534 29.3801 215.603C29.3801 213.671 27.2051 212.603 23.5676 212.603ZM23.5676 213.803C26.2301 213.803 27.8051 214.459 27.8051 215.603C27.8051 216.765 26.2301 217.403 23.5676 217.403C20.9238 217.403 19.3301 216.765 19.3301 215.603C19.3301 214.459 20.9238 213.803 23.5676 213.803ZM23.5863 201.99C19.8926 201.99 17.6238 203.171 17.6238 205.159C17.6238 207.128 19.8926 208.29 23.5863 208.29C27.2613 208.29 29.5488 207.128 29.5488 205.159C29.5488 203.171 27.2613 201.99 23.5863 201.99ZM23.5863 203.209C26.2863 203.209 27.9551 203.921 27.9551 205.159C27.9551 206.378 26.2863 207.09 23.5863 207.09C20.8863 207.09 19.2176 206.378 19.2176 205.159C19.2176 203.921 20.8863 203.209 23.5863 203.209ZM37.3661 204.109V206.865C37.3661 209.734 35.3224 212.959 32.9036 214.14L33.8036 215.378C36.4474 214.028 38.6036 210.39 38.6036 206.865V204.109H37.3661ZM37.6474 204.109V206.865C37.6474 210.221 39.6911 213.634 42.3724 214.965L43.2536 213.728C40.7974 212.565 38.8849 209.546 38.8849 206.865V204.109H37.6474ZM33.5036 203.415V204.728H42.6349V203.415H33.5036ZM44.6411 201.69V218.64H46.2161V201.69H44.6411ZM45.8411 208.534V209.846H48.9911V208.534H45.8411ZM55.9272 202.909C53.2834 202.909 51.3709 204.54 51.3709 206.903C51.3709 209.284 53.2834 210.915 55.9272 210.915C58.5709 210.915 60.4647 209.284 60.4647 206.903C60.4647 204.54 58.5709 202.909 55.9272 202.909ZM55.9272 204.259C57.6709 204.259 58.9459 205.328 58.9459 206.903C58.9459 208.478 57.6709 209.565 55.9272 209.565C54.1647 209.565 52.8897 208.478 52.8897 206.903C52.8897 205.328 54.1647 204.259 55.9272 204.259ZM62.6772 201.671V218.659H64.2334V201.671H62.6772ZM50.7334 214.946C53.7522 214.946 57.8959 214.928 61.7022 214.196L61.5709 213.053C57.8772 213.634 53.6022 213.653 50.5084 213.653L50.7334 214.946ZM77.9556 202.478C75.4431 202.478 73.6431 203.884 73.6431 205.965C73.6431 208.028 75.4431 209.471 77.9556 209.471C80.4869 209.471 82.2869 208.028 82.2869 205.965C82.2869 203.884 80.4869 202.478 77.9556 202.478ZM77.9556 203.771C79.6056 203.771 80.7869 204.671 80.7869 205.965C80.7869 207.278 79.6056 208.159 77.9556 208.159C76.3056 208.159 75.1244 207.278 75.1244 205.965C75.1244 204.671 76.3056 203.771 77.9556 203.771ZM77.2619 211.346V218.115H78.8181V211.346H77.2619ZM84.7619 201.69V218.659H86.2994V201.69H84.7619ZM72.5931 212.19C75.6869 212.19 79.8494 212.134 83.6744 211.44L83.5619 210.278C79.8306 210.84 75.5369 210.878 72.3869 210.878L72.5931 212.19ZM101.992 201.69V218.64H103.548V201.69H101.992ZM94.3604 205.721V207.165C94.3604 210.128 92.4854 213.015 89.9729 214.178L90.8542 215.378C93.5729 214.065 95.6167 210.784 95.6167 207.165V205.721H94.3604ZM94.6604 205.721V207.165C94.6604 210.671 96.7417 213.84 99.4792 215.078L100.36 213.859C97.8292 212.753 95.8979 209.996 95.8979 207.165V205.721H94.6604ZM90.4417 204.634V205.89H99.7792V204.634H90.4417ZM94.3604 201.99V205.328H95.9167V201.99H94.3604ZM108.871 202.684V203.959H119.69V202.684H108.871ZM106.921 209.471V210.765H122.278V209.471H106.921ZM118.771 202.684V204.015C118.771 205.534 118.771 207.334 118.228 209.846L119.746 210.015C120.29 207.428 120.29 205.571 120.29 204.015V202.684H118.771ZM108.928 216.971V218.265H120.796V216.971H108.928ZM108.928 212.64V217.159H110.484V212.64H108.928ZM136.564 201.671V218.659H138.101V201.671H136.564ZM132.907 208.478V209.771H137.014V208.478H132.907ZM128.482 205.721V207.165C128.482 210.09 126.682 212.978 124.189 214.178L125.07 215.378C127.751 214.046 129.72 210.746 129.72 207.165V205.721H128.482ZM128.782 205.721V207.165C128.782 210.634 130.77 213.803 133.489 215.059L134.351 213.859C131.857 212.715 130.001 209.959 130.001 207.165V205.721H128.782ZM124.657 204.634V205.89H133.77V204.634H124.657ZM128.464 201.99V205.328H130.02V201.99H128.464ZM145.694 210.24V214.29H147.25V210.24H145.694ZM146.462 202.778C143.856 202.778 141.981 204.409 141.981 206.771C141.981 209.134 143.856 210.765 146.462 210.765C149.069 210.765 150.944 209.134 150.944 206.771C150.944 204.409 149.069 202.778 146.462 202.778ZM146.462 204.109C148.187 204.109 149.425 205.196 149.425 206.771C149.425 208.346 148.187 209.434 146.462 209.434C144.737 209.434 143.5 208.346 143.5 206.771C143.5 205.196 144.737 204.109 146.462 204.109ZM152.875 201.69V218.64H154.431V201.69H152.875ZM153.981 208.665V209.978H157.112V208.665H153.981ZM141.437 214.984C144.4 214.984 148.356 214.946 151.937 214.346L151.806 213.184C148.356 213.653 144.269 213.671 141.212 213.69L141.437 214.984ZM163.409 210.034V211.309H178.728V210.034H163.409ZM170.291 207.315V210.559H171.828V207.315H170.291ZM165.341 206.828V208.103H176.947V206.828H165.341ZM165.341 202.459V207.578H166.878V203.715H176.816V202.459H165.341ZM171.041 212.528C167.422 212.528 165.228 213.634 165.228 215.565C165.228 217.534 167.422 218.621 171.041 218.621C174.659 218.621 176.853 217.534 176.853 215.565C176.853 213.634 174.659 212.528 171.041 212.528ZM171.041 213.728C173.703 213.728 175.278 214.403 175.278 215.565C175.278 216.746 173.703 217.403 171.041 217.403C168.397 217.403 166.803 216.746 166.803 215.565C166.803 214.403 168.397 213.728 171.041 213.728ZM185.402 202.309C182.889 202.309 181.033 203.846 181.033 206.078C181.033 208.29 182.889 209.828 185.402 209.828C187.933 209.828 189.789 208.29 189.789 206.078C189.789 203.846 187.933 202.309 185.402 202.309ZM185.402 203.584C187.052 203.584 188.271 204.615 188.271 206.078C188.271 207.54 187.052 208.553 185.402 208.553C183.771 208.553 182.533 207.54 182.533 206.078C182.533 204.615 183.771 203.584 185.402 203.584ZM192.977 201.69V210.371H194.552V201.69H192.977ZM183.583 211.196V212.453H193.014V214.159H183.621V217.871H185.139V215.321H194.552V211.196H183.583ZM183.621 217.178V218.415H195.114V217.178H183.621ZM209.382 201.69V218.64H210.938V201.69H209.382ZM210.563 208.646V209.959H213.713V208.646H210.563ZM197.813 204.39V205.665H207.807V204.39H197.813ZM202.875 207.071C200.494 207.071 198.75 208.684 198.75 210.971C198.75 213.259 200.494 214.871 202.875 214.871C205.275 214.871 207 213.259 207 210.971C207 208.684 205.275 207.071 202.875 207.071ZM202.875 208.365C204.413 208.365 205.519 209.434 205.519 210.971C205.519 212.49 204.413 213.578 202.875 213.578C201.338 213.578 200.232 212.49 200.232 210.971C200.232 209.434 201.338 208.365 202.875 208.365ZM202.069 201.896V204.971H203.625V201.896H202.069ZM219.636 204.109V206.865C219.636 209.79 217.593 212.978 215.136 214.14L216.036 215.378C218.736 214.046 220.893 210.446 220.893 206.865V204.109H219.636ZM219.936 204.109V206.865C219.936 210.39 222.111 213.69 224.849 214.965L225.73 213.728C223.236 212.659 221.193 209.734 221.193 206.865V204.109H219.936ZM215.699 203.415V204.728H225.168V203.415H215.699ZM227.455 201.69V218.64H229.011V201.69H227.455ZM241.815 202.646C239.302 202.646 237.446 204.259 237.446 206.565C237.446 208.871 239.302 210.484 241.815 210.484C244.346 210.484 246.202 208.871 246.202 206.565C246.202 204.259 244.346 202.646 241.815 202.646ZM241.815 203.921C243.465 203.921 244.702 205.028 244.702 206.565C244.702 208.103 243.465 209.209 241.815 209.209C240.202 209.209 238.965 208.103 238.965 206.565C238.965 205.028 240.202 203.921 241.815 203.921ZM248.734 201.69V210.128H250.29V201.69H248.734ZM249.615 205.496V206.771H252.802V205.496H249.615ZM238.909 216.915V218.19H239.715C240.877 218.19 242.434 218.115 244.065 217.59L243.802 216.334C242.359 216.821 240.727 216.915 239.715 216.915H238.909ZM238.909 211.965V217.365H240.427V211.965H238.909ZM243.446 212.078V213.24H251.959V212.078H243.446ZM247.721 213.84C245.865 213.84 244.571 214.759 244.571 216.221C244.571 217.703 245.865 218.621 247.721 218.621C249.559 218.621 250.852 217.703 250.852 216.221C250.852 214.759 249.559 213.84 247.721 213.84ZM247.721 214.946C248.734 214.946 249.465 215.453 249.465 216.221C249.465 217.009 248.734 217.515 247.721 217.515C246.671 217.515 245.959 217.009 245.959 216.221C245.959 215.453 246.671 214.946 247.721 214.946ZM246.952 210.559V212.978H248.471V210.559H246.952ZM19.32 223.971C15.57 223.971 13.3575 225.021 13.3575 226.915C13.3575 228.809 15.57 229.859 19.32 229.859C23.0512 229.859 25.2825 228.809 25.2825 226.915C25.2825 225.021 23.0512 223.971 19.32 223.971ZM19.32 225.153C22.0762 225.153 23.67 225.79 23.67 226.915C23.67 228.04 22.0762 228.678 19.32 228.678C16.545 228.678 14.9512 228.04 14.9512 226.915C14.9512 225.79 16.545 225.153 19.32 225.153ZM11.6512 230.984V232.24H26.97V230.984H11.6512ZM13.5075 233.684V234.884H23.4825V236.384H13.545V239.571H15.0825V237.509H25.02V233.684H13.5075ZM13.545 239.234V240.453H25.5262V239.234H13.545ZM40.5047 224.29V225.228C40.5047 227.646 37.5234 229.671 34.4297 230.14L35.0484 231.396C38.5734 230.796 41.8735 228.471 41.8735 225.228V224.29H40.5047ZM40.7859 224.29V225.228C40.7859 228.434 44.1047 230.796 47.5922 231.396L48.211 230.14C45.1547 229.671 42.136 227.59 42.136 225.228V224.29H40.7859ZM40.5047 234.19V240.64H42.0422V234.19H40.5047ZM33.6609 233.234V234.528H48.9797V233.234H33.6609ZM59.8707 234.115V235.034C59.8707 236.665 58.5957 238.484 56.4582 239.253L57.2457 240.415C59.6832 239.478 61.0707 237.246 61.0707 235.034V234.115H59.8707ZM60.2082 234.115V235.034C60.2082 237.284 61.3144 239.609 63.7519 240.565L64.4082 239.384C62.3832 238.559 61.3707 236.74 61.3707 235.034V234.115H60.2082ZM66.1332 234.115V235.034C66.1332 236.496 65.1019 238.465 63.0957 239.384L63.7519 240.565C66.1707 239.534 67.2957 237.021 67.2957 235.034V234.115H66.1332ZM66.4519 234.115V235.034C66.4519 237.378 67.8019 239.515 70.2769 240.415L71.0644 239.253C68.9082 238.521 67.6519 236.778 67.6519 235.034V234.115H66.4519ZM67.9707 223.709V233.384H69.5457V223.709H67.9707ZM60.4519 224.684C57.8832 224.684 56.0269 226.296 56.0269 228.64C56.0269 230.984 57.8832 232.578 60.4519 232.578C63.0207 232.578 64.8582 230.984 64.8582 228.64C64.8582 226.296 63.0207 224.684 60.4519 224.684ZM60.4519 225.978C62.1394 225.978 63.3582 227.065 63.3582 228.64C63.3582 230.215 62.1394 231.284 60.4519 231.284C58.7644 231.284 57.5457 230.215 57.5457 228.64C57.5457 227.065 58.7644 225.978 60.4519 225.978ZM74.8317 233.853V240.415H86.213V233.853H84.6567V235.821H76.3692V233.853H74.8317ZM76.3692 237.021H84.6567V239.159H76.3692V237.021ZM72.8817 231.415V232.671H88.2005V231.415H72.8817ZM79.763 223.878V224.628C79.763 226.765 76.8192 228.584 73.763 228.996L74.3255 230.215C77.813 229.69 81.0942 227.571 81.0942 224.628V223.878H79.763ZM80.0067 223.878V224.628C80.0067 227.534 83.3067 229.69 86.7567 230.215L87.338 228.996C84.3192 228.584 81.338 226.728 81.338 224.628V223.878H80.0067ZM102.468 223.69V240.64H104.024V223.69H102.468ZM91.2177 225.34V235.84H92.7552V225.34H91.2177ZM91.2177 234.921V236.271H92.6052C95.2865 236.271 97.9677 236.065 100.911 235.465L100.724 234.134C97.8552 234.734 95.174 234.921 92.6052 234.921H91.2177ZM118.854 223.671V240.659H120.429V223.671H118.854ZM120.054 230.365V231.678H123.204V230.365H120.054ZM108.11 235.128V236.44H109.441C112.629 236.44 114.86 236.346 117.466 235.859L117.298 234.546C114.766 235.015 112.573 235.128 109.441 235.128H108.11ZM108.11 225.321V235.709H109.648V226.596H115.985V225.321H108.11ZM124.909 239.178V237.078H126.296V239.178H124.909ZM137.641 225.153V228.19C137.641 231.396 135.598 234.64 133.085 235.84L134.041 237.115C136.816 235.709 138.916 232.09 138.916 228.19V225.153H137.641ZM137.904 225.153V228.19C137.904 231.959 140.023 235.446 142.779 236.796L143.716 235.559C141.204 234.396 139.179 231.284 139.179 228.19V225.153H137.904ZM145.479 223.671V240.659H147.035V223.671H145.479ZM162.015 223.69V236.084H163.571V223.69H162.015ZM163.084 228.828V230.121H166.084V228.828H163.084ZM157.384 225.003V225.678C157.384 228.94 154.702 231.565 150.427 232.878L151.102 234.153C155.959 232.596 159.034 229.39 159.034 225.003H157.384ZM151.121 225.003V226.278H158.171V225.003H151.121ZM152.996 238.99V240.265H164.321V238.99H152.996ZM152.996 234.828V239.496H154.552V234.828H152.996ZM176.713 227.796V229.071H180.482V227.796H176.713ZM180.051 223.69V232.896H181.607V223.69H180.051ZM170.751 233.721V240.415H181.607V233.721H180.07V235.784H172.288V233.721H170.751ZM172.288 237.04H180.07V239.14H172.288V237.04ZM171.988 225.021V226.409C171.988 228.809 170.245 231.059 167.713 231.94L168.52 233.196C171.351 232.146 173.263 229.484 173.263 226.409V225.021H171.988ZM172.288 225.021V226.39C172.288 229.24 174.107 231.79 176.863 232.784L177.651 231.565C175.195 230.703 173.545 228.584 173.545 226.39V225.021H172.288ZM168.201 224.703V225.959H177.257V224.703H168.201ZM186.874 224.684V225.959H197.693V224.684H186.874ZM184.924 231.471V232.765H200.281V231.471H184.924ZM196.774 224.684V226.015C196.774 227.534 196.774 229.334 196.231 231.846L197.749 232.015C198.293 229.428 198.293 227.571 198.293 226.015V224.684H196.774ZM186.931 238.971V240.265H198.799V238.971H186.931ZM186.931 234.64V239.159H188.487V234.64H186.931ZM206.429 224.646V226.39C206.429 228.978 204.742 231.246 202.154 232.165L202.96 233.44C205.867 232.353 207.723 229.671 207.723 226.39V224.646H206.429ZM206.71 224.646V226.334C206.71 229.409 208.529 231.903 211.267 232.934L212.11 231.715C209.635 230.853 207.985 228.734 207.985 226.334V224.646H206.71ZM214.548 223.69V233.721H216.104V223.69H214.548ZM210.535 234.209C207.029 234.209 204.873 235.39 204.873 237.415C204.873 239.44 207.029 240.603 210.535 240.603C214.023 240.603 216.179 239.44 216.179 237.415C216.179 235.39 214.023 234.209 210.535 234.209ZM210.535 235.446C213.085 235.446 214.642 236.178 214.642 237.415C214.642 238.653 213.085 239.384 210.535 239.384C207.985 239.384 206.429 238.653 206.429 237.415C206.429 236.178 207.985 235.446 210.535 235.446ZM210.873 227.271V228.565H214.885V227.271H210.873ZM228.645 226.109V228.865C228.645 231.79 226.601 234.978 224.145 236.14L225.045 237.378C227.745 236.046 229.901 232.446 229.901 228.865V226.109H228.645ZM228.945 226.109V228.865C228.945 232.39 231.12 235.69 233.858 236.965L234.739 235.728C232.245 234.659 230.201 231.734 230.201 228.865V226.109H228.945ZM224.708 225.415V226.728H234.176V225.415H224.708ZM236.464 223.69V240.64H238.02V223.69H236.464ZM243.344 231.603V232.878H254.987V231.603H243.344ZM241.412 237.209V238.521H256.769V237.209H241.412ZM248.275 232.146V237.734H249.831V232.146H248.275ZM243.344 225.04V232.165H244.9V226.315H254.819V225.04H243.344ZM17.4282 253.565V254.746H32.8032V253.565H17.4282ZM19.247 256.115V257.221H29.3532V258.665H19.3032V261.721H20.8407V259.734H30.872V256.115H19.247ZM19.3032 261.309V262.434H31.4157V261.309H19.3032ZM19.3782 246.178V247.284H29.297V248.653H19.4157V251.54H20.9532V249.703H30.8157V246.178H19.3782ZM19.4157 251.165V252.29H31.1345V251.165H19.4157ZM39.4192 254.671V255.928H54.7379V254.671H39.4192ZM46.3004 252.478V255.196H47.8379V252.478H46.3004ZM41.4442 251.784V253.003H52.9379V251.784H41.4442ZM41.4442 246.178V252.44H42.9817V247.396H52.8629V246.178H41.4442ZM42.5317 248.953V250.153H52.4129V248.953H42.5317ZM47.0692 257.184C43.3754 257.184 41.2567 258.121 41.2567 259.903C41.2567 261.665 43.3754 262.603 47.0692 262.603C50.7629 262.603 52.8817 261.665 52.8817 259.903C52.8817 258.121 50.7629 257.184 47.0692 257.184ZM47.0692 258.365C49.7879 258.365 51.3067 258.909 51.3067 259.903C51.3067 260.915 49.7879 261.44 47.0692 261.44C44.3504 261.44 42.8317 260.915 42.8317 259.903C42.8317 258.909 44.3504 258.365 47.0692 258.365ZM56.649 248.578V249.853H65.049V248.578H56.649ZM60.849 250.978C58.749 250.978 57.2115 252.571 57.2115 254.859C57.2115 257.128 58.749 258.721 60.849 258.721C62.9677 258.721 64.5052 257.128 64.5052 254.859C64.5052 252.571 62.9677 250.978 60.849 250.978ZM60.849 252.309C62.1615 252.309 63.1177 253.359 63.1177 254.859C63.1177 256.359 62.1615 257.409 60.849 257.409C59.5552 257.409 58.6177 256.359 58.6177 254.859C58.6177 253.359 59.5552 252.309 60.849 252.309ZM69.5302 245.69V262.64H71.0302V245.69H69.5302ZM66.8302 252.815V254.109H70.0365V252.815H66.8302ZM65.9115 246.065V261.815H67.374V246.065H65.9115ZM60.099 246.178V249.365H61.6365V246.178H60.099ZM90.9962 245.69V254.465H92.5524V245.69H90.9962ZM81.6024 255.328V256.546H91.0337V258.234H81.6399V261.721H83.1587V259.396H92.5712V255.328H81.6024ZM81.6399 261.215V262.453H93.1337V261.215H81.6399ZM83.0837 246.178V247.471C83.0837 249.928 81.3399 252.178 78.7899 253.078L79.5587 254.315C82.4274 253.265 84.3774 250.603 84.3774 247.471V246.178H83.0837ZM83.3649 246.178V247.471C83.3649 250.509 85.3149 253.003 88.1649 253.978L88.9337 252.759C86.4212 251.934 84.6399 249.815 84.6399 247.471V246.178H83.3649ZM108.807 245.69V262.64H110.307V245.69H108.807ZM102.638 251.765V253.059H105.882V251.765H102.638ZM105.413 246.084V261.778H106.876V246.084H105.413ZM99.376 248.315V250.471C99.376 253.584 98.0635 256.678 95.701 258.103L96.6572 259.265C99.151 257.69 100.576 254.184 100.576 250.471V248.315H99.376ZM99.6947 248.315V250.471C99.6947 254.015 101.063 257.353 103.538 258.853L104.495 257.709C102.17 256.359 100.895 253.415 100.895 250.471V248.315H99.6947ZM96.1697 247.659V248.953H103.913V247.659H96.1697ZM130.779 245.69V262.64H132.279V245.69H130.779ZM127.929 252.59V253.865H131.192V252.59H127.929ZM126.936 246.065V261.778H128.398V246.065H126.936ZM118.723 247.734V257.521H120.279V247.734H118.723ZM118.723 256.903V258.253H119.811C121.629 258.253 123.579 258.159 125.886 257.709L125.717 256.359C123.504 256.79 121.554 256.903 119.811 256.903H118.723ZM145.439 246.478C142.927 246.478 141.127 247.884 141.127 249.965C141.127 252.028 142.927 253.471 145.439 253.471C147.97 253.471 149.77 252.028 149.77 249.965C149.77 247.884 147.97 246.478 145.439 246.478ZM145.439 247.771C147.089 247.771 148.27 248.671 148.27 249.965C148.27 251.278 147.089 252.159 145.439 252.159C143.789 252.159 142.608 251.278 142.608 249.965C142.608 248.671 143.789 247.771 145.439 247.771ZM144.745 255.346V262.115H146.302V255.346H144.745ZM152.245 245.69V262.659H153.783V245.69H152.245ZM140.077 256.19C143.17 256.19 147.333 256.134 151.158 255.44L151.045 254.278C147.314 254.84 143.02 254.878 139.87 254.878L140.077 256.19ZM169.475 245.69V262.64H171.031V245.69H169.475ZM161.844 249.721V251.165C161.844 254.128 159.969 257.015 157.456 258.178L158.338 259.378C161.056 258.065 163.1 254.784 163.1 251.165V249.721H161.844ZM162.144 249.721V251.165C162.144 254.671 164.225 257.84 166.963 259.078L167.844 257.859C165.313 256.753 163.381 253.996 163.381 251.165V249.721H162.144ZM157.925 248.634V249.89H167.263V248.634H157.925ZM161.844 245.99V249.328H163.4V245.99H161.844ZM185.935 247.359V248.071C185.935 250.303 183.029 252.253 180.047 252.684L180.647 253.921C184.06 253.34 187.285 251.109 187.285 248.071V247.359H185.935ZM186.329 247.359V248.071C186.329 251.109 189.535 253.34 192.966 253.921L193.547 252.684C190.585 252.253 187.66 250.303 187.66 248.071V247.359H186.329ZM185.991 256.171V262.64H187.529V256.171H185.991ZM179.147 255.346V256.621H194.466V255.346H179.147ZM180.572 246.74V247.996H192.985V246.74H180.572ZM204.477 248.803V250.059H209.371V248.803H204.477ZM204.477 252.459V253.715H209.408V252.459H204.477ZM208.771 245.709V258.253H210.327V245.709H208.771ZM199.433 260.99V262.265H210.74V260.99H199.433ZM199.433 257.034V261.646H200.99V257.034H199.433ZM197.221 246.815V255.365H204.871V246.815H203.352V249.815H198.758V246.815H197.221ZM198.758 251.034H203.352V254.09H198.758V251.034ZM219.138 246.909C216.494 246.909 214.582 248.54 214.582 250.903C214.582 253.284 216.494 254.915 219.138 254.915C221.782 254.915 223.676 253.284 223.676 250.903C223.676 248.54 221.782 246.909 219.138 246.909ZM219.138 248.259C220.882 248.259 222.157 249.328 222.157 250.903C222.157 252.478 220.882 253.565 219.138 253.565C217.376 253.565 216.101 252.478 216.101 250.903C216.101 249.328 217.376 248.259 219.138 248.259ZM225.888 245.671V262.659H227.444V245.671H225.888ZM213.944 258.946C216.963 258.946 221.107 258.928 224.913 258.196L224.782 257.053C221.088 257.634 216.813 257.653 213.719 257.653L213.944 258.946ZM248.01 245.69V258.309H249.567V245.69H248.01ZM236.123 247.059V248.334H245.048V247.059H236.123ZM235.842 255.759C238.598 255.759 242.404 255.703 245.667 255.178L245.573 254.015C242.404 254.39 238.448 254.428 235.673 254.428L235.842 255.759ZM237.81 248.146V254.653H239.31V248.146H237.81ZM241.86 248.146V254.653H243.36V248.146H241.86ZM245.198 248.896V250.171H248.835V248.896H245.198ZM245.198 252.14V253.415H248.835V252.14H245.198ZM238.729 260.99V262.265H250.017V260.99H238.729ZM238.729 257.278V261.796H240.285V257.278H238.729ZM25.7056 268.909C23.0619 268.909 21.1494 270.54 21.1494 272.903C21.1494 275.284 23.0619 276.915 25.7056 276.915C28.3494 276.915 30.2431 275.284 30.2431 272.903C30.2431 270.54 28.3494 268.909 25.7056 268.909ZM25.7056 270.259C27.4494 270.259 28.7244 271.328 28.7244 272.903C28.7244 274.478 27.4494 275.565 25.7056 275.565C23.9431 275.565 22.6681 274.478 22.6681 272.903C22.6681 271.328 23.9431 270.259 25.7056 270.259ZM32.4556 267.671V284.659H34.0119V267.671H32.4556ZM20.5119 280.946C23.5306 280.946 27.6744 280.928 31.4806 280.196L31.3494 279.053C27.6556 279.634 23.3806 279.653 20.2869 279.653L20.5119 280.946ZM46.4979 271.928V273.221H50.2666V271.928H46.4979ZM49.8354 267.69V277.609H51.3916V267.69H49.8354ZM40.4041 278.434V284.415H51.3916V278.434H40.4041ZM49.8729 279.671V283.159H41.9229V279.671H49.8729ZM41.7729 269.303V270.671C41.7729 273.071 40.0291 275.321 37.4979 276.221L38.3041 277.459C41.1354 276.409 43.0479 273.765 43.0479 270.671V269.303H41.7729ZM42.0729 269.303V270.653C42.0729 273.503 43.8916 276.071 46.6479 277.065L47.4354 275.828C44.9791 274.965 43.3291 272.846 43.3291 270.653V269.303H42.0729ZM37.9854 268.778V270.034H47.0416V268.778H37.9854ZM55.1589 284.696L55.5339 283.028H54.9714V281.078H56.5277V283.028L55.9652 284.696H55.1589ZM71.4127 270.446V271.721H76.1939V270.446H71.4127ZM71.4127 273.915V275.209H76.1939V273.915H71.4127ZM64.2314 268.721V276.709H71.8814V268.721H70.3627V271.421H65.7689V268.721H64.2314ZM65.7689 272.678H70.3627V275.453H65.7689V272.678ZM75.7814 267.69V277.946H77.3377V267.69H75.7814ZM71.7689 278.284C68.2627 278.284 66.1064 279.465 66.1064 281.453C66.1064 283.459 68.2627 284.603 71.7689 284.603C75.2564 284.603 77.4127 283.459 77.4127 281.453C77.4127 279.465 75.2564 278.284 71.7689 278.284ZM71.7689 279.521C74.3189 279.521 75.8752 280.215 75.8752 281.453C75.8752 282.671 74.3189 283.384 71.7689 283.384C69.2189 283.384 67.6627 282.671 67.6627 281.453C67.6627 280.215 69.2189 279.521 71.7689 279.521ZM85.455 276.221V279.99H87.0112V276.221H85.455ZM92.9737 267.69V280.59H94.53V267.69H92.9737ZM82.9612 282.99V284.265H94.9425V282.99H82.9612ZM82.9612 279.334V283.346H84.5175V279.334H82.9612ZM80.7675 276.803C83.8425 276.803 87.9487 276.746 91.605 276.165L91.4925 275.021C87.8925 275.49 83.6925 275.528 80.5612 275.528L80.7675 276.803ZM89.5237 277.703V278.846H93.3675V277.703H89.5237ZM86.0737 268.384C83.58 268.384 81.8925 269.546 81.8925 271.328C81.8925 273.128 83.58 274.29 86.0737 274.29C88.5487 274.29 90.2362 273.128 90.2362 271.328C90.2362 269.546 88.5487 268.384 86.0737 268.384ZM86.0737 269.546C87.6487 269.546 88.755 270.24 88.755 271.328C88.755 272.415 87.6487 273.109 86.0737 273.109C84.48 273.109 83.3737 272.415 83.3737 271.328C83.3737 270.24 84.48 269.546 86.0737 269.546ZM105.554 267.971C101.804 267.971 99.591 269.021 99.591 270.915C99.591 272.809 101.804 273.859 105.554 273.859C109.285 273.859 111.516 272.809 111.516 270.915C111.516 269.021 109.285 267.971 105.554 267.971ZM105.554 269.153C108.31 269.153 109.904 269.79 109.904 270.915C109.904 272.04 108.31 272.678 105.554 272.678C102.779 272.678 101.185 272.04 101.185 270.915C101.185 269.79 102.779 269.153 105.554 269.153ZM97.8848 274.984V276.24H113.204V274.984H97.8848ZM99.741 277.684V278.884H109.716V280.384H99.7785V283.571H101.316V281.509H111.254V277.684H99.741ZM99.7785 283.234V284.453H111.76V283.234H99.7785ZM120.738 279.165V280.478H122.032C125.257 280.478 127.301 280.365 129.738 279.915L129.569 278.64C127.207 279.09 125.182 279.165 122.032 279.165H120.738ZM120.738 269.303V279.653H122.276V270.578H128.444V269.303H120.738ZM132.307 267.69V284.678H133.863V267.69H132.307ZM127.451 273.821V275.115H132.944V273.821H127.451ZM153.829 267.69V284.64H155.367V267.69H153.829ZM154.485 274.309V275.603H157.617V274.309H154.485ZM142.185 269.265V280.534H146.873V269.265H145.579V273.615H143.517V269.265H142.185ZM143.517 274.853H145.579V279.259H143.517V274.853ZM147.773 269.265V280.534H152.404V269.265H151.092V273.615H149.085V269.265H147.773ZM149.085 274.853H151.092V279.259H149.085V274.853ZM159.134 281.209V282.521H174.49V281.209H159.134ZM160.99 268.984V270.259H171.059V272.884H161.046V277.515H162.584V274.121H172.596V268.984H160.99ZM161.046 276.859V278.134H172.99V276.859H161.046ZM189.283 267.69V284.64H190.783V267.69H189.283ZM181.933 274.609V275.865H186.208V274.609H181.933ZM185.758 268.121V283.778H187.22V268.121H185.758ZM182.139 269.828V270.109C182.139 274.103 180.358 277.478 176.364 279.878L177.283 280.984C181.858 278.265 183.639 274.271 183.639 269.828H182.139ZM177.114 269.828V271.103H182.72V269.828H177.114ZM205.423 268.778V269.434C205.423 272.584 202.836 275.04 198.542 276.259L199.18 277.478C204.055 276.109 207.055 273.053 207.055 268.778H205.423ZM199.423 268.778V270.034H206.473V268.778H199.423ZM210.748 267.69V277.365H212.305V267.69H210.748ZM207.073 272.04V273.334H211.048V272.04H207.073ZM201.373 278.078V284.415H212.305V278.078H201.373ZM210.786 279.334V283.14H202.911V279.334H210.786ZM219.166 268.703V270.971C219.166 272.903 217.835 275.134 215.622 276.128L216.466 277.346C218.96 276.203 220.403 273.521 220.403 270.971V268.703H219.166ZM219.41 268.703V270.971C219.41 273.503 220.797 275.884 223.253 276.915L224.078 275.715C221.903 274.834 220.647 272.903 220.647 270.971V268.703H219.41ZM228.41 267.709V277.946H229.891V267.709H228.41ZM225.672 272.096V273.39H228.878V272.096H225.672ZM224.772 267.99V277.853H226.253V267.99H224.772ZM218.528 278.865V280.14H228.353V284.64H229.891V278.865H218.528ZM244.458 267.634V276.99H246.014V267.634H244.458ZM245.358 271.703V273.015H248.527V271.703H245.358ZM235.252 277.853V279.034H244.496V280.515H235.289V283.703H236.827V281.64H246.014V277.853H235.252ZM235.289 283.253V284.453H246.633V283.253H235.289ZM232.908 269.209V270.428H242.921V269.209H232.908ZM237.914 271.178C235.439 271.178 233.846 272.246 233.846 273.971C233.846 275.678 235.439 276.728 237.914 276.728C240.352 276.728 241.964 275.678 241.964 273.971C241.964 272.246 240.352 271.178 237.914 271.178ZM237.914 272.321C239.471 272.321 240.483 272.959 240.483 273.971C240.483 274.965 239.471 275.603 237.914 275.603C236.339 275.603 235.327 274.965 235.327 273.971C235.327 272.959 236.339 272.321 237.914 272.321ZM237.127 267.503V270.053H238.683V267.503H237.127ZM94.6215 290.29V291.228C94.6215 293.646 91.6403 295.671 88.5465 296.14L89.1653 297.396C92.6903 296.796 95.9903 294.471 95.9903 291.228V290.29H94.6215ZM94.9028 290.29V291.228C94.9028 294.434 98.2215 296.796 101.709 297.396L102.328 296.14C99.2715 295.671 96.2528 293.59 96.2528 291.228V290.29H94.9028ZM94.6215 300.19V306.64H96.159V300.19H94.6215ZM87.7778 299.234V300.528H103.097V299.234H87.7778ZM113.987 300.115V301.034C113.987 302.665 112.712 304.484 110.575 305.253L111.362 306.415C113.8 305.478 115.187 303.246 115.187 301.034V300.115H113.987ZM114.325 300.115V301.034C114.325 303.284 115.431 305.609 117.869 306.565L118.525 305.384C116.5 304.559 115.487 302.74 115.487 301.034V300.115H114.325ZM120.25 300.115V301.034C120.25 302.496 119.219 304.465 117.212 305.384L117.869 306.565C120.287 305.534 121.412 303.021 121.412 301.034V300.115H120.25ZM120.569 300.115V301.034C120.569 303.378 121.919 305.515 124.394 306.415L125.181 305.253C123.025 304.521 121.769 302.778 121.769 301.034V300.115H120.569ZM122.087 289.709V299.384H123.662V289.709H122.087ZM114.569 290.684C112 290.684 110.144 292.296 110.144 294.64C110.144 296.984 112 298.578 114.569 298.578C117.137 298.578 118.975 296.984 118.975 294.64C118.975 292.296 117.137 290.684 114.569 290.684ZM114.569 291.978C116.256 291.978 117.475 293.065 117.475 294.64C117.475 296.215 116.256 297.284 114.569 297.284C112.881 297.284 111.662 296.215 111.662 294.64C111.662 293.065 112.881 291.978 114.569 291.978ZM128.949 299.853V306.415H140.33V299.853H138.774V301.821H130.486V299.853H128.949ZM130.486 303.021H138.774V305.159H130.486V303.021ZM126.999 297.415V298.671H142.317V297.415H126.999ZM133.88 289.878V290.628C133.88 292.765 130.936 294.584 127.88 294.996L128.442 296.215C131.93 295.69 135.211 293.571 135.211 290.628V289.878H133.88ZM134.124 289.878V290.628C134.124 293.534 137.424 295.69 140.874 296.215L141.455 294.996C138.436 294.584 135.455 292.728 135.455 290.628V289.878H134.124ZM156.585 289.69V306.64H158.141V289.69H156.585ZM145.335 291.34V301.84H146.872V291.34H145.335ZM145.335 300.921V302.271H146.722C149.403 302.271 152.085 302.065 155.028 301.465L154.841 300.134C151.972 300.734 149.291 300.921 146.722 300.921H145.335ZM172.971 289.671V306.659H174.546V289.671H172.971ZM174.171 296.365V297.678H177.321V296.365H174.171ZM162.227 301.128V302.44H163.558C166.746 302.44 168.977 302.346 171.583 301.859L171.414 300.546C168.883 301.015 166.689 301.128 163.558 301.128H162.227ZM162.227 291.321V301.709H163.764V292.596H170.102V291.321H162.227ZM179.025 305.178V303.078H180.413V305.178H179.025Z" fill="#636363"/>
<path d="M33.2356 108.686C33.2116 108.326 33.1396 108.086 33.0196 107.966C32.9236 107.822 32.7076 107.75 32.3716 107.75H14.2996C13.9876 107.75 13.8316 107.594 13.8316 107.282V106.058C13.8316 105.746 13.9876 105.59 14.2996 105.59H32.9116C34.0396 105.59 34.7836 105.794 35.1436 106.202C35.5036 106.586 35.6836 107.294 35.6836 108.326C35.6836 108.95 35.6476 109.766 35.5756 110.774C35.5276 111.782 35.4436 112.838 35.3236 113.942C35.2276 115.046 35.1076 116.126 34.9636 117.182C34.8196 118.238 34.6756 119.126 34.5316 119.846H40.1116C40.2316 119.846 40.3516 119.894 40.4716 119.99C40.5916 120.062 40.6516 120.17 40.6516 120.314V121.538C40.6516 121.658 40.5916 121.766 40.4716 121.862C40.3516 121.958 40.2316 122.006 40.1116 122.006H9.5116C9.3676 122.006 9.2356 121.958 9.1156 121.862C9.0196 121.766 8.9716 121.658 8.9716 121.538V120.314C8.9716 120.17 9.0196 120.062 9.1156 119.99C9.2356 119.894 9.3676 119.846 9.5116 119.846H32.2276C32.3956 119.03 32.5396 118.106 32.6596 117.074C32.8036 116.042 32.9236 115.01 33.0196 113.978C33.1156 112.922 33.1756 111.926 33.1996 110.99C33.2476 110.054 33.2596 109.286 33.2356 108.686ZM36.6196 136.37C36.6196 136.514 36.5596 136.622 36.4396 136.694C36.3196 136.766 36.1996 136.802 36.0796 136.802H16.5676C15.4396 136.802 14.6956 136.562 14.3356 136.082C13.9996 135.626 13.8316 134.906 13.8316 133.922V126.218C13.8316 125.882 13.9996 125.714 14.3356 125.714H15.7756C16.1116 125.714 16.2796 125.882 16.2796 126.218V133.886C16.2796 134.222 16.3276 134.426 16.4236 134.498C16.5436 134.594 16.7716 134.642 17.1076 134.642H36.0796C36.1996 134.642 36.3196 134.678 36.4396 134.75C36.5596 134.846 36.6196 134.954 36.6196 135.074V136.37ZM59.9991 114.338C59.1591 116.522 57.9711 118.598 56.4351 120.566C57.4431 121.862 58.5831 123.062 59.8551 124.166C61.1271 125.246 62.3751 126.146 63.5991 126.866C63.8631 127.01 63.8991 127.226 63.7071 127.514L62.9151 128.666C62.8431 128.786 62.7351 128.858 62.5911 128.882C62.4711 128.906 62.3391 128.858 62.1951 128.738C61.6191 128.378 61.0191 127.958 60.3951 127.478C59.7711 126.974 59.1471 126.446 58.5231 125.894C57.8991 125.342 57.2871 124.766 56.6871 124.166C56.0871 123.542 55.5231 122.918 54.9951 122.294C53.6751 123.758 52.1991 125.102 50.5671 126.326C48.9591 127.526 47.2431 128.582 45.4191 129.494C45.0831 129.662 44.8551 129.638 44.7351 129.422L44.0511 128.198C43.9791 128.078 43.9671 127.958 44.0151 127.838C44.0631 127.694 44.1471 127.598 44.2671 127.55C47.0511 126.158 49.5591 124.382 51.7911 122.222C54.0471 120.038 55.8711 117.458 57.2631 114.482C57.4311 114.146 57.4551 113.906 57.3351 113.762C57.2151 113.618 56.9871 113.546 56.6511 113.546H45.7431C45.4551 113.546 45.3111 113.39 45.3111 113.078V111.818C45.3111 111.53 45.4791 111.386 45.8151 111.386H57.6231C58.8711 111.386 59.6751 111.614 60.0351 112.07C60.4191 112.502 60.4071 113.258 59.9991 114.338ZM68.2431 118.874V104.762C68.2431 104.426 68.4111 104.258 68.7471 104.258H70.2231C70.5591 104.258 70.7271 104.426 70.7271 104.762V136.946C70.7271 137.282 70.5591 137.45 70.2231 137.45H68.7471C68.4111 137.45 68.2431 137.282 68.2431 136.946V121.034H62.0151C61.7031 121.034 61.5471 120.89 61.5471 120.602V119.306C61.5471 119.018 61.7031 118.874 62.0151 118.874H68.2431ZM57.5871 105.914C57.9471 105.914 58.1271 106.082 58.1271 106.418V107.57C58.1271 107.93 57.9471 108.11 57.5871 108.11H48.6951C48.3351 108.11 48.1551 107.93 48.1551 107.57V106.418C48.1551 106.082 48.3351 105.914 48.6951 105.914H57.5871ZM84.0265 127.802C84.0265 126.794 84.2185 126.122 84.6025 125.786C84.9865 125.426 85.7065 125.246 86.7625 125.246H101.847C102.423 125.246 102.879 125.282 103.215 125.354C103.575 125.426 103.851 125.558 104.043 125.75C104.259 125.942 104.403 126.206 104.475 126.542C104.547 126.878 104.583 127.298 104.583 127.802V134.606C104.583 135.614 104.391 136.286 104.007 136.622C103.623 136.982 102.903 137.162 101.847 137.162H86.7625C86.1865 137.162 85.7185 137.126 85.3585 137.054C85.0225 136.982 84.7465 136.838 84.5305 136.622C84.3385 136.43 84.2065 136.166 84.1345 135.83C84.0625 135.518 84.0265 135.11 84.0265 134.606V127.802ZM87.3745 127.406C87.0385 127.406 86.8105 127.478 86.6905 127.622C86.5705 127.742 86.5105 127.982 86.5105 128.342V134.066C86.5105 134.426 86.5705 134.666 86.6905 134.786C86.8105 134.93 87.0385 135.002 87.3745 135.002H101.235C101.571 135.002 101.799 134.93 101.919 134.786C102.039 134.666 102.099 134.426 102.099 134.066V128.342C102.099 127.982 102.039 127.742 101.919 127.622C101.799 127.478 101.571 127.406 101.235 127.406H87.3745ZM95.0785 108.362C94.5265 111.698 93.0745 114.638 90.7225 117.182C88.3705 119.726 84.9625 121.934 80.4985 123.806C80.0905 123.974 79.8265 123.902 79.7065 123.59L79.1665 122.402C79.0705 122.21 79.0585 122.054 79.1305 121.934C79.2265 121.814 79.3345 121.73 79.4545 121.682C83.2705 120.098 86.2585 118.226 88.4185 116.066C90.6025 113.882 91.9225 111.53 92.3785 109.01C92.5225 108.314 92.2345 107.966 91.5145 107.966H80.4265C80.1385 107.966 79.9945 107.81 79.9945 107.498V106.238C79.9945 105.95 80.1385 105.806 80.4265 105.806H92.3425C93.4945 105.806 94.2745 106.01 94.6825 106.418C95.0905 106.826 95.2225 107.474 95.0785 108.362ZM102.099 113.582V104.762C102.099 104.426 102.267 104.258 102.603 104.258H104.079C104.415 104.258 104.583 104.426 104.583 104.762V122.834C104.583 123.17 104.415 123.338 104.079 123.338H102.603C102.267 123.338 102.099 123.17 102.099 122.834V115.742H94.7545C94.4425 115.742 94.2865 115.598 94.2865 115.31V114.014C94.2865 113.726 94.4425 113.582 94.7545 113.582H102.099ZM132.678 122.798C132.678 123.134 132.51 123.302 132.174 123.302H130.806C130.47 123.302 130.302 123.134 130.302 122.798V105.374C130.302 105.038 130.47 104.87 130.806 104.87H132.174C132.51 104.87 132.678 105.038 132.678 105.374V113.33H137.25V104.762C137.25 104.426 137.418 104.258 137.754 104.258H139.122C139.458 104.258 139.626 104.426 139.626 104.762V123.266C139.626 123.602 139.458 123.77 139.122 123.77H137.754C137.418 123.77 137.25 123.602 137.25 123.266V115.49H132.678V122.798ZM117.558 126.146C117.558 126.002 117.618 125.894 117.738 125.822C117.858 125.75 117.978 125.714 118.098 125.714H136.89C138.018 125.714 138.75 125.93 139.086 126.362C139.446 126.77 139.626 127.466 139.626 128.45V137.09C139.626 137.426 139.458 137.594 139.122 137.594H137.646C137.31 137.594 137.142 137.426 137.142 137.09V128.63C137.142 128.294 137.082 128.09 136.962 128.018C136.866 127.922 136.65 127.874 136.314 127.874H118.098C117.978 127.874 117.858 127.838 117.738 127.766C117.618 127.67 117.558 127.562 117.558 127.442V126.146ZM121.446 106.13C121.422 107.954 121.17 109.694 120.69 111.35C120.978 112.19 121.362 113.018 121.842 113.834C122.322 114.65 122.862 115.418 123.462 116.138C124.086 116.858 124.758 117.518 125.478 118.118C126.198 118.694 126.93 119.174 127.674 119.558C127.938 119.702 127.974 119.918 127.782 120.206L126.918 121.43C126.846 121.526 126.762 121.586 126.666 121.61C126.594 121.61 126.45 121.55 126.234 121.43C124.914 120.614 123.666 119.57 122.49 118.298C121.314 117.026 120.342 115.706 119.574 114.338C118.878 115.802 118.002 117.194 116.946 118.514C115.914 119.81 114.666 121.058 113.202 122.258C113.01 122.402 112.842 122.474 112.698 122.474C112.578 122.474 112.494 122.438 112.446 122.366L111.438 121.214C111.222 120.95 111.282 120.698 111.618 120.458C112.842 119.498 113.898 118.49 114.786 117.434C115.674 116.378 116.418 115.262 117.018 114.086C117.618 112.886 118.074 111.626 118.386 110.306C118.698 108.986 118.878 107.582 118.926 106.094C118.902 105.926 118.938 105.794 119.034 105.698C119.13 105.578 119.238 105.518 119.358 105.518L121.05 105.626C121.314 105.626 121.446 105.794 121.446 106.13Z" fill="#535353"/>
<path d="M21.0291 79.7531H16.3064V91.9801H14.0451V79.7531H9.30237V77.7719H21.0291V79.7531ZM22.6543 91.9801V81.5141H24.8555V91.9801H22.6543ZM22.6543 79.7931V77.3717H24.8555V79.7931H22.6543ZM43.51 91.9801H41.3087V86.1167C41.3087 85.1428 41.1487 84.4291 40.8285 83.9755C40.5083 83.5219 40.0414 83.2951 39.4277 83.2951C38.814 83.2951 38.2403 83.5286 37.7067 83.9955C37.1864 84.4491 36.8195 85.0428 36.606 85.7765V91.9801H34.4048V86.1167C34.4048 85.1428 34.2447 84.4291 33.9245 83.9755C33.6043 83.5219 33.1441 83.2951 32.5437 83.2951C31.93 83.2951 31.3564 83.5219 30.8227 83.9755C30.3024 84.4291 29.9289 85.0228 29.7021 85.7565V91.9801H27.5008V81.5141H29.502V83.6153C29.9155 82.8815 30.4558 82.3212 31.1229 81.9343C31.8033 81.5341 32.5771 81.334 33.4442 81.334C34.3114 81.334 34.9918 81.5608 35.4854 82.0144C35.9924 82.468 36.3059 83.035 36.4259 83.7153C36.8795 82.9416 37.4332 82.3546 38.0869 81.9543C38.7539 81.5408 39.5144 81.334 40.3682 81.334C40.9819 81.334 41.4955 81.4474 41.9091 81.6742C42.3227 81.901 42.6428 82.2145 42.8696 82.6147C43.0964 83.0016 43.2565 83.4552 43.3499 83.9755C43.4567 84.4825 43.51 85.0228 43.51 85.5964V91.9801ZM50.7894 92.1802C49.9756 92.1802 49.2351 92.0401 48.5681 91.76C47.9144 91.4665 47.3474 91.0729 46.8671 90.5793C46.3868 90.0723 46.0133 89.4987 45.7465 88.8583C45.493 88.2046 45.3662 87.5109 45.3662 86.7771C45.3662 85.7899 45.593 84.8894 46.0466 84.0756C46.5002 83.2484 47.1339 82.588 47.9477 82.0944C48.7615 81.5875 49.7154 81.334 50.8094 81.334C51.9033 81.334 52.8439 81.5875 53.631 82.0944C54.4315 82.588 55.0518 83.2417 55.4921 84.0555C55.9323 84.8693 56.1524 85.7432 56.1524 86.6771C56.1524 86.8371 56.1458 86.9906 56.1324 87.1373C56.1191 87.2707 56.1058 87.3841 56.0924 87.4775H47.7076C47.7476 88.0912 47.9144 88.6315 48.2079 89.0984C48.5147 89.552 48.9016 89.9122 49.3685 90.1791C49.8355 90.4325 50.3358 90.5593 50.8694 90.5593C51.4564 90.5593 52.0101 90.4125 52.5304 90.119C53.064 89.8255 53.4242 89.4386 53.611 88.9584L55.4921 89.4987C55.2653 90.0056 54.9184 90.4659 54.4515 90.8795C53.9979 91.2797 53.4576 91.5999 52.8305 91.84C52.2035 92.0668 51.5231 92.1802 50.7894 92.1802ZM47.6476 86.0167H53.9712C53.9312 85.4163 53.7577 84.8894 53.4509 84.4358C53.1574 83.9688 52.7772 83.6086 52.3102 83.3551C51.8566 83.0883 51.3497 82.9549 50.7894 82.9549C50.2424 82.9549 49.7354 83.0883 49.2685 83.3551C48.8149 83.6086 48.4413 83.9688 48.1478 84.4358C47.8543 84.8894 47.6876 85.4163 47.6476 86.0167ZM73.9572 91.9801H71.7559V86.1167C71.7559 85.1428 71.5959 84.4291 71.2757 83.9755C70.9555 83.5219 70.4886 83.2951 69.8749 83.2951C69.2612 83.2951 68.6875 83.5286 68.1539 83.9955C67.6336 84.4491 67.2667 85.0428 67.0532 85.7765V91.9801H64.852V86.1167C64.852 85.1428 64.6919 84.4291 64.3717 83.9755C64.0515 83.5219 63.5913 83.2951 62.9909 83.2951C62.3772 83.2951 61.8036 83.5219 61.2699 83.9755C60.7496 84.4291 60.3761 85.0228 60.1493 85.7565V91.9801H57.948V81.5141H59.9492V83.6153C60.3627 82.8815 60.903 82.3212 61.5701 81.9343C62.2505 81.5341 63.0243 81.334 63.8914 81.334C64.7586 81.334 65.439 81.5608 65.9326 82.0144C66.4396 82.468 66.7531 83.035 66.8731 83.7153C67.3267 82.9416 67.8804 82.3546 68.5341 81.9543C69.2011 81.5408 69.9616 81.334 70.8154 81.334C71.4291 81.334 71.9427 81.4474 72.3563 81.6742C72.7699 81.901 73.0901 82.2145 73.3168 82.6147C73.5436 83.0016 73.7037 83.4552 73.7971 83.9755C73.9039 84.4825 73.9572 85.0228 73.9572 85.5964V91.9801ZM75.7334 88.9183C75.7334 88.2513 75.9202 87.671 76.2937 87.1773C76.6806 86.6704 77.2076 86.2835 77.8746 86.0167C78.5417 85.7365 79.3155 85.5964 80.196 85.5964C80.6629 85.5964 81.1365 85.6298 81.6168 85.6965C82.1104 85.7632 82.544 85.8699 82.9175 86.0167V85.3563C82.9175 84.6225 82.6974 84.0489 82.2571 83.6353C81.8169 83.2217 81.1832 83.0149 80.3561 83.0149C79.769 83.0149 79.2154 83.1217 78.6951 83.3351C78.1748 83.5352 77.6211 83.8221 77.0341 84.1956L76.2937 82.7148C76.9874 82.2478 77.6812 81.901 78.3749 81.6742C79.082 81.4474 79.8224 81.334 80.5962 81.334C81.997 81.334 83.0976 81.7075 83.8981 82.4546C84.7119 83.1884 85.1188 84.2356 85.1188 85.5964V89.4987C85.1188 89.7522 85.1588 89.9323 85.2389 90.039C85.3323 90.1457 85.4857 90.2057 85.6991 90.2191V91.9801C85.499 92.0201 85.3189 92.0468 85.1588 92.0601C84.9987 92.0735 84.8653 92.0802 84.7586 92.0802C84.2917 92.0802 83.9381 91.9668 83.698 91.74C83.4578 91.5132 83.3178 91.2463 83.2777 90.9395L83.2177 90.3392C82.7641 90.9262 82.1838 91.3798 81.4767 91.6999C80.7696 92.0201 80.0559 92.1802 79.3355 92.1802C78.6417 92.1802 78.0214 92.0401 77.4744 91.76C76.9274 91.4665 76.5005 91.0729 76.1937 90.5793C75.8868 90.0857 75.7334 89.532 75.7334 88.9183ZM82.3972 89.5587C82.5573 89.3853 82.6841 89.2118 82.7774 89.0384C82.8708 88.865 82.9175 88.7116 82.9175 88.5781V87.3775C82.544 87.2307 82.1504 87.124 81.7368 87.0573C81.3233 86.9772 80.9164 86.9372 80.5161 86.9372C79.7157 86.9372 79.062 87.0973 78.555 87.4175C78.0614 87.7377 77.8146 88.1779 77.8146 88.7382C77.8146 89.0451 77.8946 89.3386 78.0547 89.6187C78.2282 89.8989 78.4683 90.1257 78.7751 90.2991C79.0953 90.4726 79.4889 90.5593 79.9558 90.5593C80.4361 90.5593 80.8964 90.4659 81.3366 90.2791C81.7769 90.0923 82.1304 89.8522 82.3972 89.5587ZM93.7328 92.1802C92.8923 92.1802 92.1519 91.9801 91.5115 91.5799C90.8712 91.1796 90.3642 90.6593 89.9907 90.019V96.2426H87.7894V81.5141H89.7305V83.3952C90.1307 82.7681 90.651 82.2678 91.2914 81.8943C91.9318 81.5208 92.6455 81.334 93.4326 81.334C94.153 81.334 94.8134 81.4807 95.4138 81.7742C96.0141 82.0544 96.5344 82.448 96.9747 82.9549C97.4149 83.4619 97.7551 84.0422 97.9953 84.6959C98.2487 85.3363 98.3755 86.0167 98.3755 86.7371C98.3755 87.7377 98.1754 88.6515 97.7751 89.4787C97.3882 90.3058 96.8413 90.9662 96.1342 91.4598C95.4405 91.9401 94.64 92.1802 93.7328 92.1802ZM93.0124 90.2991C93.4793 90.2991 93.8996 90.1991 94.2731 89.999C94.66 89.7988 94.9869 89.532 95.2537 89.1985C95.5338 88.865 95.7473 88.4848 95.894 88.0578C96.0408 87.6309 96.1142 87.1907 96.1142 86.7371C96.1142 86.2568 96.0341 85.8032 95.874 85.3763C95.7139 84.9494 95.4805 84.5758 95.1736 84.2557C94.8801 83.9355 94.5333 83.682 94.133 83.4952C93.7461 83.3084 93.3192 83.2151 92.8523 83.2151C92.5721 83.2151 92.2786 83.2684 91.9718 83.3752C91.665 83.4819 91.3781 83.6286 91.1113 83.8154C90.8445 84.0022 90.611 84.2223 90.4109 84.4758C90.2108 84.7293 90.0707 84.9961 89.9907 85.2762V88.0178C90.1774 88.4447 90.4242 88.8316 90.7311 89.1785C91.0379 89.512 91.3915 89.7855 91.7917 89.999C92.1919 90.1991 92.5988 90.2991 93.0124 90.2991ZM104.077 92.1802C103.197 92.1802 102.363 92.0401 101.576 91.76C100.789 91.4665 100.115 91.0329 99.5548 90.4592L100.375 88.9784C100.976 89.512 101.576 89.8989 102.176 90.139C102.79 90.3792 103.397 90.4993 103.997 90.4993C104.611 90.4993 105.111 90.3859 105.498 90.1591C105.885 89.9189 106.079 89.5721 106.079 89.1185C106.079 88.7849 105.978 88.5381 105.778 88.378C105.578 88.2179 105.285 88.0779 104.898 87.9578C104.524 87.8377 104.071 87.7043 103.537 87.5576C102.79 87.3308 102.163 87.0973 101.656 86.8572C101.149 86.6037 100.769 86.2968 100.515 85.9366C100.262 85.5764 100.135 85.1162 100.135 84.5558C100.135 83.8754 100.309 83.2951 100.655 82.8148C101.002 82.3346 101.483 81.9677 102.096 81.7142C102.723 81.4607 103.444 81.334 104.257 81.334C105.018 81.334 105.718 81.454 106.359 81.6942C107.012 81.921 107.586 82.2812 108.08 82.7748L107.139 84.2356C106.672 83.8087 106.192 83.4952 105.698 83.2951C105.218 83.095 104.698 82.9949 104.137 82.9949C103.817 82.9949 103.51 83.035 103.217 83.115C102.923 83.1817 102.677 83.3151 102.476 83.5152C102.29 83.702 102.196 83.9688 102.196 84.3157C102.196 84.5959 102.276 84.8227 102.436 84.9961C102.597 85.1695 102.837 85.3163 103.157 85.4363C103.477 85.5564 103.871 85.6898 104.338 85.8366C105.151 86.0767 105.845 86.3168 106.419 86.557C106.992 86.7838 107.433 87.084 107.739 87.4575C108.06 87.8177 108.22 88.318 108.22 88.9584C108.22 89.9723 107.84 90.7661 107.079 91.3397C106.332 91.9001 105.331 92.1802 104.077 92.1802Z" fill="#C50000"/>
<path d="M681.129 303.683C669.121 318.092 652.233 326.588 627.208 316.811C604.672 308.007 607.515 243.666 578.445 227.256C549.374 210.845 527.337 258.202 490.764 269.455C454.192 280.708 429.341 220.691 481.855 187.87C534.37 155.048 500.877 176.187 538.59 151.297C576.302 126.407 538.441 109.477 554.063 96.9071C569.685 84.3375 585.295 131.985 610.512 164.19C635.728 196.395 687.962 209.22 687.962 193.61C687.962 177.999 654.34 184.003 654.34 154.584C654.34 125.165 715.58 173.512 755.206 154.584C794.832 135.656 737.795 105.391 779.823 101.149C821.85 96.9071 818.848 151.297 800.236 198.413C781.624 245.528 716.764 186.83 716.764 211.782C716.764 236.735 841.486 248.824 828.826 275.081C816.166 301.338 782.977 341.689 758.025 316.811C733.073 291.934 693.137 289.273 681.129 303.683Z" fill="#2F2F2F" fill-opacity="0.16" stroke="#59F8D1" stroke-dasharray="2 2"/>
<path fill-rule="evenodd" clip-rule="evenodd" d="M690.455 224.716C690.455 227.746 688 230.201 684.971 230.201C681.942 230.201 679.486 227.746 679.486 224.716C679.486 221.687 681.942 219.232 684.971 219.232C688 219.232 690.455 221.687 690.455 224.716ZM691.919 224.716C691.919 228.554 688.808 231.665 684.971 231.665C681.133 231.665 678.022 228.554 678.022 224.716C678.022 220.879 681.133 217.768 684.971 217.768C688.808 217.768 691.919 220.879 691.919 224.716ZM684.971 228.887C687.275 228.887 689.142 227.02 689.142 224.716C689.142 222.413 687.275 220.545 684.971 220.545C682.668 220.545 680.8 222.413 680.8 224.716C680.8 227.02 682.668 228.887 684.971 228.887Z" fill="#00AD8E"/>
<path fill-rule="evenodd" clip-rule="evenodd" d="M677.133 201.093L685.099 224.716L693.066 201.092C693.75 199.82 694.137 198.366 694.137 196.821C694.137 191.829 690.091 187.783 685.099 187.783C680.108 187.783 676.061 191.829 676.061 196.821C676.061 198.366 676.449 199.821 677.133 201.093Z" fill="#FF5555"/>
<circle cx="685.099" cy="196.816" r="2.72279" transform="rotate(-180 685.099 196.816)" fill="white"/>
<g opacity="0.5">
<circle cx="471.935" cy="254.931" r="5.35142" stroke="#C50000" stroke-width="1.79033"/>
<rect x="470.551" y="250.69" width="2.76789" height="8.48241" fill="#C50000"/>
<rect x="467.693" y="256.315" width="2.76789" height="8.48241" transform="rotate(-90 467.693 256.315)" fill="#C50000"/>
</g>
<g opacity="0.5">
<circle cx="478.181" cy="11.2255" r="5.35142" stroke="#C50000" stroke-width="1.79033"/>
<rect x="476.797" y="6.98425" width="2.76789" height="8.48241" fill="#C50000"/>
<rect x="473.94" y="12.6094" width="2.76789" height="8.48241" transform="rotate(-90 473.94 12.6094)" fill="#C50000"/>
</g>
<g opacity="0.5">
<circle cx="742.239" cy="220.112" r="5.35142" stroke="#C50000" stroke-width="1.79033"/>
<rect x="740.855" y="215.87" width="2.76789" height="8.48241" fill="#C50000"/>
<rect x="737.998" y="221.495" width="2.76789" height="8.48241" transform="rotate(-90 737.998 221.495)" fill="#C50000"/>
</g>
<g opacity="0.5">
<circle cx="594.262" cy="366.503" r="5.35142" stroke="#C50000" stroke-width="1.79033"/>
<rect x="592.878" y="362.261" width="2.76789" height="8.48241" fill="#C50000"/>
<rect x="590.021" y="367.886" width="2.76789" height="8.48241" transform="rotate(-90 590.021 367.886)" fill="#C50000"/>
</g>
<rect x="523.376" y="1.49086" width="210.593" height="17.3027" rx="5.75254" fill="white" stroke="#7FE8C8" stroke-width="1.27834"/>
<path d="M547.963 6.11448V6.99366C547.963 8.33893 547.275 9.663 545.601 10.2032L546.332 11.3366C548.26 10.6905 549.139 8.96389 549.139 6.99366V6.11448H547.963ZM548.26 6.11448V6.93011C548.26 8.83678 549.044 10.4151 550.855 11.04L551.586 9.93841C550.029 9.44056 549.393 8.233 549.393 6.93011V6.11448H548.26ZM552.486 5.60603V11.3472H553.895V5.60603H552.486ZM550.569 11.6014C548.493 11.6014 547.211 12.3112 547.211 13.5081C547.211 14.7157 548.493 15.4148 550.569 15.4148C552.645 15.4148 553.927 14.7157 553.927 13.5081C553.927 12.3112 552.645 11.6014 550.569 11.6014ZM550.569 12.6925C551.851 12.6925 552.528 12.9573 552.528 13.5081C552.528 14.0589 551.851 14.3343 550.569 14.3343C549.298 14.3343 548.62 14.0589 548.62 13.5081C548.62 12.9573 549.298 12.6925 550.569 12.6925ZM550.696 7.38559V8.52959H552.687V7.38559H550.696ZM555.441 13.1374V14.2814H564.317V13.1374H555.441ZM559.159 10.9659V13.4022H560.567V10.9659H559.159ZM556.362 6.32633V11.146H563.343V6.32633H556.362ZM561.966 7.44915V10.0337H557.75V7.44915H561.966ZM569.899 7.03603V8.14826H572.282V7.03603H569.899ZM569.899 9.03804V10.1714H572.282V9.03804H569.899ZM565.588 6.19922V10.9129H570.227V6.19922H568.85V7.50211H566.986V6.19922H565.588ZM566.986 8.59315H568.85V9.8113H566.986V8.59315ZM571.975 5.60603V11.4637H573.384V5.60603H571.975ZM570.058 11.6332C567.981 11.6332 566.7 12.3429 566.7 13.5293C566.7 14.7263 567.981 15.4148 570.058 15.4148C572.134 15.4148 573.415 14.7263 573.415 13.5293C573.415 12.3429 572.134 11.6332 570.058 11.6332ZM570.058 12.7137C571.339 12.7137 572.017 12.9679 572.017 13.5293C572.017 14.0801 571.339 14.3449 570.058 14.3449C568.786 14.3449 568.109 14.0801 568.109 13.5293C568.109 12.9679 568.786 12.7137 570.058 12.7137ZM577.472 10.6375V12.7878H578.88V10.6375H577.472ZM581.772 5.60603V13.0315H583.181V5.60603H581.772ZM576.116 14.1225V15.2453H583.393V14.1225H576.116ZM576.116 12.3323V14.4191H577.525V12.3323H576.116ZM575.056 11.0612C576.825 11.0612 579.124 11.0083 581.211 10.6587L581.126 9.65241C579.071 9.91722 576.677 9.93841 574.887 9.93841L575.056 11.0612ZM579.918 11.3049V12.2688H582.079V11.3049H579.918ZM578.044 5.945C576.603 5.945 575.597 6.6547 575.597 7.69278C575.597 8.74144 576.603 9.44056 578.044 9.44056C579.474 9.44056 580.48 8.74144 580.48 7.69278C580.48 6.6547 579.474 5.945 578.044 5.945ZM578.044 6.97248C578.69 6.97248 579.145 7.21611 579.145 7.69278C579.145 8.16944 578.69 8.41307 578.044 8.41307C577.387 8.41307 576.931 8.16944 576.931 7.69278C576.931 7.21611 577.387 6.97248 578.044 6.97248Z" fill="#515151"/>
<path d="M670.651 14.472H675.375V13.2115H673.903V6.83478H672.748C672.24 7.14196 671.71 7.34322 670.916 7.50211V8.46604H672.346V13.2115H670.651V14.472ZM678.965 14.6203C680.405 14.6203 681.708 13.6564 681.708 11.9722C681.708 10.3409 680.606 9.59945 679.293 9.59945C678.933 9.59945 678.657 9.663 678.35 9.8113L678.498 8.14826H681.348V6.83478H677.153L676.931 10.6481L677.651 11.1142C678.107 10.8176 678.361 10.6905 678.827 10.6905C679.611 10.6905 680.14 11.1777 680.14 12.0146C680.14 12.8726 679.579 13.3598 678.753 13.3598C678.032 13.3598 677.471 12.9997 677.037 12.5654L676.306 13.5505C676.899 14.1331 677.725 14.6203 678.965 14.6203ZM684.005 14.6203C684.556 14.6203 684.979 14.186 684.979 13.6035C684.979 13.0209 684.556 12.5972 684.005 12.5972C683.444 12.5972 683.041 13.0209 683.041 13.6035C683.041 14.186 683.444 14.6203 684.005 14.6203ZM688.625 14.6203C690.13 14.6203 691.39 13.8153 691.39 12.4065C691.39 11.4108 690.712 10.7646 689.822 10.521V10.4786C690.649 10.1397 691.125 9.56767 691.125 8.74144C691.125 7.43855 690.098 6.69707 688.583 6.69707C687.672 6.69707 686.92 7.07841 686.242 7.661L687.036 8.62493C687.503 8.19063 687.958 7.91522 688.519 7.91522C689.187 7.91522 689.568 8.26478 689.568 8.85796C689.568 9.5147 689.102 9.99137 687.661 9.99137V11.1142C689.367 11.1142 689.822 11.5803 689.822 12.3112C689.822 12.9785 689.282 13.3598 688.477 13.3598C687.767 13.3598 687.206 12.9997 686.74 12.5442L685.998 13.5293C686.549 14.1649 687.386 14.6203 688.625 14.6203ZM692.818 14.472H694.344V12.9785L695.181 12.0146L696.621 14.472H698.305L696.092 10.9871L698.125 8.55078H696.409L694.397 11.093H694.344V6.02974H692.818V14.472ZM699.211 14.472H700.768V10.3939C701.171 9.949 701.563 9.73715 701.891 9.73715C702.463 9.73715 702.728 10.0443 702.728 10.9765V14.472H704.285V10.3939C704.709 9.949 705.08 9.73715 705.418 9.73715C705.99 9.73715 706.245 10.0443 706.245 10.9765V14.472H707.802V10.7752C707.802 9.29226 707.23 8.40248 705.969 8.40248C705.196 8.40248 704.624 8.86856 704.073 9.42996C703.798 8.77322 703.3 8.40248 702.442 8.40248C701.679 8.40248 701.128 8.82619 700.631 9.33463H700.599L700.472 8.55078H699.211V14.472Z" fill="#F4607A"/>
<path d="M620.926 14.472H626.18V13.1586H624.485C624.115 13.1586 623.596 13.2115 623.204 13.2539C624.634 11.8557 625.82 10.3303 625.82 8.90033C625.82 7.43855 624.824 6.49581 623.352 6.49581C622.282 6.49581 621.572 6.90892 620.852 7.68218L621.71 8.52959C622.113 8.0847 622.568 7.71396 623.151 7.71396C623.903 7.71396 624.316 8.20122 624.316 8.98507C624.316 10.1926 623.066 11.665 620.926 13.5823V14.472ZM629.653 14.6203C631.094 14.6203 632.396 13.614 632.396 11.8769C632.396 10.1609 631.295 9.38759 629.981 9.38759C629.621 9.38759 629.346 9.46174 629.039 9.59945L629.187 7.93641H632.036V6.63352H627.842L627.619 10.4363L628.339 10.9023C628.795 10.6057 629.049 10.4892 629.515 10.4892C630.299 10.4892 630.829 10.9977 630.829 11.9086C630.829 12.8408 630.267 13.3598 629.441 13.3598C628.721 13.3598 628.159 12.9997 627.725 12.5654L626.994 13.5505C627.587 14.1331 628.414 14.6203 629.653 14.6203ZM634.693 14.6203C635.244 14.6203 635.668 14.186 635.668 13.6035C635.668 13.0209 635.244 12.5972 634.693 12.5972C634.132 12.5972 633.729 13.0209 633.729 13.6035C633.729 14.186 634.132 14.6203 634.693 14.6203ZM639.536 14.6203C641.115 14.6203 642.174 13.72 642.174 12.5336C642.174 11.4532 641.581 10.8282 640.86 10.4363V10.3833C641.369 10.0126 641.867 9.36641 641.867 8.58256C641.867 7.33263 640.977 6.5064 639.589 6.5064C638.223 6.5064 637.216 7.31144 637.216 8.57196C637.216 9.39819 637.661 10.002 638.255 10.4363V10.4786C637.534 10.86 636.92 11.5273 636.92 12.5336C636.92 13.7623 638.032 14.6203 639.536 14.6203ZM640.034 10.002C639.208 9.67359 638.594 9.30285 638.594 8.57196C638.594 7.947 639.017 7.59744 639.557 7.59744C640.204 7.59744 640.596 8.04233 640.596 8.68848C640.596 9.15456 640.415 9.59945 640.034 10.002ZM639.568 13.5187C638.837 13.5187 638.255 13.0632 638.255 12.3535C638.255 11.7709 638.551 11.2413 638.985 10.9023C639.992 11.326 640.723 11.6544 640.723 12.47C640.723 13.148 640.246 13.5187 639.568 13.5187ZM643.094 10.6269V11.7392H651.97V10.6269H643.094ZM646.939 11.2201V13.2857H648.358V11.2201H646.939ZM644.121 14.1225V15.2453H650.996V14.1225H644.121ZM644.121 12.5442V14.5992H645.519V12.5442H644.121ZM644.227 5.91322V9.949H650.837V5.91322H649.439V6.91952H645.615V5.91322H644.227ZM645.615 7.97878H649.439V8.84737H645.615V7.97878Z" fill="#38D9A9"/>
<rect x="523.376" y="29.2724" width="210.593" height="17.3027" rx="5.75254" fill="white" stroke="#7FE8C8" stroke-width="1.27834"/>
<path d="M549.393 34.3303V34.4998C549.393 37.2538 548.694 39.1287 545.643 40.6646L546.395 41.7345C550.05 39.8808 550.77 37.3598 550.77 34.3303H549.393ZM546.247 34.3303V35.4425H550.23V34.3303H546.247ZM549.425 36.7348L545.739 36.9466L545.908 38.1542L549.425 37.8152V36.7348ZM551.956 33.3769V43.1857H553.376V33.3769H551.956ZM553.005 37.1267V38.2813H554.732V37.1267H553.005ZM556.521 36.3217V37.275H563.353V36.3217H556.521ZM556.521 33.5358V36.7878H557.919V34.4892H563.279V33.5358H556.521ZM557.527 34.9446V35.8556H563.057V34.9446H557.527ZM559.148 36.8831V38.3025H560.557V36.8831H559.148ZM555.451 37.8046V38.8427H564.285V37.8046H555.451ZM556.447 39.2664V40.2515H561.839V40.7176H556.458V42.6349H557.845V41.6498H563.226V39.2664H556.447ZM556.458 42.1476V43.1327H563.48V42.1476H556.458ZM571.911 33.3875V39.4147H573.331V33.3875H571.911ZM566.636 39.8384V40.9718H571.911V43.1963H573.331V39.8384H566.636ZM565.683 37.8788V39.0122H566.541C568.5 39.0122 569.803 38.9804 571.265 38.7262L571.106 37.614C569.687 37.8364 568.448 37.8788 566.541 37.8788H565.683ZM565.672 33.9277V35.0506H568.797V35.898H565.683V38.4084H567.07V36.9466H570.185V33.9277H565.672ZM579.643 34.8175V35.9298H582.026V34.8175H579.643ZM579.643 36.8195V37.9529H582.026V36.8195H579.643ZM575.332 33.9807V38.6944H579.971V33.9807H578.594V35.2836H576.73V33.9807H575.332ZM576.73 36.3746H578.594V37.5928H576.73V36.3746ZM581.719 33.3875V39.2452H583.128V33.3875H581.719ZM579.802 39.4147C577.726 39.4147 576.444 40.1244 576.444 41.3108C576.444 42.5078 577.726 43.1963 579.802 43.1963C581.878 43.1963 583.16 42.5078 583.16 41.3108C583.16 40.1244 581.878 39.4147 579.802 39.4147ZM579.802 40.4952C581.084 40.4952 581.762 40.7494 581.762 41.3108C581.762 41.8616 581.084 42.1264 579.802 42.1264C578.531 42.1264 577.853 41.8616 577.853 41.3108C577.853 40.7494 578.531 40.4952 579.802 40.4952ZM587.216 38.419V40.5693H588.625V38.419H587.216ZM591.517 33.3875V40.8129H592.925V33.3875H591.517ZM585.86 41.904V43.0268H593.137V41.904H585.86ZM585.86 40.1138V42.2006H587.269V40.1138H585.86ZM584.801 38.8427C586.57 38.8427 588.868 38.7898 590.955 38.4402L590.87 37.4339C588.815 37.6987 586.422 37.7199 584.631 37.7199L584.801 38.8427ZM589.663 39.0863V40.0503H591.824V39.0863H589.663ZM587.788 33.7265C586.347 33.7265 585.341 34.4362 585.341 35.4743C585.341 36.5229 586.347 37.2221 587.788 37.2221C589.218 37.2221 590.224 36.5229 590.224 35.4743C590.224 34.4362 589.218 33.7265 587.788 33.7265ZM587.788 34.754C588.434 34.754 588.89 34.9976 588.89 35.4743C588.89 35.9509 588.434 36.1946 587.788 36.1946C587.131 36.1946 586.676 35.9509 586.676 35.4743C586.676 34.9976 587.131 34.754 587.788 34.754Z" fill="#515151"/>
<path d="M670.651 42.2535H675.375V40.993H673.903V34.6163H672.748C672.24 34.9235 671.71 35.1247 670.916 35.2836V36.2475H672.346V40.993H670.651V42.2535ZM679.6 42.2535H681.051V34.6163H679.176L676.263 39.2876V40.3575H681.983V39.1605H677.778L678.986 37.2432C679.208 36.8089 679.42 36.417 679.621 36.0039H679.664C679.642 36.4594 679.6 37.1903 679.6 37.6458V42.2535ZM684.005 42.4018C684.556 42.4018 684.979 41.9675 684.979 41.3849C684.979 40.8024 684.556 40.3786 684.005 40.3786C683.444 40.3786 683.041 40.8024 683.041 41.3849C683.041 41.9675 683.444 42.4018 684.005 42.4018ZM689.07 42.4018C690.405 42.4018 691.528 41.4273 691.528 39.8702C691.528 38.2707 690.585 37.5186 689.272 37.5186C688.742 37.5186 688.032 37.8682 687.608 38.4614L687.672 39.5206C688.075 38.8533 688.562 38.6203 688.986 38.6203C689.663 38.6203 690.108 39.0122 690.108 39.8702C690.108 40.7706 689.632 41.2261 689.028 41.2261C688.265 41.2261 687.672 40.5375 687.672 38.6415C687.672 36.4594 688.435 35.7391 689.377 35.7391C689.833 35.7391 690.31 35.9827 690.585 36.3005L691.411 35.3578C690.945 34.8811 690.246 34.4786 689.282 34.4786C687.704 34.4786 686.242 35.7285 686.242 38.6415C686.242 41.2684 687.577 42.4018 689.07 42.4018ZM692.818 42.2535H694.344V40.76L695.181 39.7961L696.621 42.2535H698.305L696.092 38.7686L698.125 36.3323H696.409L694.397 38.8745H694.344V33.8112H692.818V42.2535ZM699.211 42.2535H700.768V38.1754C701.171 37.7305 701.563 37.5186 701.891 37.5186C702.463 37.5186 702.728 37.8258 702.728 38.758V42.2535H704.285V38.1754C704.709 37.7305 705.08 37.5186 705.418 37.5186C705.99 37.5186 706.245 37.8258 706.245 38.758V42.2535H707.802V38.5567C707.802 37.0738 707.23 36.184 705.969 36.184C705.196 36.184 704.624 36.65 704.073 37.2115C703.798 36.5547 703.3 36.184 702.442 36.184C701.679 36.184 701.128 36.6077 700.631 37.1161H700.599L700.472 36.3323H699.211V42.2535Z" fill="#F4607A"/>
<path d="M621.084 42.2535H626.337V40.9401H624.643C624.272 40.9401 623.753 40.993 623.361 41.0354C624.791 39.6372 625.977 38.1118 625.977 36.6818C625.977 35.22 624.982 34.2773 623.509 34.2773C622.439 34.2773 621.73 34.6904 621.009 35.4637L621.867 36.3111C622.27 35.8662 622.725 35.4955 623.308 35.4955C624.06 35.4955 624.473 35.9827 624.473 36.7666C624.473 37.9741 623.223 39.4465 621.084 41.3638V42.2535ZM629.81 42.4018C631.251 42.4018 632.554 41.3955 632.554 39.6584C632.554 37.9423 631.452 37.1691 630.139 37.1691C629.778 37.1691 629.503 37.2432 629.196 37.3809L629.344 35.7179H632.194V34.415H627.999L627.776 38.2178L628.497 38.6838C628.952 38.3872 629.206 38.2707 629.672 38.2707C630.456 38.2707 630.986 38.7792 630.986 39.6901C630.986 40.6223 630.425 41.1413 629.598 41.1413C628.878 41.1413 628.317 40.7812 627.882 40.3469L627.151 41.332C627.745 41.9146 628.571 42.4018 629.81 42.4018ZM634.851 42.4018C635.401 42.4018 635.825 41.9675 635.825 41.3849C635.825 40.8024 635.401 40.3786 634.851 40.3786C634.289 40.3786 633.887 40.8024 633.887 41.3849C633.887 41.9675 634.289 42.4018 634.851 42.4018ZM639.694 42.4018C641.272 42.4018 642.331 41.5015 642.331 40.3151C642.331 39.2346 641.738 38.6097 641.018 38.2178V38.1648C641.526 37.7941 642.024 37.1479 642.024 36.364C642.024 35.1141 641.134 34.2879 639.746 34.2879C638.38 34.2879 637.374 35.0929 637.374 36.3535C637.374 37.1797 637.819 37.7835 638.412 38.2178V38.2601C637.692 38.6415 637.077 39.3088 637.077 40.3151C637.077 41.5438 638.189 42.4018 639.694 42.4018ZM640.191 37.7835C639.365 37.4551 638.751 37.0843 638.751 36.3535C638.751 35.7285 639.174 35.3789 639.715 35.3789C640.361 35.3789 640.753 35.8238 640.753 36.47C640.753 36.9361 640.573 37.3809 640.191 37.7835ZM639.725 41.3002C638.994 41.3002 638.412 40.8447 638.412 40.135C638.412 39.5524 638.708 39.0228 639.143 38.6838C640.149 39.1075 640.88 39.4359 640.88 40.2515C640.88 40.9295 640.403 41.3002 639.725 41.3002ZM643.251 38.4084V39.5206H652.128V38.4084H643.251ZM647.096 39.0016V41.0672H648.516V39.0016H647.096ZM644.278 41.904V43.0268H651.153V41.904H644.278ZM644.278 40.3257V42.3807H645.677V40.3257H644.278ZM644.384 33.6947V37.7305H650.994V33.6947H649.596V34.701H645.772V33.6947H644.384ZM645.772 35.7603H649.596V36.6289H645.772V35.7603Z" fill="#38D9A9"/>
<g opacity="0.8">
<path d="M549.404 61.7653V62.0725C549.404 63.1847 548.302 64.3923 546.131 64.6994L546.66 65.8011C549.16 65.4197 550.611 63.8838 550.611 62.0725V61.7653H549.404ZM549.637 61.7653V62.0725C549.637 63.8626 551.088 65.3985 553.588 65.7693L554.107 64.6677C551.946 64.3711 550.844 63.1529 550.844 62.0725V61.7653H549.637ZM545.686 66.3307V67.4535H554.562V66.3307H545.686ZM549.531 67.0404V69.106H550.95V67.0404H549.531ZM546.713 70.0275V71.1503H553.588V70.0275H546.713ZM546.713 68.2797V70.3771H548.111V68.2797H546.713ZM557.633 63.4283V63.8097C557.633 64.996 556.955 66.1824 555.366 66.6803L556.044 67.7819C557.909 67.1993 558.777 65.5998 558.777 63.8097V63.4283H557.633ZM557.888 63.4283V63.8097C557.888 65.5257 558.788 67.0722 560.642 67.623L561.32 66.5214C559.731 66.0447 559.042 64.9113 559.042 63.8097V63.4283H557.888ZM555.705 62.6657V63.7673H560.97V62.6657H555.705ZM557.633 61.5852V63.0788H559.042V61.5852H557.633ZM560.663 64.3605V65.5151H562.94V64.3605H560.663ZM562.23 61.5217V68.7776H563.639V61.5217H562.23ZM557.167 70.0275V71.1503H563.862V70.0275H557.167ZM557.167 68.1738V70.769H558.576V68.1738H557.167ZM572.462 62.9199V64.0639H574.157V62.9199H572.462ZM572.462 65.049V66.193H574.157V65.049H572.462ZM571.488 61.5111V67.7289H572.896V61.5111H571.488ZM569.708 67.8348C567.685 67.8348 566.414 68.481 566.414 69.5826C566.414 70.6737 567.685 71.3198 569.708 71.3198C571.731 71.3198 573.002 70.6737 573.002 69.5826C573.002 68.481 571.731 67.8348 569.708 67.8348ZM569.708 68.8941C570.947 68.8941 571.604 69.1166 571.604 69.5826C571.604 70.0487 570.947 70.2711 569.708 70.2711C568.469 70.2711 567.812 70.0487 567.812 69.5826C567.812 69.1166 568.469 68.8941 569.708 68.8941ZM565.174 62.4432V63.5342H570.947V62.4432H565.174ZM568.066 63.8626C566.636 63.8626 565.651 64.5723 565.651 65.621C565.651 66.6803 566.636 67.3794 568.066 67.3794C569.486 67.3794 570.471 66.6803 570.471 65.621C570.471 64.5723 569.486 63.8626 568.066 63.8626ZM568.066 64.8901C568.691 64.8901 569.125 65.1443 569.125 65.621C569.125 66.0977 568.691 66.3519 568.066 66.3519C567.431 66.3519 567.007 66.0977 567.007 65.621C567.007 65.1443 567.431 64.8901 568.066 64.8901ZM567.356 61.4475V63.0258H568.765V61.4475H567.356ZM579.643 62.9411V64.0533H582.026V62.9411H579.643ZM579.643 64.9431V66.0765H582.026V64.9431H579.643ZM575.332 62.1042V66.818H579.971V62.1042H578.594V63.4071H576.73V62.1042H575.332ZM576.73 64.4982H578.594V65.7163H576.73V64.4982ZM581.719 61.5111V67.3688H583.128V61.5111H581.719ZM579.802 67.5383C577.726 67.5383 576.444 68.248 576.444 69.4343C576.444 70.6313 577.726 71.3198 579.802 71.3198C581.878 71.3198 583.16 70.6313 583.16 69.4343C583.16 68.248 581.878 67.5383 579.802 67.5383ZM579.802 68.6187C581.084 68.6187 581.762 68.8729 581.762 69.4343C581.762 69.9851 581.084 70.25 579.802 70.25C578.531 70.25 577.853 69.9851 577.853 69.4343C577.853 68.8729 578.531 68.6187 579.802 68.6187ZM587.216 66.5426V68.6929H588.625V66.5426H587.216ZM591.517 61.5111V68.9365H592.925V61.5111H591.517ZM585.86 70.0275V71.1503H593.137V70.0275H585.86ZM585.86 68.2374V70.3241H587.269V68.2374H585.86ZM584.801 66.9663C586.57 66.9663 588.868 66.9133 590.955 66.5637L590.87 65.5574C588.815 65.8223 586.422 65.8434 584.631 65.8434L584.801 66.9663ZM589.663 67.2099V68.1738H591.824V67.2099H589.663ZM587.788 61.85C586.347 61.85 585.341 62.5597 585.341 63.5978C585.341 64.6465 586.347 65.3456 587.788 65.3456C589.218 65.3456 590.224 64.6465 590.224 63.5978C590.224 62.5597 589.218 61.85 587.788 61.85ZM587.788 62.8775C588.434 62.8775 588.89 63.1211 588.89 63.5978C588.89 64.0745 588.434 64.3181 587.788 64.3181C587.131 64.3181 586.676 64.0745 586.676 63.5978C586.676 63.1211 587.131 62.8775 587.788 62.8775Z" fill="#515151"/>
<path d="M670.651 70.3771H675.375V69.1166H673.903V62.7398H672.748C672.24 63.047 671.71 63.2482 670.916 63.4071V64.3711H672.346V69.1166H670.651V70.3771ZM676.486 70.3771H681.74V69.0636H680.024C679.653 69.0636 679.134 69.1166 678.742 69.1589C680.14 67.6971 681.38 66.3095 681.38 64.9854C681.38 63.5342 680.384 62.6021 678.912 62.6021C677.842 62.6021 677.132 63.0152 676.412 63.7885L677.27 64.6359C677.672 64.2122 678.128 63.8203 678.71 63.8203C679.462 63.8203 679.875 64.2863 679.875 65.0596C679.875 66.2036 678.53 67.5277 676.486 69.4873V70.3771ZM684.005 70.5254C684.556 70.5254 684.979 70.0911 684.979 69.5085C684.979 68.9259 684.556 68.5022 684.005 68.5022C683.444 68.5022 683.041 68.9259 683.041 69.5085C683.041 70.0911 683.444 70.5254 684.005 70.5254ZM686.592 70.3771H691.316V69.1166H689.844V62.7398H688.689C688.18 63.047 687.651 63.2482 686.856 63.4071V64.3711H688.286V69.1166H686.592V70.3771ZM692.818 70.3771H694.344V68.8835L695.181 67.9196L696.621 70.3771H698.305L696.092 66.8921L698.125 64.4558H696.409L694.397 66.998H694.344V61.9348H692.818V70.3771ZM699.211 70.3771H700.768V66.2989C701.171 65.854 701.563 65.6422 701.891 65.6422C702.463 65.6422 702.728 65.9494 702.728 66.8815V70.3771H704.285V66.2989C704.709 65.854 705.08 65.6422 705.418 65.6422C705.99 65.6422 706.245 65.9494 706.245 66.8815V70.3771H707.802V66.6803C707.802 65.1973 707.23 64.3075 705.969 64.3075C705.196 64.3075 704.624 64.7736 704.073 65.335C703.798 64.6783 703.3 64.3075 702.442 64.3075C701.679 64.3075 701.128 64.7312 700.631 65.2397H700.599L700.472 64.4558H699.211V70.3771Z" fill="#F4607A"/>
<path d="M623.374 70.5254C624.878 70.5254 626.139 69.6991 626.139 68.2586C626.139 67.2205 625.461 66.5743 624.571 66.3201V66.2671C625.408 65.9494 625.874 65.3244 625.874 64.4876C625.874 63.1423 624.847 62.4008 623.332 62.4008C622.421 62.4008 621.669 62.7716 620.991 63.3542L621.785 64.3181C622.251 63.8838 622.707 63.619 623.268 63.619C623.936 63.619 624.317 63.9897 624.317 64.6041C624.317 65.3032 623.851 65.7905 622.41 65.7905V66.9133C624.116 66.9133 624.571 67.39 624.571 68.1632C624.571 68.8623 624.031 69.2649 623.226 69.2649C622.516 69.2649 621.955 68.9047 621.489 68.4492L620.747 69.4343C621.298 70.0699 622.135 70.5254 623.374 70.5254ZM629.622 70.5254C631.126 70.5254 632.387 69.6991 632.387 68.2586C632.387 67.2205 631.709 66.5743 630.819 66.3201V66.2671C631.656 65.9494 632.122 65.3244 632.122 64.4876C632.122 63.1423 631.095 62.4008 629.58 62.4008C628.669 62.4008 627.917 62.7716 627.239 63.3542L628.033 64.3181C628.499 63.8838 628.955 63.619 629.516 63.619C630.184 63.619 630.565 63.9897 630.565 64.6041C630.565 65.3032 630.099 65.7905 628.658 65.7905V66.9133C630.364 66.9133 630.819 67.39 630.819 68.1632C630.819 68.8623 630.279 69.2649 629.474 69.2649C628.764 69.2649 628.203 68.9047 627.737 68.4492L626.995 69.4343C627.546 70.0699 628.383 70.5254 629.622 70.5254ZM634.694 70.5254C635.245 70.5254 635.669 70.0911 635.669 69.5085C635.669 68.9259 635.245 68.5022 634.694 68.5022C634.133 68.5022 633.73 68.9259 633.73 69.5085C633.73 70.0911 634.133 70.5254 634.694 70.5254ZM637.281 70.3771H642.005V69.1166H640.533V62.5385H639.378C638.87 62.8457 638.34 63.047 637.546 63.1953V64.1592H638.976V69.1166H637.281V70.3771ZM643.095 66.532V67.6442H651.971V66.532H643.095ZM646.94 67.1251V69.1907H648.359V67.1251H646.94ZM644.122 70.0275V71.1503H650.997V70.0275H644.122ZM644.122 68.4492V70.5042H645.52V68.4492H644.122ZM644.228 61.8182V65.854H650.838V61.8182H649.44V62.8245H645.616V61.8182H644.228ZM645.616 63.8838H649.44V64.7524H645.616V63.8838Z" fill="#38D9A9"/>
</g>
<g opacity="0.6">
<path d="M547.836 92.1769V92.6854C547.836 94.1578 547.105 95.8208 545.506 96.5517L546.268 97.6321C548.048 96.8377 548.927 94.7509 548.927 92.6854V92.1769H547.836ZM548.143 92.1769V92.6854C548.143 94.6556 548.98 96.6682 550.707 97.4627L551.459 96.3928C549.923 95.6513 549.234 94.0836 549.234 92.6854V92.1769H548.143ZM545.845 91.2342V92.3464H551.183V91.2342H545.845ZM547.825 89.8572V91.8062H549.234V89.8572H547.825ZM551.956 89.6347V99.4435H553.376V89.6347H551.956ZM553.058 93.4375V94.6027H554.795V93.4375H553.058ZM560.154 91.0647V92.1769H562.538V91.0647H560.154ZM560.154 93.0667V94.2001H562.538V93.0667H560.154ZM555.843 90.2279V94.9416H560.483V90.2279H559.106V91.5308H557.241V90.2279H555.843ZM557.241 92.6218H559.106V93.84H557.241V92.6218ZM562.23 89.6347V95.4924H563.639V89.6347H562.23ZM560.313 95.6619C558.237 95.6619 556.955 96.3716 556.955 97.558C556.955 98.755 558.237 99.4435 560.313 99.4435C562.389 99.4435 563.671 98.755 563.671 97.558C563.671 96.3716 562.389 95.6619 560.313 95.6619ZM560.313 96.7424C561.595 96.7424 562.273 96.9966 562.273 97.558C562.273 98.1088 561.595 98.3736 560.313 98.3736C559.042 98.3736 558.364 98.1088 558.364 97.558C558.364 96.9966 559.042 96.7424 560.313 96.7424ZM567.727 94.6662V96.8165H569.136V94.6662H567.727ZM572.028 89.6347V97.0601H573.437V89.6347H572.028ZM566.371 98.1512V99.274H573.648V98.1512H566.371ZM566.371 96.361V98.4478H567.78V96.361H566.371ZM565.312 95.0899C567.081 95.0899 569.38 95.0369 571.466 94.6874L571.382 93.6811C569.327 93.9459 566.933 93.9671 565.143 93.9671L565.312 95.0899ZM570.174 95.3335V96.2975H572.335V95.3335H570.174ZM568.299 89.9737C566.859 89.9737 565.852 90.6834 565.852 91.7215C565.852 92.7701 566.859 93.4692 568.299 93.4692C569.729 93.4692 570.736 92.7701 570.736 91.7215C570.736 90.6834 569.729 89.9737 568.299 89.9737ZM568.299 91.0012C568.945 91.0012 569.401 91.2448 569.401 91.7215C569.401 92.1981 568.945 92.4418 568.299 92.4418C567.642 92.4418 567.187 92.1981 567.187 91.7215C567.187 91.2448 567.642 91.0012 568.299 91.0012Z" fill="#515151"/>
<path d="M670.651 98.5007H675.375V97.2402H673.903V90.8635H672.748C672.24 91.1706 671.71 91.3719 670.916 91.5308V92.4947H672.346V97.2402H670.651V98.5007ZM679.378 98.649C680.712 98.649 681.835 97.6745 681.835 96.1174C681.835 94.5179 680.892 93.7658 679.579 93.7658C679.049 93.7658 678.34 94.1154 677.916 94.7086L677.979 95.7678C678.382 95.1005 678.869 94.8675 679.293 94.8675C679.971 94.8675 680.416 95.2594 680.416 96.1174C680.416 97.0178 679.939 97.4732 679.335 97.4732C678.573 97.4732 677.979 96.7847 677.979 94.8887C677.979 92.7066 678.742 91.9863 679.685 91.9863C680.14 91.9863 680.617 92.2299 680.892 92.5477L681.719 91.6049C681.253 91.1283 680.553 90.7258 679.589 90.7258C678.011 90.7258 676.549 91.9757 676.549 94.8887C676.549 97.5156 677.884 98.649 679.378 98.649ZM684.005 98.649C684.556 98.649 684.979 98.2147 684.979 97.6321C684.979 97.0495 684.556 96.6258 684.005 96.6258C683.444 96.6258 683.041 97.0495 683.041 97.6321C683.041 98.2147 683.444 98.649 684.005 98.649ZM686.178 98.5007H691.432V97.1872H689.716C689.346 97.1872 688.827 97.2402 688.435 97.2826C689.833 95.8208 691.072 94.4332 691.072 93.1091C691.072 91.6579 690.077 90.7258 688.604 90.7258C687.534 90.7258 686.825 91.1389 686.104 91.9121L686.962 92.7595C687.365 92.3358 687.82 91.9439 688.403 91.9439C689.155 91.9439 689.568 92.41 689.568 93.1832C689.568 94.3272 688.223 95.6513 686.178 97.611V98.5007ZM692.818 98.5007H694.344V97.0072L695.181 96.0432L696.621 98.5007H698.305L696.092 95.0158L698.125 92.5795H696.409L694.397 95.1217H694.344V90.0584H692.818V98.5007ZM699.211 98.5007H700.768V94.4226C701.171 93.9777 701.563 93.7658 701.891 93.7658C702.463 93.7658 702.728 94.073 702.728 95.0052V98.5007H704.285V94.4226C704.709 93.9777 705.08 93.7658 705.418 93.7658C705.99 93.7658 706.245 94.073 706.245 95.0052V98.5007H707.802V94.8039C707.802 93.3209 707.23 92.4312 705.969 92.4312C705.196 92.4312 704.624 92.8972 704.073 93.4587C703.798 92.8019 703.3 92.4312 702.442 92.4312C701.679 92.4312 701.128 92.8549 700.631 93.3633H700.599L700.472 92.5795H699.211V98.5007Z" fill="#F4607A"/>
<path d="M624.355 98.5007H625.806V90.6622H623.931L621.018 95.4077V96.4775H626.738V95.2806H622.533L623.741 93.3315C623.963 92.9078 624.175 92.4735 624.376 92.0498H624.419C624.397 92.5159 624.355 93.2256 624.355 93.6811V98.5007ZM627.489 98.5007H632.743V97.1872H631.048C630.677 97.1872 630.158 97.2402 629.766 97.2826C631.196 95.8844 632.383 94.359 632.383 92.929C632.383 91.4672 631.387 90.5245 629.914 90.5245C628.845 90.5245 628.135 90.9376 627.415 91.7109L628.273 92.5583C628.675 92.1134 629.131 91.7426 629.713 91.7426C630.465 91.7426 630.878 92.2299 630.878 93.0138C630.878 94.2213 629.628 95.6937 627.489 97.611V98.5007ZM635.008 98.649C635.559 98.649 635.982 98.2147 635.982 97.6321C635.982 97.0495 635.559 96.6258 635.008 96.6258C634.446 96.6258 634.044 97.0495 634.044 97.6321C634.044 98.2147 634.446 98.649 635.008 98.649ZM639.628 98.649C641.132 98.649 642.393 97.8228 642.393 96.3822C642.393 95.3441 641.715 94.698 640.825 94.4438V94.3908C641.662 94.073 642.128 93.4481 642.128 92.6112C642.128 91.266 641.101 90.5245 639.586 90.5245C638.675 90.5245 637.923 90.8952 637.245 91.4778L638.039 92.4418C638.505 92.0075 638.961 91.7426 639.522 91.7426C640.19 91.7426 640.571 92.1134 640.571 92.7278C640.571 93.4269 640.105 93.9141 638.664 93.9141V95.0369C640.37 95.0369 640.825 95.5136 640.825 96.2869C640.825 96.986 640.285 97.3885 639.48 97.3885C638.77 97.3885 638.209 97.0284 637.743 96.5729L637.001 97.558C637.552 98.1935 638.389 98.649 639.628 98.649ZM643.408 94.6556V95.7678H652.285V94.6556H643.408ZM647.253 95.2488V97.3144H648.673V95.2488H647.253ZM644.436 98.1512V99.274H651.31V98.1512H644.436ZM644.436 96.5729V98.6278H645.834V96.5729H644.436ZM644.542 89.9419V93.9777H651.151V89.9419H649.753V90.9482H645.929V89.9419H644.542ZM645.929 92.0075H649.753V92.8761H645.929V92.0075Z" fill="#38D9A9"/>
</g>
<g opacity="0.4">
<path d="M547.889 118.267V119.082C547.889 120.417 547.2 121.73 545.559 122.281L546.3 123.394C548.186 122.737 549.044 121.031 549.044 119.082V118.267H547.889ZM548.175 118.267V119.051C548.175 120.894 549.001 122.493 550.781 123.118L551.512 122.016C549.965 121.508 549.308 120.279 549.308 119.051V118.267H548.175ZM551.999 117.758V123.425H553.408V117.758H551.999ZM553.016 119.972V121.127H554.711V119.972H553.016ZM547.031 123.817V127.461H553.408V123.817H547.031ZM552.031 124.919V126.349H548.419V124.919H552.031ZM557.707 118.267V119.146C557.707 120.491 557.019 121.815 555.345 122.355L556.076 123.489C558.004 122.843 558.883 121.116 558.883 119.146V118.267H557.707ZM558.004 118.267V119.082C558.004 120.989 558.788 122.567 560.599 123.192L561.33 122.091C559.773 121.593 559.137 120.385 559.137 119.082V118.267H558.004ZM562.23 117.758V123.499H563.639V117.758H562.23ZM560.313 123.754C558.237 123.754 556.955 124.463 556.955 125.66C556.955 126.868 558.237 127.567 560.313 127.567C562.389 127.567 563.671 126.868 563.671 125.66C563.671 124.463 562.389 123.754 560.313 123.754ZM560.313 124.845C561.595 124.845 562.273 125.11 562.273 125.66C562.273 126.211 561.595 126.487 560.313 126.487C559.042 126.487 558.364 126.211 558.364 125.66C558.364 125.11 559.042 124.845 560.313 124.845ZM560.44 119.538V120.682H562.432V119.538H560.44ZM569.899 119.188V120.3H572.282V119.188H569.899ZM569.899 121.19V122.324H572.282V121.19H569.899ZM565.588 118.351V123.065H570.227V118.351H568.85V119.654H566.986V118.351H565.588ZM566.986 120.745H568.85V121.964H566.986V120.745ZM571.975 117.758V123.616H573.384V117.758H571.975ZM570.058 123.785C567.981 123.785 566.7 124.495 566.7 125.682C566.7 126.878 567.981 127.567 570.058 127.567C572.134 127.567 573.415 126.878 573.415 125.682C573.415 124.495 572.134 123.785 570.058 123.785ZM570.058 124.866C571.339 124.866 572.017 125.12 572.017 125.682C572.017 126.232 571.339 126.497 570.058 126.497C568.786 126.497 568.109 126.232 568.109 125.682C568.109 125.12 568.786 124.866 570.058 124.866ZM577.472 122.79V124.94H578.88V122.79H577.472ZM581.772 117.758V125.184H583.181V117.758H581.772ZM576.116 126.275V127.398H583.393V126.275H576.116ZM576.116 124.485V126.571H577.525V124.485H576.116ZM575.056 123.213C576.825 123.213 579.124 123.16 581.211 122.811L581.126 121.805C579.071 122.069 576.677 122.091 574.887 122.091L575.056 123.213ZM579.918 123.457V124.421H582.079V123.457H579.918ZM578.044 118.097C576.603 118.097 575.597 118.807 575.597 119.845C575.597 120.894 576.603 121.593 578.044 121.593C579.474 121.593 580.48 120.894 580.48 119.845C580.48 118.807 579.474 118.097 578.044 118.097ZM578.044 119.125C578.69 119.125 579.145 119.368 579.145 119.845C579.145 120.322 578.69 120.565 578.044 120.565C577.387 120.565 576.931 120.322 576.931 119.845C576.931 119.368 577.387 119.125 578.044 119.125Z" fill="#515151"/>
<path d="M670.651 126.624H675.375V125.364H673.903V118.987H672.748C672.24 119.294 671.71 119.495 670.916 119.654V120.618H672.346V125.364H670.651V126.624ZM678.71 126.773C680.289 126.773 681.75 125.512 681.75 122.61C681.75 119.983 680.416 118.849 678.922 118.849C677.587 118.849 676.465 119.824 676.465 121.381C676.465 122.98 677.397 123.732 678.71 123.732C679.251 123.732 679.96 123.383 680.395 122.79L680.31 121.73C679.928 122.387 679.431 122.631 679.007 122.631C678.329 122.631 677.884 122.239 677.884 121.381C677.884 120.47 678.361 120.014 678.954 120.014C679.717 120.014 680.32 120.703 680.32 122.61C680.32 124.792 679.568 125.512 678.615 125.512C678.17 125.512 677.683 125.268 677.407 124.94L676.581 125.883C677.037 126.37 677.746 126.773 678.71 126.773ZM684.005 126.773C684.556 126.773 684.979 126.338 684.979 125.756C684.979 125.173 684.556 124.749 684.005 124.749C683.444 124.749 683.041 125.173 683.041 125.756C683.041 126.338 683.444 126.773 684.005 126.773ZM689.07 126.773C690.405 126.773 691.528 125.798 691.528 124.241C691.528 122.641 690.585 121.889 689.272 121.889C688.742 121.889 688.032 122.239 687.608 122.832L687.672 123.891C688.075 123.224 688.562 122.991 688.986 122.991C689.663 122.991 690.108 123.383 690.108 124.241C690.108 125.141 689.632 125.597 689.028 125.597C688.265 125.597 687.672 124.908 687.672 123.012C687.672 120.83 688.435 120.11 689.377 120.11C689.833 120.11 690.31 120.353 690.585 120.671L691.411 119.728C690.945 119.252 690.246 118.849 689.282 118.849C687.704 118.849 686.242 120.099 686.242 123.012C686.242 125.639 687.577 126.773 689.07 126.773ZM692.818 126.624H694.344V125.131L695.181 124.167L696.621 126.624H698.305L696.092 123.139L698.125 120.703H696.409L694.397 123.245H694.344V118.182H692.818V126.624ZM699.211 126.624H700.768V122.546C701.171 122.101 701.563 121.889 701.891 121.889C702.463 121.889 702.728 122.197 702.728 123.129V126.624H704.285V122.546C704.709 122.101 705.08 121.889 705.418 121.889C705.99 121.889 706.245 122.197 706.245 123.129V126.624H707.802V122.927C707.802 121.444 707.23 120.555 705.969 120.555C705.196 120.555 704.624 121.021 704.073 121.582C703.798 120.925 703.3 120.555 702.442 120.555C701.679 120.555 701.128 120.978 700.631 121.487H700.599L700.472 120.703H699.211V126.624Z" fill="#F4607A"/>
<path d="M623.406 126.773C624.847 126.773 626.149 125.766 626.149 124.029C626.149 122.313 625.048 121.54 623.734 121.54C623.374 121.54 623.099 121.614 622.792 121.752L622.94 120.089H625.789V118.786H621.595L621.372 122.588L622.092 123.055C622.548 122.758 622.802 122.641 623.268 122.641C624.052 122.641 624.582 123.15 624.582 124.061C624.582 124.993 624.02 125.512 623.194 125.512C622.474 125.512 621.912 125.152 621.478 124.718L620.747 125.703C621.34 126.285 622.167 126.773 623.406 126.773ZM627.175 126.624H632.429V125.311H630.734C630.364 125.311 629.845 125.364 629.453 125.406C630.883 124.008 632.069 122.483 632.069 121.053C632.069 119.591 631.073 118.648 629.601 118.648C628.531 118.648 627.821 119.061 627.101 119.834L627.959 120.682C628.362 120.237 628.817 119.866 629.4 119.866C630.152 119.866 630.565 120.353 630.565 121.137C630.565 122.345 629.315 123.817 627.175 125.734V126.624ZM634.694 126.773C635.245 126.773 635.669 126.338 635.669 125.756C635.669 125.173 635.245 124.749 634.694 124.749C634.133 124.749 633.73 125.173 633.73 125.756C633.73 126.338 634.133 126.773 634.694 126.773ZM637.281 126.624H642.005V125.364H640.533V118.786H639.378C638.87 119.093 638.34 119.294 637.546 119.442V120.406H638.976V125.364H637.281V126.624ZM643.095 122.779V123.891H651.971V122.779H643.095ZM646.94 123.372V125.438H648.359V123.372H646.94ZM644.122 126.275V127.398H650.997V126.275H644.122ZM644.122 124.696V126.751H645.52V124.696H644.122ZM644.228 118.065V122.101H650.838V118.065H649.44V119.072H645.616V118.065H644.228ZM645.616 120.131H649.44V121H645.616V120.131Z" fill="#38D9A9"/>
</g>
</svg>
