<svg width="20" height="17" viewBox="0 0 20 17" fill="none" xmlns="http://www.w3.org/2000/svg">
<path d="M0.599121 2.34497H16.8653C18.4437 2.34497 19.7233 3.62454 19.7233 5.20296V15.1152H0.599121V2.34497Z" fill="#D9D9D9"/>
<path d="M0.599121 2.34483C0.599121 1.58795 1.2127 0.974365 1.96959 0.974365H7.07768C7.83457 0.974365 8.44814 1.58795 8.44814 2.34483H0.599121Z" fill="#D9D9D9"/>
<path d="M0.599121 7.06209C0.599121 5.48367 1.87869 4.2041 3.45711 4.2041H16.8653C18.4437 4.2041 19.7233 5.48367 19.7233 7.06209V14.1164C19.7233 15.6948 18.4437 16.9744 16.8653 16.9744H3.45711C1.87868 16.9744 0.599121 15.6948 0.599121 14.1164V7.06209Z" fill="#A8A8A8"/>
</svg>
