<svg width="857" height="16" viewBox="0 0 857 16" fill="none" xmlns="http://www.w3.org/2000/svg">
<path d="M3.5 12.3191C2.89333 12.3191 2.324 12.2211 1.792 12.0251C1.26 11.8198 0.802667 11.5165 0.42 11.1151L0.896 10.2471C1.316 10.6391 1.736 10.9191 2.156 11.0871C2.576 11.2551 3.00533 11.3391 3.444 11.3391C3.948 11.3391 4.35867 11.2458 4.676 11.0591C4.99333 10.8631 5.152 10.5785 5.152 10.2051C5.152 9.93447 5.068 9.7338 4.9 9.60314C4.74133 9.47247 4.51267 9.36514 4.214 9.28114C3.91533 9.1878 3.56067 9.08514 3.15 8.97314C2.646 8.8238 2.22133 8.66514 1.876 8.49714C1.53067 8.32914 1.26933 8.11914 1.092 7.86714C0.914667 7.61514 0.826 7.2978 0.826 6.91514C0.826 6.44847 0.947333 6.05647 1.19 5.73914C1.43267 5.41247 1.764 5.16514 2.184 4.99714C2.61333 4.82914 3.09867 4.74514 3.64 4.74514C4.18133 4.74514 4.67133 4.82914 5.11 4.99714C5.54867 5.16514 5.92667 5.41247 6.244 5.73914L5.684 6.59314C5.39467 6.29447 5.07733 6.07514 4.732 5.93514C4.38667 5.7858 3.99933 5.71114 3.57 5.71114C3.318 5.71114 3.07067 5.7438 2.828 5.80914C2.58533 5.86514 2.38467 5.97247 2.226 6.13114C2.06733 6.28047 1.988 6.49514 1.988 6.77514C1.988 7.00847 2.04867 7.19514 2.17 7.33514C2.30067 7.4658 2.48733 7.5778 2.73 7.67114C2.982 7.76447 3.28533 7.86714 3.64 7.97914C4.19067 8.1378 4.66667 8.29647 5.068 8.45514C5.47867 8.6138 5.796 8.81914 6.02 9.07114C6.244 9.32314 6.356 9.67314 6.356 10.1211C6.356 10.8118 6.09467 11.3531 5.572 11.7451C5.04933 12.1278 4.35867 12.3191 3.5 12.3191ZM11.7639 12.3191C11.1666 12.3191 10.6346 12.1698 10.1679 11.8711C9.70127 11.5725 9.3326 11.1945 9.06194 10.7371V15.1611H7.82994V4.87114H8.92194V6.24314C9.21127 5.79514 9.58927 5.4358 10.0559 5.16514C10.5226 4.88514 11.0313 4.74514 11.5819 4.74514C12.0859 4.74514 12.5479 4.8478 12.9679 5.05314C13.3879 5.25847 13.7519 5.53847 14.0599 5.89314C14.3679 6.2478 14.6059 6.6538 14.7739 7.11114C14.9513 7.55914 15.0399 8.03047 15.0399 8.52514C15.0399 9.2158 14.8999 9.85047 14.6199 10.4291C14.3493 11.0078 13.9666 11.4698 13.4719 11.8151C12.9773 12.1511 12.4079 12.3191 11.7639 12.3191ZM11.3859 11.2551C11.7499 11.2551 12.0766 11.1805 12.3659 11.0311C12.6646 10.8725 12.9166 10.6671 13.1219 10.4151C13.3366 10.1538 13.4999 9.8598 13.6119 9.53314C13.7239 9.20647 13.7799 8.87047 13.7799 8.52514C13.7799 8.16114 13.7146 7.8158 13.5839 7.48914C13.4626 7.16247 13.2853 6.87314 13.0519 6.62114C12.8279 6.36914 12.5619 6.17314 12.2539 6.03314C11.9553 5.8838 11.6286 5.80914 11.2739 5.80914C11.0499 5.80914 10.8166 5.85114 10.5739 5.93514C10.3406 6.01914 10.1166 6.14047 9.90194 6.29914C9.68727 6.44847 9.50527 6.62114 9.35594 6.81714C9.2066 7.01314 9.1086 7.22314 9.06194 7.44714V9.53314C9.20194 9.85047 9.3886 10.1398 9.62194 10.4011C9.85527 10.6625 10.1259 10.8725 10.4339 11.0311C10.7419 11.1805 11.0593 11.2551 11.3859 11.2551ZM15.9786 10.0651C15.9786 9.59847 16.1093 9.19714 16.3706 8.86114C16.6413 8.5158 17.0099 8.2498 17.4766 8.06314C17.9433 7.87647 18.4846 7.78314 19.1006 7.78314C19.4273 7.78314 19.7726 7.81114 20.1366 7.86714C20.5006 7.9138 20.8226 7.98847 21.1026 8.09114V7.55914C21.1026 6.99914 20.9346 6.56047 20.5986 6.24314C20.2626 5.91647 19.7866 5.75314 19.1706 5.75314C18.7693 5.75314 18.3819 5.8278 18.0086 5.97714C17.6446 6.11714 17.2573 6.32247 16.8466 6.59314L16.3986 5.72514C16.8746 5.39847 17.3506 5.1558 17.8266 4.99714C18.3026 4.82914 18.7973 4.74514 19.3106 4.74514C20.2439 4.74514 20.9813 5.00647 21.5226 5.52914C22.0639 6.04247 22.3346 6.76114 22.3346 7.68514V10.7791C22.3346 10.9285 22.3626 11.0405 22.4186 11.1151C22.4839 11.1805 22.5866 11.2178 22.7266 11.2271V12.1791C22.6053 12.1978 22.4979 12.2118 22.4046 12.2211C22.3206 12.2305 22.2506 12.2351 22.1946 12.2351C21.9053 12.2351 21.6859 12.1558 21.5366 11.9971C21.3966 11.8385 21.3173 11.6705 21.2986 11.4931L21.2706 11.0311C20.9533 11.4418 20.5379 11.7591 20.0246 11.9831C19.5113 12.2071 19.0026 12.3191 18.4986 12.3191C18.0133 12.3191 17.5793 12.2211 17.1966 12.0251C16.8139 11.8198 16.5153 11.5491 16.3006 11.2131C16.0859 10.8678 15.9786 10.4851 15.9786 10.0651ZM20.7386 10.5831C20.8506 10.4525 20.9393 10.3218 21.0046 10.1911C21.0699 10.0511 21.1026 9.93447 21.1026 9.84114V8.93114C20.8133 8.81914 20.5099 8.73514 20.1926 8.67914C19.8753 8.6138 19.5626 8.58114 19.2546 8.58114C18.6293 8.58114 18.1206 8.70714 17.7286 8.95914C17.3459 9.2018 17.1546 9.5378 17.1546 9.96714C17.1546 10.2005 17.2153 10.4291 17.3366 10.6531C17.4673 10.8678 17.6539 11.0451 17.8966 11.1851C18.1486 11.3251 18.4566 11.3951 18.8206 11.3951C19.2033 11.3951 19.5673 11.3205 19.9126 11.1711C20.2579 11.0125 20.5333 10.8165 20.7386 10.5831ZM27.5385 12.3191C26.9879 12.3191 26.4839 12.2211 26.0265 12.0251C25.5785 11.8198 25.1865 11.5398 24.8505 11.1851C24.5239 10.8305 24.2672 10.4245 24.0805 9.96714C23.9032 9.5098 23.8145 9.02447 23.8145 8.51114C23.8145 7.82047 23.9685 7.19047 24.2765 6.62114C24.5845 6.0518 25.0185 5.59914 25.5785 5.26314C26.1385 4.9178 26.7872 4.74514 27.5245 4.74514C28.2432 4.74514 28.8685 4.90847 29.4005 5.23514C29.9419 5.55247 30.3432 5.9818 30.6045 6.52314L29.4005 6.90114C29.2139 6.5558 28.9525 6.2898 28.6165 6.10314C28.2805 5.90714 27.9072 5.80914 27.4965 5.80914C27.0485 5.80914 26.6379 5.9258 26.2645 6.15914C25.9005 6.39247 25.6112 6.71447 25.3965 7.12514C25.1819 7.52647 25.0745 7.98847 25.0745 8.51114C25.0745 9.02447 25.1819 9.49114 25.3965 9.91114C25.6205 10.3218 25.9145 10.6485 26.2785 10.8911C26.6519 11.1338 27.0625 11.2551 27.5105 11.2551C27.7999 11.2551 28.0752 11.2038 28.3365 11.1011C28.6072 10.9985 28.8405 10.8631 29.0365 10.6951C29.2419 10.5178 29.3819 10.3265 29.4565 10.1211L30.6605 10.4851C30.5112 10.8398 30.2825 11.1571 29.9745 11.4371C29.6759 11.7078 29.3165 11.9225 28.8965 12.0811C28.4859 12.2398 28.0332 12.3191 27.5385 12.3191ZM35.2221 12.3191C34.6715 12.3191 34.1675 12.2211 33.7101 12.0251C33.2621 11.8198 32.8701 11.5445 32.5341 11.1991C32.2075 10.8445 31.9508 10.4385 31.7641 9.98114C31.5868 9.5238 31.4981 9.03847 31.4981 8.52514C31.4981 7.83447 31.6568 7.20447 31.9741 6.63514C32.2915 6.0658 32.7301 5.60847 33.2901 5.26314C33.8595 4.9178 34.5081 4.74514 35.2361 4.74514C35.9735 4.74514 36.6128 4.92247 37.1541 5.27714C37.7048 5.62247 38.1295 6.0798 38.4281 6.64914C38.7361 7.20914 38.8901 7.8158 38.8901 8.46914C38.8901 8.56247 38.8855 8.6558 38.8761 8.74914C38.8761 8.83314 38.8715 8.89847 38.8621 8.94514H32.8001C32.8375 9.42114 32.9681 9.8458 33.1921 10.2191C33.4255 10.5831 33.7241 10.8725 34.0881 11.0871C34.4521 11.2925 34.8441 11.3951 35.2641 11.3951C35.7121 11.3951 36.1321 11.2831 36.5241 11.0591C36.9255 10.8351 37.2008 10.5411 37.3501 10.1771L38.4141 10.4711C38.2555 10.8258 38.0175 11.1431 37.7001 11.4231C37.3921 11.7031 37.0235 11.9225 36.5941 12.0811C36.1741 12.2398 35.7168 12.3191 35.2221 12.3191ZM32.7581 8.09114H37.7421C37.7048 7.61514 37.5695 7.19514 37.3361 6.83114C37.1028 6.46714 36.8041 6.18247 36.4401 5.97714C36.0761 5.7718 35.6748 5.66914 35.2361 5.66914C34.8068 5.66914 34.4101 5.7718 34.0461 5.97714C33.6821 6.18247 33.3835 6.46714 33.1501 6.83114C32.9261 7.19514 32.7955 7.61514 32.7581 8.09114ZM51.2776 12.1791H50.0456V8.09114C50.0456 7.3258 49.9196 6.76114 49.6676 6.39714C49.425 6.03314 49.061 5.85114 48.5756 5.85114C48.081 5.85114 47.633 6.03314 47.2316 6.39714C46.8303 6.7518 46.5456 7.2138 46.3776 7.78314V12.1791H45.1456V8.09114C45.1456 7.31647 45.0243 6.7518 44.7816 6.39714C44.539 6.03314 44.175 5.85114 43.6896 5.85114C43.2043 5.85114 42.7563 6.02847 42.3456 6.38314C41.9443 6.72847 41.6596 7.19047 41.4916 7.76914V12.1791H40.2596V4.87114H41.3796V6.43914C41.6783 5.8978 42.0656 5.48247 42.5416 5.19314C43.0176 4.89447 43.5543 4.74514 44.1516 4.74514C44.7583 4.74514 45.2436 4.91314 45.6076 5.24914C45.9716 5.5758 46.1956 6.00047 46.2796 6.52314C46.6063 5.94447 47.003 5.5058 47.4696 5.20714C47.9363 4.89914 48.4683 4.74514 49.0656 4.74514C49.4856 4.74514 49.8356 4.82447 50.1156 4.98314C50.405 5.13247 50.6336 5.34714 50.8016 5.62714C50.9696 5.8978 51.091 6.2198 51.1656 6.59314C51.2403 6.96647 51.2776 7.37247 51.2776 7.81114V12.1791ZM56.4272 12.3191C55.8766 12.3191 55.3726 12.2211 54.9152 12.0251C54.4672 11.8198 54.0752 11.5445 53.7392 11.1991C53.4126 10.8445 53.1559 10.4385 52.9692 9.98114C52.7919 9.5238 52.7032 9.03847 52.7032 8.52514C52.7032 7.83447 52.8619 7.20447 53.1792 6.63514C53.4966 6.0658 53.9352 5.60847 54.4952 5.26314C55.0646 4.9178 55.7132 4.74514 56.4412 4.74514C57.1786 4.74514 57.8179 4.92247 58.3592 5.27714C58.9099 5.62247 59.3346 6.0798 59.6332 6.64914C59.9412 7.20914 60.0952 7.8158 60.0952 8.46914C60.0952 8.56247 60.0906 8.6558 60.0812 8.74914C60.0812 8.83314 60.0766 8.89847 60.0672 8.94514H54.0052C54.0426 9.42114 54.1732 9.8458 54.3972 10.2191C54.6306 10.5831 54.9292 10.8725 55.2932 11.0871C55.6572 11.2925 56.0492 11.3951 56.4692 11.3951C56.9172 11.3951 57.3372 11.2831 57.7292 11.0591C58.1306 10.8351 58.4059 10.5411 58.5552 10.1771L59.6192 10.4711C59.4606 10.8258 59.2226 11.1431 58.9052 11.4231C58.5972 11.7031 58.2286 11.9225 57.7992 12.0811C57.3792 12.2398 56.9219 12.3191 56.4272 12.3191ZM53.9632 8.09114H58.9472C58.9099 7.61514 58.7746 7.19514 58.5412 6.83114C58.3079 6.46714 58.0092 6.18247 57.6452 5.97714C57.2812 5.7718 56.8799 5.66914 56.4412 5.66914C56.0119 5.66914 55.6152 5.7718 55.2512 5.97714C54.8872 6.18247 54.5886 6.46714 54.3552 6.83114C54.1312 7.19514 54.0006 7.61514 53.9632 8.09114ZM67.8067 12.1791H66.5747V8.09114C66.5747 7.31647 66.4534 6.7518 66.2107 6.39714C65.9774 6.03314 65.618 5.85114 65.1327 5.85114C64.7967 5.85114 64.4607 5.93514 64.1247 6.10314C63.798 6.27114 63.504 6.4998 63.2427 6.78914C62.9907 7.06914 62.8087 7.3958 62.6967 7.76914V12.1791H61.4647V4.87114H62.5847V6.43914C62.7807 6.0938 63.0327 5.79514 63.3407 5.54314C63.6487 5.29114 63.9987 5.09514 64.3907 4.95514C64.7827 4.81514 65.1934 4.74514 65.6227 4.74514C66.0427 4.74514 66.3927 4.82447 66.6727 4.98314C66.962 5.13247 67.186 5.34714 67.3447 5.62714C67.5127 5.8978 67.6294 6.2198 67.6947 6.59314C67.7694 6.96647 67.8067 7.37247 67.8067 7.81114V12.1791ZM73.4342 11.8151C73.3315 11.8618 73.1915 11.9225 73.0142 11.9971C72.8368 12.0718 72.6315 12.1371 72.3982 12.1931C72.1648 12.2491 71.9175 12.2771 71.6562 12.2771C71.3575 12.2771 71.0822 12.2258 70.8302 12.1231C70.5782 12.0111 70.3775 11.8431 70.2282 11.6191C70.0788 11.3858 70.0042 11.0965 70.0042 10.7511V5.83714H69.0102V4.87114H70.0042V2.43514H71.2362V4.87114H72.8742V5.83714H71.2362V10.3731C71.2548 10.6345 71.3435 10.8305 71.5022 10.9611C71.6608 11.0825 71.8475 11.1431 72.0622 11.1431C72.3048 11.1431 72.5288 11.1011 72.7342 11.0171C72.9395 10.9331 73.0748 10.8725 73.1402 10.8351L73.4342 11.8151ZM75.01 6.46714V7.39114H76.032C78.79 7.39114 80.33 7.34914 82.164 7.02714L82.038 6.10314C80.26 6.41114 78.762 6.46714 76.032 6.46714H75.01ZM75.01 1.38514V6.94314H76.158V2.32314H81.03V1.38514H75.01ZM75.78 3.87714V4.81514H80.68V3.87714H75.78ZM83.48 0.629138V8.16114H84.656V0.629138H83.48ZM76.48 8.79114V13.1031H84.656V8.79114H76.48ZM83.508 9.72914V12.1651H77.614V9.72914H83.508ZM87.1469 7.26514V8.21714H98.5849V7.26514H87.1469ZM88.6309 12.0391V12.9911H97.3249V12.0391H88.6309ZM88.6309 9.32314V12.3331H89.7929V9.32314H88.6309ZM92.8729 1.03514C90.1569 1.03514 88.4209 1.98714 88.4209 3.56914C88.4209 5.13714 90.1569 6.08914 92.8729 6.08914C95.5749 6.08914 97.3249 5.13714 97.3249 3.56914C97.3249 1.98714 95.5749 1.03514 92.8729 1.03514ZM92.8729 1.98714C94.8609 1.98714 96.1349 2.57514 96.1349 3.56914C96.1349 4.56314 94.8609 5.15114 92.8729 5.15114C90.8849 5.15114 89.6109 4.56314 89.6109 3.56914C89.6109 2.57514 90.8849 1.98714 92.8729 1.98714ZM106.913 1.70714V3.97514C106.913 6.36914 105.387 8.79114 103.511 9.68714L104.225 10.6391C106.297 9.58914 107.865 6.88714 107.865 3.97514V1.70714H106.913ZM107.109 1.70714V3.97514C107.109 6.78914 108.691 9.39314 110.749 10.4011L111.449 9.47714C109.573 8.60914 108.061 6.28514 108.061 3.97514V1.70714H107.109ZM112.765 0.601138V13.2851H113.927V0.601138H112.765ZM125.112 0.615138V9.86914H126.274V0.615138H125.112ZM125.91 4.45114V5.41714H128.15V4.45114H125.91ZM121.654 1.59514V2.09914C121.654 4.53514 119.652 6.49514 116.46 7.47514L116.964 8.42714C120.59 7.26514 122.886 4.87114 122.886 1.59514H121.654ZM116.978 1.59514V2.54714H122.242V1.59514H116.978ZM118.378 12.0391V12.9911H126.834V12.0391H118.378ZM118.378 8.93114V12.4171H119.54V8.93114H118.378ZM136.087 3.68114V4.63314H138.901V3.68114H136.087ZM138.579 0.615138V7.48914H139.741V0.615138H138.579ZM131.635 8.10514V13.1031H139.741V8.10514H138.593V9.64514H132.783V8.10514H131.635ZM132.783 10.5831H138.593V12.1511H132.783V10.5831ZM132.559 1.60914V2.64514C132.559 4.43714 131.257 6.11714 129.367 6.77514L129.969 7.71314C132.083 6.92914 133.511 4.94114 133.511 2.64514V1.60914H132.559ZM132.783 1.60914V2.63114C132.783 4.75914 134.141 6.66314 136.199 7.40514L136.787 6.49514C134.953 5.85114 133.721 4.26914 133.721 2.63114V1.60914H132.783ZM129.731 1.37114V2.30914H136.493V1.37114H129.731ZM143.674 1.35714V2.30914H151.752V1.35714H143.674ZM142.218 6.42514V7.39114H153.684V6.42514H142.218ZM151.066 1.35714V2.35114C151.066 3.48514 151.066 4.82914 150.66 6.70514L151.794 6.83114C152.2 4.89914 152.2 3.51314 152.2 2.35114V1.35714H151.066ZM143.716 12.0251V12.9911H152.578V12.0251H143.716ZM143.716 8.79114V12.1651H144.878V8.79114H143.716ZM158.274 1.32914V2.63114C158.274 4.56314 157.014 6.25714 155.082 6.94314L155.684 7.89514C157.854 7.08314 159.24 5.08114 159.24 2.63114V1.32914H158.274ZM158.484 1.32914V2.58914C158.484 4.88514 159.842 6.74714 161.886 7.51714L162.516 6.60714C160.668 5.96314 159.436 4.38114 159.436 2.58914V1.32914H158.484ZM164.336 0.615138V8.10514H165.498V0.615138H164.336ZM161.34 8.46914C158.722 8.46914 157.112 9.35114 157.112 10.8631C157.112 12.3751 158.722 13.2431 161.34 13.2431C163.944 13.2431 165.554 12.3751 165.554 10.8631C165.554 9.35114 163.944 8.46914 161.34 8.46914ZM161.34 9.39314C163.244 9.39314 164.406 9.93914 164.406 10.8631C164.406 11.7871 163.244 12.3331 161.34 12.3331C159.436 12.3331 158.274 11.7871 158.274 10.8631C158.274 9.93914 159.436 9.39314 161.34 9.39314ZM161.592 3.28914V4.25514H164.588V3.28914H161.592ZM173.687 0.825137C170.887 0.825137 169.235 1.60914 169.235 3.02314C169.235 4.43714 170.887 5.22114 173.687 5.22114C176.473 5.22114 178.139 4.43714 178.139 3.02314C178.139 1.60914 176.473 0.825137 173.687 0.825137ZM173.687 1.70714C175.745 1.70714 176.935 2.18314 176.935 3.02314C176.935 3.86314 175.745 4.33914 173.687 4.33914C171.615 4.33914 170.425 3.86314 170.425 3.02314C170.425 2.18314 171.615 1.70714 173.687 1.70714ZM167.961 6.06114V6.99914H179.399V6.06114H167.961ZM169.347 8.07714V8.97314H176.795V10.0931H169.375V12.4731H170.523V10.9331H177.943V8.07714H169.347ZM169.375 12.2211V13.1311H178.321V12.2211H169.375ZM193.607 0.615138V13.2711H194.769V0.615138H193.607ZM189.897 1.97314V2.16914C189.897 5.52914 188.203 8.21714 184.549 9.98114L185.165 10.9191C189.393 8.84714 191.045 5.64114 191.045 1.97314H189.897ZM185.123 1.97314V2.92514H190.401V1.97314H185.123ZM205.926 0.629138V9.91114H207.088V0.629138H205.926ZM206.724 4.45114V5.41714H208.964V4.45114H206.724ZM199.206 12.0391V12.9911H207.662V12.0391H199.206ZM199.206 9.01514V12.2631H200.368V9.01514H199.206ZM197.792 1.52514V7.79714H203.644V1.52514H202.51V3.63914H198.94V1.52514H197.792ZM198.94 4.54914H202.51V6.85914H198.94V4.54914ZM215.865 1.41314C213.233 1.41314 211.259 2.81314 211.259 4.91314C211.259 7.02714 213.233 8.41314 215.865 8.41314C218.497 8.41314 220.457 7.02714 220.457 4.91314C220.457 2.81314 218.497 1.41314 215.865 1.41314ZM215.865 2.36514C217.867 2.36514 219.351 3.38714 219.351 4.91314C219.351 6.42514 217.867 7.46114 215.865 7.46114C213.863 7.46114 212.379 6.42514 212.379 4.91314C212.379 3.38714 213.863 2.36514 215.865 2.36514ZM210.153 10.6251V11.6051H221.619V10.6251H210.153ZM223.032 10.7511V11.7171H234.498V10.7511H223.032ZM228.156 8.03514V11.1571H229.318V8.03514H228.156ZM224.418 1.55314V2.49114H231.936V4.45114H224.46V7.92314H225.608V5.38914H233.084V1.55314H224.418ZM224.46 7.43314V8.38514H233.378V7.43314H224.46ZM240.082 9.18314V10.1631H241.048C243.456 10.1631 244.982 10.0791 246.802 9.74314L246.676 8.79114C244.912 9.12714 243.4 9.18314 241.048 9.18314H240.082ZM240.082 1.81914V9.54714H241.23V2.77114H245.836V1.81914H240.082ZM248.72 0.615138V13.2991H249.882V0.615138H248.72ZM245.094 5.19314V6.15914H249.196V5.19314H245.094ZM264.524 0.615138V7.06914H265.686V0.615138H264.524ZM265.182 3.45714V4.42314H267.562V3.45714H265.182ZM256.39 1.44114V6.60714H262.2V1.44114H256.39ZM261.066 2.37914V5.68314H257.524V2.37914H261.066ZM257.188 11.9831V12.9351H257.79C258.658 12.9351 259.82 12.8791 261.038 12.4871L260.842 11.5491C259.764 11.9131 258.546 11.9831 257.79 11.9831H257.188ZM257.188 8.23114V12.2351H258.322V8.23114H257.188ZM260.576 8.35714V9.22514H266.932V8.35714H260.576ZM263.768 9.68714C262.382 9.68714 261.416 10.3871 261.416 11.4651C261.416 12.5711 262.382 13.2571 263.768 13.2571C265.14 13.2571 266.106 12.5711 266.106 11.4651C266.106 10.3871 265.14 9.68714 263.768 9.68714ZM263.768 10.5131C264.524 10.5131 265.07 10.8911 265.07 11.4651C265.07 12.0531 264.524 12.4311 263.768 12.4311C262.984 12.4311 262.452 12.0531 262.452 11.4651C262.452 10.8911 262.984 10.5131 263.768 10.5131ZM263.194 7.25114V8.97314H264.328V7.25114H263.194ZM268.737 7.26514V8.21714H280.175V7.26514H268.737ZM270.221 12.0391V12.9911H278.915V12.0391H270.221ZM270.221 9.32314V12.3331H271.383V9.32314H270.221ZM274.463 1.03514C271.747 1.03514 270.011 1.98714 270.011 3.56914C270.011 5.13714 271.747 6.08914 274.463 6.08914C277.165 6.08914 278.915 5.13714 278.915 3.56914C278.915 1.98714 277.165 1.03514 274.463 1.03514ZM274.463 1.98714C276.451 1.98714 277.725 2.57514 277.725 3.56914C277.725 4.56314 276.451 5.15114 274.463 5.15114C272.475 5.15114 271.201 4.56314 271.201 3.56914C271.201 2.57514 272.475 1.98714 274.463 1.98714ZM294.369 0.629138V9.86914H295.545V0.629138H294.369ZM287.411 12.0391V12.9911H295.923V12.0391H287.411ZM287.411 8.91714V12.3611H288.559V8.91714H287.411ZM288.755 1.49714C286.865 1.49714 285.451 2.78514 285.451 4.61914C285.451 6.43914 286.865 7.74114 288.755 7.74114C290.645 7.74114 292.045 6.43914 292.045 4.61914C292.045 2.78514 290.645 1.49714 288.755 1.49714ZM288.755 2.50514C289.987 2.50514 290.925 3.37314 290.925 4.61914C290.925 5.85114 289.987 6.71914 288.755 6.71914C287.523 6.71914 286.585 5.85114 286.585 4.61914C286.585 3.37314 287.523 2.50514 288.755 2.50514ZM301.144 1.70714V3.97514C301.144 6.28514 299.702 8.72114 297.868 9.64514L298.582 10.5691C300.584 9.50514 302.096 6.77514 302.096 3.97514V1.70714H301.144ZM301.354 1.70714V3.97514C301.354 6.69114 302.824 9.28114 304.784 10.3311L305.498 9.40714C303.706 8.51114 302.292 6.20114 302.292 3.97514V1.70714H301.354ZM306.604 0.615138V13.2711H307.78V0.615138H306.604ZM307.5 5.73914V6.71914H309.852V5.73914H307.5ZM320.113 0.601138V13.2851H321.275V0.601138H320.113ZM314.597 1.58114C312.735 1.58114 311.391 3.30314 311.391 5.99114C311.391 8.69314 312.735 10.4151 314.597 10.4151C316.473 10.4151 317.817 8.69314 317.817 5.99114C317.817 3.30314 316.473 1.58114 314.597 1.58114ZM314.597 2.63114C315.843 2.63114 316.697 3.94714 316.697 5.99114C316.697 8.04914 315.843 9.39314 314.597 9.39314C313.365 9.39314 312.497 8.04914 312.497 5.99114C312.497 3.94714 313.365 2.63114 314.597 2.63114ZM325.277 7.43314V8.37114H333.971V7.43314H325.277ZM323.807 10.6811V11.6471H335.273V10.6811H323.807ZM325.277 1.69314V7.72714H326.453V2.64514H333.831V1.69314H325.277ZM326.075 4.52114V5.44514H333.565V4.52114H326.075ZM336.672 6.49514V7.37714H348.152V6.49514H336.672ZM338.03 8.39914V9.22514H345.576V10.3031H338.072V12.5851H339.22V11.1011H346.71V8.39914H338.03ZM338.072 12.2771V13.1171H347.116V12.2771H338.072ZM338.128 0.979138V1.80514H345.534V2.82714H338.156V4.98314H339.304V3.61114H346.668V0.979138H338.128ZM338.156 4.70314V5.54314H346.906V4.70314H338.156ZM362.724 0.615138V13.2711H363.844V0.615138H362.724ZM358.118 5.15114V6.11714H360.54V5.15114H358.118ZM360.19 0.909137V12.6271H361.282V0.909137H360.19ZM355.682 2.57514V4.18514C355.682 6.50914 354.702 8.81914 352.938 9.88314L353.652 10.7511C355.514 9.57514 356.578 6.95714 356.578 4.18514V2.57514H355.682ZM355.92 2.57514V4.18514C355.92 6.83114 356.942 9.32314 358.79 10.4431L359.504 9.58914C357.768 8.58114 356.816 6.38314 356.816 4.18514V2.57514H355.92ZM353.288 2.08514V3.05114H359.07V2.08514H353.288ZM371.655 8.59514C368.953 8.59514 367.245 9.47714 367.245 10.9331C367.245 12.3751 368.953 13.2431 371.655 13.2431C374.343 13.2431 376.065 12.3751 376.065 10.9331C376.065 9.47714 374.343 8.59514 371.655 8.59514ZM371.655 9.50514C373.643 9.50514 374.903 10.0511 374.903 10.9331C374.903 11.8011 373.643 12.3471 371.655 12.3471C369.667 12.3471 368.393 11.8011 368.393 10.9331C368.393 10.0511 369.667 9.50514 371.655 9.50514ZM367.343 1.24514V2.19714H375.491V1.24514H367.343ZM365.985 6.50914V7.44714H377.409V6.50914H365.985ZM370.675 4.07314V6.77514H371.823V4.07314H370.675ZM374.819 1.24514V2.32314C374.819 3.31714 374.819 4.24114 374.469 5.54314L375.617 5.68314C375.953 4.36714 375.953 3.34514 375.953 2.32314V1.24514H374.819ZM387.432 0.615138V13.2711H388.594V0.615138H387.432ZM388.314 5.80914V6.78914H390.666V5.80914H388.314ZM378.794 2.63114V3.58314H386.256V2.63114H378.794ZM382.574 4.63314C380.796 4.63314 379.494 5.83714 379.494 7.54514C379.494 9.25314 380.796 10.4571 382.574 10.4571C384.366 10.4571 385.654 9.25314 385.654 7.54514C385.654 5.83714 384.366 4.63314 382.574 4.63314ZM382.574 5.59914C383.722 5.59914 384.548 6.39714 384.548 7.54514C384.548 8.67914 383.722 9.49114 382.574 9.49114C381.426 9.49114 380.6 8.67914 380.6 7.54514C380.6 6.39714 381.426 5.59914 382.574 5.59914ZM381.972 0.769137V3.06514H383.134V0.769137H381.972ZM400.955 0.615138V13.2711H402.117V0.615138H400.955ZM397.245 1.97314V2.16914C397.245 5.52914 395.551 8.21714 391.897 9.98114L392.513 10.9191C396.741 8.84714 398.393 5.64114 398.393 1.97314H397.245ZM392.471 1.97314V2.92514H397.749V1.97314H392.471ZM412.293 1.20314C410.417 1.20314 409.073 2.25314 409.073 3.80714C409.073 5.34714 410.417 6.42514 412.293 6.42514C414.183 6.42514 415.527 5.34714 415.527 3.80714C415.527 2.25314 414.183 1.20314 412.293 1.20314ZM412.293 2.16914C413.525 2.16914 414.407 2.84114 414.407 3.80714C414.407 4.78714 413.525 5.44514 412.293 5.44514C411.061 5.44514 410.179 4.78714 410.179 3.80714C410.179 2.84114 411.061 2.16914 412.293 2.16914ZM411.775 7.82514V12.8791H412.937V7.82514H411.775ZM417.375 0.615138V13.2851H418.523V0.615138H417.375ZM408.289 8.45514C410.599 8.45514 413.707 8.41314 416.563 7.89514L416.479 7.02714C413.693 7.44714 410.487 7.47514 408.135 7.47514L408.289 8.45514ZM421.014 2.77114V3.72314H427.286V2.77114H421.014ZM424.15 4.56314C422.582 4.56314 421.434 5.75314 421.434 7.46114C421.434 9.15514 422.582 10.3451 424.15 10.3451C425.732 10.3451 426.88 9.15514 426.88 7.46114C426.88 5.75314 425.732 4.56314 424.15 4.56314ZM424.15 5.55714C425.13 5.55714 425.844 6.34114 425.844 7.46114C425.844 8.58114 425.13 9.36514 424.15 9.36514C423.184 9.36514 422.484 8.58114 422.484 7.46114C422.484 6.34114 423.184 5.55714 424.15 5.55714ZM430.632 0.615138V13.2711H431.752V0.615138H430.632ZM428.616 5.93514V6.90114H431.01V5.93514H428.616ZM427.93 0.895137V12.6551H429.022V0.895137H427.93ZM423.59 0.979138V3.35914H424.738V0.979138H423.59ZM446.016 0.601138V13.2851H447.192V0.601138H446.016ZM446.912 5.59914V6.57914H449.264V5.59914H446.912ZM437.994 9.15514V10.1351H438.988C441.368 10.1351 443.034 10.0651 444.98 9.70114L444.854 8.72114C442.964 9.07114 441.326 9.15514 438.988 9.15514H437.994ZM437.994 1.83314V9.58914H439.142V2.78514H443.874V1.83314H437.994ZM459.805 2.50514V3.47114H462.003V2.50514H459.805ZM459.805 5.19314V6.15914H462.003V5.19314H459.805ZM453.869 1.35714C451.965 1.35714 450.565 2.58914 450.565 4.35314C450.565 6.10314 451.965 7.32114 453.869 7.32114C455.773 7.32114 457.173 6.10314 457.173 4.35314C457.173 2.58914 455.773 1.35714 453.869 1.35714ZM453.869 2.33714C455.129 2.33714 456.039 3.16314 456.039 4.35314C456.039 5.54314 455.129 6.35514 453.869 6.35514C452.609 6.35514 451.699 5.54314 451.699 4.35314C451.699 3.16314 452.609 2.33714 453.869 2.33714ZM458.993 0.615138V8.10514H460.155V0.615138H458.993ZM456.123 8.51114C453.547 8.51114 451.965 9.39314 451.965 10.8771C451.965 12.3751 453.547 13.2431 456.123 13.2431C458.699 13.2431 460.281 12.3751 460.281 10.8771C460.281 9.39314 458.699 8.51114 456.123 8.51114ZM456.123 9.44914C457.999 9.44914 459.147 9.96714 459.147 10.8771C459.147 11.7871 457.999 12.3191 456.123 12.3191C454.247 12.3191 453.099 11.7871 453.099 10.8771C453.099 9.96714 454.247 9.44914 456.123 9.44914ZM471.872 0.629138V10.1211H473.034V0.629138H471.872ZM472.67 4.77314V5.75314H474.91V4.77314H472.67ZM463.248 2.15514V3.09314H470.724V2.15514H463.248ZM466.986 3.79314C465.18 3.79314 463.948 4.73114 463.948 6.15914C463.948 7.57314 465.18 8.51114 466.986 8.51114C468.778 8.51114 470.01 7.57314 470.01 6.15914C470.01 4.73114 468.778 3.79314 466.986 3.79314ZM466.986 4.70314C468.12 4.70314 468.904 5.27714 468.904 6.15914C468.904 7.02714 468.12 7.60114 466.986 7.60114C465.838 7.60114 465.054 7.02714 465.054 6.15914C465.054 5.27714 465.838 4.70314 466.986 4.70314ZM466.398 0.615138V2.64514H467.56V0.615138H466.398ZM465.152 12.0391V12.9911H473.608V12.0391H465.152ZM465.152 9.36514V12.4451H466.314V9.36514H465.152ZM479.639 10.6951V11.6611H491.105V10.6951H479.639ZM484.763 7.41914V10.9611H485.925V7.41914H484.763ZM480.969 1.66514V7.62914H489.705V1.66514H480.969ZM488.585 2.60314V6.69114H482.103V2.60314H488.585ZM495.626 6.21514V8.56714H496.774V6.21514H495.626ZM499.77 6.21514V8.56714H500.918V6.21514H499.77ZM494.03 3.91914V4.87114H502.598V3.91914H494.03ZM494.03 1.06314V4.43714H495.178V2.00114H502.458V1.06314H494.03ZM492.504 5.87914V6.83114H503.942V5.87914H492.504ZM493.89 8.10514V9.00114H501.338V10.1071H493.918V12.4871H495.066V10.9611H502.486V8.10514H493.89ZM493.918 12.2211V13.1311H502.864V12.2211H493.918ZM511.109 0.825137C508.309 0.825137 506.657 1.60914 506.657 3.02314C506.657 4.43714 508.309 5.22114 511.109 5.22114C513.895 5.22114 515.561 4.43714 515.561 3.02314C515.561 1.60914 513.895 0.825137 511.109 0.825137ZM511.109 1.70714C513.167 1.70714 514.357 2.18314 514.357 3.02314C514.357 3.86314 513.167 4.33914 511.109 4.33914C509.037 4.33914 507.847 3.86314 507.847 3.02314C507.847 2.18314 509.037 1.70714 511.109 1.70714ZM505.383 6.06114V6.99914H516.821V6.06114H505.383ZM506.769 8.07714V8.97314H514.217V10.0931H506.797V12.4731H507.945V10.9331H515.365V8.07714H506.769ZM506.797 12.2211V13.1311H515.743V12.2211H506.797ZM527.669 2.58914V3.54114H531.477V2.58914H527.669ZM527.669 5.62714V6.57914H531.477V5.62714H527.669ZM531.057 0.629138V9.98114H532.219V0.629138H531.057ZM524.141 12.0391V12.9911H532.569V12.0391H524.141ZM524.141 9.01514V12.4591H525.303V9.01514H524.141ZM525.261 1.42714C523.399 1.42714 521.999 2.72914 521.999 4.59114C521.999 6.45314 523.399 7.75514 525.261 7.75514C527.123 7.75514 528.523 6.45314 528.523 4.59114C528.523 2.72914 527.123 1.42714 525.261 1.42714ZM525.261 2.44914C526.493 2.44914 527.417 3.34514 527.417 4.59114C527.417 5.85114 526.493 6.74714 525.261 6.74714C524.029 6.74714 523.119 5.85114 523.119 4.59114C523.119 3.34514 524.029 2.44914 525.261 2.44914ZM536.124 1.44114V2.37914H544.034V1.44114H536.124ZM534.696 6.87314V7.82514H546.134V6.87314H534.696ZM539.806 7.50314V13.2851H540.968V7.50314H539.806ZM543.488 1.44114V2.53314C543.488 3.80714 543.488 5.27714 542.998 7.32114L544.146 7.47514C544.622 5.33314 544.622 3.84914 544.622 2.53314V1.44114H543.488ZM547.911 13.3131L548.191 12.0671H547.771V10.6111H548.933V12.0671L548.513 13.3131H547.911ZM563.673 0.615138V13.2711H564.793V0.615138H563.673ZM561.629 5.69714V6.64914H564.051V5.69714H561.629ZM558.353 2.23914V2.46314C558.353 5.38914 557.233 7.95114 554.055 9.72914L554.741 10.5551C558.353 8.52514 559.473 5.50114 559.473 2.23914H558.353ZM554.545 2.23914V3.20514H558.745V2.23914H554.545ZM560.859 0.951138V12.6551H561.965V0.951138H560.859ZM567.466 1.13314V6.66314H573.318V1.13314H572.184V2.95314H568.614V1.13314H567.466ZM568.614 3.86314H572.184V5.72514H568.614V3.86314ZM575.6 0.615138V7.13914H576.762V0.615138H575.6ZM576.258 3.33114V4.29714H578.624V3.33114H576.258ZM568.726 7.75514V8.67914H575.628V9.95314H568.754V12.7251H569.902V10.8211H576.762V7.75514H568.726ZM568.754 12.2071V13.1311H577.224V12.2071H568.754ZM584.951 6.94314V9.15514H586.113V6.94314H584.951ZM579.813 6.53714V7.47514H591.251V6.53714H579.813ZM585.525 8.80514C582.809 8.80514 581.185 9.60314 581.185 11.0311C581.185 12.4451 582.809 13.2431 585.525 13.2431C588.241 13.2431 589.865 12.4451 589.865 11.0311C589.865 9.60314 588.241 8.80514 585.525 8.80514ZM585.525 9.70114C587.513 9.70114 588.689 10.1771 588.689 11.0311C588.689 11.8711 587.513 12.3471 585.525 12.3471C583.551 12.3471 582.361 11.8711 582.361 11.0311C582.361 10.1771 583.551 9.70114 585.525 9.70114ZM584.783 1.65114V2.02914C584.783 3.47114 582.725 4.60514 580.457 4.84314L580.877 5.76714C583.495 5.44514 585.819 4.07314 585.819 2.02914V1.65114H584.783ZM585.273 1.65114V2.02914C585.273 4.07314 587.583 5.44514 590.201 5.76714L590.621 4.84314C588.353 4.60514 586.295 3.47114 586.295 2.02914V1.65114H585.273ZM580.863 1.18914V2.12714H590.229V1.18914H580.863ZM597.83 5.52914V6.49514H600.224V5.52914H597.83ZM602.338 0.615138V13.2711H603.458V0.615138H602.338ZM599.832 0.881138V12.6411H600.938V0.881138H599.832ZM595.548 1.66514C593.91 1.66514 592.86 3.35914 592.86 6.07514C592.86 8.79114 593.91 10.4851 595.548 10.4851C597.186 10.4851 598.25 8.79114 598.25 6.07514C598.25 3.35914 597.186 1.66514 595.548 1.66514ZM595.548 2.74314C596.556 2.74314 597.186 4.03114 597.186 6.07514C597.186 8.11914 596.556 9.40714 595.548 9.40714C594.554 9.40714 593.924 8.11914 593.924 6.07514C593.924 4.03114 594.554 2.74314 595.548 2.74314ZM612.276 8.39914V9.08514C612.276 10.3031 611.324 11.6611 609.728 12.2351L610.316 13.1031C612.136 12.4031 613.172 10.7371 613.172 9.08514V8.39914H612.276ZM612.528 8.39914V9.08514C612.528 10.7651 613.354 12.5011 615.174 13.2151L615.664 12.3331C614.152 11.7171 613.396 10.3591 613.396 9.08514V8.39914H612.528ZM616.952 8.39914V9.08514C616.952 10.1771 616.182 11.6471 614.684 12.3331L615.174 13.2151C616.98 12.4451 617.82 10.5691 617.82 9.08514V8.39914H616.952ZM617.19 8.39914V9.08514C617.19 10.8351 618.198 12.4311 620.046 13.1031L620.634 12.2351C619.024 11.6891 618.086 10.3871 618.086 9.08514V8.39914H617.19ZM618.324 0.629138V7.85314H619.5V0.629138H618.324ZM612.71 1.35714C610.792 1.35714 609.406 2.56114 609.406 4.31114C609.406 6.06114 610.792 7.25114 612.71 7.25114C614.628 7.25114 616 6.06114 616 4.31114C616 2.56114 614.628 1.35714 612.71 1.35714ZM612.71 2.32314C613.97 2.32314 614.88 3.13514 614.88 4.31114C614.88 5.48714 613.97 6.28514 612.71 6.28514C611.45 6.28514 610.54 5.48714 610.54 4.31114C610.54 3.13514 611.45 2.32314 612.71 2.32314ZM627.717 1.41314C625.085 1.41314 623.111 2.81314 623.111 4.91314C623.111 7.02714 625.085 8.41314 627.717 8.41314C630.349 8.41314 632.309 7.02714 632.309 4.91314C632.309 2.81314 630.349 1.41314 627.717 1.41314ZM627.717 2.36514C629.719 2.36514 631.203 3.38714 631.203 4.91314C631.203 6.42514 629.719 7.46114 627.717 7.46114C625.715 7.46114 624.231 6.42514 624.231 4.91314C624.231 3.38714 625.715 2.36514 627.717 2.36514ZM622.005 10.6251V11.6051H633.471V10.6251H622.005ZM640.694 3.63914V4.59114H644.6V3.63914H640.694ZM640.694 7.12514V8.09114H644.6V7.12514H640.694ZM635.388 1.84714V10.0791H641.142V1.84714H635.388ZM639.994 2.78514V9.14114H636.522V2.78514H639.994ZM644.152 0.601138V13.2851H645.3V0.601138H644.152ZM656.442 8.66514V13.2851H657.59V8.66514H656.442ZM651.304 8.25914V9.22514H662.742V8.25914H651.304ZM656.428 2.78514V3.10714C656.428 4.68914 654.3 6.07514 652.018 6.38314L652.424 7.30714C655.084 6.90114 657.45 5.29114 657.45 3.10714V2.78514H656.428ZM656.582 2.78514V3.10714C656.582 5.26314 658.934 6.91514 661.58 7.30714L662 6.38314C659.732 6.07514 657.59 4.67514 657.59 3.10714V2.78514H656.582ZM652.41 2.16914V3.12114H661.636V2.16914H652.41ZM656.442 0.615138V2.50514H657.59V0.615138H656.442ZM664.77 2.05714V2.99514H674.948V2.05714H664.77ZM664.182 8.81914V9.77114H675.648V8.81914H664.182ZM669.306 9.58914V13.2851H670.468V9.58914H669.306ZM669.894 3.72314C667.304 3.72314 665.778 4.47914 665.778 5.83714C665.778 7.18114 667.304 7.95114 669.894 7.95114C672.47 7.95114 673.996 7.18114 673.996 5.83714C673.996 4.47914 672.47 3.72314 669.894 3.72314ZM669.894 4.61914C671.742 4.61914 672.806 5.05314 672.806 5.83714C672.806 6.62114 671.742 7.05514 669.894 7.05514C668.046 7.05514 666.982 6.62114 666.982 5.83714C666.982 5.05314 668.046 4.61914 669.894 4.61914ZM669.306 0.545138V2.68714H670.468V0.545138H669.306ZM685.502 4.12914V5.06714H688.316V4.12914H685.502ZM685.404 7.30714V8.24514H688.288V7.30714H685.404ZM690.234 0.615138V13.2711H691.354V0.615138H690.234ZM687.7 0.937138V12.6271H688.792V0.937138H687.7ZM684.872 2.21114V2.42114C684.872 5.40314 683.542 7.92314 680.588 9.71514L681.26 10.5411C684.662 8.51114 685.992 5.52914 685.992 2.21114H684.872ZM681.148 2.21114V3.16314H685.334V2.21114H681.148ZM693.467 6.95714V7.90914H704.947V6.95714H693.467ZM698.605 5.03914V7.39114H699.753V5.03914H698.605ZM698.591 0.811138V1.37114C698.591 3.06514 696.421 4.46514 694.153 4.77314L694.601 5.69714C697.177 5.27714 699.599 3.65314 699.599 1.37114V0.811138H698.591ZM698.773 0.811138V1.37114C698.773 3.65314 701.209 5.26314 703.771 5.69714L704.205 4.77314C701.951 4.46514 699.767 3.06514 699.767 1.37114V0.811138H698.773ZM694.741 9.14114V10.0791H702.329V13.2711H703.491V9.14114H694.741ZM709.58 1.90314V2.92514C709.58 4.71714 708.278 6.39714 706.388 7.06914L706.99 7.99314C709.104 7.20914 710.532 5.23514 710.532 2.92514V1.90314H709.58ZM709.804 1.90314V2.92514C709.804 5.03914 711.162 6.94314 713.22 7.69914L713.808 6.77514C711.974 6.13114 710.742 4.54914 710.742 2.92514V1.90314H709.804ZM713.122 3.90514V4.87114H715.936V3.90514H713.122ZM706.752 1.48314V2.42114H713.514V1.48314H706.752ZM708.32 8.87514V9.82714H715.6V13.2711H716.762V8.87514H708.32ZM715.6 0.615138V8.18914H716.762V0.615138H715.6ZM724.951 1.41314C722.319 1.41314 720.345 2.81314 720.345 4.91314C720.345 7.02714 722.319 8.41314 724.951 8.41314C727.583 8.41314 729.543 7.02714 729.543 4.91314C729.543 2.81314 727.583 1.41314 724.951 1.41314ZM724.951 2.36514C726.953 2.36514 728.437 3.38714 728.437 4.91314C728.437 6.42514 726.953 7.46114 724.951 7.46114C722.949 7.46114 721.465 6.42514 721.465 4.91314C721.465 3.38714 722.949 2.36514 724.951 2.36514ZM719.239 10.6251V11.6051H730.705V10.6251H719.239ZM732.118 10.7511V11.7171H743.584V10.7511H732.118ZM737.242 8.03514V11.1571H738.404V8.03514H737.242ZM733.504 1.55314V2.49114H741.022V4.45114H733.546V7.92314H734.694V5.38914H742.17V1.55314H733.504ZM733.546 7.43314V8.38514H742.464V7.43314H733.546ZM753.676 8.66514V13.2851H754.824V8.66514H753.676ZM748.538 8.25914V9.22514H759.976V8.25914H748.538ZM753.662 2.78514V3.10714C753.662 4.68914 751.534 6.07514 749.252 6.38314L749.658 7.30714C752.318 6.90114 754.684 5.29114 754.684 3.10714V2.78514H753.662ZM753.816 2.78514V3.10714C753.816 5.26314 756.168 6.91514 758.814 7.30714L759.234 6.38314C756.966 6.07514 754.824 4.67514 754.824 3.10714V2.78514H753.816ZM749.644 2.16914V3.12114H758.87V2.16914H749.644ZM753.676 0.615138V2.50514H754.824V0.615138H753.676ZM769.971 0.601138V13.2711H771.147V0.601138H769.971ZM770.825 5.73914V6.70514H773.163V5.73914H770.825ZM766.737 1.97314V2.15514C766.737 5.50114 764.987 8.20314 761.487 9.98114L762.131 10.8771C766.219 8.81914 767.871 5.57114 767.871 1.97314H766.737ZM762.075 1.97314V2.92514H767.339V1.97314H762.075ZM775.5 3.93314V4.82914H781.576V3.93314H775.5ZM775.5 1.14714V4.33914H776.69V2.05714H781.436V1.14714H775.5ZM777.922 4.43714V6.55114H779.084V4.43714H777.922ZM783.508 0.615138V7.41914H784.67V0.615138H783.508ZM774.52 7.12514C776.9 7.12514 779.91 7.04114 782.598 6.64914L782.528 5.83714C779.91 6.13114 776.816 6.18714 774.366 6.20114L774.52 7.12514ZM776.326 7.99314V8.91714H783.536V10.0651H776.34V12.5711H777.488V10.9471H784.67V7.99314H776.326ZM776.34 12.2071V13.1311H785.104V12.2071H776.34ZM795.756 3.66714V4.63314H798.22V3.66714H795.756ZM795.756 7.51714V8.48314H798.22V7.51714H795.756ZM800.348 0.615138V13.2711H801.468V0.615138H800.348ZM797.87 0.881138V12.6411H798.962V0.881138H797.87ZM793.558 1.66514C791.92 1.66514 790.87 3.35914 790.87 6.07514C790.87 8.79114 791.92 10.4851 793.558 10.4851C795.196 10.4851 796.26 8.79114 796.26 6.07514C796.26 3.35914 795.196 1.66514 793.558 1.66514ZM793.558 2.74314C794.566 2.74314 795.196 4.03114 795.196 6.07514C795.196 8.11914 794.566 9.40714 793.558 9.40714C792.564 9.40714 791.92 8.11914 791.92 6.07514C791.92 4.03114 792.564 2.74314 793.558 2.74314ZM810.343 3.89114V4.85714H813.199V3.89114H810.343ZM812.835 0.615138V8.16114H813.997V0.615138H812.835ZM809.839 8.53914C807.221 8.53914 805.611 9.42114 805.611 10.9051C805.611 12.4031 807.221 13.2571 809.839 13.2571C812.443 13.2571 814.053 12.4031 814.053 10.9051C814.053 9.42114 812.443 8.53914 809.839 8.53914ZM809.839 9.44914C811.743 9.44914 812.905 9.98114 812.905 10.9051C812.905 11.8151 811.743 12.3471 809.839 12.3471C807.935 12.3471 806.773 11.8151 806.773 10.9051C806.773 9.98114 807.935 9.44914 809.839 9.44914ZM806.815 1.88914V2.91114C806.815 4.73114 805.513 6.42514 803.637 7.11114L804.239 8.03514C806.339 7.25114 807.767 5.24914 807.767 2.91114V1.88914H806.815ZM807.039 1.88914V2.91114C807.039 5.03914 808.397 6.94314 810.455 7.68514L811.043 6.76114C809.209 6.11714 807.977 4.54914 807.977 2.91114V1.88914H807.039ZM803.987 1.53914V2.49114H810.749V1.53914H803.987ZM825.671 0.615138V7.40514H826.847V0.615138H825.671ZM818.685 8.03514V13.1031H826.847V8.03514H825.699V9.57514H819.833V8.03514H818.685ZM819.833 10.4991H825.699V12.1651H819.833V10.4991ZM820.057 1.21714C818.139 1.21714 816.753 2.40714 816.753 4.12914C816.753 5.86514 818.139 7.05514 820.057 7.05514C821.975 7.05514 823.347 5.86514 823.347 4.12914C823.347 2.40714 821.975 1.21714 820.057 1.21714ZM820.057 2.18314C821.317 2.18314 822.227 2.98114 822.227 4.12914C822.227 5.27714 821.317 6.07514 820.057 6.07514C818.797 6.07514 817.887 5.27714 817.887 4.12914C817.887 2.98114 818.797 2.18314 820.057 2.18314ZM838.55 0.615138V13.2711H839.712V0.615138H838.55ZM830.15 1.84714V9.68714H831.298V1.84714H830.15ZM830.15 9.00114V10.0091H831.186C833.188 10.0091 835.19 9.85514 837.388 9.40714L837.248 8.41314C835.106 8.86114 833.104 9.00114 831.186 9.00114H830.15ZM850.785 0.601138V13.2851H851.961V0.601138H850.785ZM851.681 5.59914V6.57914H854.033V5.59914H851.681ZM842.763 9.15514V10.1351H843.757C846.137 10.1351 847.803 10.0651 849.749 9.70114L849.623 8.72114C847.733 9.07114 846.095 9.15514 843.757 9.15514H842.763ZM842.763 1.83314V9.58914H843.911V2.78514H848.643V1.83314H842.763ZM855.306 12.1791V10.6111H856.342V12.1791H855.306Z" fill="#8A8A8A"/>
</svg>
