<svg width="324" height="346" viewBox="0 0 324 346" fill="none" xmlns="http://www.w3.org/2000/svg">
<g filter="url(#filter0_d_0_1)">
<rect x="123.386" width="152.01" height="337.184" fill="#FDFDFD" fill-opacity="0.8" shape-rendering="crispEdges"/>
</g>
<path d="M154.875 44.656H159.825V20.926H154.875V30.436H147.615V20.926H142.695V44.656H147.615V34.546H154.875V44.656ZM178.439 36.166C178.439 30.706 175.919 27.286 170.549 27.286C165.149 27.286 162.629 30.706 162.629 36.166C162.629 41.656 165.149 45.076 170.549 45.076C175.919 45.076 178.439 41.656 178.439 36.166ZM173.759 36.166C173.759 39.736 172.889 41.446 170.549 41.446C168.209 41.446 167.309 39.736 167.309 36.166C167.309 32.626 168.209 30.916 170.549 30.916C172.889 30.916 173.759 32.626 173.759 36.166ZM186.927 31.336H191.337V27.706H186.927V22.906H182.247V27.706H179.787V31.336H182.247V39.616C182.247 43.516 183.987 44.896 188.487 44.896C189.327 44.896 190.707 44.866 191.337 44.806V41.296H189.597C187.527 41.296 186.927 40.846 186.927 38.896V31.336ZM208.936 37.456C208.966 37.096 208.966 36.616 208.966 36.166C208.966 30.706 206.476 27.286 201.076 27.286C195.706 27.286 193.186 30.706 193.186 36.166C193.186 41.686 195.706 45.076 201.076 45.076C205.366 45.076 208.066 42.946 208.606 39.496H203.866C203.596 40.876 202.606 41.656 201.076 41.656C199.066 41.656 197.986 40.186 197.866 37.456H208.936ZM201.076 30.736C203.056 30.736 204.136 32.056 204.226 34.516H197.896C197.986 32.056 199.066 30.736 201.076 30.736ZM216.336 44.656V20.926H211.656V44.656H216.336ZM219.026 39.736C219.026 42.766 221.546 45.076 226.046 45.076C230.426 45.076 233.066 42.796 233.066 39.736C233.066 36.676 231.476 35.116 227.666 34.396L225.986 34.096C224.366 33.796 223.736 33.286 223.736 32.296C223.736 31.306 224.426 30.646 225.716 30.646C227.066 30.646 227.726 31.366 227.726 32.326V32.656H232.376V32.356C232.376 29.416 230.036 27.286 225.716 27.286C221.516 27.286 219.026 29.476 219.026 32.476C219.026 35.416 220.886 37.006 224.516 37.666L226.166 37.966C227.876 38.266 228.446 38.836 228.446 39.916C228.446 40.966 227.546 41.716 226.076 41.716C224.576 41.716 223.676 40.996 223.676 39.886V39.436H219.026V39.736Z" fill="#E26262"/>
<path d="M247.794 32.962V40.508H249.264V32.962H247.794ZM248.858 36.126V37.344H251.07V36.126H248.858ZM244.21 33.858V34.558C244.21 36.77 242.404 38.576 239.24 39.486L239.842 40.662C243.566 39.598 245.778 37.204 245.778 33.858H244.21ZM239.814 33.858V35.048H245.064V33.858H239.814ZM245.19 40.662C242.642 40.662 240.962 41.642 240.962 43.21C240.962 44.778 242.642 45.744 245.19 45.744C247.752 45.744 249.404 44.778 249.404 43.21C249.404 41.642 247.752 40.662 245.19 40.662ZM245.19 41.81C246.912 41.81 247.976 42.328 247.976 43.21C247.976 44.092 246.912 44.596 245.19 44.596C243.482 44.596 242.418 44.092 242.418 43.21C242.418 42.328 243.482 41.81 245.19 41.81ZM260.673 32.962V40.186H262.143V32.962H260.673ZM261.751 35.79V36.994H263.949V35.79H261.751ZM253.967 40.83V45.604H262.143V40.83H253.967ZM260.715 41.992V44.428H255.409V41.992H260.715ZM252.721 33.592V38.758H254.191V33.592H252.721ZM252.721 38.142V39.36H253.757C255.619 39.36 257.565 39.234 259.679 38.8L259.511 37.61C257.453 38.016 255.549 38.142 253.757 38.142H252.721Z" fill="#828282"/>
<path d="M188.45 321.406C188.187 321.406 187.956 321.344 187.756 321.219C187.556 321.094 187.397 320.931 187.281 320.731V322.675H186.593V318.075H187.2V318.662C187.325 318.466 187.487 318.31 187.687 318.193C187.887 318.077 188.11 318.018 188.356 318.018C188.581 318.018 188.787 318.064 188.975 318.156C189.162 318.243 189.325 318.366 189.462 318.525C189.6 318.683 189.706 318.864 189.781 319.069C189.86 319.269 189.9 319.481 189.9 319.706C189.9 320.019 189.837 320.304 189.712 320.562C189.592 320.821 189.421 321.027 189.2 321.181C188.983 321.331 188.733 321.406 188.45 321.406ZM188.225 320.819C188.371 320.819 188.502 320.787 188.618 320.725C188.739 320.662 188.841 320.579 188.925 320.475C189.012 320.371 189.079 320.252 189.125 320.119C189.171 319.985 189.194 319.848 189.194 319.706C189.194 319.556 189.169 319.414 189.119 319.281C189.069 319.148 188.996 319.031 188.9 318.931C188.808 318.831 188.7 318.752 188.575 318.693C188.454 318.635 188.321 318.606 188.175 318.606C188.087 318.606 187.995 318.623 187.9 318.656C187.804 318.689 187.714 318.735 187.631 318.793C187.547 318.852 187.475 318.921 187.412 319C187.35 319.079 187.306 319.162 187.281 319.25V320.106C187.339 320.239 187.416 320.36 187.512 320.469C187.608 320.573 187.718 320.658 187.843 320.725C187.968 320.787 188.095 320.819 188.225 320.819ZM191.987 321.406C191.729 321.406 191.498 321.363 191.293 321.275C191.089 321.183 190.912 321.058 190.762 320.9C190.616 320.742 190.504 320.562 190.425 320.362C190.345 320.158 190.306 319.942 190.306 319.712C190.306 319.483 190.345 319.266 190.425 319.062C190.504 318.858 190.616 318.679 190.762 318.525C190.912 318.366 191.089 318.243 191.293 318.156C191.502 318.064 191.733 318.018 191.987 318.018C192.241 318.018 192.471 318.064 192.675 318.156C192.883 318.243 193.06 318.366 193.206 318.525C193.356 318.679 193.471 318.858 193.55 319.062C193.629 319.266 193.669 319.483 193.669 319.712C193.669 319.942 193.629 320.158 193.55 320.362C193.471 320.562 193.356 320.742 193.206 320.9C193.06 321.058 192.883 321.183 192.675 321.275C192.471 321.363 192.241 321.406 191.987 321.406ZM191.012 319.719C191.012 319.927 191.056 320.114 191.143 320.281C191.231 320.448 191.348 320.579 191.493 320.675C191.639 320.771 191.804 320.819 191.987 320.819C192.166 320.819 192.329 320.771 192.475 320.675C192.625 320.575 192.744 320.442 192.831 320.275C192.919 320.104 192.962 319.917 192.962 319.712C192.962 319.504 192.919 319.316 192.831 319.15C192.744 318.983 192.625 318.852 192.475 318.756C192.329 318.656 192.166 318.606 191.987 318.606C191.804 318.606 191.639 318.656 191.493 318.756C191.348 318.856 191.231 318.989 191.143 319.156C191.056 319.319 191.012 319.506 191.012 319.719ZM198.244 318.075H198.901L197.525 321.344H196.938L196.35 319.869L195.763 321.344H195.175L193.794 318.075H194.45L195.5 320.675L195.963 319.469L195.4 318.081H195.981L196.35 319.1L196.713 318.081H197.294L196.738 319.469L197.2 320.675L198.244 318.075ZM200.729 321.406C200.475 321.406 200.243 321.363 200.035 321.275C199.831 321.183 199.654 321.06 199.504 320.906C199.354 320.748 199.237 320.569 199.154 320.369C199.075 320.164 199.035 319.948 199.035 319.719C199.035 319.41 199.106 319.129 199.247 318.875C199.389 318.616 199.587 318.41 199.841 318.256C200.095 318.098 200.393 318.018 200.735 318.018C201.077 318.018 201.371 318.098 201.617 318.256C201.867 318.41 202.06 318.614 202.198 318.868C202.335 319.123 202.404 319.396 202.404 319.687C202.404 319.737 202.402 319.785 202.398 319.831C202.394 319.873 202.39 319.908 202.385 319.937H199.766C199.779 320.129 199.831 320.298 199.923 320.444C200.018 320.585 200.139 320.698 200.285 320.781C200.431 320.86 200.587 320.9 200.754 320.9C200.937 320.9 201.11 320.854 201.273 320.762C201.439 320.671 201.552 320.55 201.61 320.4L202.198 320.569C202.127 320.727 202.019 320.871 201.873 321C201.731 321.125 201.562 321.225 201.366 321.3C201.171 321.371 200.958 321.406 200.729 321.406ZM199.748 319.481H201.723C201.71 319.294 201.656 319.129 201.56 318.987C201.469 318.841 201.35 318.729 201.204 318.65C201.062 318.566 200.904 318.525 200.729 318.525C200.558 318.525 200.4 318.566 200.254 318.65C200.112 318.729 199.995 318.841 199.904 318.987C199.812 319.129 199.76 319.294 199.748 319.481ZM204.803 318.668C204.536 318.673 204.298 318.733 204.09 318.85C203.886 318.966 203.74 319.131 203.653 319.344V321.344H202.965V318.075H203.603V318.806C203.715 318.581 203.863 318.402 204.046 318.268C204.23 318.131 204.424 318.056 204.628 318.043C204.669 318.043 204.703 318.043 204.728 318.043C204.757 318.043 204.782 318.045 204.803 318.05V318.668ZM206.723 321.406C206.469 321.406 206.238 321.363 206.03 321.275C205.825 321.183 205.648 321.06 205.498 320.906C205.348 320.748 205.231 320.569 205.148 320.369C205.069 320.164 205.029 319.948 205.029 319.719C205.029 319.41 205.1 319.129 205.242 318.875C205.384 318.616 205.582 318.41 205.836 318.256C206.09 318.098 206.388 318.018 206.73 318.018C207.071 318.018 207.365 318.098 207.611 318.256C207.861 318.41 208.055 318.614 208.192 318.868C208.33 319.123 208.399 319.396 208.399 319.687C208.399 319.737 208.396 319.785 208.392 319.831C208.388 319.873 208.384 319.908 208.38 319.937H205.761C205.773 320.129 205.825 320.298 205.917 320.444C206.013 320.585 206.134 320.698 206.28 320.781C206.425 320.86 206.582 320.9 206.748 320.9C206.932 320.9 207.105 320.854 207.267 320.762C207.434 320.671 207.546 320.55 207.605 320.4L208.192 320.569C208.121 320.727 208.013 320.871 207.867 321C207.726 321.125 207.557 321.225 207.361 321.3C207.165 321.371 206.953 321.406 206.723 321.406ZM205.742 319.481H207.717C207.705 319.294 207.651 319.129 207.555 318.987C207.463 318.841 207.344 318.729 207.198 318.65C207.057 318.566 206.898 318.525 206.723 318.525C206.552 318.525 206.394 318.566 206.248 318.65C206.107 318.729 205.99 318.841 205.898 318.987C205.807 319.129 205.754 319.294 205.742 319.481ZM208.753 319.712C208.753 319.4 208.816 319.116 208.941 318.862C209.07 318.604 209.245 318.4 209.466 318.25C209.687 318.095 209.941 318.018 210.228 318.018C210.478 318.018 210.703 318.083 210.903 318.212C211.108 318.341 211.266 318.502 211.378 318.693V316.781H212.066V320.569C212.066 320.648 212.081 320.704 212.11 320.737C212.139 320.771 212.187 320.79 212.254 320.794V321.344C212.124 321.365 212.024 321.375 211.954 321.375C211.824 321.375 211.714 321.338 211.622 321.263C211.535 321.188 211.489 321.098 211.485 320.994L211.479 320.75C211.353 320.958 211.185 321.121 210.972 321.238C210.76 321.35 210.539 321.406 210.31 321.406C210.085 321.406 209.876 321.363 209.685 321.275C209.497 321.188 209.332 321.065 209.191 320.906C209.053 320.748 208.945 320.567 208.866 320.362C208.791 320.158 208.753 319.942 208.753 319.712ZM211.378 320.169V319.312C211.333 319.179 211.258 319.06 211.153 318.956C211.053 318.848 210.939 318.762 210.81 318.7C210.685 318.637 210.56 318.606 210.435 318.606C210.289 318.606 210.155 318.637 210.035 318.7C209.918 318.762 209.816 318.846 209.728 318.95C209.645 319.054 209.58 319.173 209.535 319.306C209.489 319.439 209.466 319.579 209.466 319.725C209.466 319.875 209.491 320.017 209.541 320.15C209.591 320.279 209.662 320.396 209.753 320.5C209.849 320.6 209.957 320.679 210.078 320.737C210.203 320.792 210.339 320.819 210.485 320.819C210.576 320.819 210.668 320.802 210.76 320.769C210.856 320.735 210.945 320.69 211.028 320.631C211.116 320.573 211.189 320.504 211.247 320.425C211.31 320.346 211.353 320.26 211.378 320.169ZM216.247 321.406C215.997 321.406 215.769 321.348 215.565 321.231C215.365 321.11 215.207 320.95 215.09 320.75V321.344H214.484V316.781H215.171V318.693C215.301 318.485 215.461 318.32 215.653 318.2C215.849 318.079 216.078 318.018 216.34 318.018C216.557 318.018 216.755 318.064 216.934 318.156C217.113 318.248 217.265 318.373 217.39 318.531C217.52 318.689 217.618 318.871 217.684 319.075C217.755 319.279 217.791 319.496 217.791 319.725C217.791 319.954 217.751 320.171 217.672 320.375C217.597 320.579 217.488 320.758 217.347 320.913C217.205 321.067 217.04 321.188 216.853 321.275C216.67 321.363 216.467 321.406 216.247 321.406ZM216.065 320.819C216.215 320.819 216.353 320.79 216.478 320.731C216.603 320.669 216.711 320.587 216.803 320.487C216.895 320.387 216.963 320.271 217.009 320.137C217.059 320.004 217.084 319.867 217.084 319.725C217.084 319.529 217.043 319.346 216.959 319.175C216.88 319.004 216.767 318.866 216.622 318.762C216.476 318.658 216.307 318.606 216.115 318.606C215.978 318.606 215.849 318.639 215.728 318.706C215.607 318.768 215.499 318.854 215.403 318.962C215.311 319.066 215.234 319.183 215.171 319.312V320.175C215.196 320.271 215.24 320.358 215.303 320.437C215.365 320.512 215.438 320.579 215.521 320.637C215.605 320.692 215.694 320.735 215.79 320.769C215.886 320.802 215.978 320.819 216.065 320.819ZM218.412 322.113C218.474 322.121 218.534 322.129 218.593 322.138C218.655 322.15 218.705 322.156 218.743 322.156C218.814 322.156 218.874 322.133 218.924 322.088C218.978 322.046 219.032 321.967 219.087 321.85C219.141 321.733 219.207 321.565 219.287 321.344L217.943 318.075H218.662L219.662 320.644L220.549 318.075H221.212L219.73 322.1C219.685 322.221 219.618 322.331 219.53 322.431C219.443 322.536 219.335 322.617 219.205 322.675C219.076 322.734 218.924 322.763 218.749 322.763C218.699 322.763 218.647 322.759 218.593 322.75C218.539 322.742 218.478 322.729 218.412 322.713V322.113Z" fill="#757575"/>
<path d="M191.903 324.525H190.428V328.344H189.721V324.525H188.24V323.906H191.903V324.525ZM192.411 328.344V325.075H193.098V328.344H192.411ZM192.411 324.537V323.781H193.098V324.537H192.411ZM198.925 328.344H198.238V326.512C198.238 326.208 198.188 325.985 198.088 325.843C197.988 325.702 197.842 325.631 197.65 325.631C197.458 325.631 197.279 325.704 197.112 325.85C196.95 325.991 196.835 326.177 196.769 326.406V328.344H196.081V326.512C196.081 326.208 196.031 325.985 195.931 325.843C195.831 325.702 195.687 325.631 195.5 325.631C195.308 325.631 195.129 325.702 194.962 325.843C194.8 325.985 194.683 326.171 194.612 326.4V328.344H193.924V325.075H194.55V325.731C194.679 325.502 194.848 325.327 195.056 325.206C195.268 325.081 195.51 325.018 195.781 325.018C196.052 325.018 196.264 325.089 196.419 325.231C196.577 325.373 196.675 325.55 196.712 325.762C196.854 325.521 197.027 325.337 197.231 325.212C197.44 325.083 197.677 325.018 197.944 325.018C198.135 325.018 198.296 325.054 198.425 325.125C198.554 325.195 198.654 325.293 198.725 325.418C198.796 325.539 198.846 325.681 198.875 325.843C198.908 326.002 198.925 326.171 198.925 326.35V328.344ZM201.199 328.406C200.945 328.406 200.713 328.363 200.505 328.275C200.301 328.183 200.124 328.06 199.974 327.906C199.824 327.748 199.707 327.569 199.624 327.369C199.545 327.164 199.505 326.948 199.505 326.719C199.505 326.41 199.576 326.129 199.717 325.875C199.859 325.616 200.057 325.41 200.311 325.256C200.566 325.098 200.863 325.018 201.205 325.018C201.547 325.018 201.841 325.098 202.087 325.256C202.337 325.41 202.53 325.614 202.668 325.868C202.805 326.123 202.874 326.396 202.874 326.687C202.874 326.737 202.872 326.785 202.868 326.831C202.864 326.873 202.86 326.908 202.855 326.937H200.236C200.249 327.129 200.301 327.298 200.393 327.444C200.488 327.585 200.609 327.698 200.755 327.781C200.901 327.86 201.057 327.9 201.224 327.9C201.407 327.9 201.58 327.854 201.743 327.762C201.909 327.671 202.022 327.55 202.08 327.4L202.668 327.569C202.597 327.727 202.489 327.871 202.343 328C202.201 328.125 202.032 328.225 201.837 328.3C201.641 328.371 201.428 328.406 201.199 328.406ZM200.218 326.481H202.193C202.18 326.294 202.126 326.129 202.03 325.987C201.939 325.841 201.82 325.729 201.674 325.65C201.532 325.566 201.374 325.525 201.199 325.525C201.028 325.525 200.87 325.566 200.724 325.65C200.582 325.729 200.466 325.841 200.374 325.987C200.282 326.129 200.23 326.294 200.218 326.481ZM208.436 328.344H207.748V326.512C207.748 326.208 207.698 325.985 207.598 325.843C207.498 325.702 207.352 325.631 207.161 325.631C206.969 325.631 206.79 325.704 206.623 325.85C206.46 325.991 206.346 326.177 206.279 326.406V328.344H205.592V326.512C205.592 326.208 205.542 325.985 205.442 325.843C205.342 325.702 205.198 325.631 205.01 325.631C204.819 325.631 204.639 325.702 204.473 325.843C204.31 325.985 204.193 326.171 204.123 326.4V328.344H203.435V325.075H204.06V325.731C204.189 325.502 204.358 325.327 204.566 325.206C204.779 325.081 205.021 325.018 205.292 325.018C205.562 325.018 205.775 325.089 205.929 325.231C206.087 325.373 206.185 325.55 206.223 325.762C206.365 325.521 206.538 325.337 206.742 325.212C206.95 325.083 207.188 325.018 207.454 325.018C207.646 325.018 207.806 325.054 207.936 325.125C208.065 325.195 208.165 325.293 208.236 325.418C208.306 325.539 208.357 325.681 208.386 325.843C208.419 326.002 208.436 326.171 208.436 326.35V328.344ZM208.99 327.387C208.99 327.179 209.049 326.998 209.166 326.844C209.286 326.685 209.451 326.564 209.659 326.481C209.868 326.394 210.109 326.35 210.384 326.35C210.53 326.35 210.678 326.36 210.828 326.381C210.982 326.402 211.118 326.435 211.235 326.481V326.275C211.235 326.046 211.166 325.866 211.028 325.737C210.891 325.608 210.693 325.543 210.434 325.543C210.251 325.543 210.078 325.577 209.916 325.643C209.753 325.706 209.58 325.796 209.397 325.912L209.166 325.45C209.382 325.304 209.599 325.195 209.816 325.125C210.036 325.054 210.268 325.018 210.509 325.018C210.947 325.018 211.291 325.135 211.541 325.368C211.795 325.598 211.922 325.925 211.922 326.35V327.569C211.922 327.648 211.935 327.704 211.96 327.737C211.989 327.771 212.037 327.79 212.103 327.794V328.344C212.041 328.356 211.985 328.365 211.935 328.369C211.885 328.373 211.843 328.375 211.81 328.375C211.664 328.375 211.553 328.34 211.478 328.269C211.403 328.198 211.36 328.115 211.347 328.019L211.328 327.831C211.187 328.015 211.005 328.156 210.784 328.256C210.564 328.356 210.341 328.406 210.116 328.406C209.899 328.406 209.705 328.363 209.534 328.275C209.363 328.183 209.23 328.06 209.134 327.906C209.038 327.752 208.99 327.579 208.99 327.387ZM211.072 327.587C211.122 327.533 211.162 327.479 211.191 327.425C211.22 327.371 211.235 327.323 211.235 327.281V326.906C211.118 326.86 210.995 326.827 210.866 326.806C210.737 326.781 210.609 326.769 210.484 326.769C210.234 326.769 210.03 326.819 209.872 326.919C209.718 327.019 209.641 327.156 209.641 327.331C209.641 327.427 209.666 327.519 209.716 327.606C209.77 327.694 209.845 327.765 209.941 327.819C210.041 327.873 210.164 327.9 210.309 327.9C210.459 327.9 210.603 327.871 210.741 327.812C210.878 327.754 210.989 327.679 211.072 327.587ZM214.613 328.406C214.35 328.406 214.119 328.344 213.919 328.219C213.719 328.094 213.561 327.931 213.444 327.731V329.675H212.756V325.075H213.363V325.662C213.488 325.466 213.65 325.31 213.85 325.193C214.05 325.077 214.273 325.018 214.519 325.018C214.744 325.018 214.95 325.064 215.138 325.156C215.325 325.243 215.488 325.366 215.625 325.525C215.763 325.683 215.869 325.864 215.944 326.069C216.023 326.269 216.063 326.481 216.063 326.706C216.063 327.019 216 327.304 215.875 327.562C215.755 327.821 215.584 328.027 215.363 328.181C215.146 328.331 214.896 328.406 214.613 328.406ZM214.388 327.819C214.534 327.819 214.665 327.787 214.782 327.725C214.902 327.662 215.005 327.579 215.088 327.475C215.175 327.371 215.242 327.252 215.288 327.119C215.334 326.985 215.357 326.848 215.357 326.706C215.357 326.556 215.332 326.414 215.282 326.281C215.232 326.148 215.159 326.031 215.063 325.931C214.971 325.831 214.863 325.752 214.738 325.693C214.617 325.635 214.484 325.606 214.338 325.606C214.25 325.606 214.159 325.623 214.063 325.656C213.967 325.689 213.877 325.735 213.794 325.793C213.711 325.852 213.638 325.921 213.575 326C213.513 326.079 213.469 326.162 213.444 326.25V327.106C213.502 327.239 213.579 327.36 213.675 327.469C213.771 327.573 213.881 327.658 214.006 327.725C214.132 327.787 214.259 327.819 214.388 327.819ZM217.844 328.406C217.569 328.406 217.309 328.363 217.063 328.275C216.817 328.183 216.606 328.048 216.431 327.869L216.688 327.406C216.875 327.573 217.063 327.694 217.25 327.769C217.442 327.844 217.632 327.881 217.819 327.881C218.011 327.881 218.167 327.846 218.288 327.775C218.409 327.7 218.469 327.592 218.469 327.45C218.469 327.346 218.438 327.269 218.375 327.219C218.313 327.169 218.221 327.125 218.1 327.087C217.984 327.05 217.842 327.008 217.675 326.962C217.442 326.892 217.246 326.819 217.088 326.744C216.929 326.664 216.811 326.569 216.731 326.456C216.652 326.344 216.613 326.2 216.613 326.025C216.613 325.812 216.667 325.631 216.775 325.481C216.884 325.331 217.034 325.216 217.225 325.137C217.421 325.058 217.646 325.018 217.9 325.018C218.138 325.018 218.357 325.056 218.557 325.131C218.761 325.202 218.94 325.314 219.094 325.468L218.8 325.925C218.655 325.791 218.505 325.693 218.35 325.631C218.2 325.568 218.038 325.537 217.863 325.537C217.763 325.537 217.667 325.55 217.575 325.575C217.484 325.596 217.406 325.637 217.344 325.7C217.286 325.758 217.256 325.841 217.256 325.95C217.256 326.037 217.281 326.108 217.331 326.162C217.381 326.216 217.457 326.262 217.557 326.3C217.657 326.337 217.779 326.379 217.925 326.425C218.18 326.5 218.396 326.575 218.575 326.65C218.755 326.721 218.892 326.814 218.988 326.931C219.088 327.044 219.138 327.2 219.138 327.4C219.138 327.717 219.019 327.965 218.782 328.144C218.548 328.319 218.236 328.406 217.844 328.406Z" fill="#C50000"/>
<path d="M179.245 146.553H182.908L183.985 141.183C184.167 140.239 184.316 139.244 184.482 138.316H184.548C184.664 139.244 184.83 140.239 185.029 141.183L186.139 146.553H189.868L192.006 134.206H189.205L188.393 139.841C188.244 141.117 188.078 142.426 187.929 143.752H187.846C187.598 142.426 187.382 141.1 187.134 139.841L185.858 134.206H183.355L182.096 139.841C181.847 141.117 181.598 142.426 181.366 143.752H181.3C181.134 142.426 180.969 141.134 180.803 139.841L180.024 134.206H177.008L179.245 146.553ZM197.561 146.553H199.5V141.018H204.72V146.553H206.642V134.355H204.72V139.344H199.5V134.355H197.561V146.553ZM213.341 146.785C215.595 146.785 217.633 145.028 217.633 142.012C217.633 138.963 215.595 137.206 213.341 137.206C211.071 137.206 209.049 138.963 209.049 142.012C209.049 145.028 211.071 146.785 213.341 146.785ZM213.341 145.21C211.899 145.21 211.021 143.934 211.021 142.012C211.021 140.073 211.899 138.797 213.341 138.797C214.766 138.797 215.678 140.073 215.678 142.012C215.678 143.934 214.766 145.21 213.341 145.21ZM222.504 146.785C223.183 146.785 223.796 146.603 224.31 146.437L223.962 145.028C223.68 145.144 223.299 145.26 222.984 145.26C222.04 145.26 221.642 144.68 221.642 143.603V138.963H224.028V137.438H221.642V134.919H220.051L219.835 137.438L218.41 137.537V138.963H219.736V143.586C219.736 145.492 220.465 146.785 222.504 146.785ZM229.48 146.785C230.673 146.785 231.717 146.387 232.563 145.824L231.9 144.597C231.22 145.028 230.541 145.277 229.729 145.277C228.154 145.277 227.061 144.249 226.911 142.509H232.828C232.878 142.277 232.911 141.913 232.911 141.531C232.911 138.946 231.601 137.206 229.198 137.206C227.077 137.206 225.039 139.045 225.039 142.012C225.039 145.012 226.994 146.785 229.48 146.785ZM226.878 141.183C227.077 139.592 228.088 138.714 229.232 138.714C230.557 138.714 231.253 139.609 231.253 141.183H226.878ZM236.961 146.785C237.442 146.785 237.74 146.702 237.989 146.619L237.74 145.177C237.574 145.21 237.508 145.21 237.425 145.21C237.193 145.21 236.978 145.028 236.978 144.514V133.361H235.055V144.415C235.055 145.89 235.569 146.785 236.961 146.785Z" fill="#6D6D6D"/>
<path d="M177.555 114.04H178.524V111.273H181.134V114.04H182.096V107.941H181.134V110.436H178.524V107.941H177.555V114.04ZM185.445 114.156C186.572 114.156 187.591 113.278 187.591 111.77C187.591 110.245 186.572 109.367 185.445 109.367C184.31 109.367 183.299 110.245 183.299 111.77C183.299 113.278 184.31 114.156 185.445 114.156ZM185.445 113.369C184.724 113.369 184.285 112.731 184.285 111.77C184.285 110.8 184.724 110.162 185.445 110.162C186.158 110.162 186.613 110.8 186.613 111.77C186.613 112.731 186.158 113.369 185.445 113.369ZM190.026 114.156C190.366 114.156 190.672 114.065 190.929 113.982L190.755 113.278C190.614 113.336 190.424 113.394 190.266 113.394C189.794 113.394 189.595 113.104 189.595 112.565V110.245H190.788V109.483H189.595V108.223H188.8L188.692 109.483L187.979 109.532V110.245H188.642V112.557C188.642 113.51 189.007 114.156 190.026 114.156ZM193.514 114.156C194.111 114.156 194.633 113.957 195.056 113.676L194.724 113.062C194.384 113.278 194.045 113.402 193.639 113.402C192.852 113.402 192.305 112.888 192.23 112.018H195.188C195.213 111.902 195.23 111.72 195.23 111.529C195.23 110.237 194.575 109.367 193.374 109.367C192.313 109.367 191.294 110.286 191.294 111.77C191.294 113.269 192.271 114.156 193.514 114.156ZM192.213 111.355C192.313 110.56 192.818 110.121 193.39 110.121C194.053 110.121 194.401 110.568 194.401 111.355H192.213ZM197.255 114.156C197.495 114.156 197.644 114.115 197.769 114.073L197.644 113.352C197.561 113.369 197.528 113.369 197.487 113.369C197.371 113.369 197.263 113.278 197.263 113.021V107.444H196.302V112.971C196.302 113.709 196.559 114.156 197.255 114.156ZM202.893 114.156C203.913 114.156 204.865 113.245 204.865 111.645C204.865 110.22 204.178 109.292 203.042 109.292C202.578 109.292 202.123 109.516 201.75 109.839L201.791 109.102V107.436H200.573V114.04H201.526L201.626 113.551H201.659C202.032 113.941 202.479 114.156 202.893 114.156ZM202.628 113.153C202.38 113.153 202.073 113.071 201.791 112.814V110.767C202.098 110.444 202.388 110.286 202.694 110.286C203.341 110.286 203.614 110.775 203.614 111.67C203.614 112.673 203.183 113.153 202.628 113.153ZM206.879 114.156C207.409 114.156 207.874 113.899 208.28 113.551H208.313L208.404 114.04H209.398V111.339C209.398 109.988 208.793 109.292 207.617 109.292C206.879 109.292 206.225 109.566 205.678 109.897L206.117 110.709C206.539 110.452 206.962 110.27 207.393 110.27C207.965 110.27 208.155 110.61 208.18 111.065C206.316 111.273 205.512 111.795 205.512 112.781C205.512 113.576 206.051 114.156 206.879 114.156ZM207.277 113.203C206.921 113.203 206.672 113.046 206.672 112.689C206.672 112.267 207.045 111.96 208.18 111.819V112.756C207.882 113.046 207.625 113.203 207.277 113.203ZM211.965 114.156C213.167 114.156 213.805 113.51 213.805 112.689C213.805 111.836 213.134 111.521 212.521 111.289C212.023 111.115 211.601 110.982 211.601 110.651C211.601 110.378 211.791 110.195 212.214 110.195C212.554 110.195 212.885 110.361 213.208 110.593L213.764 109.864C213.382 109.566 212.852 109.292 212.181 109.292C211.12 109.292 210.457 109.88 210.457 110.701C210.457 111.488 211.112 111.836 211.7 112.068C212.181 112.25 212.67 112.416 212.67 112.756C212.67 113.046 212.454 113.253 211.99 113.253C211.559 113.253 211.17 113.062 210.747 112.739L210.2 113.51C210.656 113.891 211.344 114.156 211.965 114.156ZM216.764 114.156C217.336 114.156 217.916 113.966 218.372 113.651L217.966 112.897C217.626 113.104 217.294 113.22 216.922 113.22C216.234 113.22 215.737 112.83 215.629 112.068H218.496C218.521 111.952 218.546 111.737 218.546 111.505C218.546 110.22 217.891 109.292 216.607 109.292C215.513 109.292 214.452 110.22 214.452 111.728C214.452 113.261 215.463 114.156 216.764 114.156ZM215.612 111.256C215.712 110.576 216.143 110.228 216.632 110.228C217.228 110.228 217.51 110.626 217.51 111.256H215.612ZM219.557 114.04H220.775V110.85C221.115 110.518 221.355 110.336 221.736 110.336C222.184 110.336 222.391 110.576 222.391 111.306V114.04H223.609V111.148C223.609 109.988 223.17 109.292 222.175 109.292C221.546 109.292 221.065 109.624 220.667 110.021H220.642L220.543 109.408H219.557V114.04ZM224.865 114.04H226.083V111.281C226.34 110.61 226.779 110.361 227.136 110.361C227.335 110.361 227.459 110.394 227.625 110.436L227.832 109.392C227.691 109.325 227.542 109.292 227.293 109.292C226.813 109.292 226.307 109.615 225.976 110.228H225.951L225.851 109.408H224.865V114.04ZM229.866 114.156C230.496 114.156 230.935 113.85 231.341 113.377H231.366L231.457 114.04H232.452V109.408H231.242V112.532C230.927 112.946 230.678 113.112 230.297 113.112C229.841 113.112 229.643 112.863 229.643 112.151V109.408H228.424V112.3C228.424 113.468 228.864 114.156 229.866 114.156ZM233.957 114.04H235.175V109.01C235.175 108.497 235.374 108.273 235.739 108.273C235.896 108.273 236.07 108.314 236.228 108.381L236.46 107.469C236.253 107.395 235.938 107.32 235.573 107.32C234.413 107.32 233.957 108.066 233.957 109.027V114.04ZM233.336 110.361H236.054V109.408H234.032L233.336 109.458V110.361Z" fill="#AFAFAF"/>
<path d="M152.112 145.92H155.052V140.88H161.492V145.556L160.008 147.04H145.672V137.324L147.436 135.56H155.052V126.32H152.112V131.36H145.672V127.804L148.276 125.2H158.888L161.492 127.804V134.356L159.168 136.68H152.112V145.92Z" fill="#737373"/>
<path d="M156.531 113.642V114.237H150.066V113.642H151.701V103.238L150.006 104.932L149.545 104.471L151.374 102.643H155.119V113.642H156.531Z" fill="#B0B0B0"/>
<path d="M150.076 171.088H155.561L156.943 169.706V166.228L155.873 165.143L156.943 164.073V160.877L155.561 159.495H150.076L148.843 160.728V162.765H152.113V160.089H153.525V164.846H150.701V165.44H153.525V170.494H152.113V167.818H148.843V169.855L150.076 171.088Z" fill="#B0B0B0"/>
<path d="M154.342 192.224V194.156H152.856V194.751H158.727V194.156H157.687V188.36H155.1L154.342 189.787V191.63H151.949L155.442 185.06V183.157H152.499L148.545 190.589V192.224H154.342Z" fill="#D5D5D5"/>
<path d="M250.677 71.4166V72.1645H258.049V71.4166H250.677ZM253.971 71.8083V73.6068H254.897V71.8083H253.971ZM251.576 74.3991V75.1559H257.23V74.3991H251.576ZM251.576 72.9301V74.7019H252.502V72.9301H251.576ZM251.639 67.4369V70.7311H257.087V67.4369H256.161V68.3806H252.556V67.4369H251.639ZM252.556 69.0929H256.161V69.9921H252.556V69.0929Z" fill="#8E8E8E"/>
<rect x="235.798" y="66.3586" width="12.6976" height="10.29" rx="2.16396" fill="#858585" fill-opacity="0.5"/>
<path d="M239.182 74.7019C240.393 74.7019 241.381 74.0074 241.381 72.8233C241.381 71.933 240.784 71.3721 240.028 71.1762V71.1317C240.722 70.8735 241.158 70.3482 241.158 69.5915C241.158 68.5142 240.33 67.9088 239.155 67.9088C238.398 67.9088 237.793 68.2293 237.268 68.6922L237.811 69.3422C238.185 68.9682 238.612 68.7279 239.111 68.7279C239.743 68.7279 240.117 69.0929 240.117 69.6716C240.117 70.3304 239.689 70.8112 238.407 70.8112V71.5769C239.876 71.5769 240.339 72.0398 240.339 72.7699C240.339 73.4465 239.832 73.8561 239.102 73.8561C238.416 73.8561 237.935 73.5266 237.553 73.1349L237.045 73.7937C237.49 74.2923 238.158 74.7019 239.182 74.7019ZM244.42 74.7019C245.702 74.7019 246.539 73.5533 246.539 71.2741C246.539 69.0128 245.702 67.9088 244.42 67.9088C243.129 67.9088 242.301 69.0128 242.301 71.2741C242.301 73.5533 243.129 74.7019 244.42 74.7019ZM244.42 73.8828C243.752 73.8828 243.28 73.1705 243.28 71.2741C243.28 69.4045 243.752 68.71 244.42 68.71C245.087 68.71 245.55 69.4045 245.55 71.2741C245.55 73.1705 245.087 73.8828 244.42 73.8828Z" fill="white"/>
<rect x="147.9" y="66.2992" width="83.6561" height="9.54008" rx="4.61104" fill="#F8F8F8" stroke="#808080" stroke-width="0.318003"/>
<path d="M159.512 71.1116V72.0078H160.055V71.1116H159.512ZM157.118 70.7911V71.2097H162.456V70.7911H157.118ZM159.519 68.1286V68.8482H160.055V68.1286H159.519ZM159.493 68.9005V68.9921C159.493 69.6266 158.564 70.0388 157.399 70.1107L157.556 70.5294C158.865 70.4182 159.97 69.921 159.97 68.9921V68.9005H159.493ZM159.604 68.9005V68.9921C159.604 69.921 160.703 70.4182 162.011 70.5294L162.168 70.1107C161.01 70.0388 160.081 69.6266 160.081 68.9921V68.9005H159.604ZM157.661 68.6846V69.0967H161.913V68.6846H157.661ZM157.759 71.7462V72.1583H161.239V72.662H157.772V73.761H158.308V73.048H161.776V71.7462H157.759ZM157.772 73.604V74.0162H161.952V73.604H157.772ZM163.378 68.4099V70.9939H166.112V68.4099H165.582V69.2603H163.914V68.4099H163.378ZM163.914 69.6855H165.582V70.5556H163.914V69.6855ZM167.179 68.1678V71.2163H167.722V68.1678H167.179ZM167.486 69.4369V69.8883H168.592V69.4369H167.486ZM163.967 71.5041V71.9359H167.192V72.5312H163.98V73.8264H164.516V72.9368H167.722V71.5041H163.967ZM163.98 73.5844V74.0162H167.937V73.5844H163.98ZM170.717 69.0117V69.9733C170.717 70.9939 170.004 72.106 169.147 72.5116L169.461 72.9433C170.403 72.4788 171.155 71.2228 171.155 69.9733V69.0117H170.717ZM170.822 69.0117V69.9733C170.822 71.2032 171.581 72.3546 172.536 72.7994L172.843 72.3676C171.973 71.9948 171.26 70.9742 171.26 69.9733V69.0117H170.822ZM169.343 68.7697V69.2276H172.647V68.7697H169.343ZM173.445 68.1678V74.0816H173.988V68.1678H173.445ZM175.165 70.9154V71.3275H180.529V70.9154H175.165ZM175.8 71.805V72.191H179.326V72.6947H175.819V73.761H176.356V73.0676H179.856V71.805H175.8ZM175.819 73.6171V74.0096H180.045V73.6171H175.819ZM175.845 68.3379V68.7239H179.306V69.2014H175.858V70.2088H176.395V69.5678H179.836V68.3379H175.845ZM175.858 70.078V70.4705H179.947V70.078H175.858ZM187.168 68.1678V71.3406H187.717V68.1678H187.168ZM183.903 71.635V74.0031H187.717V71.635H187.181V72.3546H184.44V71.635H183.903ZM184.44 72.7863H187.181V73.5648H184.44V72.7863ZM184.544 68.4491C183.648 68.4491 183.001 69.0052 183.001 69.8098C183.001 70.621 183.648 71.177 184.544 71.177C185.441 71.177 186.082 70.621 186.082 69.8098C186.082 69.0052 185.441 68.4491 184.544 68.4491ZM184.544 68.9005C185.133 68.9005 185.558 69.2734 185.558 69.8098C185.558 70.3462 185.133 70.7191 184.544 70.7191C183.956 70.7191 183.53 70.3462 183.53 69.8098C183.53 69.2734 183.956 68.9005 184.544 68.9005ZM189.13 71.0985V71.5434H189.555C190.739 71.5434 191.328 71.5237 192.06 71.3929L192.001 70.9546C191.295 71.0789 190.719 71.0985 189.555 71.0985H189.13ZM189.117 68.5211V68.9659H191.131V69.7771H189.13V71.3667H189.666V70.2023H191.668V68.5211H189.117ZM193.205 68.1744V71.805H193.748V68.1744H193.205ZM192.06 69.0444V69.4893H193.329V69.0444H192.06ZM192.06 70.2677V70.7126H193.329V70.2677H192.06ZM189.79 72.1256V72.5704H193.205V74.0947H193.748V72.1256H189.79ZM198.909 68.1678V74.0816H199.452V68.1678H198.909ZM199.321 70.5948V71.0527H200.42V70.5948H199.321ZM194.873 69.1098V69.5547H198.36V69.1098H194.873ZM196.639 70.0453C195.808 70.0453 195.2 70.6079 195.2 71.406C195.2 72.2041 195.808 72.7667 196.639 72.7667C197.476 72.7667 198.078 72.2041 198.078 71.406C198.078 70.6079 197.476 70.0453 196.639 70.0453ZM196.639 70.4967C197.176 70.4967 197.561 70.8696 197.561 71.406C197.561 71.9359 197.176 72.3153 196.639 72.3153C196.103 72.3153 195.717 71.9359 195.717 71.406C195.717 70.8696 196.103 70.4967 196.639 70.4967ZM196.358 68.2398V69.3126H196.901V68.2398H196.358ZM203.252 70.2808V70.7322H204.384V70.2808H203.252ZM202.147 68.7239V69.8491C202.147 70.863 201.663 71.9228 200.851 72.4003L201.192 72.8125C202.055 72.2826 202.572 71.0854 202.572 69.8491V68.7239H202.147ZM202.251 68.7239V69.8294C202.251 70.9808 202.729 72.1583 203.579 72.6816L203.893 72.2564C203.115 71.7854 202.67 70.778 202.67 69.8294V68.7239H202.251ZM205.424 68.1678V74.0816H205.948V68.1678H205.424ZM204.227 68.2921V73.7872H204.737V68.2921H204.227ZM208.25 71.2097V72.9826H208.786V71.2097H208.25ZM210.435 71.2097V72.9826H210.978V71.2097H210.435ZM206.941 72.8779V73.3293H212.299V72.8779H206.941ZM209.61 68.5407C208.354 68.5407 207.458 69.136 207.458 70.0649C207.458 70.9873 208.354 71.5826 209.61 71.5826C210.86 71.5826 211.756 70.9873 211.756 70.0649C211.756 69.136 210.86 68.5407 209.61 68.5407ZM209.61 68.9725C210.559 68.9725 211.233 69.4042 211.233 70.0649C211.233 70.7191 210.559 71.1509 209.61 71.1509C208.662 71.1509 207.981 70.7191 207.981 70.0649C207.981 69.4042 208.662 68.9725 209.61 68.9725Z" fill="#8C8C8C"/>
<circle cx="222.26" cy="69.7592" r="1.99499" transform="rotate(45 222.26 69.7592)" fill="#F8F8F8" stroke="#424242" stroke-width="0.74812"/>
<path d="M224.149 70.4261L227.339 73.6159C227.621 73.8972 227.621 74.3534 227.339 74.6348V74.6348C227.058 74.9161 226.602 74.9161 226.32 74.6348L223.131 71.445L224.149 70.4261Z" fill="#424242"/>
<g opacity="0.5">
<circle cx="7.83081" cy="78.257" r="7.83081" fill="#C50000"/>
<path d="M4.69105 82.257H6.48105V79.197H8.93106V82.257H10.7111V74.807H8.93106V77.647H6.48105V74.807H4.69105V82.257Z" fill="#FCFCFC"/>
</g>
<g opacity="0.5">
<circle cx="61.0779" cy="211.582" r="7.83081" fill="#C50000"/>
<path d="M57.9381 215.582H59.7281V212.522H62.1781V215.582H63.9581V208.132H62.1781V210.972H59.7281V208.132H57.9381V215.582Z" fill="#FCFCFC"/>
</g>
<g opacity="0.5">
<circle cx="15.6616" cy="271.527" r="7.83081" fill="#C50000"/>
<path d="M12.5219 275.527H14.3119V272.467H16.7619V275.527H18.5419V268.077H16.7619V270.917H14.3119V268.077H12.5219V275.527Z" fill="#FCFCFC"/>
</g>
<rect opacity="0.5" x="176.759" y="224.118" width="122.24" height="20.2935" rx="10.1468" fill="#FFF3D5"/>
<path opacity="0.5" d="M193.057 259.283C193.057 253.679 197.6 249.136 203.204 249.136H313.795C319.399 249.136 323.942 253.679 323.942 259.283V259.283C323.942 264.887 319.399 269.43 313.795 269.43H203.204C197.6 269.43 193.057 264.887 193.057 259.283V259.283Z" fill="#C6EBDD"/>
<path d="M224.693 259.599V262.237H225.519V259.599H224.693ZM221.832 259.337V260.02H228.396V259.337H221.832ZM224.685 256.238V256.421C224.685 257.223 223.66 258.026 222.206 258.209L222.5 258.868C224.192 258.638 225.416 257.653 225.416 256.421V256.238H224.685ZM224.796 256.238V256.421C224.796 257.629 226.012 258.646 227.704 258.868L227.998 258.209C226.552 258.026 225.519 257.208 225.519 256.421V256.238H224.796ZM222.444 255.833V256.5H227.776V255.833H222.444ZM224.693 254.975V256.063H225.519V254.975H224.693ZM230.866 256.357V256.683C230.866 257.645 230.246 258.535 229.126 258.9L229.531 259.552C230.818 259.123 231.55 258.002 231.55 256.683V256.357H230.866ZM231.017 256.357V256.683C231.017 257.947 231.772 259.027 233.051 259.424L233.457 258.773C232.336 258.423 231.7 257.581 231.7 256.683V256.357H231.017ZM229.341 255.889V256.548H233.226V255.889H229.341ZM230.866 255.015V256.135H231.7V255.015H230.866ZM232.988 257.144V257.827H234.752V257.144H232.988ZM234.323 254.975V260.37H235.157V254.975H234.323ZM230.453 261.411V262.086H235.34V261.411H230.453ZM230.453 259.901V261.816H231.279V259.901H230.453ZM239.055 255.261V257.772H243.957V255.261H239.055ZM243.139 255.92V257.112H239.873V255.92H243.139ZM238.228 258.582V259.25H244.792V258.582H238.228ZM241.097 257.613V258.797H241.923V257.613H241.097ZM238.959 259.901V260.561H243.163V262.229H243.989V259.901H238.959ZM247.318 255.698V256.23C247.318 257.208 246.666 258.169 245.538 258.55L245.959 259.21C247.254 258.765 247.993 257.573 247.993 256.23V255.698H247.318ZM247.485 255.698V256.23C247.485 257.478 248.192 258.622 249.447 259.059L249.86 258.399C248.772 258.026 248.152 257.128 248.152 256.23V255.698H247.485ZM249.455 256.786V257.47H250.965V256.786H249.455ZM245.776 255.42V256.087H249.67V255.42H245.776ZM246.666 259.663V260.338H250.727V262.229H251.561V259.663H246.666ZM250.727 254.967V259.297H251.561V254.967H250.727ZM254.699 256.055V257.073C254.699 258.312 253.944 259.671 252.824 260.187L253.3 260.847C254.548 260.251 255.366 258.67 255.366 257.073V256.055H254.699ZM254.874 256.055V257.073C254.874 258.63 255.692 260.1 256.955 260.664L257.416 260.005C256.28 259.528 255.533 258.272 255.533 257.073V256.055H254.874ZM253.086 255.69V256.381H257.146V255.69H253.086ZM257.996 254.967V262.229H258.831V254.967H257.996ZM264.895 261.57H265.832C265.935 259.289 266.15 257.994 267.517 256.278V255.722H263.758V256.5H266.508C265.371 258.074 264.998 259.44 264.895 261.57ZM273.51 254.919V262.277H274.519V254.919H273.51ZM272.581 257.692V258.535H273.796V257.692H272.581ZM270.388 255.817V256.04C270.388 257.804 269.8 259.043 268.123 260.036L268.735 260.767C270.793 259.568 271.397 257.891 271.397 255.817H270.388ZM268.497 255.817V256.667H270.698V255.817H268.497ZM271.881 255.11V261.959H272.867V255.11H271.881ZM292.441 261.57H296.382V260.585H295.111C294.833 260.585 294.443 260.624 294.149 260.656C295.222 259.607 296.112 258.463 296.112 257.39C296.112 256.294 295.365 255.587 294.261 255.587C293.458 255.587 292.926 255.897 292.385 256.477L293.029 257.112C293.331 256.779 293.673 256.5 294.11 256.5C294.674 256.5 294.984 256.866 294.984 257.454C294.984 258.36 294.046 259.464 292.441 260.902V261.57ZM297.128 261.57H301.069V260.585H299.798C299.52 260.585 299.13 260.624 298.836 260.656C299.909 259.607 300.799 258.463 300.799 257.39C300.799 256.294 300.052 255.587 298.948 255.587C298.145 255.587 297.613 255.897 297.072 256.477L297.716 257.112C298.018 256.779 298.36 256.5 298.797 256.5C299.361 256.5 299.671 256.866 299.671 257.454C299.671 258.36 298.733 259.464 297.128 260.902V261.57ZM302.125 261.57H305.668V260.624H304.564V255.69H303.698C303.317 255.92 302.919 256.071 302.323 256.183V256.906H303.396V260.624H302.125V261.57Z" fill="#636363"/>
<path d="M277.307 260.927V261.358H282.42V260.927H277.307ZM279.586 259.466V261.12H280.104V259.466H279.586ZM277.75 256.95V257.374H281.939V256.95H277.75ZM277.763 259.222V259.641H281.933V259.222H277.763ZM278.631 257.293V259.297H279.149V257.293H278.631ZM280.553 257.293V259.297H281.065V257.293H280.553ZM286.909 256.413V259.809H287.427V256.413H286.909ZM287.283 257.911V258.342H288.263V257.911H287.283ZM283.881 260.128V261.982H287.427V260.128H283.881ZM286.921 260.546V261.564H284.386V260.546H286.921ZM283.063 257.006V257.431H286.397V257.006H283.063ZM284.73 257.705C283.918 257.705 283.375 258.105 283.375 258.717C283.375 259.329 283.918 259.716 284.73 259.716C285.535 259.716 286.078 259.329 286.078 258.717C286.078 258.105 285.535 257.705 284.73 257.705ZM284.73 258.105C285.235 258.105 285.585 258.342 285.585 258.717C285.585 259.085 285.235 259.322 284.73 259.322C284.212 259.322 283.868 259.085 283.868 258.717C283.868 258.342 284.212 258.105 284.73 258.105ZM284.467 256.363V257.225H284.986V256.363H284.467ZM291.49 262.8L291.84 262.637C291.303 261.751 291.04 260.696 291.04 259.634C291.04 258.573 291.303 257.518 291.84 256.632L291.49 256.463C290.909 257.399 290.566 258.411 290.566 259.634C290.566 260.864 290.909 261.863 291.49 262.8ZM306.474 259.391V259.816H311.587V259.391H306.474ZM308.809 259.603V260.902H309.327V259.603H308.809ZM307.123 261.507V261.932H311.019V261.507H307.123ZM307.123 260.402V261.67H307.635V260.402H307.123ZM307.154 256.588V258.848H310.913V256.588H310.394V257.306H307.666V256.588H307.154ZM307.666 257.712H310.394V258.43H307.666V257.712ZM312.529 262.8C313.104 261.863 313.447 260.864 313.447 259.634C313.447 258.411 313.104 257.399 312.529 256.463L312.173 256.632C312.71 257.518 312.972 258.573 312.972 259.634C312.972 260.696 312.71 261.751 312.173 262.637L312.529 262.8Z" fill="#838383"/>
<path d="M208.153 232.599V233.29H209.464V232.599H208.153ZM207.541 229.762V237.025H208.375V229.762H207.541ZM203.004 230.469V234.975H203.83V230.469H203.004ZM203.004 234.522V235.221H203.6C204.689 235.221 205.825 235.149 207.049 234.895L206.953 234.212C205.769 234.45 204.657 234.522 203.6 234.522H203.004ZM212.403 230.279C211.267 230.279 210.425 230.994 210.425 232.019C210.425 233.052 211.267 233.767 212.403 233.767C213.54 233.767 214.366 233.052 214.366 232.019C214.366 230.994 213.54 230.279 212.403 230.279ZM212.403 230.994C213.063 230.994 213.556 231.391 213.556 232.019C213.556 232.646 213.063 233.052 212.403 233.052C211.736 233.052 211.243 232.646 211.243 232.019C211.243 231.391 211.736 230.994 212.403 230.994ZM215.2 229.762V237.041H216.035V229.762H215.2ZM210.194 235.507C211.474 235.507 213.222 235.491 214.827 235.181L214.763 234.577C213.198 234.808 211.394 234.824 210.091 234.824L210.194 235.507ZM219.972 230.064V232.575H224.875V230.064H219.972ZM224.056 230.724V231.915H220.791V230.724H224.056ZM219.146 233.385V234.053H225.709V233.385H219.146ZM222.014 232.416V233.6H222.841V232.416H222.014ZM219.877 234.704V235.364H224.08V237.033H224.907V234.704H219.877ZM228.235 230.501V231.033C228.235 232.011 227.584 232.972 226.455 233.354L226.876 234.013C228.172 233.568 228.911 232.376 228.911 231.033V230.501H228.235ZM228.402 230.501V231.033C228.402 232.281 229.109 233.425 230.365 233.862L230.778 233.203C229.689 232.829 229.07 231.931 229.07 231.033V230.501H228.402ZM230.373 231.59V232.273H231.882V231.59H230.373ZM226.694 230.223V230.89H230.587V230.223H226.694ZM227.584 234.466V235.141H231.644V237.033H232.478V234.466H227.584ZM231.644 229.77V234.101H232.478V229.77H231.644ZM235.616 230.859V231.876C235.616 233.115 234.861 234.474 233.741 234.991L234.218 235.65C235.465 235.054 236.284 233.473 236.284 231.876V230.859H235.616ZM235.791 230.859V231.876C235.791 233.433 236.61 234.903 237.873 235.467L238.334 234.808C237.198 234.331 236.451 233.076 236.451 231.876V230.859H235.791ZM234.003 230.493V231.184H238.064V230.493H234.003ZM238.914 229.77V237.033H239.748V229.77H238.914ZM246.456 236.484C247.584 236.484 248.53 235.865 248.53 234.784C248.53 234.005 248.021 233.521 247.354 233.33V233.29C247.981 233.052 248.331 232.583 248.331 231.955C248.331 230.946 247.56 230.39 246.424 230.39C245.741 230.39 245.176 230.668 244.668 231.105L245.264 231.828C245.613 231.502 245.955 231.304 246.376 231.304C246.877 231.304 247.163 231.582 247.163 232.043C247.163 232.567 246.813 232.933 245.733 232.933V233.775C247.012 233.775 247.354 234.132 247.354 234.712C247.354 235.237 246.948 235.539 246.344 235.539C245.812 235.539 245.391 235.269 245.041 234.927L244.485 235.666C244.898 236.143 245.526 236.484 246.456 236.484ZM254.583 229.722V237.08H255.592V229.722H254.583ZM253.653 232.496V233.338H254.869V232.496H253.653ZM251.46 230.62V230.843C251.46 232.607 250.872 233.846 249.196 234.84L249.808 235.571C251.866 234.371 252.469 232.694 252.469 230.62H251.46ZM249.569 230.62V231.47H251.77V230.62H249.569ZM252.954 229.913V236.762H253.939V229.913H252.954ZM275.373 236.484C276.454 236.484 277.431 235.729 277.431 234.426C277.431 233.139 276.605 232.559 275.619 232.559C275.349 232.559 275.143 232.615 274.912 232.718L275.023 231.47H277.161V230.493H274.014L273.847 233.346L274.388 233.695C274.729 233.473 274.92 233.385 275.27 233.385C275.858 233.385 276.255 233.767 276.255 234.45C276.255 235.149 275.834 235.539 275.214 235.539C274.674 235.539 274.253 235.269 273.927 234.943L273.379 235.682C273.824 236.119 274.443 236.484 275.373 236.484ZM279.337 236.373H280.521C280.624 234.077 280.799 232.869 282.166 231.2V230.493H278.264V231.47H280.91C279.782 233.028 279.448 234.339 279.337 236.373Z" fill="#636363"/>
<path d="M258.38 235.73V236.161H263.493V235.73H258.38ZM260.658 234.269V235.924H261.177V234.269H260.658ZM258.823 231.753V232.178H263.012V231.753H258.823ZM258.835 234.026V234.444H263.006V234.026H258.835ZM259.703 232.097V234.101H260.221V232.097H259.703ZM261.626 232.097V234.101H262.138V232.097H261.626ZM267.981 231.216V234.613H268.499V231.216H267.981ZM268.356 232.715V233.145H269.336V232.715H268.356ZM264.953 234.931V236.785H268.499V234.931H264.953ZM267.994 235.349V236.367H265.459V235.349H267.994ZM264.135 231.809V232.234H267.469V231.809H264.135ZM265.802 232.509C264.991 232.509 264.448 232.908 264.448 233.52C264.448 234.132 264.991 234.519 265.802 234.519C266.608 234.519 267.151 234.132 267.151 233.52C267.151 232.908 266.608 232.509 265.802 232.509ZM265.802 232.908C266.308 232.908 266.658 233.145 266.658 233.52C266.658 233.888 266.308 234.126 265.802 234.126C265.284 234.126 264.941 233.888 264.941 233.52C264.941 233.145 265.284 232.908 265.802 232.908ZM265.54 231.166V232.028H266.058V231.166H265.54ZM272.563 237.603L272.912 237.441C272.375 236.554 272.113 235.499 272.113 234.438C272.113 233.376 272.375 232.321 272.912 231.435L272.563 231.266C271.982 232.203 271.639 233.214 271.639 234.438C271.639 235.668 271.982 236.667 272.563 237.603ZM282.86 234.194V234.619H287.973V234.194H282.86ZM285.195 234.407V235.705H285.713V234.407H285.195ZM283.509 236.311V236.735H287.405V236.311H283.509ZM283.509 235.206V236.473H284.021V235.206H283.509ZM283.54 231.391V233.651H287.299V231.391H286.78V232.109H284.052V231.391H283.54ZM284.052 232.515H286.78V233.233H284.052V232.515ZM288.915 237.603C289.489 236.667 289.833 235.668 289.833 234.438C289.833 233.214 289.489 232.203 288.915 231.266L288.559 231.435C289.096 232.321 289.358 233.376 289.358 234.438C289.358 235.499 289.096 236.554 288.559 237.441L288.915 237.603Z" fill="#838383"/>
<defs>
<filter id="filter0_d_0_1" x="119.386" y="0" width="160.01" height="345.184" filterUnits="userSpaceOnUse" color-interpolation-filters="sRGB">
<feFlood flood-opacity="0" result="BackgroundImageFix"/>
<feColorMatrix in="SourceAlpha" type="matrix" values="0 0 0 0 0 0 0 0 0 0 0 0 0 0 0 0 0 0 127 0" result="hardAlpha"/>
<feOffset dy="4"/>
<feGaussianBlur stdDeviation="2"/>
<feComposite in2="hardAlpha" operator="out"/>
<feColorMatrix type="matrix" values="0 0 0 0 0 0 0 0 0 0 0 0 0 0 0 0 0 0 0.25 0"/>
<feBlend mode="normal" in2="BackgroundImageFix" result="effect1_dropShadow_0_1"/>
<feBlend mode="normal" in="SourceGraphic" in2="effect1_dropShadow_0_1" result="shape"/>
</filter>
</defs>
</svg>
